<?xml version="1.0" standalone="no"?>
<!DOCTYPE svg PUBLIC "-//W3C//DTD SVG 20010904//EN"
 "http://www.w3.org/TR/2001/REC-SVG-20010904/DTD/svg10.dtd">
<svg version="1.0" xmlns="http://www.w3.org/2000/svg"
 width="34.000000pt" height="31.000000pt" viewBox="0 0 34.000000 31.000000"
 preserveAspectRatio="xMidYMid meet">
<metadata>
Created by potrace 1.16, written by Peter Selinger 2001-2019
</metadata>
<g transform="translate(0.000000,31.000000) scale(0.100000,-0.100000)"
fill="#000000" stroke="none">
<path d="M193 215 c9 -132 35 -175 115 -191 30 -6 32 -5 32 24 0 23 -5 31 -25
36 -40 10 -57 47 -63 141 l-5 85 -30 0 -30 0 6 -95z"/>
<path d="M270 248 c0 -70 13 -103 49 -127 l24 -16 -8 50 c-4 28 -8 74 -7 103
0 51 0 52 -29 52 -29 0 -29 0 -29 -62z"/>
</g>
</svg>
