<?xml version="1.0" standalone="no"?>
<!DOCTYPE svg PUBLIC "-//W3C//DTD SVG 20010904//EN"
 "http://www.w3.org/TR/2001/REC-SVG-20010904/DTD/svg10.dtd">
<svg version="1.0" xmlns="http://www.w3.org/2000/svg"
 width="103.000000pt" height="30.000000pt" viewBox="0 0 103.000000 30.000000"
 preserveAspectRatio="xMidYMid meet">
<metadata>
Created by potrace 1.16, written by Peter Selinger 2001-2019
</metadata>
<g transform="translate(0.000000,30.000000) scale(0.100000,-0.100000)"
fill="#000000" stroke="none">
<path d="M101 246 c-13 -59 -65 -146 -87 -146 -9 0 -14 -11 -14 -30 0 -35 13
-37 57 -11 40 25 77 89 97 166 21 77 21 75 -12 75 -27 0 -30 -4 -41 -54z"/>
<path d="M180 265 c0 -54 -37 -140 -86 -197 -24 -28 -44 -55 -44 -60 0 -4 15
-8 34 -8 28 0 41 8 70 42 42 49 76 132 83 206 l6 52 -32 0 c-29 0 -31 -2 -31
-35z"/>
</g>
</svg>
