<?xml version="1.0" standalone="no"?>
<!DOCTYPE svg PUBLIC "-//W3C//DTD SVG 20010904//EN"
 "http://www.w3.org/TR/2001/REC-SVG-20010904/DTD/svg10.dtd">
<svg version="1.0" xmlns="http://www.w3.org/2000/svg"
 width="129.000000pt" height="149.000000pt" viewBox="0 0 129.000000 149.000000"
 preserveAspectRatio="xMidYMid meet">
<metadata>
Created by potrace 1.16, written by Peter Selinger 2001-2019
</metadata>
<g transform="translate(0.000000,149.000000) scale(0.100000,-0.100000)"
fill="#000000" stroke="none">
<path d="M144 1465 c-35 -35 -66 -107 -110 -253 -33 -111 -36 -127 -25 -163
12 -41 35 -54 82 -47 22 3 43 32 65 93 7 17 8 16 11 -10 57 -490 117 -908 143
-1006 15 -53 42 -79 84 -79 43 0 73 35 80 93 3 23 10 84 16 136 10 89 35 164
109 334 l21 48 64 -73 c141 -161 233 -213 271 -154 18 27 20 38 29 121 12 125
16 186 21 380 6 213 12 335 21 400 11 85 21 92 64 50 24 -23 28 -24 40 -10 11
13 15 12 32 -10 19 -25 69 -34 94 -17 16 10 34 48 34 70 0 26 -41 62 -72 62
-15 0 -47 9 -73 20 -42 18 -100 26 -163 21 -33 -2 -70 -47 -87 -105 -19 -66
-42 -278 -51 -459 -3 -78 -8 -151 -9 -162 -2 -11 -4 -37 -4 -59 l-1 -39 -84
81 c-133 128 -191 133 -250 22 -17 -30 -47 -102 -67 -160 -21 -58 -38 -94 -38
-80 -1 14 -12 149 -26 300 -28 305 -56 508 -80 587 -26 87 -91 118 -141 68z"/>
</g>
</svg>
