<?xml version="1.0" standalone="no"?>
<!DOCTYPE svg PUBLIC "-//W3C//DTD SVG 20010904//EN"
 "http://www.w3.org/TR/2001/REC-SVG-20010904/DTD/svg10.dtd">
<svg version="1.0" xmlns="http://www.w3.org/2000/svg"
 width="130.000000pt" height="151.000000pt" viewBox="0 0 130.000000 151.000000"
 preserveAspectRatio="xMidYMid meet">
<metadata>
Created by potrace 1.16, written by Peter Selinger 2001-2019
</metadata>
<g transform="translate(0.000000,151.000000) scale(0.100000,-0.100000)"
fill="#000000" stroke="none">
<path d="M1065 1504 c-152 -18 -243 -31 -450 -65 -378 -63 -555 -102 -577
-129 -40 -49 -4 -120 61 -120 26 0 116 21 154 36 18 6 19 -2 16 -152 -2 -88
-5 -177 -7 -199 l-4 -40 -96 -3 c-113 -4 -155 -21 -160 -66 -5 -39 22 -74 60
-81 18 -3 68 -7 110 -8 43 -2 80 -5 83 -8 2 -3 7 -75 10 -160 16 -460 24 -499
105 -499 64 0 64 -4 61 351 l-3 319 84 0 c83 0 209 6 302 15 67 6 96 27 96 69
0 19 -9 44 -19 57 l-19 24 -221 -2 -221 -2 0 214 0 213 28 6 c36 8 187 24 287
31 369 26 495 47 531 86 25 28 22 78 -5 101 -19 14 -39 18 -100 17 -42 -1 -89
-4 -106 -5z"/>
</g>
</svg>
