<?xml version="1.0" standalone="no"?>
<!DOCTYPE svg PUBLIC "-//W3C//DTD SVG 20010904//EN"
 "http://www.w3.org/TR/2001/REC-SVG-20010904/DTD/svg10.dtd">
<svg version="1.0" xmlns="http://www.w3.org/2000/svg"
 width="118.000000pt" height="160.000000pt" viewBox="0 0 118.000000 160.000000"
 preserveAspectRatio="xMidYMid meet">
<metadata>
Created by potrace 1.16, written by Peter Selinger 2001-2019
</metadata>
<g transform="translate(0.000000,160.000000) scale(0.100000,-0.100000)"
fill="#000000" stroke="none">
<path d="M580 1588 c-19 -6 -43 -17 -54 -26 -67 -61 -111 -274 -115 -562 -1
-69 -5 -128 -9 -132 -9 -8 -198 -46 -275 -54 -110 -13 -158 -74 -102 -130 27
-27 27 -27 138 -21 62 4 138 13 170 20 40 10 57 11 57 3 0 -6 -15 -99 -34
-206 -56 -321 -56 -350 -2 -386 32 -21 70 -12 92 21 9 13 25 73 36 132 11 60
22 118 24 131 4 20 16 9 80 -77 41 -56 114 -141 160 -191 93 -98 118 -109 219
-104 55 4 88 23 123 75 53 78 -37 161 -104 94 -51 -51 -99 -25 -200 105 -40
52 -72 95 -71 97 2 1 32 5 67 8 242 24 373 125 394 303 13 111 -31 181 -129
203 -51 11 -60 10 -217 -35 -90 -26 -172 -49 -183 -52 -11 -3 3 10 30 29 86
61 103 80 151 167 26 47 58 98 71 115 22 26 25 36 20 85 -8 95 -59 207 -122
272 -104 107 -151 132 -215 116z m92 -190 c50 -62 63 -88 76 -139 11 -43 9
-53 -18 -120 -34 -81 -76 -141 -129 -182 l-36 -28 -3 98 c-2 54 4 157 12 229
23 199 37 219 98 142z m358 -686 c-1 -38 -34 -106 -61 -126 -73 -51 -272 -76
-336 -43 -30 16 -71 63 -62 71 10 10 291 110 354 126 80 21 105 14 105 -28z"/>
</g>
</svg>
