<?xml version="1.0" standalone="no"?>
<!DOCTYPE svg PUBLIC "-//W3C//DTD SVG 20010904//EN"
 "http://www.w3.org/TR/2001/REC-SVG-20010904/DTD/svg10.dtd">
<svg version="1.0" xmlns="http://www.w3.org/2000/svg"
 width="56.000000pt" height="129.000000pt" viewBox="0 0 56.000000 129.000000"
 preserveAspectRatio="xMidYMid meet">
<metadata>
Created by potrace 1.16, written by Peter Selinger 2001-2019
</metadata>
<g transform="translate(0.000000,129.000000) scale(0.100000,-0.100000)"
fill="#000000" stroke="none">
<path d="M26 1269 c-31 -24 -35 -66 -9 -98 13 -16 33 -24 73 -28 l55 -5 2
-199 c2 -187 26 -606 39 -676 6 -30 4 -32 -35 -43 -52 -14 -71 -34 -71 -74 0
-46 30 -70 87 -71 31 -1 48 -6 51 -16 9 -28 46 -59 72 -59 32 0 70 37 70 68 0
13 6 24 12 26 7 2 44 12 81 21 73 19 100 43 100 91 0 59 -57 79 -170 61 l-43
-7 -1 32 c0 18 -2 40 -3 48 -2 8 -7 102 -11 209 -4 107 -8 202 -10 210 -1 9
-6 95 -10 191 -4 96 -9 178 -12 183 -2 4 5 7 16 7 59 0 104 58 83 106 -16 35
-56 51 -92 37 -19 -7 -53 -8 -102 -2 -114 13 -143 11 -172 -12z"/>
</g>
</svg>
