<?xml version="1.0" standalone="no"?>
<!DOCTYPE svg PUBLIC "-//W3C//DTD SVG 20010904//EN"
 "http://www.w3.org/TR/2001/REC-SVG-20010904/DTD/svg10.dtd">
<svg version="1.0" xmlns="http://www.w3.org/2000/svg"
 width="112.000000pt" height="130.000000pt" viewBox="0 0 112.000000 130.000000"
 preserveAspectRatio="xMidYMid meet">
<metadata>
Created by potrace 1.16, written by Peter Selinger 2001-2019
</metadata>
<g transform="translate(0.000000,130.000000) scale(0.100000,-0.100000)"
fill="#000000" stroke="none">
<path d="M635 1286 c-126 -25 -164 -45 -261 -138 l-90 -87 -13 75 c-15 88 -38
121 -96 134 -37 8 -41 7 -77 -31 -39 -41 -55 -81 -84 -218 -18 -82 -15 -119
12 -145 20 -20 63 -20 92 0 20 14 23 14 28 -1 13 -34 -6 -248 -40 -453 -42
-251 -45 -318 -15 -351 29 -30 85 -26 111 9 33 45 80 371 94 651 7 134 7 135
36 156 16 11 60 57 98 103 89 104 98 112 195 144 100 33 138 34 158 3 44 -67
59 -361 42 -813 -9 -265 -7 -286 39 -308 57 -27 136 -16 136 19 0 11 6 12 23
6 66 -25 121 65 71 120 -15 17 -27 20 -59 16 l-40 -6 -2 197 c-2 470 -55 799
-143 890 -42 44 -98 51 -215 28z"/>
</g>
</svg>
