<?xml version="1.0" standalone="no"?>
<!DOCTYPE svg PUBLIC "-//W3C//DTD SVG 20010904//EN"
 "http://www.w3.org/TR/2001/REC-SVG-20010904/DTD/svg10.dtd">
<svg version="1.0" xmlns="http://www.w3.org/2000/svg"
 width="98.000000pt" height="132.000000pt" viewBox="0 0 98.000000 132.000000"
 preserveAspectRatio="xMidYMid meet">
<metadata>
Created by potrace 1.16, written by Peter Selinger 2001-2019
</metadata>
<g transform="translate(0.000000,132.000000) scale(0.100000,-0.100000)"
fill="#000000" stroke="none">
<path d="M318 1308 c-15 -5 -30 -18 -33 -28 -3 -10 -64 -57 -136 -104 -133
-88 -153 -111 -147 -165 4 -31 45 -56 79 -48 27 7 63 30 129 81 l45 34 -1
-375 -1 -375 -51 -29 c-28 -16 -58 -39 -66 -51 -48 -68 34 -153 100 -103 29
22 31 19 37 -37 8 -68 34 -102 79 -106 25 -2 39 3 54 19 16 18 19 33 16 110
l-3 89 26 0 c39 0 219 73 306 124 88 52 144 112 191 205 31 62 33 70 33 176
-1 97 -4 117 -27 168 -52 112 -146 214 -278 304 -108 72 -133 83 -208 90 -37
3 -71 9 -77 13 -21 14 -41 17 -67 8z m173 -180 c49 -16 157 -88 210 -140 172
-167 181 -366 23 -487 -45 -34 -255 -130 -286 -131 -17 0 -18 25 -18 385 0
431 -6 400 71 373z"/>
</g>
</svg>
