<?xml version="1.0" standalone="no"?>
<!DOCTYPE svg PUBLIC "-//W3C//DTD SVG 20010904//EN"
 "http://www.w3.org/TR/2001/REC-SVG-20010904/DTD/svg10.dtd">
<svg version="1.0" xmlns="http://www.w3.org/2000/svg"
 width="114.000000pt" height="117.000000pt" viewBox="0 0 114.000000 117.000000"
 preserveAspectRatio="xMidYMid meet">
<metadata>
Created by potrace 1.16, written by Peter Selinger 2001-2019
</metadata>
<g transform="translate(0.000000,117.000000) scale(0.100000,-0.100000)"
fill="#000000" stroke="none">
<path d="M582 1152 c-13 -10 -42 -19 -65 -21 -59 -3 -180 -46 -241 -85 -110
-70 -212 -221 -256 -376 -45 -163 10 -356 149 -525 122 -148 283 -181 510
-106 166 55 222 96 346 255 77 99 90 125 104 201 31 164 -12 451 -84 565 -40
63 -140 94 -335 105 -93 5 -108 4 -128 -13z m308 -175 c40 -19 47 -29 63 -76
28 -83 50 -247 43 -324 -3 -50 -13 -83 -38 -130 -41 -78 -158 -196 -229 -233
-127 -64 -277 -83 -362 -46 -84 37 -187 196 -209 319 -15 91 -2 153 58 273 71
142 132 180 337 210 48 8 95 20 105 27 26 21 174 8 232 -20z"/>
</g>
</svg>
