<?xml version="1.0" standalone="no"?>
<!DOCTYPE svg PUBLIC "-//W3C//DTD SVG 20010904//EN"
 "http://www.w3.org/TR/2001/REC-SVG-20010904/DTD/svg10.dtd">
<svg version="1.0" xmlns="http://www.w3.org/2000/svg"
 width="111.000000pt" height="166.000000pt" viewBox="0 0 111.000000 166.000000"
 preserveAspectRatio="xMidYMid meet">
<metadata>
Created by potrace 1.16, written by Peter Selinger 2001-2019
</metadata>
<g transform="translate(0.000000,166.000000) scale(0.100000,-0.100000)"
fill="#000000" stroke="none">
<path d="M136 1653 c-4 -4 -22 -6 -40 -5 -52 4 -69 -24 -83 -137 -14 -118 -8
-560 13 -901 2 -47 9 -185 14 -308 6 -143 14 -232 22 -250 17 -35 57 -57 90
-49 31 8 60 61 49 91 -5 12 -9 134 -10 271 -2 138 -4 266 -6 285 -1 19 -6 195
-9 390 -6 322 -5 353 9 330 8 -14 54 -90 101 -170 48 -80 141 -228 207 -330
66 -102 176 -273 245 -380 188 -293 251 -370 304 -370 40 0 68 35 68 86 0 24
-20 161 -44 306 -44 255 -59 372 -71 548 -3 47 -8 110 -10 140 -3 30 -7 96
-10 145 -3 50 -8 102 -11 116 -4 20 1 28 21 37 14 6 30 23 37 36 26 58 -34
113 -137 123 -44 4 -53 2 -74 -20 -18 -20 -22 -32 -17 -54 4 -15 7 -35 6 -43
-3 -145 6 -244 59 -655 11 -82 23 -188 26 -235 l6 -85 -82 125 c-101 153 -362
569 -489 780 -51 85 -103 163 -114 172 -22 18 -57 23 -70 11z"/>
</g>
</svg>
