<?xml version="1.0" standalone="no"?>
<!DOCTYPE svg PUBLIC "-//W3C//DTD SVG 20010904//EN"
 "http://www.w3.org/TR/2001/REC-SVG-20010904/DTD/svg10.dtd">
<svg version="1.0" xmlns="http://www.w3.org/2000/svg"
 width="117.000000pt" height="135.000000pt" viewBox="0 0 117.000000 135.000000"
 preserveAspectRatio="xMidYMid meet">
<metadata>
Created by potrace 1.16, written by Peter Selinger 2001-2019
</metadata>
<g transform="translate(0.000000,135.000000) scale(0.100000,-0.100000)"
fill="#000000" stroke="none">
<path d="M673 1336 c-156 -30 -187 -47 -482 -276 -153 -117 -171 -135 -177
-167 -8 -41 2 -63 36 -80 37 -19 88 8 240 130 l60 48 1 -118 c0 -65 2 -127 4
-138 5 -26 20 -388 20 -484 0 -86 19 -76 -165 -85 -165 -8 -200 -24 -200 -94
0 -55 28 -67 149 -66 212 3 350 11 363 21 7 6 40 14 73 17 140 16 303 48 342
67 49 24 158 152 197 231 69 142 33 232 -123 306 -59 29 -89 36 -152 40 l-78
4 64 64 c46 46 76 89 109 153 52 105 70 179 64 270 -4 75 -29 121 -81 147 -42
22 -174 27 -264 10z m184 -158 c20 -19 24 -30 20 -59 -8 -58 -80 -200 -128
-252 -49 -52 -227 -155 -234 -134 -2 7 -6 94 -10 193 l-6 182 30 21 c56 40
210 84 270 76 19 -2 45 -15 58 -27z m100 -663 c21 -9 43 -22 49 -31 14 -18 3
-75 -20 -107 -9 -12 -27 -38 -40 -57 -60 -88 -116 -112 -297 -127 l-97 -9 -6
66 c-3 36 -8 108 -12 161 l-7 97 29 5 c35 7 195 26 244 30 46 3 109 -8 157
-28z"/>
</g>
</svg>
