<?xml version="1.0" standalone="no"?>
<!DOCTYPE svg PUBLIC "-//W3C//DTD SVG 20010904//EN"
 "http://www.w3.org/TR/2001/REC-SVG-20010904/DTD/svg10.dtd">
<svg version="1.0" xmlns="http://www.w3.org/2000/svg"
 width="109.000000pt" height="108.000000pt" viewBox="0 0 109.000000 108.000000"
 preserveAspectRatio="xMidYMid meet">
<metadata>
Created by potrace 1.16, written by Peter Selinger 2001-2019
</metadata>
<g transform="translate(0.000000,108.000000) scale(0.100000,-0.100000)"
fill="#000000" stroke="none">
<path d="M271 1069 c-48 -15 -132 -103 -169 -179 -71 -145 -123 -539 -91 -688
14 -67 66 -152 109 -177 29 -16 52 -20 130 -20 111 1 150 12 247 71 88 55 121
92 158 177 l28 67 43 -40 c63 -58 102 -74 158 -66 83 13 192 122 203 204 4 34
1 42 -22 60 -48 38 -89 22 -131 -50 -38 -65 -56 -75 -97 -51 -78 46 -93 115
-57 265 25 106 27 193 6 233 -9 17 -16 44 -16 60 0 63 -51 103 -105 84 -30
-11 -37 -10 -54 5 -42 38 -266 68 -340 45z m135 -140 c32 -6 92 -27 132 -47
41 -19 80 -35 88 -35 14 0 29 -31 20 -45 -2 -4 -12 -58 -20 -120 -16 -115 -71
-302 -111 -382 -30 -60 -57 -82 -138 -121 -58 -27 -76 -31 -123 -27 -39 3 -62
11 -77 27 -21 20 -22 30 -21 164 2 220 57 499 111 560 34 37 56 41 139 26z"/>
</g>
</svg>
