<?xml version="1.0" standalone="no"?>
<!DOCTYPE svg PUBLIC "-//W3C//DTD SVG 20010904//EN"
 "http://www.w3.org/TR/2001/REC-SVG-20010904/DTD/svg10.dtd">
<svg version="1.0" xmlns="http://www.w3.org/2000/svg"
 width="120.000000pt" height="126.000000pt" viewBox="0 0 120.000000 126.000000"
 preserveAspectRatio="xMidYMid meet">
<metadata>
Created by potrace 1.16, written by Peter Selinger 2001-2019
</metadata>
<g transform="translate(0.000000,126.000000) scale(0.100000,-0.100000)"
fill="#000000" stroke="none">
<path d="M917 1235 c-34 -35 -40 -91 -28 -246 9 -111 8 -142 -10 -250 -11 -68
-33 -176 -49 -239 -75 -285 -129 -350 -293 -350 -88 0 -108 28 -152 213 -13
56 -38 203 -55 327 -52 373 -81 499 -121 520 -43 23 -109 -6 -109 -48 0 -9
-23 -69 -50 -132 -27 -63 -50 -129 -50 -146 0 -56 68 -89 113 -54 l23 18 32
-176 c44 -238 96 -451 127 -516 30 -63 73 -109 130 -138 34 -18 51 -20 131
-15 118 8 190 35 247 92 46 46 107 152 128 223 7 23 14 41 16 39 1 -2 10 -50
18 -107 18 -117 31 -148 88 -207 31 -33 49 -43 73 -43 61 0 90 75 47 123 -31
34 -82 249 -93 392 -5 66 -12 208 -15 315 -11 327 -26 410 -77 424 -37 9 -44
7 -71 -19z"/>
</g>
</svg>
