<?xml version="1.0" standalone="no"?>
<!DOCTYPE svg PUBLIC "-//W3C//DTD SVG 20010904//EN"
 "http://www.w3.org/TR/2001/REC-SVG-20010904/DTD/svg10.dtd">
<svg version="1.0" xmlns="http://www.w3.org/2000/svg"
 width="112.000000pt" height="138.000000pt" viewBox="0 0 112.000000 138.000000"
 preserveAspectRatio="xMidYMid meet">
<metadata>
Created by potrace 1.16, written by Peter Selinger 2001-2019
</metadata>
<g transform="translate(0.000000,138.000000) scale(0.100000,-0.100000)"
fill="#000000" stroke="none">
<path d="M439 1365 c-89 -18 -188 -65 -243 -115 -56 -52 -112 -159 -161 -310
-29 -92 -35 -124 -35 -198 0 -193 55 -486 108 -572 67 -108 195 -165 377 -165
155 0 190 18 356 184 164 165 243 271 260 348 8 36 13 144 13 288 1 219 0 232
-22 279 -33 73 -67 112 -130 154 -32 20 -61 43 -65 49 -16 25 -73 46 -162 59
-110 17 -208 16 -296 -1z m395 -194 c17 -16 51 -46 75 -67 24 -21 47 -49 52
-62 5 -13 12 -103 15 -201 6 -146 4 -187 -10 -241 -22 -87 -87 -180 -195 -282
-180 -169 -260 -198 -421 -152 -73 21 -122 71 -144 146 -53 183 -72 436 -42
543 56 197 114 295 191 325 43 17 161 26 314 23 132 -2 134 -3 165 -32z"/>
</g>
</svg>
