<?xml version="1.0" standalone="no"?>
<!DOCTYPE svg PUBLIC "-//W3C//DTD SVG 20010904//EN"
 "http://www.w3.org/TR/2001/REC-SVG-20010904/DTD/svg10.dtd">
<svg version="1.0" xmlns="http://www.w3.org/2000/svg"
 width="106.000000pt" height="146.000000pt" viewBox="0 0 106.000000 146.000000"
 preserveAspectRatio="xMidYMid meet">
<metadata>
Created by potrace 1.16, written by Peter Selinger 2001-2019
</metadata>
<g transform="translate(0.000000,146.000000) scale(0.100000,-0.100000)"
fill="#000000" stroke="none">
<path d="M838 1450 c-64 -6 -108 -25 -136 -59 -107 -129 -262 -445 -311 -633
l-18 -73 -163 -117 c-90 -65 -174 -127 -187 -139 -40 -38 -27 -99 26 -117 37
-13 90 11 221 101 l95 66 6 -92 c11 -177 77 -329 160 -372 32 -17 218 -20 284
-5 68 15 94 70 57 118 -21 27 -38 29 -160 18 -135 -12 -157 8 -182 164 -14 96
-21 245 -12 269 4 10 75 72 157 139 249 198 318 290 366 487 50 208 4 263
-203 245z m82 -143 c0 -24 -41 -140 -70 -198 -36 -70 -114 -156 -205 -225 -38
-29 -71 -51 -73 -50 -4 5 65 162 115 258 54 105 111 181 156 209 37 22 77 25
77 6z"/>
</g>
</svg>
