<?xml version="1.0" standalone="no"?>
<!DOCTYPE svg PUBLIC "-//W3C//DTD SVG 20010904//EN"
 "http://www.w3.org/TR/2001/REC-SVG-20010904/DTD/svg10.dtd">
<svg version="1.0" xmlns="http://www.w3.org/2000/svg"
 width="117.000000pt" height="150.000000pt" viewBox="0 0 117.000000 150.000000"
 preserveAspectRatio="xMidYMid meet">
<metadata>
Created by potrace 1.16, written by Peter Selinger 2001-2019
</metadata>
<g transform="translate(0.000000,150.000000) scale(0.100000,-0.100000)"
fill="#000000" stroke="none">
<path d="M244 1479 c-10 -11 -42 -35 -71 -52 -29 -18 -56 -39 -59 -49 -2 -9
-18 -20 -34 -23 -31 -7 -80 -57 -80 -81 0 -26 20 -55 46 -64 23 -9 47 -3 135
34 19 8 25 -52 35 -335 l6 -174 -31 -17 c-27 -15 -31 -23 -31 -58 0 -36 4 -43
35 -61 40 -24 41 -30 50 -199 8 -152 23 -287 36 -328 19 -58 95 -73 126 -25
15 23 18 48 16 163 -1 74 -6 173 -12 220 -5 47 -8 86 -6 88 1 2 42 -24 91 -57
90 -60 201 -163 354 -327 126 -135 155 -147 238 -105 75 38 103 104 65 149
-30 35 -65 37 -102 6 -31 -26 -32 -26 -53 -8 -11 11 -47 53 -79 95 -84 111
-276 280 -398 351 l-43 26 38 12 c60 19 283 137 339 179 73 55 144 127 155
156 24 62 4 223 -36 292 -27 47 -118 119 -202 159 -91 44 -241 43 -399 -2 -14
-4 -23 -2 -23 4 0 19 -42 52 -65 52 -12 0 -30 -9 -41 -21z m484 -175 c106 -52
151 -114 152 -210 0 -44 -4 -54 -32 -81 -36 -33 -147 -102 -245 -152 -84 -42
-214 -93 -221 -87 -19 20 -29 520 -10 532 16 10 212 30 258 27 25 -2 69 -15
98 -29z"/>
</g>
</svg>
