<?xml version="1.0" standalone="no"?>
<!DOCTYPE svg PUBLIC "-//W3C//DTD SVG 20010904//EN"
 "http://www.w3.org/TR/2001/REC-SVG-20010904/DTD/svg10.dtd">
<svg version="1.0" xmlns="http://www.w3.org/2000/svg"
 width="109.000000pt" height="146.000000pt" viewBox="0 0 109.000000 146.000000"
 preserveAspectRatio="xMidYMid meet">
<metadata>
Created by potrace 1.16, written by Peter Selinger 2001-2019
</metadata>
<g transform="translate(0.000000,146.000000) scale(0.100000,-0.100000)"
fill="#000000" stroke="none">
<path d="M480 1441 c-113 -25 -208 -61 -254 -96 -42 -32 -151 -190 -193 -280
-27 -58 -28 -65 -27 -220 1 -129 5 -175 22 -235 30 -110 81 -245 105 -281 61
-90 158 -130 332 -136 116 -5 139 -2 216 31 14 6 17 -4 23 -66 8 -89 31 -139
70 -151 35 -12 76 15 89 59 9 33 1 307 -13 404 -12 83 -12 80 5 80 30 0 64 24
74 52 21 61 -37 116 -95 90 -13 -7 -29 -9 -36 -7 -29 10 -408 64 -455 65 -43
0 -73 -30 -73 -73 0 -65 56 -87 278 -109 l123 -12 -7 -31 c-24 -111 -71 -180
-131 -191 -83 -16 -222 18 -266 64 -80 83 -149 456 -109 588 15 51 97 178 145
226 27 27 53 40 113 56 103 28 205 43 278 43 53 0 62 -3 93 -33 19 -18 67 -84
106 -147 72 -113 102 -142 142 -133 66 14 71 71 15 182 -115 231 -169 271
-370 277 -85 2 -137 -2 -200 -16z"/>
</g>
</svg>
