<?xml version="1.0" standalone="no"?>
<!DOCTYPE svg PUBLIC "-//W3C//DTD SVG 20010904//EN"
 "http://www.w3.org/TR/2001/REC-SVG-20010904/DTD/svg10.dtd">
<svg version="1.0" xmlns="http://www.w3.org/2000/svg"
 width="91.000000pt" height="143.000000pt" viewBox="0 0 91.000000 143.000000"
 preserveAspectRatio="xMidYMid meet">
<metadata>
Created by potrace 1.16, written by Peter Selinger 2001-2019
</metadata>
<g transform="translate(0.000000,143.000000) scale(0.100000,-0.100000)"
fill="#000000" stroke="none">
<path d="M440 1417 c-33 -17 -64 -95 -87 -219 l-17 -97 -149 -3 c-144 -3 -149
-4 -169 -28 -23 -29 -18 -74 13 -105 17 -17 36 -20 145 -24 l126 -3 -6 -37
c-22 -131 -38 -366 -40 -566 -1 -215 0 -232 20 -265 30 -53 63 -65 190 -68
127 -4 167 4 244 50 96 58 130 143 74 187 -46 36 -79 26 -123 -37 -13 -18 -35
-38 -50 -44 -28 -11 -148 -13 -179 -4 -62 20 -60 196 9 611 30 184 18 165 102
165 50 0 85 6 116 20 31 14 65 20 121 20 63 0 82 4 104 21 32 25 36 79 7 108
-27 27 -118 36 -222 22 -48 -6 -104 -11 -126 -11 l-40 0 23 123 c13 67 24 128
24 135 0 19 -46 62 -67 62 -10 0 -29 -6 -43 -13z"/>
</g>
</svg>
