<?xml version="1.0" standalone="no"?>
<!DOCTYPE svg PUBLIC "-//W3C//DTD SVG 20010904//EN"
 "http://www.w3.org/TR/2001/REC-SVG-20010904/DTD/svg10.dtd">
<svg version="1.0" xmlns="http://www.w3.org/2000/svg"
 width="115.000000pt" height="145.000000pt" viewBox="0 0 115.000000 145.000000"
 preserveAspectRatio="xMidYMid meet">
<metadata>
Created by potrace 1.16, written by Peter Selinger 2001-2019
</metadata>
<g transform="translate(0.000000,145.000000) scale(0.100000,-0.100000)"
fill="#000000" stroke="none">
<path d="M852 1439 c-13 -5 -29 -24 -37 -44 -16 -37 -50 -279 -61 -436 l-7
-96 -45 13 c-111 34 -218 22 -336 -37 -205 -104 -304 -214 -351 -389 -33 -123
-13 -186 90 -291 106 -108 226 -166 320 -156 67 7 198 51 262 88 40 23 57 41
76 79 l25 50 22 -45 c31 -64 62 -85 124 -85 70 1 186 47 205 82 20 35 6 77
-32 98 -26 14 -31 13 -88 -18 -34 -19 -65 -30 -69 -25 -4 4 -15 31 -24 59 -28
85 -24 432 10 863 13 177 14 226 4 250 -14 34 -54 52 -88 40z m-173 -720 c30
-10 56 -20 58 -22 2 -2 6 -59 10 -126 l6 -121 -25 0 c-37 0 -55 -27 -88 -126
-34 -103 -62 -135 -141 -158 -106 -32 -164 -16 -265 70 -92 77 -106 145 -52
248 45 85 128 166 217 211 113 57 172 62 280 24z"/>
</g>
</svg>
