<?xml version="1.0" standalone="no"?>
<!DOCTYPE svg PUBLIC "-//W3C//DTD SVG 20010904//EN"
 "http://www.w3.org/TR/2001/REC-SVG-20010904/DTD/svg10.dtd">
<svg version="1.0" xmlns="http://www.w3.org/2000/svg"
 width="133.000000pt" height="128.000000pt" viewBox="0 0 133.000000 128.000000"
 preserveAspectRatio="xMidYMid meet">
<metadata>
Created by potrace 1.16, written by Peter Selinger 2001-2019
</metadata>
<g transform="translate(0.000000,128.000000) scale(0.100000,-0.100000)"
fill="#000000" stroke="none">
<path d="M820 1273 c-77 -5 -502 -40 -639 -54 -63 -6 -127 -17 -142 -24 -47
-25 -52 -72 -13 -112 25 -25 28 -26 116 -19 l90 6 -6 -43 c-3 -23 -5 -112 -5
-198 l-1 -156 -67 -7 c-84 -9 -123 -34 -123 -80 0 -53 29 -71 114 -71 39 0 74
-3 77 -8 3 -4 6 -31 8 -60 3 -85 32 -248 53 -305 35 -93 113 -128 303 -139
119 -6 198 7 283 48 72 35 190 116 238 164 39 40 45 50 42 82 -4 45 -43 79
-81 69 -14 -3 -73 -42 -132 -87 -119 -90 -165 -114 -246 -127 -71 -11 -195 -6
-233 10 -44 18 -56 61 -63 228 l-6 147 59 7 c102 13 317 57 345 71 43 23 53
76 22 114 -23 27 -35 27 -242 -4 -96 -14 -175 -24 -177 -23 -1 2 -4 91 -6 198
l-3 195 80 14 c57 10 183 14 440 15 321 1 364 3 387 18 44 29 42 94 -4 120
-22 13 -325 20 -468 11z"/>
</g>
</svg>
