<?xml version="1.0" standalone="no"?>
<!DOCTYPE svg PUBLIC "-//W3C//DTD SVG 20010904//EN"
 "http://www.w3.org/TR/2001/REC-SVG-20010904/DTD/svg10.dtd">
<svg version="1.0" xmlns="http://www.w3.org/2000/svg"
 width="1365.000000pt" height="866.000000pt" viewBox="0 0 1365.000000 866.000000"
 preserveAspectRatio="xMidYMid meet">
<metadata>
Created by potrace 1.16, written by Peter Selinger 2001-2019
</metadata>
<g transform="translate(0.000000,866.000000) scale(0.100000,-0.100000)"
fill="#000000" stroke="none">
<path d="M0 4330 l0 -4330 6825 0 6825 0 0 4330 0 4330 -6825 0 -6825 0 0
-4330z m13600 475 l0 -3805 -2255 0 -2255 0 0 -475 0 -475 -4520 0 -4520 0 0
4280 0 4280 6775 0 6775 0 0 -3805z"/>
<path d="M80 8125 l0 -455 1105 0 1105 0 0 455 0 455 -1105 0 -1105 0 0 -455z
m138 272 c3 -34 1 -37 -22 -37 -31 0 -35 26 -8 46 16 13 16 14 -1 8 -13 -5
-16 -2 -11 10 12 31 39 14 42 -27z m962 -12 c16 -8 44 -33 61 -55 18 -22 39
-40 47 -40 9 0 24 -7 34 -17 24 -21 23 -74 -2 -157 -19 -61 -20 -67 -4 -90 32
-50 52 -45 118 28 65 71 92 81 128 49 34 -31 16 -83 -55 -160 -51 -55 -84 -73
-137 -73 -45 0 -72 11 -108 43 l-22 21 -35 -34 c-33 -32 -41 -35 -110 -38 -86
-5 -133 8 -181 50 -75 66 -73 222 6 378 15 30 37 63 48 73 51 46 146 56 212
22z"/>
<path d="M1042 8253 c-45 -66 -68 -163 -52 -222 11 -43 24 -51 79 -51 42 0 88
36 95 74 3 12 11 49 19 84 l14 63 -45 40 c-53 46 -83 50 -110 12z"/>
<path d="M2330 8125 l0 -455 1108 2 1107 3 3 453 2 452 -507 0 -508 0 37 -22
c86 -50 65 -118 -86 -275 l-96 -100 0 -120 c0 -128 7 -183 22 -183 5 0 21 14
36 31 14 18 40 37 57 44 49 21 74 55 77 105 l3 45 -45 3 c-24 2 -50 8 -57 14
-17 14 -16 62 1 96 13 25 25 29 128 50 192 38 184 37 212 8 15 -14 26 -32 26
-39 0 -28 -35 -57 -90 -75 l-55 -19 0 -85 c0 -77 -2 -88 -28 -121 -56 -74
-194 -146 -279 -147 -38 0 -54 5 -78 28 -28 26 -30 33 -40 142 -6 63 -12 116
-14 117 -2 2 -45 -30 -96 -72 -161 -131 -219 -153 -248 -92 -20 41 -8 54 182
212 l164 137 4 128 c3 115 5 132 26 159 l23 31 -496 0 -495 0 0 -455z m168
271 c-2 -26 -8 -32 -30 -34 -27 -3 -28 -2 -28 47 l0 49 31 -15 c25 -13 30 -20
27 -47z"/>
<path d="M2460 8401 c0 -12 6 -21 16 -21 9 0 14 7 12 17 -5 25 -28 28 -28 4z"/>
<path d="M4590 8125 l0 -455 1105 0 1105 0 0 455 0 455 -1105 0 -1105 0 0
-455z m931 306 c39 -33 56 -75 65 -170 8 -71 -9 -101 -57 -101 -33 0 -52 24
-69 88 -20 76 -30 92 -62 92 -84 0 -185 -117 -208 -242 -16 -85 7 -128 86
-158 23 -9 30 -5 74 40 52 54 64 58 98 34 33 -23 28 -65 -13 -123 -65 -90
-138 -101 -263 -40 -110 54 -129 107 -98 281 17 91 54 164 117 229 70 72 128
98 219 99 69 0 79 -3 111 -29z m-780 -7 c11 -13 9 -14 -14 -9 -23 6 -27 4 -27
-13 0 -14 8 -22 23 -25 19 -3 20 -4 4 -11 -34 -16 -63 34 -35 62 16 16 33 15
49 -4z"/>
<path d="M6850 8125 l0 -455 1105 0 1105 0 0 455 0 455 -627 0 c-606 0 -626
-1 -610 -18 22 -24 21 -54 -2 -128 -10 -32 -24 -97 -30 -144 -6 -47 -15 -112
-21 -144 -6 -32 -9 -100 -8 -150 l3 -91 36 -3 c25 -2 40 3 54 18 50 56 133
-18 88 -79 -45 -60 -123 -83 -207 -60 -56 15 -82 49 -91 114 l-6 54 -59 -40
c-62 -42 -180 -79 -254 -79 -51 0 -100 29 -122 72 -19 37 -31 165 -20 223 16
83 127 155 241 155 64 0 149 -17 188 -37 16 -8 31 -12 33 -10 3 2 14 58 25
123 24 144 24 144 54 188 l24 36 -449 0 -450 0 0 -455z m158 288 c-3 -46 -4
-48 -33 -48 -27 0 -30 3 -30 30 0 22 6 33 23 40 12 5 22 13 22 17 0 5 5 8 11
8 6 0 9 -19 7 -47z"/>
<path d="M6960 8400 c0 -11 7 -20 15 -20 8 0 15 9 15 20 0 11 -7 20 -15 20 -8
0 -15 -9 -15 -20z"/>
<path d="M9100 8125 l0 -455 1108 2 1107 3 3 453 2 452 -1110 0 -1110 0 0
-455z m155 275 c0 -29 -4 -36 -23 -38 -26 -4 -37 17 -28 54 5 19 12 25 29 22
18 -2 22 -9 22 -38z m458 29 c55 -29 196 -152 211 -184 35 -73 -23 -119 -173
-139 l-86 -12 4 -34 c7 -77 54 -120 130 -120 22 0 76 14 121 30 92 34 135 37
162 13 39 -35 18 -82 -50 -111 -139 -60 -270 -74 -344 -36 -95 48 -125 89
-134 186 -5 48 -12 68 -29 83 -36 32 -40 61 -12 89 20 20 25 37 29 95 4 76 24
115 69 138 30 16 74 16 102 2z"/>
<path d="M9215 8390 c3 -5 13 -10 21 -10 8 0 14 5 14 10 0 6 -9 10 -21 10 -11
0 -17 -4 -14 -10z"/>
<path d="M9666 8269 c-3 -17 -6 -35 -6 -39 0 -9 113 0 125 11 5 5 1 9 -12 9
-12 0 -35 11 -51 25 -39 33 -48 32 -56 -6z"/>
<path d="M11360 8125 l0 -455 369 0 370 0 3 33 c2 24 10 35 34 47 27 13 32 22
45 87 l15 73 -48 0 c-35 0 -54 6 -68 20 -46 46 -11 95 73 105 53 7 55 8 62 42
3 19 4 37 1 40 -3 3 -31 1 -62 -6 -83 -16 -138 -14 -164 7 -26 21 -30 66 -7
89 10 11 189 51 235 53 1 0 2 21 2 48 0 155 38 222 126 222 55 0 109 -24 131
-57 20 -31 12 -115 -16 -171 -11 -22 -43 -60 -71 -84 l-50 -43 0 -62 0 -63 76
0 c41 0 84 5 95 11 42 22 97 -27 85 -76 -9 -35 -32 -44 -153 -57 -59 -6 -109
-12 -111 -13 -1 -1 -9 -45 -17 -98 -8 -53 -17 -107 -21 -121 l-6 -26 641 0
641 0 0 455 0 455 -1105 0 -1105 0 0 -455z m126 318 c-2 -16 -5 -41 -6 -58 -2
-28 -3 -27 -10 10 -4 22 -4 48 1 58 14 24 18 21 15 -10z"/>
<path d="M3422 8481 c-11 -6 -36 -100 -29 -107 7 -7 89 85 83 94 -8 13 -41 21
-54 13z"/>
<path d="M7343 8140 c-31 -13 -43 -41 -43 -103 0 -36 5 -59 15 -67 21 -18 102
-8 158 19 45 22 137 96 137 110 0 4 -30 17 -67 29 -70 23 -160 28 -200 12z"/>
<path d="M80 7175 l0 -455 440 0 c242 0 440 3 440 6 0 4 -12 39 -26 78 -27 76
-27 132 2 187 18 36 81 81 170 121 70 31 74 35 74 66 l0 32 -37 -19 c-57 -29
-141 -51 -192 -51 -136 0 -207 65 -199 181 8 115 82 179 208 179 129 0 256
-42 335 -111 38 -33 43 -53 22 -84 -8 -12 -12 -38 -9 -66 l4 -46 91 40 c51 22
99 46 108 53 38 34 99 6 99 -45 0 -40 -29 -61 -170 -130 l-125 -60 -3 -68 c-4
-76 -32 -150 -82 -213 -16 -21 -30 -41 -30 -44 0 -3 245 -6 545 -6 l545 0 0
455 0 455 -1105 0 -1105 0 0 -455z m158 286 c2 -12 1 -34 -3 -48 -4 -19 -11
-24 -32 -21 -22 2 -27 9 -31 36 -2 18 2 40 9 48 18 22 53 13 57 -15z"/>
<path d="M190 7450 c0 -11 7 -20 15 -20 8 0 15 9 15 20 0 11 -7 20 -15 20 -8
0 -15 -9 -15 -20z"/>
<path d="M198 7403 c7 -3 16 -2 19 1 4 3 -2 6 -13 5 -11 0 -14 -3 -6 -6z"/>
<path d="M2330 7175 l0 -455 1108 2 1107 3 3 453 2 452 -1110 0 -1110 0 0
-455z m669 355 c125 -63 159 -148 103 -261 -18 -37 -20 -75 -3 -67 3 2 32 16
64 32 33 16 75 29 98 30 36 1 46 -4 75 -38 57 -66 86 -139 85 -215 -1 -85 8
-100 43 -78 32 21 55 21 84 1 29 -20 29 -67 1 -93 -36 -33 -124 -64 -163 -57
-59 11 -76 44 -76 150 -1 98 -22 182 -52 200 -24 14 -66 -7 -79 -41 -6 -16
-12 -74 -13 -131 -3 -85 -7 -108 -23 -130 -27 -36 -57 -39 -88 -8 -23 24 -25
32 -24 108 0 68 -4 96 -26 153 -15 39 -28 72 -30 74 -2 1 -14 -4 -27 -13 -47
-34 -108 -9 -108 44 0 19 12 38 38 62 l38 34 -33 69 c-18 38 -33 77 -33 86 0
40 24 82 54 95 41 18 50 17 95 -6z m-539 -29 c0 -5 9 -11 20 -14 16 -4 20 -13
18 -44 -1 -36 -1 -37 -5 -5 -5 38 -33 45 -33 8 0 -14 -4 -28 -10 -31 -6 -4
-10 13 -10 44 0 28 5 51 10 51 6 0 10 -4 10 -9z"/>
<path d="M4590 7175 l0 -455 1105 0 1105 0 0 455 0 455 -1105 0 -1105 0 0
-455z m648 363 c7 -7 12 -26 12 -43 0 -17 -5 -36 -12 -43 -7 -7 -26 -12 -43
-12 -17 0 -36 5 -43 12 -7 7 -12 26 -12 43 0 17 5 36 12 43 7 7 26 12 43 12
17 0 36 -5 43 -12z m-528 -89 c0 -24 -4 -38 -10 -34 -17 10 -11 75 7 75 2 0 3
-18 3 -41z m540 -194 c12 -15 18 -71 34 -297 7 -98 -3 -118 -54 -118 -44 0
-59 32 -75 166 -27 214 -17 264 49 264 19 0 39 -7 46 -15z"/>
<path d="M6850 7175 l0 -455 363 0 364 0 -37 39 c-37 39 -70 113 -70 158 0 13
6 36 14 51 13 25 97 98 173 150 30 22 31 24 35 113 3 81 6 93 27 110 31 25 47
24 76 -6 20 -19 25 -34 25 -75 0 -27 3 -50 8 -50 25 0 214 43 250 56 54 20 89
12 103 -23 8 -22 6 -32 -9 -52 -25 -35 -59 -50 -150 -67 -42 -8 -105 -22 -138
-30 l-62 -16 -4 -111 c-6 -134 -22 -174 -87 -217 l-44 -30 686 0 687 0 0 455
0 455 -1105 0 -1105 0 0 -455z m904 397 c13 -16 14 -24 5 -51 -14 -41 -41 -56
-71 -40 -13 7 -26 17 -30 23 -12 17 -9 61 4 74 18 18 73 14 92 -6z m-784 -132
c0 -33 -4 -50 -12 -50 -9 0 -12 15 -10 50 5 65 22 65 22 0z"/>
<path d="M9100 7175 l0 -455 348 2 347 3 3 48 c2 26 -4 82 -14 123 -15 69 -18
75 -38 69 -89 -27 -136 -12 -136 45 0 26 60 117 90 135 5 3 10 14 10 23 0 12
-3 13 -12 4 -29 -29 -98 1 -98 43 0 13 15 44 34 68 31 41 34 48 25 84 -13 57
-11 109 5 122 8 7 34 11 58 9 41 -3 44 -5 71 -58 23 -45 28 -64 23 -101 -2
-26 -2 -50 1 -53 3 -3 51 37 106 90 98 94 150 134 175 134 19 0 62 -46 62 -66
0 -10 -64 -82 -142 -160 -78 -79 -132 -140 -120 -137 64 16 164 -69 218 -184
32 -70 35 -73 68 -73 19 0 48 8 65 18 28 15 33 16 58 2 31 -17 42 -62 22 -86
-22 -26 -87 -54 -126 -54 -99 0 -145 33 -195 137 -29 61 -76 113 -104 113 -17
0 -17 -19 -3 -80 6 -25 14 -83 17 -130 l7 -85 695 0 695 0 3 453 2 452 -1110
0 -1110 0 0 -455z m130 314 c0 -18 2 -19 15 -9 9 8 15 9 15 2 0 -6 -5 -14 -10
-17 -7 -4 -7 -12 0 -25 14 -26 13 -35 -3 -21 -10 8 -17 7 -25 -1 -9 -9 -12 0
-12 40 0 29 5 52 10 52 6 0 10 -10 10 -21z"/>
<path d="M11360 7175 l0 -455 1105 0 1105 0 0 455 0 455 -1105 0 -1105 0 0
-455z m122 273 c2 -21 0 -38 -4 -38 -4 0 -7 24 -7 53 1 54 5 49 11 -15z m828
-6 c30 -24 28 -56 -10 -262 -30 -165 -35 -210 -24 -210 4 0 21 9 40 20 18 12
63 27 101 35 59 12 71 12 90 0 57 -37 29 -101 -53 -123 -27 -7 -89 -15 -139
-18 -79 -5 -94 -3 -122 15 -46 29 -49 65 -24 262 26 196 43 262 74 284 28 19
40 19 67 -3z"/>
<path d="M894 7355 c-29 -29 -30 -71 -2 -89 41 -25 262 45 232 74 -16 15 -117
40 -161 40 -34 0 -50 -6 -69 -25z"/>
<path d="M1125 6984 c-72 -35 -90 -56 -88 -103 2 -41 27 -101 42 -101 14 0 83
100 97 140 15 39 18 90 7 89 -5 0 -30 -11 -58 -25z"/>
<path d="M7647 6955 c-48 -46 -55 -62 -37 -96 14 -24 42 -24 64 0 16 17 37
141 24 141 -2 0 -25 -20 -51 -45z"/>
<path d="M80 6225 l0 -455 1105 0 1105 0 0 455 0 455 -577 -4 c-318 -3 -600
-5 -628 -5 -27 0 -265 2 -527 5 l-478 5 0 -456z m1328 293 c30 -29 41 -74 49
-203 5 -92 2 -125 -16 -201 -11 -50 -21 -94 -21 -96 0 -3 20 2 44 10 40 15 45
15 70 -1 32 -21 35 -68 6 -94 -30 -28 -145 -83 -174 -83 -19 0 -32 9 -46 32
-32 54 -35 110 -10 202 27 97 40 309 20 321 -30 18 -185 -183 -196 -256 -10
-58 -39 -91 -77 -87 -37 4 -53 30 -62 101 -5 34 -15 58 -36 80 l-29 32 -40
-44 c-64 -70 -89 -131 -100 -250 -11 -113 -25 -147 -66 -157 -32 -8 -60 17
-74 65 -5 20 -10 111 -10 204 0 104 -4 167 -10 167 -5 0 -10 -7 -10 -15 0 -23
-37 -55 -65 -55 -60 0 -69 83 -21 187 31 65 71 90 120 73 49 -16 65 -39 81
-115 7 -37 16 -69 18 -71 2 -3 15 12 28 31 35 51 118 106 171 112 46 5 66 -8
111 -71 13 -17 16 -15 50 32 52 70 151 160 190 171 41 12 76 5 105 -21z
m-1141 -23 c0 -22 -1 -29 -4 -15 -7 37 -23 49 -23 18 0 -15 -4 -30 -10 -33 -6
-4 -10 7 -10 24 0 17 -4 31 -10 31 -5 0 -10 -13 -10 -30 0 -16 -4 -30 -10 -30
-5 0 -10 18 -10 41 l0 40 43 -3 c42 -3 42 -3 44 -43z"/>
<path d="M2330 6225 l0 -455 1108 2 1107 3 3 453 2 452 -1110 0 -1110 0 0
-455z m1114 364 c68 -53 86 -140 86 -409 0 -115 4 -211 8 -214 5 -3 19 8 31
25 25 33 86 75 125 85 38 9 76 -19 76 -55 0 -40 -62 -91 -156 -131 -81 -34
-119 -37 -152 -14 -44 30 -47 48 -52 304 -4 171 -9 252 -18 267 -32 57 -102
31 -176 -65 -84 -110 -114 -187 -131 -340 -14 -124 -28 -152 -75 -152 -28 0
-52 20 -64 54 -3 10 -1 64 5 120 15 131 6 210 -28 239 -14 12 -29 30 -34 39
-15 29 14 73 61 92 53 21 53 21 87 -14 l30 -31 26 38 c102 147 271 225 351
162z m-948 -94 c1 -32 1 -34 -3 -7 -5 38 -33 45 -33 8 0 -14 -4 -28 -10 -31
-6 -4 -10 10 -10 35 0 39 1 41 28 38 24 -3 27 -7 28 -43z"/>
<path d="M4590 6225 l0 -455 1105 0 1105 0 0 455 0 455 -1105 0 -1105 0 0
-455z m148 303 c17 -17 15 -43 -4 -59 -31 -26 -70 25 -44 56 15 18 32 19 48 3z
m938 -59 c88 -44 176 -114 199 -160 22 -42 19 -163 -5 -243 -37 -118 -145
-220 -260 -245 -88 -19 -215 14 -267 71 -43 46 -55 95 -61 244 -8 225 23 279
197 350 78 32 104 30 197 -17z"/>
<path d="M4700 6500 c0 -11 7 -20 15 -20 8 0 15 9 15 20 0 11 -7 20 -15 20 -8
0 -15 -9 -15 -20z"/>
<path d="M5495 6355 c-33 -14 -65 -32 -71 -40 -29 -39 -27 -276 2 -322 24 -38
71 -56 133 -51 121 9 211 123 211 268 0 58 -15 73 -127 129 -46 23 -84 41 -85
41 -2 0 -30 -12 -63 -25z"/>
<path d="M6850 6225 l0 -455 311 0 311 0 -6 35 c-8 39 16 291 44 479 11 71 20
132 20 137 0 4 -51 5 -113 2 -122 -6 -129 -4 -142 49 -12 46 19 64 121 73 125
11 394 9 425 -3 30 -12 85 -64 111 -107 21 -35 24 -117 6 -176 -27 -93 -157
-182 -264 -183 -32 -1 -54 -5 -54 -12 0 -16 -19 -224 -24 -261 l-5 -33 735 0
734 0 0 455 0 455 -1105 0 -1105 0 0 -455z m160 300 c17 -20 9 -48 -18 -60
-12 -5 -22 -13 -22 -17 0 -5 -4 -8 -10 -8 -5 0 -10 23 -10 50 0 46 2 50 24 50
13 0 29 -7 36 -15z"/>
<path d="M6970 6500 c0 -11 7 -20 15 -20 8 0 15 9 15 20 0 11 -7 20 -15 20 -8
0 -15 -9 -15 -20z"/>
<path d="M9102 6228 l3 -453 1105 0 1105 0 3 453 2 452 -698 0 c-686 0 -699 0
-717 -20 -11 -12 -31 -20 -51 -20 -23 0 -37 6 -44 20 -10 19 -21 20 -360 20
l-350 0 2 -452z m1170 358 c75 -7 140 -88 154 -190 9 -61 -12 -167 -46 -242
l-29 -63 40 -32 c46 -36 53 -78 17 -103 -32 -23 -53 -20 -89 12 l-32 29 -39
-39 c-42 -42 -128 -88 -166 -88 -91 0 -190 69 -238 166 -26 53 -26 60 -21 172
6 135 25 205 74 279 38 57 86 92 142 104 33 7 135 5 233 -5z m-1012 -98 c0
-29 -4 -48 -8 -42 -4 7 -16 13 -27 15 -12 3 -21 14 -23 27 -5 36 5 52 33 52
24 0 25 -3 25 -52z"/>
<path d="M10034 6461 c-29 -12 -60 -80 -79 -169 -24 -115 -20 -170 14 -224 36
-57 62 -72 114 -65 28 4 51 16 76 41 l36 36 -69 69 c-49 50 -68 76 -68 95 0
36 19 56 56 56 25 0 43 -11 86 -55 30 -30 58 -55 62 -55 4 0 14 23 23 52 23
80 19 182 -11 216 -7 9 -221 11 -240 3z"/>
<path d="M9214 6509 c-10 -17 13 -36 27 -22 12 12 4 33 -11 33 -5 0 -12 -5
-16 -11z"/>
<path d="M11360 6225 l0 -455 1105 0 1105 0 0 455 0 455 -1105 0 -1105 0 0
-455z m656 334 c20 -19 26 -19 82 -9 102 18 198 -16 247 -88 29 -43 32 -80 9
-128 -20 -42 -55 -68 -141 -104 l-65 -28 61 -42 c34 -23 65 -48 68 -56 11 -29
39 -34 109 -20 76 16 99 10 114 -30 23 -61 -35 -96 -163 -98 l-88 -1 -35 38
c-20 21 -70 61 -112 89 l-77 50 -7 -102 c-7 -111 -21 -145 -64 -156 -18 -5
-32 0 -51 17 -28 27 -28 39 -4 294 6 61 8 127 5 148 -6 38 -7 39 -43 32 -20
-3 -50 -8 -68 -11 -25 -5 -37 -1 -57 20 -15 14 -26 32 -26 41 0 26 44 62 86
69 83 15 114 27 114 43 0 48 67 69 106 32z m-516 -29 c0 -5 -4 -10 -9 -10 -6
0 -12 -15 -14 -32 -3 -29 -4 -27 -5 10 -2 31 2 42 13 42 8 0 15 -4 15 -10z"/>
<path d="M12130 6432 c-14 -2 -42 -8 -62 -13 -37 -10 -38 -10 -38 -59 l0 -49
33 5 c78 14 112 28 140 55 19 19 26 34 20 40 -14 14 -64 25 -93 21z"/>
<path d="M7661 6358 c-7 -46 -15 -100 -18 -120 l-6 -38 38 0 c72 0 155 69 155
128 0 32 -19 77 -38 88 -10 7 -41 15 -69 19 l-50 7 -12 -84z"/>
<path d="M80 5275 l0 -455 1105 0 1105 0 0 455 0 455 -1105 0 -1105 0 0 -455z
m138 297 c2 -8 -3 -10 -15 -6 -17 5 -17 5 1 -10 11 -9 16 -22 12 -31 -7 -19
-37 -17 -44 3 -2 8 3 10 15 6 17 -5 17 -5 -1 10 -11 9 -16 22 -12 31 7 19 37
17 44 -3z m995 -62 c101 -43 131 -87 90 -132 -21 -24 -43 -23 -136 7 -84 27
-110 24 -122 -16 -10 -30 17 -54 103 -90 138 -57 172 -90 172 -168 0 -49 -24
-79 -91 -116 -107 -58 -288 -40 -393 40 -50 38 -61 84 -24 109 32 22 40 21
130 -24 96 -47 158 -53 202 -19 14 11 26 25 26 30 0 10 -44 31 -135 64 -27 10
-65 33 -82 51 -29 28 -33 39 -33 84 0 75 39 152 93 185 57 34 110 32 200 -5z"/>
<path d="M2332 5278 l3 -453 1105 0 1105 0 3 453 2 452 -1110 0 -1110 0 2
-452z m966 356 c31 -21 28 -47 -18 -154 -23 -51 -39 -94 -38 -96 9 -8 194 -43
209 -39 9 3 28 -4 43 -16 34 -27 32 -64 -6 -92 -27 -20 -29 -20 -164 -3 -156
20 -156 20 -152 -54 3 -38 8 -48 36 -67 52 -34 107 -38 219 -14 125 27 167 27
193 1 40 -40 14 -90 -57 -109 -71 -20 -207 -34 -279 -28 -104 8 -180 52 -220
128 -18 35 -23 125 -10 165 6 19 -1 23 -77 43 -101 27 -127 43 -127 79 0 60
37 71 161 47 52 -10 94 -14 98 -9 4 5 22 45 40 89 55 135 93 168 149 129z
m-838 -86 c0 -21 -4 -38 -9 -38 -10 0 -20 68 -13 88 8 23 22 -8 22 -50z"/>
<path d="M4590 5275 l0 -455 1105 0 1105 0 0 455 0 455 -1105 0 -1105 0 0
-455z m136 255 c8 0 14 10 14 24 0 14 5 28 10 31 6 4 10 -10 10 -34 0 -37 -2
-41 -25 -41 -30 0 -52 38 -39 67 6 15 9 12 12 -14 2 -20 9 -33 18 -33z m687
-6 c37 -37 42 -78 28 -232 -12 -141 -7 -172 31 -196 49 -30 225 69 266 149 5
11 13 67 16 125 4 58 12 117 18 133 20 51 101 45 114 -9 4 -15 2 -111 -4 -213
-14 -244 -7 -275 48 -216 42 45 110 23 110 -36 0 -44 -105 -119 -167 -119 -72
0 -97 27 -109 117 l-6 50 -62 -37 c-89 -53 -138 -70 -209 -70 -79 0 -125 23
-152 76 -16 33 -20 64 -22 192 -3 136 -5 156 -23 174 -24 26 -25 46 -4 77 17
24 71 61 90 61 6 0 23 -12 37 -26z"/>
<path d="M6850 5275 l0 -455 1105 0 1105 0 0 455 0 455 -1105 0 -1105 0 0
-455z m120 276 c1 -9 7 -3 15 14 l15 30 -6 -35 c-7 -40 -12 -50 -24 -50 -8 0
-30 53 -30 73 0 16 30 -15 30 -32z m1036 -46 c22 -33 13 -130 -19 -218 -26
-70 -127 -238 -168 -279 -37 -38 -95 -39 -137 -3 -31 26 -98 124 -186 272 -42
69 -52 80 -67 72 -25 -13 -73 -11 -87 3 -15 15 -16 53 -2 78 15 28 100 80 131
80 35 0 62 -38 148 -206 72 -143 101 -180 131 -164 24 13 75 86 101 145 11 25
26 82 34 126 8 45 22 90 31 100 25 28 70 24 90 -6z"/>
<path d="M9102 5278 l3 -453 1105 0 1105 0 3 453 2 452 -1110 0 -1110 0 2
-452z m693 341 c8 -11 57 -230 75 -329 18 -100 15 -98 73 -43 54 52 104 83
131 83 22 0 55 -39 68 -82 6 -20 25 -51 43 -68 l33 -32 11 69 c21 122 62 267
86 309 36 62 94 77 205 53 62 -13 89 -45 72 -85 -18 -38 -51 -49 -97 -30 -59
25 -74 21 -95 -26 -20 -45 -60 -287 -60 -360 0 -47 -25 -105 -53 -122 -13 -9
-27 -6 -62 13 -25 13 -45 27 -45 32 0 4 -29 36 -64 72 l-64 65 -66 -73 c-96
-107 -163 -130 -202 -69 -21 31 -47 155 -71 326 l-17 127 -33 -30 c-39 -34
-75 -37 -103 -9 -35 35 -22 65 60 135 86 73 157 104 175 74z m-561 -44 c8 23
26 18 26 -7 l1 -23 12 23 c18 31 28 17 15 -21 -15 -43 -16 -44 -33 -21 -13 17
-14 17 -15 2 0 -18 -15 -24 -23 -10 -3 4 -8 23 -11 42 -6 31 -6 33 7 17 13
-15 15 -16 21 -2z"/>
<path d="M11360 5275 l0 -455 1105 0 1105 0 0 455 0 455 -1105 0 -1105 0 0
-455z m1131 374 c11 -11 18 -27 15 -36 -3 -8 -6 -19 -6 -24 0 -5 -58 -71 -130
-146 -71 -76 -130 -143 -130 -149 0 -7 5 -16 10 -19 6 -4 33 -34 61 -68 28
-34 91 -103 141 -154 76 -78 89 -96 83 -115 -17 -54 -62 -66 -114 -29 -16 12
-86 81 -155 153 l-124 131 -33 -39 c-73 -85 -157 -164 -175 -164 -26 0 -64 35
-64 59 0 22 36 77 103 156 28 33 57 68 65 77 15 18 20 10 -97 158 -19 24 -20
24 -27 5 -13 -36 -36 -55 -69 -55 -39 0 -55 16 -55 55 0 24 12 43 52 83 28 28
60 54 70 58 25 8 55 -13 152 -107 l82 -78 89 96 c105 114 178 173 211 173 13
0 33 -9 45 -21z m-997 -69 c8 6 11 -3 11 -30 0 -27 -3 -36 -11 -30 -6 6 -14 6
-20 0 -6 -6 -9 5 -9 30 0 25 3 36 9 30 6 -6 14 -6 20 0z"/>
<path d="M80 4330 l0 -450 1105 0 1105 0 0 450 0 450 -1105 0 -1105 0 0 -450z
m1248 324 c46 -32 24 -85 -97 -223 -30 -35 -78 -82 -106 -104 -30 -24 -75 -77
-114 -136 -166 -250 -242 -296 -348 -213 -53 42 -98 102 -108 144 -5 21 -1 33
19 52 14 15 32 26 41 26 17 0 51 -33 93 -89 33 -44 63 -41 105 12 42 52 137
195 137 205 0 5 -16 24 -36 43 -48 46 -154 205 -154 231 0 48 63 76 102 46 20
-16 120 -163 138 -204 l13 -30 116 119 c136 141 155 152 199 121z m-1128 -53
c1 -9 7 -3 16 14 14 30 14 30 9 3 -13 -67 -40 -104 -40 -55 -1 12 -4 35 -9 51
-6 26 -5 28 8 17 9 -8 16 -21 16 -30z"/>
<path d="M2330 4330 l0 -450 1110 0 1110 0 0 450 0 450 -1110 0 -1110 0 0
-450z m1364 297 c26 -36 14 -60 -61 -122 -69 -58 -383 -367 -383 -377 0 -4 74
-5 164 -1 l164 6 26 -26 c31 -31 32 -47 9 -76 -25 -30 -105 -41 -315 -41 -107
0 -179 -4 -183 -10 -17 -28 -95 16 -95 54 0 26 78 119 254 302 l175 181 -202
7 c-111 3 -215 10 -231 14 -16 4 -38 20 -49 34 -16 22 -17 29 -7 49 7 13 18
28 24 32 6 4 164 6 351 4 l339 -4 20 -26z m-1204 0 c0 -7 -6 -19 -12 -26 -10
-11 -10 -14 0 -18 21 -8 13 -23 -13 -23 -26 0 -33 18 -13 38 8 8 8 15 -2 27
-11 13 -9 15 14 15 15 0 26 -6 26 -13z"/>
<path d="M4590 4330 l0 -450 1105 0 1105 0 0 450 0 450 -1105 0 -1105 0 0
-450z m1023 418 c11 -9 33 -74 61 -183 25 -94 49 -182 54 -195 6 -14 20 -61
33 -105 13 -50 31 -88 45 -102 31 -29 30 -58 -2 -88 -32 -30 -84 -33 -106 -7
-24 26 -47 76 -68 146 l-20 63 -104 -1 -104 -1 -41 -74 c-22 -40 -41 -83 -41
-94 0 -49 -64 -75 -102 -40 -38 34 -25 68 170 446 115 221 134 246 188 247 11
0 28 -6 37 -12z m-863 -129 c12 -42 6 -81 -5 -41 -9 28 -31 29 -38 0 -4 -12
-9 -20 -12 -16 -10 10 19 98 32 98 7 0 17 -18 23 -41z"/>
<path d="M5503 4466 l-32 -64 51 -6 c28 -4 52 -5 54 -3 6 5 -29 137 -36 137
-3 0 -20 -29 -37 -64z"/>
<path d="M6850 4330 l0 -450 1105 0 1105 0 0 450 0 450 -1105 0 -1105 0 0
-450z m1005 394 c19 -9 40 -30 49 -49 18 -37 21 -130 6 -169 -9 -24 -8 -25 48
-31 84 -10 116 -22 155 -60 84 -81 53 -206 -71 -293 -138 -96 -215 -121 -427
-137 -78 -6 -80 -7 -82 -33 -3 -51 -59 -73 -100 -40 -27 22 -35 114 -31 380
l3 266 -35 -15 c-120 -51 -161 -55 -186 -18 -22 33 -11 71 25 90 67 34 310 97
461 119 67 9 154 5 185 -10z m-838 -104 c2 -42 -11 -60 -43 -60 -22 0 -24 4
-24 51 l0 50 33 -3 c29 -3 32 -6 34 -38z"/>
<path d="M7625 4609 c-93 -21 -85 -12 -85 -89 l0 -70 43 6 c53 8 159 50 192
76 27 21 33 56 13 76 -14 14 -104 14 -163 1z"/>
<path d="M7715 4349 c-33 -5 -87 -17 -120 -28 l-60 -19 -3 -91 -3 -91 63 0
c138 0 239 19 308 56 104 57 152 113 127 148 -22 29 -187 43 -312 25z"/>
<path d="M6970 4629 c0 -24 23 -21 28 4 2 10 -3 17 -12 17 -10 0 -16 -9 -16
-21z"/>
<path d="M6970 4590 c0 -5 7 -10 15 -10 8 0 15 5 15 10 0 6 -7 10 -15 10 -8 0
-15 -4 -15 -10z"/>
<path d="M9100 4330 l0 -450 1110 0 1110 0 0 450 0 450 -1110 0 -1110 0 0
-450z m1032 331 c119 -41 148 -73 113 -127 -19 -29 -34 -29 -148 -4 -81 18
-100 8 -125 -72 -25 -78 -34 -166 -24 -238 7 -54 7 -54 52 -68 33 -10 78 -11
173 -6 117 6 128 8 139 28 14 27 28 36 57 36 31 0 61 -27 61 -54 0 -28 -33
-81 -62 -100 -50 -33 -273 -47 -403 -26 -113 18 -153 101 -142 290 11 167 77
327 147 353 32 12 109 6 162 -12z m-864 -21 c5 -13 3 -13 -11 -1 -21 17 -47 0
-47 -31 0 -24 26 -34 46 -17 14 12 16 11 13 -6 -5 -24 -34 -31 -54 -15 -16 13
-19 47 -9 75 8 20 55 16 62 -5z"/>
<path d="M11360 4330 l0 -450 1105 0 1105 0 0 450 0 450 -1105 0 -1105 0 0
-450z m1176 345 c56 -16 108 -64 121 -113 5 -15 8 -67 8 -117 0 -80 -3 -95
-27 -135 -53 -91 -108 -121 -280 -155 -45 -8 -93 -18 -105 -20 -15 -4 -20 -10
-16 -24 7 -27 -40 -73 -70 -69 -12 2 -31 17 -42 35 -20 31 -21 31 -91 30 -83
-2 -114 16 -114 65 0 40 48 68 119 68 l53 0 -5 33 c-3 17 -9 83 -13 145 -4 61
-10 112 -13 112 -4 0 -47 -13 -96 -30 -98 -33 -156 -38 -175 -15 -18 22 -15
64 6 85 17 16 198 69 339 100 137 31 303 32 401 5z m-998 -53 c4 -40 -12 -62
-44 -62 -22 0 -24 4 -24 51 l0 50 33 -3 c28 -3 32 -7 35 -36z"/>
<path d="M12310 4573 c-14 -2 -44 -6 -67 -9 l-43 -5 7 -137 c3 -75 9 -144 12
-153 5 -14 15 -14 101 3 107 21 175 51 203 89 41 56 27 172 -23 195 -27 12
-149 23 -190 17z"/>
<path d="M11480 4615 c0 -28 4 -35 19 -35 24 0 37 36 21 55 -22 27 -40 17 -40
-20z"/>
<path d="M80 3380 l0 -450 1105 0 1105 0 0 450 0 450 -1105 0 -1105 0 0 -450z
m1227 365 c64 -3 112 -1 127 6 55 25 108 -23 84 -75 -6 -14 -18 -28 -27 -32
-9 -3 -143 -9 -298 -12 -231 -4 -280 -7 -276 -18 3 -8 0 -44 -7 -80 -9 -54 -9
-69 2 -76 7 -5 71 -7 142 -5 115 3 131 2 148 -15 35 -35 16 -82 -40 -98 -20
-5 -94 -10 -163 -10 l-127 0 -11 -75 c-6 -41 -8 -81 -5 -90 13 -32 65 -31 268
7 64 12 69 11 82 -7 23 -31 17 -71 -13 -93 -45 -32 -100 -42 -223 -42 -91 0
-124 4 -157 19 -66 30 -75 58 -72 219 1 75 8 157 15 182 46 162 52 194 42 216
-14 31 -2 73 25 84 21 8 252 6 484 -5z m-1084 -42 c-15 -3 -23 -12 -23 -24 0
-13 7 -19 23 -20 l22 -2 -22 -4 c-28 -5 -30 -23 -3 -23 11 0 20 -4 20 -10 0
-5 -13 -10 -30 -10 -29 0 -30 1 -30 50 l0 50 33 -1 c23 -1 26 -3 10 -6z"/>
<path d="M2330 3380 l0 -450 1110 0 1110 0 0 450 0 450 -1110 0 -1110 0 0
-450z m1180 360 c25 -25 26 -62 1 -84 -21 -19 -97 -31 -262 -41 l-97 -7 -6
-36 c-3 -21 -6 -58 -6 -84 l0 -48 64 0 c75 0 109 -20 109 -64 0 -45 -23 -58
-107 -64 -74 -5 -75 -5 -82 -36 -4 -17 -7 -84 -8 -149 -1 -105 -3 -120 -20
-133 -28 -20 -49 -17 -76 11 -23 24 -23 27 -16 168 6 128 5 148 -11 175 -17
30 -17 33 -1 64 19 36 30 178 13 178 -5 0 -53 -9 -107 -21 -109 -23 -140 -20
-163 15 -21 31 -6 69 32 84 31 13 227 47 363 64 47 5 112 13 145 18 33 4 95 8
138 9 65 1 80 -2 97 -19z m-1027 -37 c-28 -5 -32 -42 -5 -44 16 -1 16 -2 0 -6
-10 -2 -18 -11 -18 -18 0 -8 -4 -17 -10 -20 -6 -4 -10 13 -10 44 l0 51 33 -1
c23 -1 26 -3 10 -6z"/>
<path d="M4590 3380 l0 -450 1105 0 1105 0 0 450 0 450 -1105 0 -1105 0 0
-450z m1064 321 c50 -21 66 -54 47 -90 -16 -29 -50 -35 -124 -22 -106 18 -147
15 -200 -18 -71 -46 -92 -94 -92 -211 1 -73 5 -102 19 -125 22 -37 78 -78 131
-95 54 -18 159 -18 181 1 25 20 44 72 44 119 l0 40 -62 2 c-35 1 -86 1 -115 0
-46 -3 -54 0 -69 22 -20 32 -12 71 19 88 14 8 78 14 169 16 138 4 149 3 177
-18 21 -15 31 -30 31 -48 0 -15 7 -52 15 -82 23 -85 20 -125 -12 -149 -14 -12
-33 -19 -42 -16 -10 3 -24 -7 -38 -29 -25 -39 -90 -73 -155 -82 -97 -13 -262
38 -331 104 -107 101 -118 370 -21 489 83 101 164 136 296 129 56 -3 103 -12
132 -25z m-899 -2 c11 -17 -3 -23 -21 -9 -13 12 -17 11 -25 -1 -14 -22 -6 -53
15 -57 14 -3 17 0 13 12 -4 10 -1 16 8 16 9 0 15 -10 15 -25 0 -21 -5 -25 -30
-25 -43 0 -68 58 -38 88 15 15 55 16 63 1z"/>
<path d="M6850 3380 l0 -450 281 0 c264 0 281 1 274 18 -4 9 -11 81 -15 160
-4 78 -10 145 -13 148 -3 3 -57 0 -120 -5 -125 -12 -158 -6 -177 29 -14 27 -5
57 23 73 12 6 77 19 145 27 l123 15 2 186 c2 168 4 189 21 208 25 28 70 27 90
-1 11 -16 16 -46 16 -103 0 -44 3 -124 7 -177 l6 -97 26 4 c14 3 59 10 100 16
l73 11 -7 132 c-7 147 2 211 36 239 20 16 1 17 -435 17 l-456 0 0 -450z m120
305 c0 -18 5 -25 20 -25 15 0 20 7 20 25 0 14 5 25 10 25 6 0 10 -23 10 -51 0
-31 -4 -48 -10 -44 -5 3 -10 13 -10 21 0 8 -9 14 -20 14 -13 0 -20 -7 -20 -20
0 -11 -4 -20 -10 -20 -5 0 -10 23 -10 50 0 28 5 50 10 50 6 0 10 -11 10 -25z"/>
<path d="M7810 3810 c23 -23 21 -7 29 -195 l6 -150 65 3 c70 3 81 -1 99 -35
25 -48 -20 -87 -124 -107 l-30 -6 9 -140 c9 -139 9 -140 -14 -165 -51 -54
-103 -16 -113 82 -4 32 -9 91 -13 132 l-7 73 -61 -6 c-34 -4 -80 -9 -104 -13
l-44 -6 4 -173 3 -174 773 0 772 0 0 450 0 450 -635 0 -635 0 20 -20z"/>
<path d="M9100 3380 l0 -450 1110 0 1110 0 0 450 0 450 -1110 0 -1110 0 0
-450z m1072 329 c16 -22 17 -29 7 -52 -7 -16 -23 -30 -38 -33 -62 -14 -61 -13
-56 -57 3 -23 12 -149 21 -280 20 -308 19 -313 -104 -316 -54 -1 -65 2 -87 23
-25 25 -31 51 -17 72 11 16 48 34 71 34 19 0 21 6 21 68 0 37 -7 128 -15 202
-8 74 -15 161 -15 193 0 31 -4 57 -10 57 -17 0 -50 39 -50 60 0 10 10 29 22
40 20 19 33 20 127 18 98 -3 105 -4 123 -29z m-942 -43 c0 -25 -4 -48 -10 -51
-6 -4 -10 13 -10 44 0 28 5 51 10 51 6 0 10 -20 10 -44z"/>
<path d="M11360 3380 l0 -450 1105 0 1105 0 0 450 0 450 -1105 0 -1105 0 0
-450z m158 283 c-2 -40 -6 -48 -23 -48 -12 0 -21 8 -22 20 -2 11 0 14 3 8 12
-26 24 -12 24 27 0 22 5 40 11 40 6 0 9 -19 7 -47z m973 23 c16 -35 3 -75 -27
-86 -21 -8 -25 -15 -20 -38 14 -80 15 -108 6 -222 -12 -153 -30 -212 -74 -245
-40 -30 -160 -62 -266 -71 -70 -6 -82 -4 -114 16 -87 53 -110 144 -56 218 31
43 104 102 125 102 7 0 23 -8 35 -18 30 -24 29 -66 -3 -100 -53 -58 -62 -102
-19 -102 49 0 172 27 197 44 39 26 47 59 50 206 2 74 6 147 10 163 l7 27 -130
0 c-127 0 -179 9 -194 33 -13 20 -9 60 9 79 15 16 36 18 235 18 l218 0 11 -24z"/>
<path d="M80 2430 l0 -450 331 0 c300 0 329 1 315 16 -26 25 -29 57 -21 202
10 185 11 197 29 352 19 166 24 190 44 213 23 26 68 22 88 -8 14 -22 15 -37 7
-113 -6 -48 -10 -88 -9 -89 1 -1 39 28 85 63 111 85 151 95 180 42 22 -39 7
-59 -124 -163 -62 -49 -110 -93 -107 -96 4 -3 48 -23 97 -44 50 -20 111 -48
137 -61 26 -13 58 -24 70 -24 36 0 68 -27 68 -59 0 -48 -21 -65 -83 -65 -48
-1 -70 7 -178 61 -68 34 -136 65 -151 68 -25 7 -27 5 -33 -42 -4 -26 -10 -69
-14 -94 -6 -33 -4 -51 7 -67 15 -23 10 -53 -14 -77 -14 -13 67 -15 735 -15
l751 0 0 450 0 450 -1105 0 -1105 0 0 -450z m120 313 c0 -14 2 -14 20 2 11 10
22 16 25 13 3 -3 -1 -11 -10 -18 -19 -16 -19 -34 0 -50 8 -7 12 -17 8 -22 -3
-6 -14 -1 -24 13 l-19 24 0 -22 c0 -13 -4 -23 -10 -23 -5 0 -10 23 -10 50 0
28 5 50 10 50 6 0 10 -7 10 -17z"/>
<path d="M2330 2430 l0 -450 1110 0 1110 0 0 450 0 450 -1110 0 -1110 0 0
-450z m753 410 c11 -16 13 -60 9 -223 -3 -144 -1 -210 7 -225 11 -21 19 -22
134 -22 127 0 263 -13 344 -33 36 -9 51 -19 61 -40 12 -24 11 -31 -3 -53 -23
-36 -40 -39 -114 -25 -36 7 -165 16 -286 21 -232 8 -282 17 -304 58 -32 61 16
495 60 549 18 21 76 16 92 -7z m-623 -120 c0 -33 3 -40 20 -40 11 0 20 -4 20
-10 0 -5 -13 -10 -30 -10 -29 0 -30 1 -30 50 0 28 5 50 10 50 6 0 10 -18 10
-40z"/>
<path d="M4590 2430 l0 -450 1105 0 1105 0 0 450 0 450 -1105 0 -1105 0 0
-450z m550 400 c23 -12 93 -109 149 -204 l39 -68 18 29 c105 168 150 218 208
228 77 15 100 -13 117 -140 6 -49 28 -144 49 -210 47 -147 54 -185 46 -230 -8
-41 -40 -61 -79 -52 -29 8 -47 45 -47 98 0 23 -17 91 -39 153 -21 62 -42 131
-46 155 -4 23 -11 41 -15 39 -5 -2 -33 -39 -62 -82 -30 -45 -67 -88 -86 -99
-32 -19 -35 -19 -77 -2 -29 11 -62 36 -95 73 l-51 57 6 -35 c3 -19 7 -117 8
-218 2 -173 1 -184 -18 -198 -11 -8 -33 -14 -50 -12 -23 2 -34 11 -47 38 -19
39 -38 200 -38 318 l0 76 -33 -32 c-37 -35 -61 -40 -95 -16 -33 23 -27 55 25
131 73 107 85 122 105 129 10 3 18 12 18 20 0 17 44 64 60 64 6 0 20 -5 30
-10z m-413 -97 l16 -38 11 32 c6 18 16 34 21 35 14 4 19 -82 6 -95 -8 -8 -11
-1 -12 24 l-1 34 -9 -32 c-5 -18 -14 -33 -19 -33 -5 0 -14 15 -19 33 l-9 32
-1 -33 c-1 -49 -21 -29 -21 22 0 38 6 56 17 56 2 0 11 -17 20 -37z"/>
<path d="M6850 2430 l0 -450 1105 0 1105 0 0 450 0 450 -1105 0 -1105 0 0
-450z m990 420 c12 -12 20 -33 20 -54 0 -19 6 -67 14 -107 8 -41 17 -118 21
-172 6 -106 24 -165 74 -247 54 -87 33 -150 -51 -150 -47 0 -65 16 -193 175
-92 113 -119 144 -173 191 l-44 38 3 -209 c3 -206 2 -208 -20 -226 -29 -24
-43 -24 -70 -1 -32 25 -43 126 -39 371 3 189 5 211 22 230 40 44 91 24 191
-79 39 -39 95 -94 126 -121 l57 -49 -5 68 c-2 37 -11 101 -18 142 -15 80 -18
169 -7 186 9 14 44 33 60 34 6 0 21 -9 32 -20z m-843 -127 c11 -16 12 -15 12
10 1 49 21 28 21 -23 0 -27 -4 -50 -10 -50 -5 0 -18 17 -29 38 l-20 37 -1 -37
c0 -21 -4 -38 -10 -38 -11 0 -14 93 -3 104 7 7 13 1 40 -41z"/>
<path d="M9100 2430 l0 -450 1110 0 1110 0 0 450 0 450 -1110 0 -1110 0 0
-450z m178 318 c17 -17 15 -48 -5 -70 -41 -46 -91 3 -67 66 7 19 55 21 72 4z
m831 -3 c100 -21 139 -39 153 -72 7 -15 36 -63 65 -105 58 -86 69 -124 59
-206 -13 -114 -63 -180 -156 -206 -80 -22 -230 -39 -293 -34 -103 8 -276 109
-304 176 -22 53 -13 174 19 244 35 75 117 171 170 196 53 26 182 29 287 7z"/>
<path d="M9220 2735 c-16 -19 -3 -55 20 -55 25 0 33 15 26 46 -7 27 -27 31
-46 9z"/>
<path d="M9882 2629 c-47 -14 -117 -112 -132 -186 -17 -82 -8 -100 80 -153 71
-43 79 -45 146 -44 107 1 234 24 255 45 10 10 23 37 29 60 16 57 -3 105 -75
191 -50 60 -60 67 -107 78 -80 17 -159 21 -196 9z"/>
<path d="M11360 2430 l0 -450 1105 0 1105 0 0 450 0 450 -1105 0 -1105 0 0
-450z m1022 387 c41 -20 93 -53 117 -74 37 -34 43 -45 52 -101 20 -129 -28
-166 -301 -232 -47 -11 -131 -23 -186 -26 l-101 -7 -5 -99 c-5 -95 -4 -101 18
-124 29 -28 30 -44 6 -74 -36 -44 -101 -22 -108 37 -2 16 -8 42 -13 56 -6 15
-13 57 -16 94 -9 104 -12 110 -44 116 -58 12 -59 103 -1 117 20 5 26 13 28 39
l3 33 -49 -42 c-34 -28 -58 -41 -73 -38 -30 4 -60 47 -53 75 7 25 164 165 238
211 91 58 195 83 327 78 75 -3 96 -8 161 -39z m-857 -88 c0 -17 -6 -25 -22
-27 -13 -2 -23 -12 -26 -25 -2 -12 -5 3 -6 35 l-1 56 28 -7 c20 -6 27 -14 27
-32z"/>
<path d="M12105 2725 c-38 -7 -87 -20 -107 -28 l-38 -16 0 -92 0 -91 83 7
c179 15 378 71 385 109 5 25 -42 71 -97 94 -63 26 -142 32 -226 17z"/>
<path d="M11480 2735 c0 -8 7 -15 15 -15 8 0 15 7 15 15 0 8 -7 15 -15 15 -8
0 -15 -7 -15 -15z"/>
<path d="M80 1480 l0 -450 1105 0 1105 0 0 450 0 450 -1105 0 -1105 0 0 -450z
m1162 370 c14 -11 63 -39 108 -62 105 -54 186 -133 263 -258 63 -103 70 -141
40 -205 -9 -19 -15 -36 -12 -38 2 -2 30 -20 61 -41 83 -56 112 -89 104 -120
-3 -14 -17 -33 -30 -41 -31 -21 -61 -9 -153 60 l-71 54 -40 -19 c-79 -38 -254
-82 -327 -82 -138 -1 -302 63 -360 139 -46 60 -52 98 -30 197 24 113 128 307
203 379 55 53 197 74 244 37z m-996 -51 c12 -13 15 -28 10 -54 -6 -28 -11 -35
-31 -35 -47 0 -74 60 -41 93 19 19 43 17 62 -4z"/>
<path d="M1105 1726 c-55 -24 -122 -123 -170 -250 -34 -90 -33 -139 3 -175 75
-76 241 -97 400 -52 45 13 82 26 82 30 0 3 -32 23 -70 44 -127 69 -156 111
-110 157 30 30 52 25 138 -28 42 -27 94 -58 114 -71 l37 -22 15 30 c19 36 14
51 -23 73 -16 9 -48 45 -70 80 -46 72 -98 112 -211 158 -99 42 -100 42 -135
26z"/>
<path d="M194 1786 c-10 -26 0 -51 21 -51 16 0 20 7 20 30 0 33 -30 49 -41 21z"/>
<path d="M2330 1480 l0 -450 1110 0 1110 0 0 450 0 450 -1110 0 -1110 0 0
-450z m155 330 c10 0 14 -15 13 -52 0 -41 -2 -48 -9 -30 -9 25 -29 30 -29 8 0
-8 -4 -18 -10 -21 -6 -4 -10 15 -10 50 0 48 3 56 16 51 9 -3 22 -6 29 -6z
m549 -9 c16 -18 19 -18 99 1 115 27 171 21 213 -24 42 -46 74 -135 74 -205 0
-74 -33 -132 -96 -169 -32 -19 -42 -29 -33 -35 7 -4 62 -20 122 -35 164 -40
271 -119 254 -185 -9 -34 -49 -52 -82 -37 -14 6 -25 15 -25 19 0 17 -88 58
-156 73 -39 9 -102 30 -140 47 -65 29 -182 65 -189 57 -2 -2 -8 -46 -15 -98
-12 -103 -26 -130 -70 -130 -51 0 -62 27 -58 136 3 91 1 100 -19 121 -31 30
-29 49 7 85 25 24 30 38 30 76 0 26 -3 63 -6 83 l-6 36 -51 -14 c-43 -11 -54
-11 -73 2 -58 38 -34 95 52 122 42 13 59 24 66 42 5 14 14 31 20 38 16 19 62
16 82 -6z"/>
<path d="M2460 1785 c0 -8 7 -15 15 -15 8 0 15 7 15 15 0 8 -7 15 -15 15 -8 0
-15 -7 -15 -15z"/>
<path d="M3140 1681 l-65 -17 0 -107 -1 -108 31 7 c55 12 150 46 167 61 41 36
26 120 -30 163 -29 23 -20 23 -102 1z"/>
<path d="M4590 1480 l0 -450 1105 0 1105 0 0 450 0 450 -1105 0 -1105 0 0
-450z m1106 366 c108 -29 227 -112 227 -159 0 -33 -28 -67 -55 -67 -10 0 -54
20 -97 45 -97 56 -151 75 -212 75 -122 0 -189 -74 -123 -135 27 -25 53 -36
194 -80 93 -30 142 -61 165 -105 33 -64 8 -171 -53 -222 -65 -54 -385 -99
-491 -68 -45 12 -137 83 -156 119 -8 16 -17 47 -21 69 -5 32 -2 44 15 61 12
12 32 21 46 21 32 0 68 -36 62 -61 -6 -24 53 -75 103 -89 98 -28 342 8 372 54
14 20 8 63 -9 79 -10 8 -54 25 -99 36 -100 26 -138 41 -190 79 -66 48 -87 91
-82 167 3 53 9 71 35 102 16 21 54 50 83 66 46 24 63 27 144 27 50 0 114 -6
142 -14z m-941 -46 c4 -7 -2 -9 -19 -4 -33 8 -34 -9 -1 -24 14 -7 25 -20 25
-31 0 -27 -38 -38 -59 -16 -15 15 -14 16 12 10 32 -8 37 9 7 25 -29 16 -26 50
4 50 14 0 28 -5 31 -10z"/>
<path d="M6850 1480 l0 -450 1105 0 1105 0 0 450 0 450 -1105 0 -1105 0 0
-450z m1486 345 c27 -27 26 -55 -2 -85 -16 -16 -118 -19 -351 -9 -61 2 -114 1
-118 -3 -4 -4 -14 -117 -22 -250 -17 -286 -22 -311 -63 -328 -47 -19 -76 5
-85 70 -8 57 1 239 19 391 8 68 9 99 2 99 -6 0 -51 -7 -101 -15 -49 -8 -118
-15 -152 -15 -55 0 -64 3 -79 25 -19 29 -11 60 20 80 34 22 286 46 576 54 140
4 272 8 293 9 29 2 44 -4 63 -23z m-1326 -15 c13 -8 12 -10 -2 -10 -14 0 -18
-10 -20 -47 l-2 -48 -3 48 c-3 36 -8 47 -21 47 -15 0 -15 2 -2 10 8 5 20 10
25 10 6 0 17 -5 25 -10z"/>
<path d="M9100 1480 l0 -450 1110 0 1110 0 0 450 0 450 -1110 0 -1110 0 0
-450z m1189 411 c30 -30 35 -94 27 -361 -4 -135 -4 -265 0 -288 6 -39 8 -41
24 -27 26 23 67 19 86 -10 24 -36 11 -69 -40 -105 -60 -40 -125 -42 -155 -4
-11 14 -23 41 -26 60 -3 19 -7 50 -10 69 l-6 34 -45 -34 c-65 -50 -138 -69
-233 -60 -161 15 -187 46 -202 234 -12 157 -11 358 1 403 14 48 41 64 80 48
15 -6 31 -21 34 -33 3 -12 6 -131 6 -263 0 -269 -2 -262 69 -271 103 -14 172
20 216 107 31 61 65 240 65 343 0 45 5 99 10 119 16 57 63 75 99 39z m-1059
-122 c0 -55 23 -46 31 12 l6 44 1 -53 c2 -56 -14 -76 -43 -52 -17 14 -22 105
-5 95 6 -3 10 -24 10 -46z"/>
<path d="M11360 1480 l0 -450 1105 0 1105 0 0 450 0 450 -1105 0 -1105 0 0
-450z m645 374 c9 -4 34 -43 57 -88 48 -96 236 -425 253 -444 20 -22 100 162
123 288 34 177 64 224 127 200 48 -18 45 -66 -16 -285 -37 -136 -168 -398
-211 -423 -60 -36 -106 26 -280 373 -143 287 -160 339 -117 369 25 17 38 19
64 10z m-520 -76 l7 -33 15 35 c19 43 29 24 13 -25 -20 -61 -34 -53 -54 28 -3
15 -2 27 3 27 4 0 12 -15 16 -32z"/>
<path d="M80 530 l0 -450 1105 0 1105 0 0 450 0 450 -1105 0 -1105 0 0 -450z
m1172 333 c20 -18 23 -45 8 -72 -5 -10 -14 -58 -20 -107 -11 -90 -61 -347 -80
-416 -14 -50 -35 -68 -75 -68 -46 0 -86 37 -132 121 l-37 69 -36 -34 c-19 -18
-45 -39 -57 -45 -16 -8 -23 -21 -23 -41 0 -40 -40 -67 -78 -54 -22 8 -32 24
-55 89 -32 91 -97 336 -97 366 0 11 -7 22 -15 25 -26 10 -36 39 -24 73 8 23
20 34 48 42 89 26 101 9 159 -218 l39 -152 48 49 c54 55 89 73 131 68 26 -3
33 -12 59 -75 17 -40 33 -73 36 -73 9 0 59 225 69 309 10 89 16 108 43 139 24
26 63 29 89 5z m-1051 -34 l6 -24 8 28 c8 31 35 37 35 7 0 -11 5 -20 10 -20 6
0 10 9 10 20 0 11 4 20 9 20 11 0 -6 -81 -19 -94 -6 -6 -11 -4 -14 5 -2 8 -8
23 -12 34 -7 19 -8 18 -12 -5 -9 -58 -27 -45 -46 33 -9 37 15 33 25 -4z"/>
<path d="M2330 530 l0 -450 1110 0 1110 0 0 450 0 450 -1110 0 -1110 0 0 -450z
m1260 400 c36 -36 26 -62 -80 -190 -55 -67 -100 -123 -100 -124 0 -7 140 -145
187 -184 57 -47 70 -71 53 -101 -34 -65 -91 -43 -216 84 -52 52 -98 95 -102
95 -5 0 -71 -81 -146 -180 -76 -99 -148 -187 -159 -195 -46 -32 -97 -6 -97 50
0 36 45 104 188 285 50 63 89 117 87 121 -3 3 -53 33 -112 67 -126 70 -153 93
-153 129 0 32 26 63 52 63 18 0 120 -56 239 -133 l56 -36 104 122 c127 148
158 168 199 127z m-1101 -94 c-10 -20 -10 -29 -1 -38 7 -7 12 -19 12 -27 -1
-13 -4 -12 -15 3 -12 16 -18 17 -27 8 -17 -17 -33 -15 -18 3 8 9 10 27 6 46
-5 28 -4 30 10 18 13 -11 17 -10 26 5 15 27 20 12 7 -18z"/>
<path d="M4590 530 l0 -450 1105 0 1105 0 0 450 0 450 -1105 0 -1105 0 0 -450z
m816 392 c12 -9 77 -97 144 -195 l123 -179 25 64 c13 34 37 115 52 178 37 149
74 184 130 124 l24 -25 -23 -91 c-115 -449 -271 -698 -437 -698 -62 0 -122 20
-169 56 -43 32 -53 65 -31 99 19 28 65 34 88 11 24 -24 76 -46 108 -46 39 0
114 75 156 154 l27 52 -59 71 c-67 80 -215 284 -238 328 -41 79 17 149 80 97z
m-689 -78 c6 -15 7 -15 20 1 19 27 24 14 11 -26 -6 -19 -13 -41 -16 -49 -3 -9
-7 -4 -12 15 -3 17 -12 40 -19 53 -8 15 -8 22 -1 22 6 0 13 -7 17 -16z"/>
<path d="M6850 530 l0 -450 1105 0 1105 0 0 450 0 450 -1105 0 -1105 0 0 -450z
m791 370 c240 -49 282 -54 356 -39 67 13 86 9 106 -23 6 -8 7 -26 4 -40 -6
-24 -25 -40 -171 -148 -33 -24 -56 -45 -50 -46 5 -2 28 -8 51 -14 52 -13 73
-33 73 -69 0 -51 -29 -65 -122 -58 -46 3 -97 9 -114 13 -30 6 -36 1 -125 -100
-52 -58 -92 -109 -89 -114 6 -10 128 -41 161 -42 18 0 32 9 43 25 30 45 109
26 109 -27 0 -14 -11 -40 -24 -58 -45 -61 -101 -73 -208 -45 -70 18 -106 20
-204 10 -67 -7 -80 -5 -97 10 -26 24 -25 59 2 98 12 18 73 85 135 151 63 65
111 121 109 123 -3 3 -37 11 -76 19 -38 7 -82 19 -97 26 -48 23 -48 101 0 113
12 4 77 -3 144 -14 66 -12 131 -21 143 -21 23 0 135 96 122 104 -4 2 -51 11
-105 21 -138 23 -247 52 -269 72 -24 21 -23 58 2 83 25 25 21 26 191 -10z
m-627 -38 c3 -5 -4 -21 -15 -38 -24 -37 -24 -44 2 -44 11 0 17 -4 14 -10 -7
-12 -52 -13 -59 -2 -3 5 4 21 15 38 23 35 24 44 3 44 -8 0 -12 5 -9 10 7 12
42 13 49 2z"/>
</g>
</svg>
