<?xml version="1.0" standalone="no"?>
<!DOCTYPE svg PUBLIC "-//W3C//DTD SVG 20010904//EN"
 "http://www.w3.org/TR/2001/REC-SVG-20010904/DTD/svg10.dtd">
<svg version="1.0" xmlns="http://www.w3.org/2000/svg"
 width="118.000000pt" height="177.000000pt" viewBox="0 0 118.000000 177.000000"
 preserveAspectRatio="xMidYMid meet">
<metadata>
Created by potrace 1.16, written by Peter Selinger 2001-2019
</metadata>
<g transform="translate(0.000000,177.000000) scale(0.100000,-0.100000)"
fill="#000000" stroke="none">
<path d="M978 1762 c-9 -4 -27 -20 -39 -37 -13 -16 -46 -57 -74 -90 -128 -152
-395 -530 -395 -559 0 -14 -147 210 -254 388 -94 156 -112 172 -164 150 -43
-17 -56 -54 -38 -99 13 -29 12 -41 0 -89 -13 -48 -13 -60 0 -90 8 -19 22 -37
33 -40 17 -5 18 -23 18 -303 0 -315 10 -590 24 -660 16 -84 66 -122 120 -92
42 23 45 63 23 274 -12 120 -20 273 -21 415 l-2 225 63 -92 c73 -107 150 -191
183 -199 13 -3 39 3 64 15 54 28 113 103 363 461 17 24 17 4 10 -390 -13 -752
-8 -859 42 -916 40 -47 112 -31 204 43 34 28 42 41 42 67 0 64 -76 100 -120
56 l-20 -20 -1 53 c-6 415 7 788 41 1137 13 140 7 320 -12 356 -20 37 -53 51
-90 36z"/>
</g>
</svg>
