<?xml version="1.0" standalone="no"?>
<!DOCTYPE svg PUBLIC "-//W3C//DTD SVG 20010904//EN"
 "http://www.w3.org/TR/2001/REC-SVG-20010904/DTD/svg10.dtd">
<svg version="1.0" xmlns="http://www.w3.org/2000/svg"
 width="109.000000pt" height="183.000000pt" viewBox="0 0 109.000000 183.000000"
 preserveAspectRatio="xMidYMid meet">
<metadata>
Created by potrace 1.16, written by Peter Selinger 2001-2019
</metadata>
<g transform="translate(0.000000,183.000000) scale(0.100000,-0.100000)"
fill="#000000" stroke="none">
<path d="M261 1815 c-122 -34 -220 -111 -239 -188 -16 -63 -15 -174 2 -231 33
-111 139 -192 444 -342 212 -105 219 -109 297 -188 98 -100 131 -160 156 -279
34 -166 19 -335 -34 -369 -32 -22 -325 -78 -402 -78 -81 0 -127 18 -183 73
-63 61 -97 121 -127 222 -38 126 -80 161 -138 115 -37 -30 -42 -72 -17 -155
51 -167 195 -332 331 -380 74 -26 330 -7 522 39 152 36 227 185 213 421 -12
197 -56 311 -168 444 -90 107 -170 163 -400 280 -273 139 -322 171 -343 224
-9 22 -17 65 -17 94 -1 48 2 57 32 88 60 62 108 75 287 77 247 2 272 -6 408
-132 67 -62 93 -80 116 -80 39 0 69 32 69 74 0 45 -62 114 -166 186 -127 88
-147 93 -384 97 -160 2 -217 -1 -259 -12z"/>
</g>
</svg>
