<?xml version="1.0" standalone="no"?>
<!DOCTYPE svg PUBLIC "-//W3C//DTD SVG 20010904//EN"
 "http://www.w3.org/TR/2001/REC-SVG-20010904/DTD/svg10.dtd">
<svg version="1.0" xmlns="http://www.w3.org/2000/svg"
 width="110.000000pt" height="107.000000pt" viewBox="0 0 110.000000 107.000000"
 preserveAspectRatio="xMidYMid meet">
<metadata>
Created by potrace 1.16, written by Peter Selinger 2001-2019
</metadata>
<g transform="translate(0.000000,107.000000) scale(0.100000,-0.100000)"
fill="#000000" stroke="none">
<path d="M388 1065 c-2 -1 -70 -6 -153 -9 -162 -8 -210 -17 -225 -46 -24 -45
1 -156 45 -204 29 -32 63 -33 100 -4 23 18 26 27 22 59 l-5 38 52 5 c28 3 129
15 223 26 95 11 183 20 195 19 23 0 23 0 2 -9 -47 -19 -157 -188 -288 -442
-154 -298 -184 -405 -132 -465 l24 -28 174 0 c168 1 266 10 433 41 118 22 162
40 177 74 7 16 20 31 30 33 24 7 42 50 34 82 -4 14 -20 34 -37 44 -16 10 -56
50 -89 89 -32 38 -72 74 -87 79 -34 12 -68 1 -82 -26 -22 -40 -12 -69 43 -135
l54 -63 -121 -7 c-67 -4 -173 -13 -234 -20 -62 -6 -113 -11 -113 -11 0 6 184
394 232 490 83 165 115 240 121 289 6 41 -6 85 -26 98 -10 7 -361 9 -369 3z"/>
</g>
</svg>
