<?xml version="1.0" standalone="no"?>
<!DOCTYPE svg PUBLIC "-//W3C//DTD SVG 20010904//EN"
 "http://www.w3.org/TR/2001/REC-SVG-20010904/DTD/svg10.dtd">
<svg version="1.0" xmlns="http://www.w3.org/2000/svg"
 width="115.000000pt" height="124.000000pt" viewBox="0 0 115.000000 124.000000"
 preserveAspectRatio="xMidYMid meet">
<metadata>
Created by potrace 1.16, written by Peter Selinger 2001-2019
</metadata>
<g transform="translate(0.000000,124.000000) scale(0.100000,-0.100000)"
fill="#000000" stroke="none">
<path d="M479 1227 c-49 -18 -86 -46 -140 -104 -95 -102 -148 -197 -194 -345
-15 -49 -30 -88 -34 -89 -60 -7 -89 -23 -97 -54 -10 -42 4 -75 39 -90 l32 -13
-6 -104 c-10 -170 -3 -311 16 -352 27 -57 74 -76 187 -76 134 0 224 16 294 50
52 25 65 37 78 70 23 57 21 105 -6 130 -36 33 -66 26 -117 -30 -57 -61 -140
-101 -226 -108 -59 -4 -64 -3 -80 21 -25 39 -29 128 -11 267 9 68 18 126 20
127 2 2 102 4 222 5 151 0 258 -4 344 -16 162 -21 225 -20 277 3 58 27 77 58
61 102 -17 49 -83 157 -157 257 -80 107 -260 290 -321 325 -56 32 -132 42
-181 24z m143 -179 c76 -60 142 -134 226 -256 l73 -107 -322 -3 c-177 -1 -324
0 -327 2 -7 8 29 108 68 186 59 117 154 219 207 220 11 0 45 -19 75 -42z"/>
</g>
</svg>
