<?xml version="1.0" standalone="no"?>
<!DOCTYPE svg PUBLIC "-//W3C//DTD SVG 20010904//EN"
 "http://www.w3.org/TR/2001/REC-SVG-20010904/DTD/svg10.dtd">
<svg version="1.0" xmlns="http://www.w3.org/2000/svg"
 width="104.000000pt" height="138.000000pt" viewBox="0 0 104.000000 138.000000"
 preserveAspectRatio="xMidYMid meet">
<metadata>
Created by potrace 1.16, written by Peter Selinger 2001-2019
</metadata>
<g transform="translate(0.000000,138.000000) scale(0.100000,-0.100000)"
fill="#000000" stroke="none">
<path d="M590 1373 c-58 -10 -174 -45 -212 -64 -29 -15 -43 -18 -51 -10 -16
16 -59 13 -84 -4 -12 -9 -25 -31 -29 -49 -5 -29 -18 -42 -96 -92 -95 -62 -123
-96 -112 -139 6 -25 49 -55 76 -55 7 0 37 11 66 25 l52 24 1 -187 c1 -103 2
-313 3 -467 1 -253 3 -284 19 -308 27 -42 58 -52 95 -33 37 19 49 55 32 96
-14 34 -5 187 13 208 7 9 10 65 8 154 l-2 140 21 -15 c11 -8 58 -48 103 -89
65 -60 95 -97 147 -184 77 -131 109 -164 156 -164 61 0 225 96 239 139 9 29
-12 69 -45 86 -37 19 -56 11 -100 -45 -54 -68 -63 -62 -176 121 -44 72 -100
144 -154 201 l-86 89 86 51 c193 115 262 177 311 282 54 115 31 238 -53 276
-41 19 -155 25 -228 13z m148 -145 c7 -7 12 -29 12 -51 0 -34 -7 -45 -53 -90
-68 -67 -185 -146 -264 -179 l-61 -26 -4 22 c-2 11 -4 68 -3 126 l0 105 67 34
c105 53 278 87 306 59z"/>
</g>
</svg>
