<?xml version="1.0" standalone="no"?>
<!DOCTYPE svg PUBLIC "-//W3C//DTD SVG 20010904//EN"
 "http://www.w3.org/TR/2001/REC-SVG-20010904/DTD/svg10.dtd">
<svg version="1.0" xmlns="http://www.w3.org/2000/svg"
 width="107.000000pt" height="137.000000pt" viewBox="0 0 107.000000 137.000000"
 preserveAspectRatio="xMidYMid meet">
<metadata>
Created by potrace 1.16, written by Peter Selinger 2001-2019
</metadata>
<g transform="translate(0.000000,137.000000) scale(0.100000,-0.100000)"
fill="#000000" stroke="none">
<path d="M507 1359 c-30 -18 -38 -57 -38 -193 0 -137 9 -454 16 -543 4 -61 16
-55 -141 -78 -182 -26 -286 -71 -321 -138 -10 -20 -18 -64 -21 -118 -5 -108
15 -162 79 -208 43 -32 180 -81 225 -81 38 0 144 39 186 68 70 49 124 204 127
364 1 22 12 32 75 67 106 58 229 154 270 210 44 59 95 166 103 214 4 29 1 40
-20 61 -45 45 -92 32 -127 -36 -87 -168 -129 -218 -232 -281 l-63 -38 -5 350
c-5 325 -6 350 -24 370 -20 23 -60 27 -89 10z m-38 -1001 c-11 -70 -28 -129
-42 -149 -16 -22 -65 -46 -109 -54 -46 -9 -137 17 -163 45 -37 40 -16 119 40
156 23 15 195 51 256 53 26 1 26 1 18 -51z"/>
</g>
</svg>
