<?xml version="1.0" standalone="no"?>
<!DOCTYPE svg PUBLIC "-//W3C//DTD SVG 20010904//EN"
 "http://www.w3.org/TR/2001/REC-SVG-20010904/DTD/svg10.dtd">
<svg version="1.0" xmlns="http://www.w3.org/2000/svg"
 width="18.000000pt" height="75.000000pt" viewBox="0 0 18.000000 75.000000"
 preserveAspectRatio="xMidYMid meet">
<metadata>
Created by potrace 1.16, written by Peter Selinger 2001-2019
</metadata>
<g transform="translate(0.000000,75.000000) scale(0.100000,-0.100000)"
fill="#000000" stroke="none">
<path d="M0 381 c0 -22 5 -41 13 -44 7 -2 25 -28 41 -57 21 -39 30 -72 35
-132 6 -67 11 -84 30 -99 13 -11 32 -19 42 -19 15 0 19 7 19 36 0 31 -2 35
-15 24 -18 -15 -17 -15 -19 80 -1 73 -35 155 -88 216 -40 46 -58 44 -58 -5z"/>
<path d="M0 200 c0 -11 5 -20 10 -20 6 0 10 -37 10 -90 l0 -90 30 0 30 0 0 74
c0 104 -18 145 -62 146 -11 0 -18 -8 -18 -20z"/>
</g>
</svg>
