<?xml version="1.0" standalone="no"?>
<!DOCTYPE svg PUBLIC "-//W3C//DTD SVG 20010904//EN"
 "http://www.w3.org/TR/2001/REC-SVG-20010904/DTD/svg10.dtd">
<svg version="1.0" xmlns="http://www.w3.org/2000/svg"
 width="28.000000pt" height="31.000000pt" viewBox="0 0 28.000000 31.000000"
 preserveAspectRatio="xMidYMid meet">
<metadata>
Created by potrace 1.16, written by Peter Selinger 2001-2019
</metadata>
<g transform="translate(0.000000,31.000000) scale(0.100000,-0.100000)"
fill="#000000" stroke="none">
<path d="M260 296 c0 -8 5 -18 10 -21 6 -3 10 3 10 14 0 12 -4 21 -10 21 -5 0
-10 -6 -10 -14z"/>
<path d="M112 204 c-29 -20 -30 -72 0 -103 20 -22 95 -61 146 -76 19 -6 22 -3
22 24 0 27 -6 33 -50 52 -50 21 -84 49 -61 49 7 0 29 -9 51 -20 52 -26 60 -25
60 8 0 22 -9 32 -49 55 -56 31 -87 34 -119 11z"/>
</g>
</svg>
