<?xml version="1.0" standalone="no"?>
<!DOCTYPE svg PUBLIC "-//W3C//DTD SVG 20010904//EN"
 "http://www.w3.org/TR/2001/REC-SVG-20010904/DTD/svg10.dtd">
<svg version="1.0" xmlns="http://www.w3.org/2000/svg"
 width="126.000000pt" height="165.000000pt" viewBox="0 0 126.000000 165.000000"
 preserveAspectRatio="xMidYMid meet">
<metadata>
Created by potrace 1.16, written by Peter Selinger 2001-2019
</metadata>
<g transform="translate(0.000000,165.000000) scale(0.100000,-0.100000)"
fill="#000000" stroke="none">
<path d="M1041 1624 c-42 -35 -89 -123 -151 -279 -51 -131 -98 -224 -175 -347
l-42 -68 -191 188 c-104 103 -204 207 -221 231 -29 41 -30 45 -15 72 43 84
-58 147 -122 77 -17 -18 -47 -44 -67 -58 -63 -43 -72 -103 -21 -136 23 -15 49
-15 85 0 11 5 24 -7 47 -43 18 -27 123 -137 233 -245 l201 -195 -170 -263
c-172 -266 -254 -410 -266 -462 -14 -57 45 -106 96 -80 51 26 163 188 358 518
l105 177 105 -109 c108 -112 132 -147 150 -217 27 -112 151 -143 174 -45 5 19
-2 37 -29 74 -19 27 -35 59 -35 71 0 31 -25 61 -171 210 l-128 130 84 150 c47
83 105 200 131 260 83 197 117 246 186 267 68 20 89 78 43 123 -21 22 -33 25
-94 25 -60 0 -74 -3 -100 -26z"/>
</g>
</svg>
