<?xml version="1.0" standalone="no"?>
<!DOCTYPE svg PUBLIC "-//W3C//DTD SVG 20010904//EN"
 "http://www.w3.org/TR/2001/REC-SVG-20010904/DTD/svg10.dtd">
<svg version="1.0" xmlns="http://www.w3.org/2000/svg"
 width="124.000000pt" height="124.000000pt" viewBox="0 0 124.000000 124.000000"
 preserveAspectRatio="xMidYMid meet">
<metadata>
Created by potrace 1.16, written by Peter Selinger 2001-2019
</metadata>
<g transform="translate(0.000000,124.000000) scale(0.100000,-0.100000)"
fill="#000000" stroke="none">
<path d="M1072 1224 c-94 -19 -122 -39 -149 -107 -13 -32 -50 -147 -83 -255
-32 -108 -75 -235 -94 -282 -59 -147 -164 -356 -169 -340 -21 60 -55 176 -107
370 -120 447 -147 509 -229 525 -31 7 -37 3 -91 -53 -141 -148 -180 -230 -128
-266 25 -18 61 -21 87 -6 10 5 46 50 81 100 34 50 64 90 65 88 2 -2 -1 -24 -6
-48 -6 -25 -8 -67 -4 -95 16 -129 149 -581 209 -710 47 -101 131 -168 171
-135 22 18 101 153 154 265 80 166 122 282 163 450 72 297 93 337 184 350 88
13 114 35 114 96 0 54 -64 75 -168 53z"/>
</g>
</svg>
