<?xml version="1.0" standalone="no"?>
<!DOCTYPE svg PUBLIC "-//W3C//DTD SVG 20010904//EN"
 "http://www.w3.org/TR/2001/REC-SVG-20010904/DTD/svg10.dtd">
<svg version="1.0" xmlns="http://www.w3.org/2000/svg"
 width="152.000000pt" height="166.000000pt" viewBox="0 0 152.000000 166.000000"
 preserveAspectRatio="xMidYMid meet">
<metadata>
Created by potrace 1.16, written by Peter Selinger 2001-2019
</metadata>
<g transform="translate(0.000000,166.000000) scale(0.100000,-0.100000)"
fill="#000000" stroke="none">
<path d="M1303 1641 c-129 -32 -220 -70 -252 -106 -42 -48 -50 -116 -56 -471
-5 -271 -13 -381 -41 -588 -7 -46 -8 -47 -19 -25 -40 77 -107 304 -126 423
-24 149 -37 185 -78 209 -91 53 -140 -24 -265 -417 -36 -110 -68 -212 -72
-226 -13 -44 -51 93 -105 380 -57 305 -72 369 -101 428 -39 82 -91 91 -155 27
-43 -43 -45 -83 -4 -117 21 -18 30 -37 35 -74 29 -198 193 -809 247 -915 21
-43 37 -57 78 -69 24 -7 35 -4 54 11 20 15 26 30 29 81 4 53 22 102 109 296
l103 234 12 -39 c42 -134 151 -463 181 -543 40 -109 60 -132 112 -128 67 6 83
64 122 448 22 217 28 461 19 750 -8 212 8 228 269 290 98 23 121 40 121 86 0
71 -74 90 -217 55z"/>
</g>
</svg>
