<?xml version="1.0" standalone="no"?>
<!DOCTYPE svg PUBLIC "-//W3C//DTD SVG 20010904//EN"
 "http://www.w3.org/TR/2001/REC-SVG-20010904/DTD/svg10.dtd">
<svg version="1.0" xmlns="http://www.w3.org/2000/svg"
 width="129.000000pt" height="138.000000pt" viewBox="0 0 129.000000 138.000000"
 preserveAspectRatio="xMidYMid meet">
<metadata>
Created by potrace 1.16, written by Peter Selinger 2001-2019
</metadata>
<g transform="translate(0.000000,138.000000) scale(0.100000,-0.100000)"
fill="#000000" stroke="none">
<path d="M379 1353 c-36 -19 -57 -37 -63 -54 -12 -36 1 -80 26 -87 19 -5 20
-10 14 -96 -14 -198 -16 -252 -21 -551 -3 -171 -5 -326 -5 -346 l0 -37 -70 14
c-76 14 -106 27 -130 55 -8 11 -29 22 -47 25 -26 5 -37 1 -57 -19 -35 -35 -33
-69 7 -113 41 -48 90 -69 207 -89 52 -9 114 -26 137 -38 33 -17 48 -19 70 -11
17 6 62 6 118 1 49 -5 128 -7 175 -4 74 3 94 8 160 42 171 87 296 189 340 278
28 57 48 150 44 205 -1 12 -2 33 -3 47 -1 32 -54 91 -102 115 -55 28 -194 67
-270 75 -84 9 -145 -8 -281 -76 l-99 -50 5 33 c8 56 19 327 19 466 -1 231 -42
281 -174 215z m599 -749 c96 -20 126 -35 142 -74 18 -44 8 -120 -21 -159 -31
-42 -173 -149 -251 -190 -55 -28 -69 -31 -153 -31 -51 0 -120 3 -154 6 l-62 7
6 39 c4 21 12 87 19 146 l12 106 79 58 c126 92 159 107 238 108 37 0 102 -7
145 -16z"/>
</g>
</svg>
