<?xml version="1.0" standalone="no"?>
<!DOCTYPE svg PUBLIC "-//W3C//DTD SVG 20010904//EN"
 "http://www.w3.org/TR/2001/REC-SVG-20010904/DTD/svg10.dtd">
<svg version="1.0" xmlns="http://www.w3.org/2000/svg"
 width="131.000000pt" height="127.000000pt" viewBox="0 0 131.000000 127.000000"
 preserveAspectRatio="xMidYMid meet">
<metadata>
Created by potrace 1.16, written by Peter Selinger 2001-2019
</metadata>
<g transform="translate(0.000000,127.000000) scale(0.100000,-0.100000)"
fill="#000000" stroke="none">
<path d="M54 1216 c-44 -45 -54 -61 -54 -89 0 -38 23 -64 66 -76 26 -6 30 -13
36 -57 9 -67 7 -320 -3 -424 -5 -47 -20 -157 -34 -246 -25 -159 -31 -247 -19
-279 9 -23 55 -43 83 -36 39 10 59 50 75 151 23 141 45 369 47 500 l3 115 35
5 c34 5 38 10 83 100 25 52 51 96 57 98 34 11 71 -177 71 -358 0 -144 9 -191
47 -232 23 -25 48 -22 84 10 31 28 32 33 40 133 8 114 36 206 108 359 l40 85
1 -115 c0 -63 3 -140 5 -170 2 -30 7 -109 10 -175 9 -198 39 -280 124 -339 49
-34 88 -33 137 3 89 65 214 222 214 268 0 31 -42 73 -73 73 -33 0 -69 -31
-121 -103 -24 -34 -56 -73 -69 -85 -25 -24 -25 -24 -36 -4 -23 43 -33 178 -35
479 l-2 312 -31 38 c-36 45 -67 58 -116 49 -60 -11 -94 -50 -156 -178 l-58
-119 -28 67 c-35 82 -62 115 -114 138 -46 21 -99 16 -124 -12 -8 -9 -33 -47
-55 -84 l-39 -68 -7 79 c-3 43 -13 102 -22 132 -38 127 -83 141 -170 55z"/>
</g>
</svg>
