<?xml version="1.0" standalone="no"?>
<!DOCTYPE svg PUBLIC "-//W3C//DTD SVG 20010904//EN"
 "http://www.w3.org/TR/2001/REC-SVG-20010904/DTD/svg10.dtd">
<svg version="1.0" xmlns="http://www.w3.org/2000/svg"
 width="18.000000pt" height="43.000000pt" viewBox="0 0 18.000000 43.000000"
 preserveAspectRatio="xMidYMid meet">
<metadata>
Created by potrace 1.16, written by Peter Selinger 2001-2019
</metadata>
<g transform="translate(0.000000,43.000000) scale(0.100000,-0.100000)"
fill="#000000" stroke="none">
<path d="M81 387 c-25 -51 -27 -94 -5 -125 18 -26 50 -28 82 -6 17 11 22 25
22 57 l0 41 -34 -33 -34 -33 9 38 c4 22 9 42 9 47 0 4 11 7 25 7 20 0 25 5 25
25 0 22 -4 25 -39 25 -36 0 -41 -3 -60 -43z"/>
<path d="M135 192 c-55 -40 -76 -74 -82 -138 l-6 -54 32 0 c30 0 31 2 31 42 0
35 6 49 36 79 28 29 35 43 32 68 l-3 33 -40 -30z"/>
</g>
</svg>
