<?xml version="1.0" standalone="no"?>
<!DOCTYPE svg PUBLIC "-//W3C//DTD SVG 20010904//EN"
 "http://www.w3.org/TR/2001/REC-SVG-20010904/DTD/svg10.dtd">
<svg version="1.0" xmlns="http://www.w3.org/2000/svg"
 width="76.000000pt" height="43.000000pt" viewBox="0 0 76.000000 43.000000"
 preserveAspectRatio="xMidYMid meet">
<metadata>
Created by potrace 1.16, written by Peter Selinger 2001-2019
</metadata>
<g transform="translate(0.000000,43.000000) scale(0.100000,-0.100000)"
fill="#000000" stroke="none">
<path d="M65 203 c-11 -2 -30 -6 -43 -9 -16 -3 -22 -11 -22 -31 0 -25 1 -26
56 -20 69 7 68 -8 -4 -37 -51 -21 -52 -22 -52 -63 0 -36 3 -43 19 -43 12 0 21
8 23 22 2 16 17 26 57 40 65 22 91 43 91 75 0 52 -55 81 -125 66z"/>
</g>
</svg>
