<?xml version="1.0" standalone="no"?>
<!DOCTYPE svg PUBLIC "-//W3C//DTD SVG 20010904//EN"
 "http://www.w3.org/TR/2001/REC-SVG-20010904/DTD/svg10.dtd">
<svg version="1.0" xmlns="http://www.w3.org/2000/svg"
 width="95.000000pt" height="30.000000pt" viewBox="0 0 95.000000 30.000000"
 preserveAspectRatio="xMidYMid meet">
<metadata>
Created by potrace 1.16, written by Peter Selinger 2001-2019
</metadata>
<g transform="translate(0.000000,30.000000) scale(0.100000,-0.100000)"
fill="#000000" stroke="none">
<path d="M81 269 c-19 -56 -14 -100 17 -133 l27 -30 -27 17 c-15 9 -43 17 -63
17 -33 0 -35 -2 -35 -35 0 -35 23 -51 32 -23 3 9 16 3 37 -15 58 -48 121 -26
121 43 0 33 -5 41 -35 59 -38 22 -41 33 -20 71 23 41 19 60 -14 60 -24 0 -31
-6 -40 -31z"/>
</g>
</svg>
