<?xml version="1.0" standalone="no"?>
<!DOCTYPE svg PUBLIC "-//W3C//DTD SVG 20010904//EN"
 "http://www.w3.org/TR/2001/REC-SVG-20010904/DTD/svg10.dtd">
<svg version="1.0" xmlns="http://www.w3.org/2000/svg"
 width="46.000000pt" height="75.000000pt" viewBox="0 0 46.000000 75.000000"
 preserveAspectRatio="xMidYMid meet">
<metadata>
Created by potrace 1.16, written by Peter Selinger 2001-2019
</metadata>
<g transform="translate(0.000000,75.000000) scale(0.100000,-0.100000)"
fill="#000000" stroke="none">
<path d="M196 734 c-3 -9 -6 -31 -6 -50 0 -27 6 -36 30 -49 41 -21 69 -11 87
33 12 29 12 40 2 59 -10 19 -20 23 -60 23 -33 0 -49 -4 -53 -16z"/>
<path d="M254 499 c-15 -17 -20 -40 -22 -109 l-4 -88 -90 -68 c-50 -37 -98
-80 -107 -96 -9 -15 -19 -28 -23 -28 -5 0 -8 -18 -8 -40 0 -22 5 -40 10 -40 6
0 10 -7 10 -15 0 -10 10 -15 30 -15 34 0 38 14 14 49 -15 21 -15 24 12 53 16
17 64 57 108 90 89 69 106 98 106 188 0 69 14 80 24 18 9 -57 30 -78 77 -78
55 0 69 8 69 42 0 23 -4 28 -17 24 -73 -22 -73 -22 -73 25 0 63 -8 85 -36 98
-37 16 -59 14 -80 -10z"/>
<path d="M397 296 c-76 -27 -81 -41 -91 -213 l-4 -83 28 0 c35 0 40 16 40 136
l0 92 45 11 c41 10 45 14 45 41 0 34 -7 35 -63 16z"/>
<path d="M179 167 c-48 -32 -79 -83 -79 -128 0 -38 1 -39 35 -39 33 0 34 1 23
26 -11 23 -8 29 36 72 l48 47 -6 -54 c-3 -30 -13 -62 -22 -72 -16 -18 -15 -19
24 -19 l40 0 11 50 c13 61 5 106 -23 125 -28 21 -47 19 -87 -8z"/>
</g>
</svg>
