<?xml version="1.0" standalone="no"?>
<!DOCTYPE svg PUBLIC "-//W3C//DTD SVG 20010904//EN"
 "http://www.w3.org/TR/2001/REC-SVG-20010904/DTD/svg10.dtd">
<svg version="1.0" xmlns="http://www.w3.org/2000/svg"
 width="42.000000pt" height="75.000000pt" viewBox="0 0 42.000000 75.000000"
 preserveAspectRatio="xMidYMid meet">
<metadata>
Created by potrace 1.16, written by Peter Selinger 2001-2019
</metadata>
<g transform="translate(0.000000,75.000000) scale(0.100000,-0.100000)"
fill="#000000" stroke="none">
<path d="M0 375 l0 -375 210 0 210 0 0 375 0 375 -210 0 -210 0 0 -375z m90
285 c0 -5 9 -10 19 -10 21 0 31 -19 31 -61 0 -19 -5 -29 -15 -29 -10 0 -15 10
-15 30 0 17 -4 30 -10 30 -5 0 -10 -13 -10 -30 0 -20 -5 -30 -15 -30 -12 0
-15 13 -15 55 0 42 3 55 15 55 8 0 15 -4 15 -10z"/>
</g>
</svg>
