<?xml version="1.0" standalone="no"?>
<!DOCTYPE svg PUBLIC "-//W3C//DTD SVG 20010904//EN"
 "http://www.w3.org/TR/2001/REC-SVG-20010904/DTD/svg10.dtd">
<svg version="1.0" xmlns="http://www.w3.org/2000/svg"
 width="7.000000pt" height="29.000000pt" viewBox="0 0 7.000000 29.000000"
 preserveAspectRatio="xMidYMid meet">
<metadata>
Created by potrace 1.16, written by Peter Selinger 2001-2019
</metadata>
<g transform="translate(0.000000,29.000000) scale(0.100000,-0.100000)"
fill="#000000" stroke="none">
<path d="M0 200 c0 -82 2 -90 19 -90 47 0 51 8 51 96 l0 84 -35 0 -35 0 0 -90z"/>
<path d="M32 53 c-20 -3 -32 -10 -32 -20 0 -10 5 -13 17 -8 10 4 26 10 36 12
9 3 17 9 17 14 0 5 -1 8 -2 7 -2 0 -18 -3 -36 -5z"/>
</g>
</svg>
