<?xml version="1.0" standalone="no"?>
<!DOCTYPE svg PUBLIC "-//W3C//DTD SVG 20010904//EN"
 "http://www.w3.org/TR/2001/REC-SVG-20010904/DTD/svg10.dtd">
<svg version="1.0" xmlns="http://www.w3.org/2000/svg"
 width="27.000000pt" height="6.000000pt" viewBox="0 0 27.000000 6.000000"
 preserveAspectRatio="xMidYMid meet">
<metadata>
Created by potrace 1.16, written by Peter Selinger 2001-2019
</metadata>
<g transform="translate(0.000000,6.000000) scale(0.100000,-0.100000)"
fill="#000000" stroke="none">
<path d="M0 29 c0 -24 4 -30 18 -27 10 2 18 14 20 31 3 22 -1 27 -17 27 -17 0
-21 -6 -21 -31z"/>
<path d="M90 30 c0 -17 5 -30 10 -30 6 0 10 13 10 30 0 17 -4 30 -10 30 -5 0
-10 -13 -10 -30z"/>
<path d="M170 30 c0 -27 3 -30 33 -30 20 0 41 8 50 18 29 32 21 42 -33 42 -49
0 -50 -1 -50 -30z"/>
</g>
</svg>
