<?xml version="1.0" standalone="no"?>
<!DOCTYPE svg PUBLIC "-//W3C//DTD SVG 20010904//EN"
 "http://www.w3.org/TR/2001/REC-SVG-20010904/DTD/svg10.dtd">
<svg version="1.0" xmlns="http://www.w3.org/2000/svg"
 width="4.000000pt" height="50.000000pt" viewBox="0 0 4.000000 50.000000"
 preserveAspectRatio="xMidYMid meet">
<metadata>
Created by potrace 1.16, written by Peter Selinger 2001-2019
</metadata>
<g transform="translate(0.000000,50.000000) scale(0.100000,-0.100000)"
fill="#000000" stroke="none">
<path d="M0 475 c0 -27 1 -28 24 -19 24 9 20 44 -4 44 -15 0 -20 -7 -20 -25z"/>
<path d="M30 380 c0 -5 -7 -10 -15 -10 -13 0 -15 -27 -15 -185 0 -178 1 -185
20 -185 19 0 20 7 20 195 0 107 -2 195 -5 195 -3 0 -5 -4 -5 -10z"/>
</g>
</svg>
