<?xml version="1.0" standalone="no"?>
<!DOCTYPE svg PUBLIC "-//W3C//DTD SVG 20010904//EN"
 "http://www.w3.org/TR/2001/REC-SVG-20010904/DTD/svg10.dtd">
<svg version="1.0" xmlns="http://www.w3.org/2000/svg"
 width="35.000000pt" height="6.000000pt" viewBox="0 0 35.000000 6.000000"
 preserveAspectRatio="xMidYMid meet">
<metadata>
Created by potrace 1.16, written by Peter Selinger 2001-2019
</metadata>
<g transform="translate(0.000000,6.000000) scale(0.100000,-0.100000)"
fill="#000000" stroke="none">
<path d="M0 30 c0 -30 0 -30 58 -30 l59 0 -5 30 c-4 29 -6 30 -58 30 -53 0
-54 0 -54 -30z"/>
<path d="M160 55 c0 -2 5 -16 12 -30 20 -44 96 -26 98 23 0 8 -17 12 -55 12
-30 0 -55 -2 -55 -5z"/>
<path d="M318 30 c-4 -24 -1 -30 14 -30 13 0 18 8 18 30 0 40 -26 40 -32 0z"/>
</g>
</svg>
