<?xml version="1.0" standalone="no"?>
<!DOCTYPE svg PUBLIC "-//W3C//DTD SVG 20010904//EN"
 "http://www.w3.org/TR/2001/REC-SVG-20010904/DTD/svg10.dtd">
<svg version="1.0" xmlns="http://www.w3.org/2000/svg"
 width="46.000000pt" height="29.000000pt" viewBox="0 0 46.000000 29.000000"
 preserveAspectRatio="xMidYMid meet">
<metadata>
Created by potrace 1.16, written by Peter Selinger 2001-2019
</metadata>
<g transform="translate(0.000000,29.000000) scale(0.100000,-0.100000)"
fill="#000000" stroke="none">
<path d="M0 270 c0 -24 6 -25 26 -6 19 20 18 26 -6 26 -13 0 -20 -7 -20 -20z"/>
<path d="M314 263 c3 -16 10 -80 17 -143 6 -63 13 -117 15 -119 13 -14 15 23
9 148 -7 131 -9 141 -27 141 -16 0 -19 -5 -14 -27z"/>
<path d="M403 248 c4 -24 9 -89 13 -145 6 -92 9 -103 25 -103 18 0 19 10 19
145 l0 145 -31 0 c-31 0 -31 0 -26 -42z"/>
<path d="M160 243 c-52 -6 -96 -12 -97 -12 -2 -1 -3 -53 -3 -116 l0 -115 113
0 112 0 -8 83 c-4 45 -11 102 -15 127 l-7 45 -95 -12z"/>
</g>
</svg>
