<?xml version="1.0" standalone="no"?>
<!DOCTYPE svg PUBLIC "-//W3C//DTD SVG 20010904//EN"
 "http://www.w3.org/TR/2001/REC-SVG-20010904/DTD/svg10.dtd">
<svg version="1.0" xmlns="http://www.w3.org/2000/svg"
 width="19.000000pt" height="39.000000pt" viewBox="0 0 19.000000 39.000000"
 preserveAspectRatio="xMidYMid meet">
<metadata>
Created by potrace 1.16, written by Peter Selinger 2001-2019
</metadata>
<g transform="translate(0.000000,39.000000) scale(0.100000,-0.100000)"
fill="#000000" stroke="none">
<path d="M0 345 c0 -38 3 -45 19 -45 47 0 69 -92 31 -130 -11 -11 -27 -20 -35
-20 -9 0 -15 -9 -15 -25 0 -27 17 -32 42 -13 49 40 61 109 33 188 -8 23 -15
53 -15 66 0 20 -5 24 -30 24 -29 0 -30 -2 -30 -45z"/>
<path d="M110 383 c0 -5 9 -32 20 -61 24 -62 26 -151 6 -191 -19 -36 -79 -89
-111 -97 -60 -15 0 -34 108 -34 l57 0 0 195 0 195 -40 0 c-22 0 -40 -3 -40 -7z"/>
<path d="M0 225 c0 -19 5 -35 10 -35 6 0 10 16 10 35 0 19 -4 35 -10 35 -5 0
-10 -16 -10 -35z"/>
</g>
</svg>
