<?xml version="1.0" standalone="no"?>
<!DOCTYPE svg PUBLIC "-//W3C//DTD SVG 20010904//EN"
 "http://www.w3.org/TR/2001/REC-SVG-20010904/DTD/svg10.dtd">
<svg version="1.0" xmlns="http://www.w3.org/2000/svg"
 width="35.000000pt" height="29.000000pt" viewBox="0 0 35.000000 29.000000"
 preserveAspectRatio="xMidYMid meet">
<metadata>
Created by potrace 1.16, written by Peter Selinger 2001-2019
</metadata>
<g transform="translate(0.000000,29.000000) scale(0.100000,-0.100000)"
fill="#000000" stroke="none">
<path d="M0 145 l0 -145 106 0 106 0 -48 33 c-65 43 -90 84 -110 178 -14 64
-21 79 -36 79 -17 0 -18 -11 -18 -145z"/>
<path d="M106 253 c9 -52 14 -54 14 -5 0 23 -5 42 -10 42 -7 0 -8 -14 -4 -37z"/>
<path d="M175 248 c4 -24 16 -55 27 -70 19 -28 84 -70 126 -83 22 -6 22 -5 22
74 0 76 -1 81 -21 81 -12 0 -23 8 -26 20 -5 17 -14 20 -70 20 l-65 0 7 -42z"/>
<path d="M130 163 c0 -22 51 -72 106 -102 30 -18 57 -38 61 -46 7 -20 53 -20
53 0 0 8 -12 18 -27 21 -55 13 -121 54 -157 95 -20 24 -36 38 -36 32z"/>
</g>
</svg>
