<?xml version="1.0" standalone="no"?>
<!DOCTYPE svg PUBLIC "-//W3C//DTD SVG 20010904//EN"
 "http://www.w3.org/TR/2001/REC-SVG-20010904/DTD/svg10.dtd">
<svg version="1.0" xmlns="http://www.w3.org/2000/svg"
 width="7.000000pt" height="31.000000pt" viewBox="0 0 7.000000 31.000000"
 preserveAspectRatio="xMidYMid meet">
<metadata>
Created by potrace 1.16, written by Peter Selinger 2001-2019
</metadata>
<g transform="translate(0.000000,31.000000) scale(0.100000,-0.100000)"
fill="#000000" stroke="none">
<path d="M0 301 c0 -5 8 -11 18 -14 9 -2 25 -8 35 -12 13 -5 17 -2 17 14 0 17
-6 21 -35 21 -19 0 -35 -4 -35 -9z"/>
<path d="M0 120 l0 -120 35 0 35 0 0 88 c-1 82 -2 89 -30 120 -16 17 -32 32
-35 32 -3 0 -5 -54 -5 -120z"/>
</g>
</svg>
