<?xml version="1.0" standalone="no"?>
<!DOCTYPE svg PUBLIC "-//W3C//DTD SVG 20010904//EN"
 "http://www.w3.org/TR/2001/REC-SVG-20010904/DTD/svg10.dtd">
<svg version="1.0" xmlns="http://www.w3.org/2000/svg"
 width="19.000000pt" height="10.000000pt" viewBox="0 0 19.000000 10.000000"
 preserveAspectRatio="xMidYMid meet">
<metadata>
Created by potrace 1.16, written by Peter Selinger 2001-2019
</metadata>
<g transform="translate(0.000000,10.000000) scale(0.100000,-0.100000)"
fill="#000000" stroke="none">
<path d="M60 92 c0 -10 21 -32 31 -32 4 0 5 9 2 20 -5 19 -33 29 -33 12z"/>
<path d="M130 90 c0 -5 5 -10 10 -10 6 0 10 5 10 10 0 6 -4 10 -10 10 -5 0
-10 -4 -10 -10z"/>
<path d="M182 80 c0 -14 2 -19 5 -12 2 6 2 18 0 25 -3 6 -5 1 -5 -13z"/>
<path d="M0 25 c0 -21 5 -25 30 -25 l29 0 -25 25 c-14 14 -27 25 -29 25 -3 0
-5 -11 -5 -25z"/>
</g>
</svg>
