<?xml version="1.0" standalone="no"?>
<!DOCTYPE svg PUBLIC "-//W3C//DTD SVG 20010904//EN"
 "http://www.w3.org/TR/2001/REC-SVG-20010904/DTD/svg10.dtd">
<svg version="1.0" xmlns="http://www.w3.org/2000/svg"
 width="4.000000pt" height="57.000000pt" viewBox="0 0 4.000000 57.000000"
 preserveAspectRatio="xMidYMid meet">
<metadata>
Created by potrace 1.16, written by Peter Selinger 2001-2019
</metadata>
<g transform="translate(0.000000,57.000000) scale(0.100000,-0.100000)"
fill="#000000" stroke="none">
<path d="M0 500 c0 -38 2 -70 4 -70 28 0 36 16 36 76 0 57 -2 64 -20 64 -18 0
-20 -7 -20 -70z"/>
<path d="M30 245 c0 -24 -5 -35 -15 -35 -12 0 -15 -18 -15 -105 0 -98 1 -105
20 -105 19 0 20 7 20 140 0 77 -2 140 -5 140 -3 0 -5 -16 -5 -35z"/>
</g>
</svg>
