<?xml version="1.0" standalone="no"?>
<!DOCTYPE svg PUBLIC "-//W3C//DTD SVG 20010904//EN"
 "http://www.w3.org/TR/2001/REC-SVG-20010904/DTD/svg10.dtd">
<svg version="1.0" xmlns="http://www.w3.org/2000/svg"
 width="46.000000pt" height="13.000000pt" viewBox="0 0 46.000000 13.000000"
 preserveAspectRatio="xMidYMid meet">
<metadata>
Created by potrace 1.16, written by Peter Selinger 2001-2019
</metadata>
<g transform="translate(0.000000,13.000000) scale(0.100000,-0.100000)"
fill="#000000" stroke="none">
<path d="M0 65 c0 -72 15 -87 25 -26 3 22 13 47 20 58 21 27 18 33 -15 33
l-30 0 0 -65z"/>
<path d="M230 117 c0 -11 -47 -28 -122 -44 -24 -4 -28 -10 -28 -39 l0 -34 190
0 190 0 0 65 0 65 -115 0 c-86 0 -115 -3 -115 -13z"/>
</g>
</svg>
