<?xml version="1.0" standalone="no"?>
<!DOCTYPE svg PUBLIC "-//W3C//DTD SVG 20010904//EN"
 "http://www.w3.org/TR/2001/REC-SVG-20010904/DTD/svg10.dtd">
<svg version="1.0" xmlns="http://www.w3.org/2000/svg"
 width="35.000000pt" height="31.000000pt" viewBox="0 0 35.000000 31.000000"
 preserveAspectRatio="xMidYMid meet">
<metadata>
Created by potrace 1.16, written by Peter Selinger 2001-2019
</metadata>
<g transform="translate(0.000000,31.000000) scale(0.100000,-0.100000)"
fill="#000000" stroke="none">
<path d="M0 155 l0 -155 175 0 c96 0 175 4 175 8 0 4 -21 13 -46 20 -81 22
-97 51 -110 205 l-7 77 -93 0 -94 0 0 -155z"/>
<path d="M254 228 c4 -46 14 -93 22 -106 17 -26 61 -49 72 -37 4 4 1 10 -7 13
-49 17 -87 103 -78 174 3 23 1 38 -5 38 -7 0 -9 -27 -4 -82z"/>
<path d="M320 258 c1 -29 7 -64 15 -78 13 -23 14 -20 15 53 0 62 -3 77 -15 77
-11 0 -15 -12 -15 -52z"/>
</g>
</svg>
