<?xml version="1.0" standalone="no"?>
<!DOCTYPE svg PUBLIC "-//W3C//DTD SVG 20010904//EN"
 "http://www.w3.org/TR/2001/REC-SVG-20010904/DTD/svg10.dtd">
<svg version="1.0" xmlns="http://www.w3.org/2000/svg"
 width="27.000000pt" height="17.000000pt" viewBox="0 0 27.000000 17.000000"
 preserveAspectRatio="xMidYMid meet">
<metadata>
Created by potrace 1.16, written by Peter Selinger 2001-2019
</metadata>
<g transform="translate(0.000000,17.000000) scale(0.100000,-0.100000)"
fill="#000000" stroke="none">
<path d="M0 85 c0 -83 1 -85 24 -85 22 0 24 5 30 68 4 37 10 75 12 85 4 14 -1
17 -30 17 l-36 0 0 -85z"/>
<path d="M116 101 c-3 -38 -9 -76 -12 -85 -5 -14 6 -16 80 -16 l86 0 0 64 c0
56 -3 66 -20 71 -11 3 -20 13 -20 21 0 10 -14 14 -54 14 l-53 0 -7 -69z"/>
</g>
</svg>
