<?xml version="1.0" standalone="no"?>
<!DOCTYPE svg PUBLIC "-//W3C//DTD SVG 20010904//EN"
 "http://www.w3.org/TR/2001/REC-SVG-20010904/DTD/svg10.dtd">
<svg version="1.0" xmlns="http://www.w3.org/2000/svg"
 width="46.000000pt" height="39.000000pt" viewBox="0 0 46.000000 39.000000"
 preserveAspectRatio="xMidYMid meet">
<metadata>
Created by potrace 1.16, written by Peter Selinger 2001-2019
</metadata>
<g transform="translate(0.000000,39.000000) scale(0.100000,-0.100000)"
fill="#000000" stroke="none">
<path d="M316 355 c3 -18 1 -83 -5 -142 -23 -225 -23 -213 -3 -213 17 0 19 13
25 143 4 78 10 166 13 195 6 49 5 52 -15 52 -20 0 -21 -4 -15 -35z"/>
<path d="M406 353 c-3 -21 -8 -78 -11 -128 -3 -49 -8 -120 -11 -158 l-6 -67
41 0 41 0 0 195 0 195 -24 0 c-20 0 -25 -6 -30 -37z"/>
<path d="M165 339 c-55 -10 -115 -18 -132 -18 l-33 -1 0 -160 0 -160 120 0
120 0 0 63 c1 34 7 114 14 177 8 63 13 115 12 115 0 1 -46 -7 -101 -16z"/>
</g>
</svg>
