<?xml version="1.0" standalone="no"?>
<!DOCTYPE svg PUBLIC "-//W3C//DTD SVG 20010904//EN"
 "http://www.w3.org/TR/2001/REC-SVG-20010904/DTD/svg10.dtd">
<svg version="1.0" xmlns="http://www.w3.org/2000/svg"
 width="102.000000pt" height="50.000000pt" viewBox="0 0 102.000000 50.000000"
 preserveAspectRatio="xMidYMid meet">
<metadata>
Created by potrace 1.16, written by Peter Selinger 2001-2019
</metadata>
<g transform="translate(0.000000,50.000000) scale(0.100000,-0.100000)"
fill="#000000" stroke="none">
<path d="M0 485 c0 -10 10 -15 28 -15 38 0 96 -42 116 -83 36 -77 3 -232 -64
-299 -21 -21 -47 -38 -59 -38 -16 0 -21 -6 -21 -26 0 -36 20 -28 70 31 70 81
95 145 95 245 0 77 -3 89 -27 124 -16 21 -28 47 -28 57 0 16 -8 19 -55 19 -42
0 -55 -3 -55 -15z"/>
<path d="M160 492 c0 -5 10 -17 21 -28 34 -30 49 -77 49 -151 0 -108 -29 -196
-92 -275 l-30 -38 456 0 456 0 0 250 0 250 -430 0 c-236 0 -430 -4 -430 -8z"/>
<path d="M0 260 c0 -94 4 -160 9 -160 18 0 62 68 77 116 8 26 14 68 14 95 0
41 -4 51 -35 78 -63 55 -65 51 -65 -129z"/>
</g>
</svg>
