<?xml version="1.0" standalone="no"?>
<!DOCTYPE svg PUBLIC "-//W3C//DTD SVG 20010904//EN"
 "http://www.w3.org/TR/2001/REC-SVG-20010904/DTD/svg10.dtd">
<svg version="1.0" xmlns="http://www.w3.org/2000/svg"
 width="8.000000pt" height="75.000000pt" viewBox="0 0 8.000000 75.000000"
 preserveAspectRatio="xMidYMid meet">
<metadata>
Created by potrace 1.16, written by Peter Selinger 2001-2019
</metadata>
<g transform="translate(0.000000,75.000000) scale(0.100000,-0.100000)"
fill="#000000" stroke="none">
<path d="M0 715 c0 -28 4 -35 19 -35 10 0 24 -7 31 -15 22 -26 30 -16 30 35
l0 50 -40 0 c-39 0 -40 -1 -40 -35z"/>
<path d="M0 440 c0 -147 2 -170 15 -170 9 0 27 -11 40 -25 l25 -24 0 53 c0 35
-5 58 -15 66 -8 7 -15 27 -15 45 0 18 7 38 15 45 11 9 15 32 15 79 0 63 -2 68
-29 84 -16 9 -34 17 -40 17 -8 0 -11 -53 -11 -170z"/>
<path d="M0 110 c0 -98 2 -110 18 -110 15 0 17 10 16 78 0 42 -4 92 -8 110
-15 64 -26 30 -26 -78z"/>
</g>
</svg>
