<?xml version="1.0" standalone="no"?>
<!DOCTYPE svg PUBLIC "-//W3C//DTD SVG 20010904//EN"
 "http://www.w3.org/TR/2001/REC-SVG-20010904/DTD/svg10.dtd">
<svg version="1.0" xmlns="http://www.w3.org/2000/svg"
 width="46.000000pt" height="31.000000pt" viewBox="0 0 46.000000 31.000000"
 preserveAspectRatio="xMidYMid meet">
<metadata>
Created by potrace 1.16, written by Peter Selinger 2001-2019
</metadata>
<g transform="translate(0.000000,31.000000) scale(0.100000,-0.100000)"
fill="#000000" stroke="none">
<path d="M0 155 l0 -155 230 0 230 0 0 90 c0 50 -2 90 -4 90 -2 0 -22 -29 -45
-65 -48 -74 -63 -85 -122 -85 -37 0 -47 5 -81 42 -40 44 -148 209 -148 228 0
5 -13 10 -30 10 l-30 0 0 -155z"/>
<path d="M130 303 c0 -5 5 -15 10 -23 8 -12 10 -11 10 8 0 12 -4 22 -10 22 -5
0 -10 -3 -10 -7z"/>
<path d="M200 302 c0 -12 56 -99 69 -107 7 -4 19 -1 28 7 21 17 73 88 73 100
0 4 -38 8 -85 8 -47 0 -85 -4 -85 -8z"/>
<path d="M420 287 c0 -13 -13 -44 -29 -69 -43 -68 -103 -94 -152 -67 -19 10
-19 9 -9 -10 16 -31 56 -54 80 -46 12 4 41 38 65 76 25 38 54 74 65 81 27 17
27 58 0 58 -14 0 -20 -7 -20 -23z"/>
</g>
</svg>
