<?xml version="1.0" standalone="no"?>
<!DOCTYPE svg PUBLIC "-//W3C//DTD SVG 20010904//EN"
 "http://www.w3.org/TR/2001/REC-SVG-20010904/DTD/svg10.dtd">
<svg version="1.0" xmlns="http://www.w3.org/2000/svg"
 width="19.000000pt" height="13.000000pt" viewBox="0 0 19.000000 13.000000"
 preserveAspectRatio="xMidYMid meet">
<metadata>
Created by potrace 1.16, written by Peter Selinger 2001-2019
</metadata>
<g transform="translate(0.000000,13.000000) scale(0.100000,-0.100000)"
fill="#000000" stroke="none">
<path d="M0 65 c0 -37 4 -65 10 -65 6 0 10 5 10 10 0 6 20 33 45 59 25 26 45
51 45 55 0 3 -25 6 -55 6 l-55 0 0 -65z"/>
<path d="M180 117 c0 -7 -20 -33 -45 -57 -25 -24 -45 -48 -45 -52 0 -4 23 -8
50 -8 l50 0 0 65 c0 36 -2 65 -5 65 -3 0 -5 -6 -5 -13z"/>
</g>
</svg>
