<?xml version="1.0" standalone="no"?>
<!DOCTYPE svg PUBLIC "-//W3C//DTD SVG 20010904//EN"
 "http://www.w3.org/TR/2001/REC-SVG-20010904/DTD/svg10.dtd">
<svg version="1.0" xmlns="http://www.w3.org/2000/svg"
 width="27.000000pt" height="12.000000pt" viewBox="0 0 27.000000 12.000000"
 preserveAspectRatio="xMidYMid meet">
<metadata>
Created by potrace 1.16, written by Peter Selinger 2001-2019
</metadata>
<g transform="translate(0.000000,12.000000) scale(0.100000,-0.100000)"
fill="#000000" stroke="none">
<path d="M0 60 l0 -60 34 0 c32 0 34 3 47 47 7 27 15 54 17 61 2 8 -11 12 -47
12 l-51 0 0 -60z"/>
<path d="M213 45 c-1 -43 0 -45 28 -45 28 0 29 2 29 45 0 42 -2 45 -27 45 -26
0 -28 -3 -30 -45z"/>
<path d="M142 47 c-14 -40 -15 -47 -3 -47 9 0 26 69 19 76 -2 2 -10 -11 -16
-29z"/>
</g>
</svg>
