<?xml version="1.0" standalone="no"?>
<!DOCTYPE svg PUBLIC "-//W3C//DTD SVG 20010904//EN"
 "http://www.w3.org/TR/2001/REC-SVG-20010904/DTD/svg10.dtd">
<svg version="1.0" xmlns="http://www.w3.org/2000/svg"
 width="102.000000pt" height="31.000000pt" viewBox="0 0 102.000000 31.000000"
 preserveAspectRatio="xMidYMid meet">
<metadata>
Created by potrace 1.16, written by Peter Selinger 2001-2019
</metadata>
<g transform="translate(0.000000,31.000000) scale(0.100000,-0.100000)"
fill="#000000" stroke="none">
<path d="M0 275 c0 -42 11 -44 45 -8 33 37 32 43 -10 43 -33 0 -35 -2 -35 -35z"/>
<path d="M116 279 c-8 -40 -57 -89 -90 -89 -20 0 -26 -5 -26 -21 0 -17 4 -19
17 -13 10 4 38 8 63 8 51 1 59 -9 85 -106 14 -53 18 -58 43 -57 17 0 35 10 48
27 l22 27 -38 -3 c-70 -7 -93 44 -83 182 6 71 5 76 -14 76 -15 0 -22 -9 -27
-31z"/>
<path d="M216 273 c-8 -49 -8 -147 0 -167 5 -14 12 -11 40 14 59 51 124 32
124 -38 0 -23 -8 -37 -32 -56 l-33 -26 353 0 352 0 0 155 0 155 -399 0 -398 0
-7 -37z"/>
<path d="M55 104 c-16 -13 -36 -24 -42 -24 -8 0 -13 -15 -13 -40 l0 -40 61 0
c44 0 58 3 53 12 -4 6 -12 35 -18 64 l-11 52 -30 -24z"/>
</g>
</svg>
