<?xml version="1.0" standalone="no"?>
<!DOCTYPE svg PUBLIC "-//W3C//DTD SVG 20010904//EN"
 "http://www.w3.org/TR/2001/REC-SVG-20010904/DTD/svg10.dtd">
<svg version="1.0" xmlns="http://www.w3.org/2000/svg"
 width="46.000000pt" height="6.000000pt" viewBox="0 0 46.000000 6.000000"
 preserveAspectRatio="xMidYMid meet">
<metadata>
Created by potrace 1.16, written by Peter Selinger 2001-2019
</metadata>
<g transform="translate(0.000000,6.000000) scale(0.100000,-0.100000)"
fill="#000000" stroke="none">
<path d="M0 30 c0 -26 4 -30 28 -30 26 0 28 3 24 30 -3 24 -9 30 -28 30 -20 0
-24 -5 -24 -30z"/>
<path d="M100 52 c0 -5 10 -18 23 -30 20 -19 35 -22 100 -22 l77 0 0 30 0 30
-100 0 c-55 0 -100 -4 -100 -8z"/>
<path d="M361 33 c-1 -18 4 -33 9 -33 12 0 12 17 0 45 -7 17 -9 15 -9 -12z"/>
<path d="M432 33 c4 -39 28 -42 28 -4 0 21 -5 31 -16 31 -11 0 -14 -8 -12 -27z"/>
</g>
</svg>
