<?xml version="1.0" standalone="no"?>
<!DOCTYPE svg PUBLIC "-//W3C//DTD SVG 20010904//EN"
 "http://www.w3.org/TR/2001/REC-SVG-20010904/DTD/svg10.dtd">
<svg version="1.0" xmlns="http://www.w3.org/2000/svg"
 width="19.000000pt" height="75.000000pt" viewBox="0 0 19.000000 75.000000"
 preserveAspectRatio="xMidYMid meet">
<metadata>
Created by potrace 1.16, written by Peter Selinger 2001-2019
</metadata>
<g transform="translate(0.000000,75.000000) scale(0.100000,-0.100000)"
fill="#000000" stroke="none">
<path d="M0 585 c0 -156 1 -165 19 -165 24 0 63 -46 99 -114 20 -39 27 -71 31
-136 5 -66 9 -85 21 -85 13 0 15 45 18 333 l2 332 -95 0 -95 0 0 -165z"/>
<path d="M0 318 c0 -27 6 -36 33 -48 21 -10 36 -26 44 -50 7 -21 12 -27 12
-15 1 25 -60 137 -76 143 -9 2 -13 -7 -13 -30z"/>
<path d="M0 115 c0 -96 3 -115 15 -115 12 0 15 16 15 84 0 92 -8 146 -21 146
-5 0 -9 -52 -9 -115z"/>
<path d="M90 53 l0 -53 50 0 c38 0 50 4 50 15 0 8 -9 15 -19 15 -34 0 -53 12
-67 44 l-13 31 -1 -52z"/>
</g>
</svg>
