<?xml version="1.0" standalone="no"?>
<!DOCTYPE svg PUBLIC "-//W3C//DTD SVG 20010904//EN"
 "http://www.w3.org/TR/2001/REC-SVG-20010904/DTD/svg10.dtd">
<svg version="1.0" xmlns="http://www.w3.org/2000/svg"
 width="29.000000pt" height="24.000000pt" viewBox="0 0 29.000000 24.000000"
 preserveAspectRatio="xMidYMid meet">
<metadata>
Created by potrace 1.16, written by Peter Selinger 2001-2019
</metadata>
<g transform="translate(0.000000,24.000000) scale(0.100000,-0.100000)"
fill="#000000" stroke="none">
<path d="M0 120 l0 -120 145 0 145 0 0 120 0 120 -145 0 -145 0 0 -120z m90
-10 c0 -16 5 -30 10 -30 6 0 10 14 10 30 0 20 5 30 15 30 11 0 15 -12 15 -46
l0 -45 -37 3 c-37 3 -38 4 -41 46 -2 33 0 42 12 42 11 0 16 -10 16 -30z"/>
</g>
</svg>
