<?xml version="1.0" standalone="no"?>
<!DOCTYPE svg PUBLIC "-//W3C//DTD SVG 20010904//EN"
 "http://www.w3.org/TR/2001/REC-SVG-20010904/DTD/svg10.dtd">
<svg version="1.0" xmlns="http://www.w3.org/2000/svg"
 width="94.000000pt" height="24.000000pt" viewBox="0 0 94.000000 24.000000"
 preserveAspectRatio="xMidYMid meet">
<metadata>
Created by potrace 1.16, written by Peter Selinger 2001-2019
</metadata>
<g transform="translate(0.000000,24.000000) scale(0.100000,-0.100000)"
fill="#000000" stroke="none">
<path d="M0 120 c0 -96 3 -120 14 -120 8 0 17 12 21 28 22 88 78 119 189 107
80 -10 104 -20 117 -49 9 -19 8 -31 -4 -55 l-15 -31 309 0 309 0 0 120 0 120
-470 0 -470 0 0 -120z"/>
<path d="M119 53 c-13 -16 -12 -17 4 -4 16 13 21 21 13 21 -2 0 -10 -8 -17
-17z"/>
<path d="M165 10 c-4 -6 11 -10 37 -9 33 0 38 2 23 9 -28 12 -53 12 -60 0z"/>
</g>
</svg>
