<?xml version="1.0" standalone="no"?>
<!DOCTYPE svg PUBLIC "-//W3C//DTD SVG 20010904//EN"
 "http://www.w3.org/TR/2001/REC-SVG-20010904/DTD/svg10.dtd">
<svg version="1.0" xmlns="http://www.w3.org/2000/svg"
 width="7.000000pt" height="50.000000pt" viewBox="0 0 7.000000 50.000000"
 preserveAspectRatio="xMidYMid meet">
<metadata>
Created by potrace 1.16, written by Peter Selinger 2001-2019
</metadata>
<g transform="translate(0.000000,50.000000) scale(0.100000,-0.100000)"
fill="#000000" stroke="none">
<path d="M0 470 c0 -35 8 -37 44 -9 35 28 33 39 -9 39 -32 0 -35 -2 -35 -30z"/>
<path d="M23 393 c-13 -2 -23 -9 -23 -15 0 -6 10 -8 22 -4 13 3 29 6 36 6 6 0
12 5 12 10 0 10 -8 11 -47 3z"/>
<path d="M20 310 c-23 -7 -23 -8 -3 -9 12 -1 25 -5 28 -11 10 -17 25 -11 25
10 0 21 -9 23 -50 10z"/>
<path d="M0 220 c0 -13 7 -20 19 -20 11 0 26 -3 35 -6 28 -11 17 15 -14 31
-37 19 -40 19 -40 -5z"/>
<path d="M0 75 l0 -75 35 0 35 0 0 49 c0 34 -6 56 -21 75 -37 47 -49 35 -49
-49z"/>
</g>
</svg>
