<?xml version="1.0" standalone="no"?>
<!DOCTYPE svg PUBLIC "-//W3C//DTD SVG 20010904//EN"
 "http://www.w3.org/TR/2001/REC-SVG-20010904/DTD/svg10.dtd">
<svg version="1.0" xmlns="http://www.w3.org/2000/svg"
 width="46.000000pt" height="57.000000pt" viewBox="0 0 46.000000 57.000000"
 preserveAspectRatio="xMidYMid meet">
<metadata>
Created by potrace 1.16, written by Peter Selinger 2001-2019
</metadata>
<g transform="translate(0.000000,57.000000) scale(0.100000,-0.100000)"
fill="#000000" stroke="none">
<path d="M0 522 l0 -48 127 -21 128 -20 57 51 57 51 -30 3 c-17 2 -29 9 -29
18 0 12 -27 14 -155 14 l-155 0 0 -48z"/>
<path d="M410 531 c0 -33 -7 -45 -54 -89 -30 -28 -66 -54 -82 -58 -15 -4 -76
0 -134 9 -119 19 -140 21 -140 8 0 -5 23 -12 52 -15 101 -14 142 -47 124 -103
-11 -34 -126 -143 -152 -143 -23 0 -24 -3 -24 -70 l0 -70 50 0 49 0 -26 26
c-45 45 -24 86 131 250 l55 57 100 -6 c81 -5 101 -3 101 7 0 8 -13 16 -29 19
-62 13 -65 93 -5 129 28 16 34 26 34 54 0 30 -3 34 -25 34 -22 0 -25 -4 -25
-39z"/>
<path d="M437 423 c-12 -11 -8 -23 8 -23 8 0 15 7 15 15 0 16 -12 20 -23 8z"/>
<path d="M0 266 c0 -42 4 -76 8 -76 4 0 36 29 71 64 l62 63 -53 6 c-29 3 -61
8 -70 12 -16 6 -18 -1 -18 -69z"/>
<path d="M245 228 c-28 -29 -73 -77 -100 -107 l-48 -54 69 -18 c96 -25 127
-24 139 4 7 16 20 23 46 25 43 4 69 -17 69 -54 0 -17 5 -24 20 -24 19 0 20 7
20 129 l0 129 -47 6 c-27 4 -64 9 -83 12 -32 4 -39 0 -85 -48z"/>
</g>
</svg>
