<?xml version="1.0" standalone="no"?>
<!DOCTYPE svg PUBLIC "-//W3C//DTD SVG 20010904//EN"
 "http://www.w3.org/TR/2001/REC-SVG-20010904/DTD/svg10.dtd">
<svg version="1.0" xmlns="http://www.w3.org/2000/svg"
 width="27.000000pt" height="29.000000pt" viewBox="0 0 27.000000 29.000000"
 preserveAspectRatio="xMidYMid meet">
<metadata>
Created by potrace 1.16, written by Peter Selinger 2001-2019
</metadata>
<g transform="translate(0.000000,29.000000) scale(0.100000,-0.100000)"
fill="#000000" stroke="none">
<path d="M0 145 l0 -145 46 0 47 0 -26 26 c-33 33 -41 72 -35 180 4 76 3 84
-14 84 -17 0 -18 -11 -18 -145z"/>
<path d="M90 196 c0 -80 3 -97 21 -117 l20 -24 -17 28 c-14 23 -16 44 -11 117
3 53 2 90 -4 90 -5 0 -9 -42 -9 -94z"/>
<path d="M160 210 c-15 -99 -9 -110 61 -110 l49 0 0 95 0 95 -49 0 -49 0 -12
-80z"/>
<path d="M208 28 c12 -6 22 -15 22 -20 0 -4 9 -8 20 -8 13 0 20 7 20 20 0 17
-6 20 -42 19 -38 0 -41 -2 -20 -11z"/>
</g>
</svg>
