<?xml version="1.0" standalone="no"?>
<!DOCTYPE svg PUBLIC "-//W3C//DTD SVG 20010904//EN"
 "http://www.w3.org/TR/2001/REC-SVG-20010904/DTD/svg10.dtd">
<svg version="1.0" xmlns="http://www.w3.org/2000/svg"
 width="27.000000pt" height="75.000000pt" viewBox="0 0 27.000000 75.000000"
 preserveAspectRatio="xMidYMid meet">
<metadata>
Created by potrace 1.16, written by Peter Selinger 2001-2019
</metadata>
<g transform="translate(0.000000,75.000000) scale(0.100000,-0.100000)"
fill="#000000" stroke="none">
<path d="M0 375 l0 -375 103 0 103 0 1 54 c1 57 26 124 50 133 8 3 13 22 13
53 l0 48 -65 7 c-109 11 -165 68 -165 169 0 102 77 186 178 194 l52 4 0 44 0
44 -135 0 -135 0 0 -375z"/>
<path d="M175 584 c-49 -24 -70 -62 -70 -122 0 -46 4 -57 28 -78 15 -13 33
-24 40 -24 7 0 3 6 -8 12 -34 19 -44 41 -45 89 0 70 41 114 120 130 l35 7 -35
1 c-19 0 -48 -6 -65 -15z"/>
<path d="M225 530 c-34 -13 -57 -46 -53 -77 3 -26 7 -28 51 -31 l47 -3 0 54
c0 58 -10 70 -45 57z"/>
<path d="M223 353 c9 -2 25 -2 35 0 9 3 1 5 -18 5 -19 0 -27 -2 -17 -5z"/>
<path d="M261 44 c0 -11 3 -14 6 -6 3 7 2 16 -1 19 -3 4 -6 -2 -5 -13z"/>
</g>
</svg>
