<?xml version="1.0" standalone="no"?>
<!DOCTYPE svg PUBLIC "-//W3C//DTD SVG 20010904//EN"
 "http://www.w3.org/TR/2001/REC-SVG-20010904/DTD/svg10.dtd">
<svg version="1.0" xmlns="http://www.w3.org/2000/svg"
 width="19.000000pt" height="57.000000pt" viewBox="0 0 19.000000 57.000000"
 preserveAspectRatio="xMidYMid meet">
<metadata>
Created by potrace 1.16, written by Peter Selinger 2001-2019
</metadata>
<g transform="translate(0.000000,57.000000) scale(0.100000,-0.100000)"
fill="#000000" stroke="none">
<path d="M0 535 c0 -41 8 -44 38 -12 30 32 27 47 -8 47 -28 0 -30 -3 -30 -35z"/>
<path d="M116 545 c-10 -38 -64 -95 -92 -95 -22 0 -24 -4 -24 -49 l0 -49 39 5
c45 6 96 -19 130 -65 20 -26 20 -26 21 -4 0 12 -4 22 -10 22 -5 0 -28 16 -50
36 -34 31 -40 43 -40 75 0 33 7 47 50 91 28 28 50 53 50 55 0 2 -15 3 -34 3
-28 0 -35 -4 -40 -25z"/>
<path d="M158 446 l-27 -32 30 -18 29 -17 0 50 c0 28 -1 51 -2 50 -2 0 -15
-15 -30 -33z"/>
<path d="M38 290 c-7 -11 -18 -20 -25 -20 -10 0 -13 -33 -13 -135 l0 -135 95
0 95 0 0 88 0 87 -61 68 c-33 37 -65 67 -70 67 -5 0 -14 -9 -21 -20z"/>
</g>
</svg>
