<?xml version="1.0" standalone="no"?>
<!DOCTYPE svg PUBLIC "-//W3C//DTD SVG 20010904//EN"
 "http://www.w3.org/TR/2001/REC-SVG-20010904/DTD/svg10.dtd">
<svg version="1.0" xmlns="http://www.w3.org/2000/svg"
 width="35.000000pt" height="75.000000pt" viewBox="0 0 35.000000 75.000000"
 preserveAspectRatio="xMidYMid meet">
<metadata>
Created by potrace 1.16, written by Peter Selinger 2001-2019
</metadata>
<g transform="translate(0.000000,75.000000) scale(0.100000,-0.100000)"
fill="#000000" stroke="none">
<path d="M0 375 l0 -375 35 0 c31 0 34 2 26 18 -12 22 -28 139 -36 262 -7 117
3 144 56 148 51 4 66 -15 74 -95 7 -75 17 -224 18 -290 l1 -43 88 0 88 0 0
375 0 375 -175 0 -175 0 0 -375z m128 323 c15 -15 16 -63 2 -89 -12 -22 -78
-27 -98 -7 -19 19 -15 85 6 97 24 14 75 14 90 -1z"/>
<path d="M85 260 c11 -157 25 -193 19 -50 -3 69 -10 129 -16 135 -7 7 -8 -17
-3 -85z"/>
</g>
</svg>
