<?xml version="1.0" standalone="no"?>
<!DOCTYPE svg PUBLIC "-//W3C//DTD SVG 20010904//EN"
 "http://www.w3.org/TR/2001/REC-SVG-20010904/DTD/svg10.dtd">
<svg version="1.0" xmlns="http://www.w3.org/2000/svg"
 width="4.000000pt" height="29.000000pt" viewBox="0 0 4.000000 29.000000"
 preserveAspectRatio="xMidYMid meet">
<metadata>
Created by potrace 1.16, written by Peter Selinger 2001-2019
</metadata>
<g transform="translate(0.000000,29.000000) scale(0.100000,-0.100000)"
fill="#000000" stroke="none">
<path d="M0 215 c0 -58 3 -75 14 -75 8 0 17 -6 19 -12 3 -7 6 26 6 75 1 81 0
87 -19 87 -18 0 -20 -7 -20 -75z"/>
<path d="M18 23 c-24 -6 -23 -23 2 -23 11 0 20 7 20 15 0 8 -1 14 -2 14 -2 -1
-11 -3 -20 -6z"/>
</g>
</svg>
