<?xml version="1.0" standalone="no"?>
<!DOCTYPE svg PUBLIC "-//W3C//DTD SVG 20010904//EN"
 "http://www.w3.org/TR/2001/REC-SVG-20010904/DTD/svg10.dtd">
<svg version="1.0" xmlns="http://www.w3.org/2000/svg"
 width="35.000000pt" height="12.000000pt" viewBox="0 0 35.000000 12.000000"
 preserveAspectRatio="xMidYMid meet">
<metadata>
Created by potrace 1.16, written by Peter Selinger 2001-2019
</metadata>
<g transform="translate(0.000000,12.000000) scale(0.100000,-0.100000)"
fill="#000000" stroke="none">
<path d="M0 60 l0 -60 35 0 c19 0 35 5 35 10 0 6 18 30 40 54 22 24 40 46 40
50 0 3 -34 6 -75 6 l-75 0 0 -60z"/>
<path d="M195 93 c-3 -15 -17 -40 -31 -56 -41 -49 -17 -44 26 6 22 25 50 49
60 52 32 10 23 25 -14 25 -28 0 -35 -4 -41 -27z"/>
<path d="M315 59 c-16 -5 -43 -20 -60 -33 l-30 -25 63 -1 62 0 0 35 c0 19 -1
35 -2 34 -2 0 -16 -5 -33 -10z"/>
</g>
</svg>
