<?xml version="1.0" standalone="no"?>
<!DOCTYPE svg PUBLIC "-//W3C//DTD SVG 20010904//EN"
 "http://www.w3.org/TR/2001/REC-SVG-20010904/DTD/svg10.dtd">
<svg version="1.0" xmlns="http://www.w3.org/2000/svg"
 width="46.000000pt" height="43.000000pt" viewBox="0 0 46.000000 43.000000"
 preserveAspectRatio="xMidYMid meet">
<metadata>
Created by potrace 1.16, written by Peter Selinger 2001-2019
</metadata>
<g transform="translate(0.000000,43.000000) scale(0.100000,-0.100000)"
fill="#000000" stroke="none">
<path d="M0 311 l0 -120 48 -7 c26 -3 70 -15 97 -25 28 -11 51 -19 53 -19 1 0
2 15 2 33 1 37 33 214 45 240 7 16 -3 17 -119 17 l-126 0 0 -119z"/>
<path d="M297 398 c-3 -18 -15 -83 -26 -145 -11 -61 -25 -121 -31 -132 -16
-30 -55 -36 -114 -18 -71 22 -126 31 -126 20 0 -4 22 -13 48 -20 80 -19 121
-40 140 -73 11 -19 25 -30 39 -30 27 0 29 8 54 195 6 44 19 112 30 150 23 83
23 85 5 85 -7 0 -16 -15 -19 -32z"/>
<path d="M390 415 c0 -9 -9 -41 -20 -73 -11 -31 -23 -91 -26 -132 -4 -41 -13
-100 -20 -130 -21 -83 -23 -80 61 -80 l75 0 0 215 0 215 -35 0 c-25 0 -35 -4
-35 -15z"/>
<path d="M0 26 c0 -26 0 -26 78 -25 l77 0 -45 21 c-25 11 -60 22 -77 25 -30 5
-33 3 -33 -21z"/>
</g>
</svg>
