<?xml version="1.0" standalone="no"?>
<!DOCTYPE svg PUBLIC "-//W3C//DTD SVG 20010904//EN"
 "http://www.w3.org/TR/2001/REC-SVG-20010904/DTD/svg10.dtd">
<svg version="1.0" xmlns="http://www.w3.org/2000/svg"
 width="38.000000pt" height="12.000000pt" viewBox="0 0 38.000000 12.000000"
 preserveAspectRatio="xMidYMid meet">
<metadata>
Created by potrace 1.16, written by Peter Selinger 2001-2019
</metadata>
<g transform="translate(0.000000,12.000000) scale(0.100000,-0.100000)"
fill="#000000" stroke="none">
<path d="M0 60 l0 -60 190 0 190 0 0 60 0 60 -150 0 c-93 0 -150 -4 -150 -10
0 -5 11 -10 25 -10 16 0 25 -6 25 -15 0 -11 -11 -15 -40 -15 -36 0 -40 3 -40
25 0 20 -5 25 -25 25 -24 0 -25 -3 -25 -60z"/>
</g>
</svg>
