<?xml version="1.0" standalone="no"?>
<!DOCTYPE svg PUBLIC "-//W3C//DTD SVG 20010904//EN"
 "http://www.w3.org/TR/2001/REC-SVG-20010904/DTD/svg10.dtd">
<svg version="1.0" xmlns="http://www.w3.org/2000/svg"
 width="29.000000pt" height="24.000000pt" viewBox="0 0 29.000000 24.000000"
 preserveAspectRatio="xMidYMid meet">
<metadata>
Created by potrace 1.16, written by Peter Selinger 2001-2019
</metadata>
<g transform="translate(0.000000,24.000000) scale(0.100000,-0.100000)"
fill="#000000" stroke="none">
<path d="M0 120 l0 -120 145 0 145 0 0 120 0 120 -145 0 -145 0 0 -120z m160
5 c0 -49 -48 -104 -51 -57 -1 16 -2 16 -6 0 -4 -18 -43 -26 -43 -9 0 5 -3 22
-6 39 -5 26 -3 31 17 34 51 9 89 6 89 -7z"/>
</g>
</svg>
