<?xml version="1.0" standalone="no"?>
<!DOCTYPE svg PUBLIC "-//W3C//DTD SVG 20010904//EN"
 "http://www.w3.org/TR/2001/REC-SVG-20010904/DTD/svg10.dtd">
<svg version="1.0" xmlns="http://www.w3.org/2000/svg"
 width="8.000000pt" height="57.000000pt" viewBox="0 0 8.000000 57.000000"
 preserveAspectRatio="xMidYMid meet">
<metadata>
Created by potrace 1.16, written by Peter Selinger 2001-2019
</metadata>
<g transform="translate(0.000000,57.000000) scale(0.100000,-0.100000)"
fill="#000000" stroke="none">
<path d="M30 560 c0 -5 4 -10 9 -10 5 0 16 -3 25 -6 11 -4 16 -1 16 10 0 10
-9 16 -25 16 -14 0 -25 -4 -25 -10z"/>
<path d="M0 320 c0 -99 3 -180 8 -180 4 1 22 21 40 45 32 44 32 45 32 162 l0
119 -29 17 c-16 9 -34 17 -40 17 -8 0 -11 -56 -11 -180z"/>
<path d="M51 109 c-13 -10 -29 -19 -37 -19 -10 0 -14 -13 -14 -45 0 -53 11
-56 51 -15 24 23 30 37 27 64 l-3 34 -24 -19z"/>
</g>
</svg>
