<?xml version="1.0" standalone="no"?>
<!DOCTYPE svg PUBLIC "-//W3C//DTD SVG 20010904//EN"
 "http://www.w3.org/TR/2001/REC-SVG-20010904/DTD/svg10.dtd">
<svg version="1.0" xmlns="http://www.w3.org/2000/svg"
 width="7.000000pt" height="39.000000pt" viewBox="0 0 7.000000 39.000000"
 preserveAspectRatio="xMidYMid meet">
<metadata>
Created by potrace 1.16, written by Peter Selinger 2001-2019
</metadata>
<g transform="translate(0.000000,39.000000) scale(0.100000,-0.100000)"
fill="#000000" stroke="none">
<path d="M0 315 c0 -53 4 -75 13 -75 6 0 22 -17 34 -38 l22 -37 1 113 0 112
-35 0 -35 0 0 -75z"/>
<path d="M0 70 l0 -70 35 0 c34 0 35 1 35 39 0 31 -7 46 -31 70 -17 17 -32 31
-35 31 -2 0 -4 -31 -4 -70z"/>
</g>
</svg>
