<?xml version="1.0" standalone="no"?>
<!DOCTYPE svg PUBLIC "-//W3C//DTD SVG 20010904//EN"
 "http://www.w3.org/TR/2001/REC-SVG-20010904/DTD/svg10.dtd">
<svg version="1.0" xmlns="http://www.w3.org/2000/svg"
 width="42.000000pt" height="39.000000pt" viewBox="0 0 42.000000 39.000000"
 preserveAspectRatio="xMidYMid meet">
<metadata>
Created by potrace 1.16, written by Peter Selinger 2001-2019
</metadata>
<g transform="translate(0.000000,39.000000) scale(0.100000,-0.100000)"
fill="#000000" stroke="none">
<path d="M0 195 l0 -195 211 0 210 0 -5 138 c-3 75 -6 148 -6 162 -1 14 2 40
5 58 l7 32 -141 0 c-119 0 -141 -2 -141 -15 0 -8 -7 -15 -15 -15 -8 0 -15 7
-15 15 0 8 -4 15 -10 15 -5 0 -10 -9 -10 -20 0 -11 -7 -20 -15 -20 -8 0 -15 9
-15 20 0 16 -7 20 -30 20 l-30 0 0 -195z"/>
</g>
</svg>
