<?xml version="1.0" standalone="no"?>
<!DOCTYPE svg PUBLIC "-//W3C//DTD SVG 20010904//EN"
 "http://www.w3.org/TR/2001/REC-SVG-20010904/DTD/svg10.dtd">
<svg version="1.0" xmlns="http://www.w3.org/2000/svg"
 width="1355.000000pt" height="856.000000pt" viewBox="0 0 1355.000000 856.000000"
 preserveAspectRatio="xMidYMid meet">
<metadata>
Created by potrace 1.16, written by Peter Selinger 2001-2019
</metadata>
<g transform="translate(0.000000,856.000000) scale(0.100000,-0.100000)"
fill="#000000" stroke="none">
<path d="M13540 4760 l0 -3800 -2255 0 -2255 0 0 -475 0 -475 -4517 -3 c-3617
-2 -3166 -3 2260 -5 l6777 -2 0 4280 c0 2354 -2 4280 -5 4280 -3 0 -5 -1710
-5 -3800z"/>
<path d="M2768 8543 l-498 -3 0 -455 0 -455 1110 0 1110 0 0 455 0 454 -512 3
c-282 2 -515 2 -517 1 -2 -1 9 -7 25 -13 46 -18 74 -50 74 -85 0 -43 -42 -105
-144 -210 l-87 -90 3 -152 c2 -83 7 -155 11 -159 5 -5 23 8 40 28 18 20 46 43
63 52 50 24 84 71 84 116 l0 39 -51 3 c-60 4 -75 19 -65 69 10 51 20 61 67 69
24 4 89 18 144 30 75 16 105 19 122 11 27 -12 45 -53 36 -77 -6 -17 -101 -64
-128 -64 -12 0 -15 -18 -15 -96 l0 -95 -48 -47 c-62 -61 -162 -111 -233 -118
-46 -5 -59 -2 -89 18 -40 27 -48 59 -49 201 -1 42 -4 77 -7 77 -4 0 -32 -22
-63 -49 -196 -170 -299 -205 -289 -100 3 29 24 50 176 177 l172 144 0 107 c0
125 10 167 47 198 16 12 24 21 18 20 -5 -1 -234 -3 -507 -4z m-368 -131 c0 -4
10 -12 22 -17 44 -19 30 -75 -18 -75 -22 0 -24 4 -24 50 0 28 5 50 10 50 6 0
10 -3 10 -8z"/>
<path d="M2394 8369 c-10 -17 13 -36 27 -22 12 12 4 33 -11 33 -5 0 -12 -5
-16 -11z"/>
<path d="M7238 8543 l-458 -3 0 -455 0 -455 1110 0 1110 0 0 455 0 455 -609 0
c-334 0 -628 1 -652 3 -24 2 -250 2 -501 0z m530 -30 c16 -23 15 -41 -8 -115
-11 -34 -22 -92 -26 -128 -3 -36 -12 -92 -19 -125 -8 -33 -15 -107 -16 -164
-1 -90 1 -106 17 -118 26 -19 42 -16 76 12 35 29 59 32 80 8 42 -48 23 -95
-57 -133 -37 -18 -54 -20 -102 -14 -78 9 -117 47 -127 122 -4 28 -9 52 -12 52
-4 0 -20 -11 -36 -25 -45 -38 -94 -60 -176 -80 -165 -40 -228 7 -240 177 -8
124 28 190 127 235 50 23 210 22 271 -1 81 -31 80 -31 80 1 0 16 9 78 19 136
19 102 46 169 74 181 19 8 61 -4 75 -21z m-818 -144 l0 -50 -32 3 c-30 3 -33
6 -33 38 0 29 4 36 23 38 12 2 22 8 22 13 0 5 5 9 10 9 6 0 10 -23 10 -51z"/>
<path d="M7696 8462 c-9 -17 -25 -85 -35 -151 -26 -155 -31 -164 -84 -158 -23
3 -67 13 -97 22 -114 34 -239 6 -287 -65 -40 -58 -27 -222 20 -255 46 -32 190
-3 282 59 87 57 126 44 139 -45 8 -53 26 -74 74 -84 40 -8 80 0 112 25 31 23
20 38 -12 16 -45 -32 -126 -15 -147 31 -13 29 -14 188 -1 258 5 28 16 96 24
153 8 57 22 126 31 153 21 61 7 90 -19 41z m-203 -323 c76 -25 97 -43 97 -82
0 -40 -74 -113 -156 -153 -47 -23 -72 -29 -126 -29 -57 0 -71 4 -90 23 -20 20
-23 33 -23 100 0 89 17 125 68 147 48 21 157 18 230 -6z"/>
<path d="M7300 8108 c-50 -13 -60 -32 -60 -109 0 -75 4 -79 74 -79 56 0 148
46 204 102 l43 42 -38 14 c-113 41 -161 48 -223 30z"/>
<path d="M6900 8360 c0 -11 7 -20 15 -20 8 0 15 9 15 20 0 11 -7 20 -15 20 -8
0 -15 -9 -15 -20z"/>
<path d="M10 8085 l0 -455 1110 0 1110 0 0 455 0 455 -1110 0 -1110 0 0 -455z
m150 275 c0 -36 -2 -40 -25 -40 -18 0 -25 5 -25 20 0 22 16 27 23 8 2 -8 8 -9
13 -4 5 5 3 11 -5 14 -11 4 -11 6 0 14 10 6 7 7 -8 3 -13 -3 -23 -2 -23 3 0
14 12 22 32 22 14 0 18 -8 18 -40z m963 -22 c20 -10 47 -34 60 -53 12 -20 30
-35 41 -35 31 0 56 -30 56 -65 0 -18 -9 -63 -21 -99 -22 -72 -20 -93 11 -121
29 -26 59 -12 113 55 35 44 54 60 72 60 29 0 65 -32 65 -58 0 -26 -68 -119
-113 -156 -33 -27 -47 -31 -97 -31 -50 0 -63 4 -97 31 l-38 31 -19 -24 c-62
-83 -261 -67 -323 25 -49 74 -39 215 24 340 43 85 73 113 135 122 51 8 81 3
131 -22z"/>
<path d="M990 8310 c-42 -10 -64 -36 -103 -120 -38 -84 -48 -197 -20 -250 24
-47 73 -70 150 -70 55 0 66 4 96 30 42 37 78 38 132 5 46 -29 74 -31 114 -10
39 20 101 94 101 119 0 17 -13 8 -58 -41 -31 -33 -66 -64 -76 -67 -30 -10 -84
13 -107 45 -25 36 -27 76 -5 149 23 77 21 98 -9 106 -14 3 -38 22 -53 42 -15
19 -45 43 -67 53 -44 20 -45 20 -95 9z m90 -36 c54 -37 100 -88 100 -114 0
-49 -27 -167 -46 -199 -28 -47 -72 -71 -132 -71 -67 0 -106 32 -120 97 -19 86
27 237 85 283 31 24 80 26 113 4z"/>
<path d="M986 8220 c-26 -32 -66 -144 -66 -186 0 -14 6 -40 14 -58 17 -42 68
-56 115 -31 39 20 51 43 72 139 l16 79 -35 31 c-34 31 -71 55 -84 56 -3 0 -18
-14 -32 -30z"/>
<path d="M4525 8085 l0 -455 1113 0 1112 0 0 455 0 455 -1112 0 -1113 0 0
-455z m922 315 c18 -10 39 -32 47 -48 20 -38 40 -156 32 -187 -8 -30 -40 -49
-72 -41 -27 7 -35 22 -59 108 -25 93 -71 98 -160 16 -66 -60 -103 -132 -111
-215 -7 -63 -7 -63 30 -98 61 -57 81 -57 137 4 40 43 52 51 71 46 57 -18 64
-61 19 -121 -55 -75 -76 -89 -139 -88 -102 1 -224 78 -238 149 -8 46 13 195
37 260 26 69 122 175 191 209 67 33 166 36 215 6z m-759 -18 c3 -9 -3 -13 -19
-10 -17 2 -25 -3 -27 -16 -3 -16 0 -18 23 -12 20 5 26 3 23 -6 -3 -7 -17 -14
-31 -16 -31 -4 -42 15 -33 54 5 20 12 25 33 22 15 -2 28 -9 31 -16z"/>
<path d="M5239 8342 c-59 -38 -126 -113 -151 -168 -11 -25 -25 -88 -31 -140
-10 -89 -9 -96 10 -122 47 -64 157 -106 209 -80 30 15 91 85 81 94 -3 3 -23
-12 -45 -35 -32 -34 -45 -41 -77 -41 -74 0 -144 61 -158 136 -8 43 18 158 45
202 113 185 278 216 318 61 16 -64 18 -69 30 -69 25 0 -3 134 -36 167 -19 19
-33 23 -87 23 -52 0 -71 -5 -108 -28z"/>
<path d="M9040 8085 l0 -455 1110 0 1110 0 0 455 0 455 -1110 0 -1110 0 0
-455z m155 275 c0 -31 -3 -35 -25 -35 -19 0 -26 6 -28 23 -5 36 5 54 30 50 19
-2 23 -9 23 -38z m458 24 c37 -19 156 -113 192 -152 24 -26 32 -63 19 -97 -11
-28 -84 -56 -176 -68 l-89 -11 7 -41 c8 -52 18 -69 51 -93 52 -36 82 -36 193
3 57 19 114 35 128 35 51 0 78 -53 48 -92 -17 -23 -81 -49 -188 -78 -78 -20
-94 -21 -145 -11 -75 15 -160 70 -179 117 -8 20 -18 64 -21 98 -4 51 -9 64
-27 72 -30 13 -35 78 -8 93 16 8 20 25 24 85 4 61 10 81 31 110 36 46 86 57
140 30z"/>
<path d="M9150 8350 c0 -5 9 -10 20 -10 11 0 20 5 20 10 0 6 -9 10 -20 10 -11
0 -20 -4 -20 -10z"/>
<path d="M9560 8332 c-19 -15 -24 -32 -29 -93 -4 -48 -13 -86 -25 -104 -13
-20 -15 -30 -7 -33 18 -6 41 -58 41 -94 0 -73 18 -106 77 -146 51 -34 62 -37
122 -36 67 1 224 44 237 65 15 24 -13 22 -99 -9 -114 -40 -173 -42 -233 -7
-46 27 -78 81 -89 150 -9 57 13 74 107 86 134 17 188 51 143 89 -12 10 -16 8
-25 -14 -13 -35 -50 -47 -134 -44 -66 3 -72 5 -84 30 -18 38 0 102 35 125 25
17 28 16 74 -10 57 -31 67 -34 48 -10 -20 24 -100 73 -120 73 -9 0 -27 -8 -39
-18z"/>
<path d="M9611 8252 c-6 -12 -11 -32 -11 -47 0 -25 2 -26 43 -21 23 3 57 5 75
5 43 1 41 17 -5 24 -20 4 -49 18 -64 33 -27 26 -27 26 -38 6z"/>
<path d="M11298 8085 l-3 -455 372 0 372 0 3 33 c2 25 10 35 34 46 28 12 33
21 44 73 6 33 14 66 17 74 4 11 -6 14 -46 14 -55 0 -91 23 -91 58 0 38 30 56
108 67 l52 7 0 45 c0 42 -1 45 -22 39 -13 -4 -56 -12 -96 -19 -93 -14 -125 -1
-130 54 -4 45 11 57 84 69 33 5 82 14 111 20 l51 11 7 82 c9 119 13 134 47
162 37 31 95 33 154 5 57 -28 70 -62 55 -137 -14 -69 -48 -125 -101 -161 -38
-26 -39 -29 -40 -84 0 -31 -2 -63 -5 -70 -5 -12 10 -14 82 -10 48 2 96 9 106
14 39 20 89 -40 67 -81 -17 -32 -39 -39 -159 -53 l-111 -12 0 -41 c-1 -42 -22
-157 -35 -187 -7 -17 28 -18 641 -18 l649 0 0 455 0 455 -1107 0 -1108 0 -2
-455z m135 332 c-8 -13 -9 -19 -11 -64 -1 -18 -6 -33 -12 -33 -14 0 -13 93 2
108 14 14 31 5 21 -11z"/>
<path d="M3298 8503 c-31 -36 -38 -64 -38 -161 0 -54 -5 -113 -11 -130 -7 -21
-61 -72 -175 -167 -150 -125 -180 -155 -155 -155 11 0 115 76 193 141 31 26
66 50 78 54 26 8 70 -19 70 -43 1 -67 22 -218 31 -226 9 -8 10 -6 4 9 -5 11
-10 90 -13 177 l-4 156 97 104 c102 108 135 152 135 180 0 9 -20 31 -44 48
-36 24 -55 30 -99 30 -39 0 -58 -5 -69 -17z m140 -29 c16 -11 22 -25 22 -52 0
-30 -8 -45 -47 -84 -55 -55 -93 -63 -118 -25 -20 31 -4 121 27 154 26 27 82
31 116 7z"/>
<path d="M3350 8430 c-6 -10 -13 -41 -16 -67 l-6 -48 46 47 c51 53 57 73 24
82 -34 9 -36 8 -48 -14z"/>
<path d="M12235 8417 c-9 -14 -18 -60 -21 -115 -9 -117 -16 -125 -148 -149
-146 -27 -111 -50 44 -29 78 11 95 -3 93 -80 -2 -66 -23 -94 -72 -94 -36 0
-71 -11 -71 -21 0 -5 13 -9 29 -9 47 0 80 -17 87 -44 7 -30 -14 -156 -30 -177
-6 -9 -21 -21 -33 -28 -36 -18 -27 -31 21 -31 43 0 44 1 54 43 6 23 14 67 17
97 16 135 24 143 145 155 164 15 179 35 23 28 -100 -5 -109 -4 -127 15 -15 18
-18 34 -14 102 l3 82 57 51 c64 59 73 74 83 138 6 42 5 48 -20 68 -39 30 -99
29 -120 -2z m79 -43 c20 -8 21 -57 1 -74 -8 -6 -22 -10 -32 -8 -25 5 -30 58
-7 75 21 15 18 15 38 7z"/>
<path d="M12294 8344 c-4 -10 -9 -22 -11 -26 -2 -5 0 -8 5 -8 10 0 24 41 17
48 -3 3 -8 -4 -11 -14z"/>
<path d="M3560 8179 c-76 -18 -99 -30 -100 -51 0 -5 15 -8 34 -8 54 0 78 -27
78 -88 0 -67 -24 -108 -92 -154 -30 -20 -56 -42 -59 -49 -5 -17 17 -7 83 35
79 50 91 74 89 165 -3 92 9 113 77 136 113 37 36 47 -110 14z"/>
<path d="M14 7591 c-2 -2 -4 -208 -4 -458 l0 -453 450 0 449 0 -19 45 c-49
114 -45 198 11 254 32 32 133 91 192 112 34 12 37 16 37 51 0 21 -2 38 -5 38
-2 0 -20 -11 -39 -24 -53 -36 -163 -60 -236 -51 -110 13 -164 73 -157 177 6
102 75 169 182 176 69 4 210 -20 258 -44 60 -31 118 -76 129 -100 9 -18 7 -29
-6 -48 -10 -17 -15 -42 -14 -71 3 -43 14 -55 33 -36 6 5 44 23 85 41 41 17 82
38 91 46 34 31 99 5 99 -40 0 -38 -27 -59 -160 -126 l-140 -70 0 -60 c0 -74
-27 -148 -80 -217 l-40 -53 550 0 550 0 0 458 0 457 -1106 0 c-608 0 -1108 -2
-1110 -4z m166 -185 c0 -48 -18 -71 -48 -62 -14 5 -19 17 -20 47 -2 52 2 59
39 59 28 0 29 -2 29 -44z"/>
<path d="M130 7410 c0 -11 7 -20 15 -20 8 0 15 9 15 20 0 11 -7 20 -15 20 -8
0 -15 -9 -15 -20z"/>
<path d="M138 7363 c7 -3 16 -2 19 1 4 3 -2 6 -13 5 -11 0 -14 -3 -6 -6z"/>
<path d="M2270 7138 l0 -458 1110 0 1110 0 0 458 0 457 -1110 0 -1110 0 0
-457z m681 346 c42 -21 88 -64 105 -97 20 -37 13 -104 -15 -158 -11 -20 -17
-46 -15 -57 5 -18 10 -17 75 16 119 61 161 46 224 -81 30 -60 35 -79 35 -143
0 -40 4 -75 9 -79 5 -3 26 2 46 12 33 16 39 16 63 2 33 -18 41 -62 17 -89 -9
-10 -43 -30 -77 -45 -54 -24 -65 -26 -98 -16 -58 17 -64 31 -71 160 -7 134
-26 191 -66 191 -40 0 -70 -40 -78 -103 -4 -30 -4 -64 0 -76 10 -32 -13 -126
-36 -147 -15 -14 -25 -16 -47 -8 -40 14 -54 49 -49 123 4 49 -1 79 -19 135
-34 100 -35 101 -72 82 -39 -20 -61 -20 -84 1 -31 28 -23 67 23 106 l40 35
-29 54 c-37 66 -44 103 -29 148 9 26 21 38 47 47 36 12 57 10 101 -13z m-528
-34 c8 0 18 -7 21 -16 9 -25 7 -64 -4 -64 -5 0 -10 14 -10 30 0 20 -5 30 -15
30 -10 0 -15 -10 -15 -30 0 -16 -4 -30 -10 -30 -6 0 -10 26 -10 58 1 49 2 55
14 40 7 -10 20 -18 29 -18z"/>
<path d="M2851 7431 c-12 -21 -3 -58 28 -118 30 -60 27 -87 -14 -124 -35 -33
-39 -57 -5 -39 29 16 75 12 93 -8 34 -38 67 -157 67 -242 0 -74 9 -97 26 -68
4 6 8 52 10 102 4 152 39 211 125 211 73 0 107 -64 115 -215 6 -112 10 -127
34 -135 25 -8 134 40 125 55 -4 7 -12 7 -25 0 -22 -12 -70 -13 -87 -2 -20 13
-33 61 -33 123 0 60 -17 108 -62 172 -26 36 -62 35 -140 -4 -117 -59 -158 -1
-102 143 24 60 13 91 -44 135 -50 38 -96 44 -111 14z"/>
<path d="M4530 7595 c0 0 -1 -206 -3 -458 l-2 -457 1113 0 1112 0 -2 455 -3
455 -1108 3 c-609 1 -1107 2 -1107 2z m648 -97 c15 -15 16 -53 2 -79 -12 -22
-68 -27 -88 -7 -18 18 -15 75 6 87 23 14 65 14 80 -1z m-528 -28 c0 -5 -8 -10
-17 -10 -15 0 -16 2 -3 10 19 12 20 12 20 0z m0 -60 c0 -22 -4 -40 -10 -40 -5
0 -10 18 -10 40 0 22 5 40 10 40 6 0 10 -18 10 -40z m533 -195 c16 -16 26 -84
33 -230 2 -49 6 -104 10 -121 10 -52 -45 -84 -90 -51 -22 16 -32 62 -46 215
-16 162 -6 202 51 202 15 0 34 -7 42 -15z"/>
<path d="M5134 7166 c-15 -37 23 -335 40 -314 6 7 -15 294 -23 313 -9 20 -9
20 -17 1z"/>
<path d="M6780 7138 l0 -458 378 0 377 0 -34 22 c-37 23 -91 124 -91 168 0 54
59 118 183 202 l39 26 2 92 c1 83 4 94 25 111 31 25 47 24 76 -6 20 -20 25
-34 25 -78 l0 -53 113 23 c61 13 129 30 149 39 95 42 143 -55 53 -107 -17 -10
-70 -25 -120 -35 -49 -9 -113 -23 -141 -31 l-51 -14 -6 -107 c-7 -150 -28
-195 -112 -233 -39 -18 -28 -19 658 -19 l697 0 0 458 0 457 -1110 0 -1110 0 0
-457z m910 396 c19 -22 1 -85 -27 -95 -49 -18 -95 58 -57 95 20 20 68 21 84 0z
m-783 -70 c-3 -3 -12 -4 -19 -1 -8 3 -5 6 6 6 11 1 17 -2 13 -5z m3 -69 c0
-44 -3 -55 -16 -55 -11 0 -14 5 -10 16 3 9 6 33 6 55 0 21 5 39 10 39 6 0 10
-25 10 -55z"/>
<path d="M9040 7138 l0 -458 350 0 350 0 0 59 c0 32 -7 90 -16 129 l-16 71
-35 -14 c-68 -28 -123 -10 -123 42 0 22 48 99 80 128 31 28 26 46 -9 32 -23
-9 -34 -7 -55 6 -36 24 -33 55 9 109 34 44 35 46 25 98 -13 71 -13 86 6 104
17 18 66 21 94 6 30 -16 62 -115 54 -166 -3 -24 -3 -44 1 -44 4 0 54 45 112
99 142 135 189 154 223 91 17 -32 -3 -60 -143 -198 l-135 -132 43 2 c30 1 52
-5 73 -21 50 -35 108 -107 127 -158 24 -65 32 -73 70 -73 19 0 36 -6 38 -12 3
-8 6 -6 6 4 2 42 80 47 102 7 20 -38 3 -67 -55 -96 -46 -22 -60 -25 -110 -19
-72 9 -109 39 -149 124 -36 76 -79 122 -114 122 -19 0 -24 -4 -19 -16 12 -32
36 -187 36 -235 l0 -49 700 0 700 0 0 458 0 457 -1110 0 -1110 0 0 -457z m130
310 c0 -17 2 -18 15 -8 9 7 18 10 22 6 4 -3 -1 -12 -11 -19 -16 -12 -16 -14
-2 -26 9 -8 16 -17 16 -22 0 -14 -30 -10 -31 4 0 10 -2 10 -6 0 -12 -30 -23
-9 -23 43 0 34 4 53 10 49 6 -3 10 -15 10 -27z"/>
<path d="M11300 7599 c0 -2 -1 -210 -3 -462 l-2 -457 1110 0 1110 0 -2 457
c-2 305 -6 457 -13 455 -23 -5 -2169 -2 -2184 4 -9 3 -16 5 -16 3z m123 -181
c3 -36 1 -48 -9 -48 -10 0 -14 14 -14 48 0 27 3 52 7 56 9 9 10 5 16 -56z
m825 -14 c30 -21 29 -53 -8 -254 -42 -230 -41 -243 21 -200 38 28 156 52 181
39 30 -16 41 -57 24 -84 -24 -37 -145 -65 -257 -61 -112 4 -128 40 -104 232
28 216 46 295 71 321 27 27 42 29 72 7z"/>
<path d="M12191 7313 c-6 -27 -17 -93 -25 -148 -31 -219 -31 -265 -1 -265 10
0 11 6 3 28 -9 23 -5 66 21 208 17 98 31 189 31 202 0 39 -18 24 -29 -25z"/>
<path d="M12323 6927 c-55 -20 -51 -30 9 -23 64 7 88 14 88 27 0 12 -59 10
-97 -4z"/>
<path d="M815 7394 c-44 -22 -68 -61 -73 -118 -3 -41 0 -56 18 -78 45 -58 154
-61 285 -9 72 29 79 30 101 16 19 -12 24 -24 24 -59 0 -25 -3 -52 -6 -60 -3
-9 -47 -36 -98 -60 -104 -50 -151 -92 -159 -139 -4 -20 4 -64 20 -119 27 -91
33 -98 95 -98 44 0 57 10 102 80 65 100 68 107 77 188 4 40 11 83 14 93 4 13
56 44 146 89 76 39 139 75 139 80 0 13 -13 13 -26 1 -16 -16 -197 -91 -219
-91 -44 0 -58 31 -54 122 l4 83 -54 32 c-94 56 -269 81 -336 47z m228 -29 c84
-30 97 -81 33 -130 -44 -33 -106 -54 -185 -61 -57 -5 -69 -3 -92 15 -55 43
-42 140 23 181 28 18 44 21 103 16 39 -2 92 -12 118 -21z m123 -380 c33 -50
-8 -171 -84 -253 -31 -33 -67 -41 -101 -22 -26 14 -51 82 -51 139 0 61 28 98
102 135 68 34 112 34 134 1z"/>
<path d="M848 7326 c-28 -18 -33 -28 -33 -61 0 -39 1 -40 38 -43 55 -5 134 15
186 45 50 29 46 35 -34 57 -93 26 -121 27 -157 2z"/>
<path d="M1056 6942 c-69 -38 -90 -69 -81 -121 9 -54 37 -90 57 -74 39 33 89
123 95 172 7 61 1 63 -71 23z"/>
<path d="M9646 7340 c6 -65 5 -72 -21 -112 -16 -24 -28 -45 -28 -48 1 -3 15
-4 32 -2 70 8 83 -59 26 -129 -42 -49 -59 -78 -51 -86 3 -3 25 0 50 7 49 13
81 7 95 -18 20 -37 43 -175 39 -234 -2 -51 0 -63 12 -63 19 0 17 77 -7 218
-18 109 -11 143 29 149 66 11 123 -33 173 -132 18 -36 41 -73 52 -82 30 -27
103 -34 142 -13 18 9 30 19 27 23 -4 3 -12 0 -18 -6 -16 -16 -90 -15 -124 0
-18 9 -37 35 -61 84 -41 88 -104 150 -160 159 -54 9 -68 18 -71 50 -3 24 14
46 129 161 73 73 130 136 126 140 -10 10 -45 -16 -150 -115 -98 -93 -124 -105
-160 -78 -13 9 -19 30 -21 77 -4 76 -22 120 -48 120 -16 0 -18 -6 -12 -70z"/>
<path d="M7686 7244 c-3 -9 -6 -44 -6 -79 0 -35 -3 -71 -6 -80 -4 -9 -43 -44
-88 -78 -136 -103 -142 -115 -105 -197 19 -42 74 -110 90 -110 7 0 19 9 91 70
35 30 47 77 48 186 0 127 -1 126 251 179 75 15 120 37 107 50 -3 4 -16 1 -28
-5 -21 -11 -247 -60 -277 -60 -28 0 -53 39 -53 84 0 46 -13 68 -24 40z m-26
-254 c24 -13 33 -59 25 -123 -10 -71 -57 -120 -111 -115 -47 4 -77 41 -77 95
0 48 22 83 76 123 44 32 58 36 87 20z"/>
<path d="M7588 6918 c-51 -47 -60 -78 -34 -113 12 -17 17 -18 40 -7 33 15 48
52 44 115 l-3 49 -47 -44z"/>
<path d="M14 6641 c-2 -2 -4 -208 -4 -458 l0 -453 1110 0 1110 0 0 458 0 457
-565 -2 c-363 -2 -572 -6 -585 -13 -24 -13 -78 -13 -116 0 -28 9 -941 20 -950
11z m1312 -150 c45 -27 62 -83 68 -225 5 -102 2 -131 -17 -202 -12 -46 -19
-86 -15 -89 3 -4 20 1 37 9 80 42 140 -44 68 -98 -47 -36 -143 -78 -169 -74
-34 5 -63 70 -61 138 0 30 10 91 22 134 24 89 30 279 10 292 -27 16 -183 -194
-199 -269 -13 -62 -34 -87 -71 -87 -35 0 -59 32 -59 80 0 44 -39 124 -62 128
-23 4 -72 -51 -108 -124 -24 -46 -33 -82 -40 -155 -6 -51 -15 -106 -21 -120
-13 -34 -53 -53 -79 -39 -40 22 -45 47 -48 268 -2 124 -7 210 -13 206 -5 -3
-9 -18 -9 -33 0 -35 -35 -81 -61 -81 -10 0 -28 9 -40 21 -25 25 -22 64 12 153
27 74 69 102 125 84 48 -16 72 -60 82 -150 l7 -63 22 35 c45 72 140 139 199
140 26 0 71 -34 94 -72 l17 -28 25 37 c49 74 132 156 183 180 61 28 62 28 101
4z m-1116 -31 c0 -22 -4 -40 -9 -40 -6 0 -9 10 -8 23 1 12 -2 22 -8 22 -5 0
-9 -10 -7 -22 1 -13 -2 -23 -8 -23 -5 0 -10 14 -10 30 0 17 -4 30 -10 30 -5 0
-10 -13 -10 -30 0 -16 -4 -30 -10 -30 -5 0 -10 18 -10 40 l0 40 45 0 45 0 0
-40z"/>
<path d="M1235 6438 c-31 -17 -82 -68 -137 -135 -42 -53 -55 -63 -81 -63 -25
0 -39 9 -68 42 l-36 42 -45 -17 c-30 -12 -65 -38 -101 -77 -32 -35 -63 -60
-75 -60 -29 0 -50 25 -57 68 -4 20 -12 55 -18 77 -10 34 -16 40 -43 43 -29 3
-34 -1 -52 -40 -26 -56 -37 -108 -23 -108 7 0 14 14 18 31 3 17 16 37 29 46
22 14 26 14 48 0 30 -20 36 -57 36 -238 0 -158 6 -212 24 -206 11 3 14 21 34
159 12 84 47 159 101 221 37 40 48 47 80 47 28 0 44 -7 65 -29 27 -29 56 -104
56 -148 0 -40 23 -21 36 31 17 67 69 149 144 228 70 73 92 81 131 49 23 -18
24 -25 24 -143 0 -96 -5 -142 -23 -211 -16 -60 -21 -101 -17 -127 10 -61 24
-66 93 -31 82 41 89 55 23 46 -35 -5 -56 -3 -66 5 -20 16 -19 86 1 164 13 47
15 86 10 168 -7 132 -23 178 -63 178 -15 0 -37 -6 -48 -12z"/>
<path d="M2270 6188 l0 -458 1110 0 1110 0 0 458 0 457 -1110 0 -1110 0 0
-457z m1125 352 c14 -13 35 -48 47 -79 20 -51 22 -77 25 -291 2 -129 6 -241 9
-249 3 -9 12 -2 27 20 24 36 119 99 149 99 25 0 58 -36 58 -63 0 -33 -43 -70
-130 -113 -85 -41 -134 -51 -170 -32 -49 26 -55 54 -60 319 -5 225 -7 249 -24
268 -43 47 -110 11 -192 -105 -71 -99 -106 -198 -114 -322 -8 -114 -22 -142
-71 -142 -42 0 -59 32 -59 110 0 36 5 83 10 105 14 60 -7 193 -32 201 -10 3
-25 16 -34 29 -27 41 14 91 88 109 22 5 31 0 55 -29 l29 -35 33 49 c40 62 107
122 174 156 66 34 143 31 182 -5z m-951 -56 c9 -25 7 -64 -4 -64 -5 0 -10 14
-10 30 0 20 -5 30 -15 30 -10 0 -15 -10 -15 -30 0 -16 -4 -30 -10 -30 -5 0
-10 18 -10 40 0 37 2 40 29 40 17 0 31 -6 35 -16z"/>
<path d="M3215 6491 c-48 -27 -98 -77 -155 -151 -30 -39 -70 -43 -104 -11 -26
25 -49 27 -66 6 -10 -12 -7 -19 14 -37 36 -32 51 -115 41 -238 -9 -105 -9
-150 0 -159 13 -12 23 26 30 112 11 143 61 264 157 379 51 62 95 88 147 88
105 0 114 -24 121 -333 5 -231 6 -250 24 -263 30 -21 42 -17 20 7 -17 19 -20
44 -25 263 -4 148 -11 256 -18 280 -29 89 -95 109 -186 57z"/>
<path d="M3582 5950 c-43 -31 -56 -55 -24 -43 26 10 89 51 97 63 13 21 -34 9
-73 -20z"/>
<path d="M4530 6645 c0 0 -1 -206 -3 -458 l-2 -457 1113 0 1112 0 -2 455 -3
455 -1108 3 c-609 1 -1107 2 -1107 2z m155 -185 c0 -32 -2 -35 -30 -35 -24 0
-31 5 -33 23 -6 38 5 54 35 50 25 -3 28 -7 28 -38z m934 -36 c107 -54 185
-120 202 -171 20 -62 6 -191 -28 -266 -42 -88 -83 -131 -167 -173 -140 -68
-312 -32 -369 78 -25 50 -40 171 -34 288 5 117 26 165 94 212 51 35 154 77
190 77 12 1 63 -20 112 -45z"/>
<path d="M4640 6460 c0 -11 7 -20 15 -20 8 0 15 9 15 20 0 11 -7 20 -15 20 -8
0 -15 -9 -15 -20z"/>
<path d="M5429 6396 c-139 -57 -154 -83 -154 -276 0 -163 10 -206 56 -244 60
-51 182 -63 259 -27 73 34 117 77 152 148 27 55 33 80 36 152 4 83 3 88 -23
119 -34 40 -100 86 -177 124 -70 34 -77 34 -149 4z m196 -64 c121 -63 139 -90
132 -191 -13 -174 -122 -288 -277 -290 -62 -1 -120 26 -152 70 -39 53 -47 283
-13 365 14 33 31 47 100 76 67 29 110 23 210 -30z"/>
<path d="M5434 6319 c-86 -33 -89 -39 -89 -204 0 -139 1 -144 25 -170 53 -57
128 -66 212 -24 75 38 128 138 128 243 0 44 -4 56 -27 78 -24 22 -175 99 -192
97 -3 0 -29 -9 -57 -20z"/>
<path d="M6780 6188 l0 -458 315 0 315 0 0 88 c0 125 42 473 66 555 6 18 0 18
-94 12 -56 -4 -111 -5 -125 -1 -51 12 -55 100 -5 110 56 11 331 22 413 16 103
-7 118 -13 169 -70 45 -50 56 -77 56 -141 0 -89 -48 -169 -126 -213 -62 -35
-139 -57 -173 -50 -27 6 -29 4 -34 -38 -4 -23 -9 -74 -12 -113 -3 -38 -8 -89
-11 -112 l-5 -43 735 0 736 0 0 458 0 457 -1110 0 -1110 0 0 -457z m175 272
c0 -29 -4 -36 -22 -38 -13 -2 -23 -10 -23 -18 0 -8 -4 -14 -10 -14 -5 0 -10
25 -10 56 l0 55 33 -3 c29 -3 32 -6 32 -38z"/>
<path d="M6910 6460 c0 -11 7 -20 15 -20 8 0 15 9 15 20 0 11 -7 20 -15 20 -8
0 -15 -9 -15 -20z"/>
<path d="M9040 6188 l0 -458 1110 0 1110 0 0 458 0 457 -701 -2 c-691 -3 -702
-3 -716 -23 -21 -29 -80 -28 -94 3 l-10 22 -349 0 -350 0 0 -457z m1172 357
c71 -5 133 -81 153 -185 10 -53 -12 -167 -46 -240 l-30 -65 41 -35 c47 -41 54
-79 18 -104 -32 -23 -49 -20 -88 13 l-35 29 -51 -48 c-82 -78 -180 -94 -273
-46 -38 20 -94 87 -120 142 -37 79 -20 297 30 396 23 44 83 114 112 130 34 18
110 27 182 21 39 -3 87 -7 107 -8z m-1012 -102 c-1 -50 -2 -56 -14 -40 -7 9
-18 17 -24 17 -6 0 -16 9 -22 20 -15 28 4 60 35 60 24 0 25 -3 25 -57z"/>
<path d="M9987 6500 c-107 -20 -183 -181 -175 -375 3 -85 5 -94 38 -139 43
-60 75 -85 126 -96 58 -14 107 4 170 61 60 54 87 60 127 29 42 -33 51 -23 13
14 -43 40 -45 63 -12 139 31 68 50 170 42 220 -8 49 -41 114 -64 125 -47 25
-189 37 -265 22z m256 -48 c48 -42 61 -151 31 -253 -32 -108 -75 -118 -160
-37 -79 74 -79 50 -1 -31 37 -38 67 -77 67 -86 0 -56 -83 -125 -160 -133 -42
-4 -56 0 -90 22 -59 39 -100 116 -100 189 0 127 53 297 103 330 37 24 56 26
176 21 90 -3 119 -8 134 -22z"/>
<path d="M9967 6419 c-63 -37 -115 -309 -72 -377 27 -42 58 -73 82 -82 32 -13
88 6 128 44 l36 34 -71 69 c-74 72 -87 105 -54 137 31 31 65 20 129 -44 l61
-61 16 53 c29 95 31 143 10 191 l-20 44 -113 1 c-64 1 -122 -3 -132 -9z"/>
<path d="M9154 6469 c-10 -17 13 -36 27 -22 12 12 4 33 -11 33 -5 0 -12 -5
-16 -11z"/>
<path d="M11300 6643 c0 -2 0 -207 0 -455 l0 -453 1107 -3 1108 -2 -2 455 -2
455 -1106 3 c-608 1 -1105 1 -1105 0z m652 -126 c20 -22 23 -23 82 -11 94 20
160 1 228 -64 49 -46 57 -87 29 -144 -24 -49 -66 -79 -153 -112 l-60 -23 48
-28 c27 -15 66 -46 87 -68 l37 -40 73 15 c78 17 102 12 116 -25 20 -55 -14
-82 -122 -97 -95 -14 -136 -3 -173 45 -19 26 -123 98 -175 123 -3 1 -9 -40
-12 -91 -7 -111 -18 -143 -51 -159 -20 -9 -30 -8 -50 6 -37 24 -41 57 -24 196
8 69 16 165 17 213 2 82 1 88 -16 83 -49 -15 -119 -23 -139 -16 -29 11 -47 45
-39 71 10 29 42 45 118 59 59 11 70 16 78 39 20 53 67 66 101 28z m-515 -35
c-10 -10 -17 -28 -17 -40 0 -12 -4 -22 -10 -22 -5 0 -10 18 -10 40 0 37 2 40
27 40 25 0 25 -1 10 -18z"/>
<path d="M11888 6455 c-11 -25 -58 -45 -144 -61 -19 -3 -34 -11 -34 -16 0 -7
26 -8 73 -4 39 4 78 2 85 -2 8 -5 18 -28 23 -51 9 -38 6 -82 -18 -363 -4 -46
-2 -68 5 -68 18 0 23 16 31 116 9 102 20 124 65 124 29 0 149 -76 202 -128
l46 -45 59 7 c76 7 109 16 109 27 0 5 -36 6 -84 3 l-84 -7 -39 39 c-21 21 -60
54 -86 71 -38 26 -47 38 -47 61 0 36 19 52 92 81 101 40 140 97 101 149 -49
66 -109 85 -213 69 -61 -9 -72 -8 -88 6 -26 24 -41 21 -54 -8z m271 -26 c61
-21 69 -83 18 -134 -36 -36 -116 -65 -187 -68 -55 -2 -70 19 -70 95 0 65 18
93 67 104 16 3 33 7 38 9 23 8 104 4 134 -6z"/>
<path d="M12028 6387 l-56 -10 -4 -54 c-4 -61 -4 -61 87 -38 74 19 129 66 105
89 -21 20 -67 25 -132 13z"/>
<path d="M7480 6464 c-25 -2 -82 -6 -127 -10 -48 -3 -83 -10 -83 -16 0 -7 32
-9 96 -5 101 6 140 -2 151 -29 3 -9 -4 -80 -16 -158 -28 -185 -52 -437 -45
-476 10 -48 34 -38 34 15 0 82 22 250 35 271 11 16 27 22 73 27 59 5 147 41
186 75 29 26 56 92 56 140 0 53 -18 89 -65 131 -28 24 -45 31 -78 31 -23 0
-71 2 -107 4 -36 2 -85 2 -110 0z m265 -40 c43 -20 69 -68 69 -129 0 -66 -26
-111 -87 -149 -82 -51 -174 -44 -192 14 -9 28 23 229 41 257 21 33 104 37 169
7z"/>
<path d="M7602 6339 c-7 -35 -14 -89 -18 -120 -6 -55 -6 -56 20 -63 28 -7 94
21 133 56 43 40 42 135 -1 163 -13 9 -46 18 -73 22 l-51 5 -10 -63z"/>
<path d="M14 5691 c-2 -2 -4 -208 -4 -458 l0 -453 1110 0 1110 0 0 458 0 457
-1106 0 c-608 0 -1108 -2 -1110 -4z m146 -156 c0 -9 -6 -12 -17 -9 -17 5 -17
5 0 -9 26 -21 22 -47 -8 -47 -15 0 -25 6 -25 15 0 9 6 12 18 9 16 -5 16 -5 0
9 -27 21 -23 47 7 47 15 0 25 -6 25 -15z m986 -64 c106 -45 133 -80 98 -129
-19 -28 -43 -28 -129 3 -85 30 -97 30 -119 6 -40 -44 -10 -72 142 -137 84 -36
122 -80 122 -141 0 -39 -5 -50 -35 -79 -97 -92 -261 -98 -423 -15 -76 39 -94
107 -35 134 23 10 34 7 95 -27 111 -60 194 -64 237 -12 20 24 2 39 -91 71
-109 37 -148 76 -148 143 0 78 50 164 115 200 35 20 100 13 171 -17z"/>
<path d="M970 5424 c-60 -51 -79 -146 -37 -188 13 -13 52 -33 88 -45 35 -11
79 -30 97 -41 27 -17 32 -25 32 -59 0 -32 -6 -44 -31 -65 -17 -14 -42 -29 -56
-32 -47 -12 -134 4 -198 37 -69 35 -112 36 -55 0 116 -71 255 -82 346 -26 41
26 50 36 52 64 5 46 -17 67 -128 118 -122 57 -140 74 -140 130 0 89 71 116
195 73 95 -33 85 -2 -12 38 -70 30 -114 28 -153 -4z"/>
<path d="M2270 5238 l0 -458 1110 0 1110 0 0 458 0 457 -1110 0 -1110 0 0
-457z m970 352 c28 -28 26 -42 -24 -153 -43 -94 -43 -97 -23 -102 60 -12 185
-33 206 -33 60 -2 79 -68 29 -105 -26 -20 -27 -20 -165 0 -76 11 -140 19 -142
17 -2 -2 -7 -23 -12 -46 -6 -35 -4 -48 10 -68 42 -59 118 -71 262 -40 124 26
155 24 181 -11 15 -20 17 -30 9 -52 -12 -32 -72 -52 -205 -68 -153 -19 -248 1
-314 64 -55 52 -64 80 -60 170 l3 81 -64 13 c-36 7 -81 21 -100 31 -31 15 -36
22 -36 52 0 28 5 37 29 48 24 12 40 12 113 -3 47 -9 91 -19 98 -21 8 -3 21 17
35 53 32 79 69 154 88 176 20 23 57 22 82 -3z m-839 -27 c5 -77 4 -93 -7 -93
-12 0 -25 65 -16 88 5 13 22 17 23 5z"/>
<path d="M3151 5478 c-20 -46 -43 -95 -49 -111 -19 -46 -48 -52 -153 -33 -50
9 -94 15 -96 12 -12 -12 12 -24 81 -40 109 -26 109 -26 107 -134 -2 -89 -1
-92 30 -127 44 -50 80 -66 163 -72 77 -5 261 18 279 36 20 20 -4 25 -71 13
-188 -35 -194 -36 -255 -18 -82 24 -118 59 -124 122 -7 64 16 121 51 130 14 3
80 -2 147 -11 149 -20 183 -6 47 19 -132 25 -158 34 -168 62 -10 25 -7 33 48
171 36 88 5 72 -37 -19z"/>
<path d="M4530 5695 c0 0 -1 -206 -3 -458 l-2 -457 1113 0 1112 0 0 458 0 457
-1110 0 c-610 0 -1110 0 -1110 0z m120 -175 c0 -20 5 -30 15 -30 10 0 15 10
15 30 0 17 5 30 10 30 6 0 10 -18 10 -41 0 -39 -1 -40 -32 -37 -30 3 -33 6
-36 41 -2 21 1 37 7 37 6 0 11 -13 11 -30z m724 -70 c18 -31 19 -40 6 -184
-11 -138 -11 -155 4 -184 23 -44 60 -46 143 -6 73 35 150 107 163 152 5 20 10
73 10 118 0 100 13 142 47 150 34 9 71 -13 78 -47 4 -16 1 -115 -6 -219 -9
-146 -9 -196 0 -216 l11 -26 36 31 c39 35 69 39 96 14 33 -30 23 -68 -28 -107
-56 -43 -105 -60 -148 -52 -47 9 -66 35 -79 109 l-11 65 -35 -29 c-98 -78
-238 -109 -323 -71 -70 31 -81 64 -82 252 -1 150 -2 156 -24 174 -39 31 -15
88 51 120 38 18 61 7 91 -44z"/>
<path d="M5285 5436 c-18 -13 -19 -15 -2 -47 12 -26 17 -69 20 -184 2 -93 9
-160 17 -176 36 -76 175 -64 307 25 21 14 50 26 65 26 31 0 58 -32 58 -68 0
-43 27 -92 51 -92 27 0 103 35 120 56 20 24 1 29 -24 6 -34 -32 -69 -37 -99
-13 -35 28 -38 62 -26 272 11 171 7 233 -11 199 -5 -8 -12 -62 -16 -120 -4
-59 -13 -119 -22 -138 -35 -74 -181 -171 -272 -180 -40 -3 -52 0 -79 23 -48
40 -54 78 -40 237 8 104 8 144 0 163 -13 29 -21 30 -47 11z"/>
<path d="M6780 5238 l0 -458 1110 0 1110 0 0 458 0 457 -1110 0 -1110 0 0
-457z m127 285 l10 -28 6 28 c4 15 12 27 17 27 14 0 12 -12 -6 -48 -23 -47
-36 -43 -49 16 -8 40 9 44 22 5z m1040 -59 c15 -23 15 -35 5 -106 -13 -91 -39
-153 -114 -276 -75 -121 -96 -142 -149 -142 -37 0 -47 5 -84 45 -23 25 -81
111 -129 190 -48 80 -91 145 -96 145 -5 0 -12 -4 -15 -10 -9 -14 -68 -13 -83
2 -16 16 -15 60 1 80 25 32 101 78 128 78 34 0 51 -25 142 -200 66 -128 101
-180 122 -180 20 0 82 77 111 139 15 30 33 93 41 140 8 47 22 94 30 104 24 26
69 22 90 -9z"/>
<path d="M7886 5419 c-3 -13 -12 -56 -20 -95 -18 -87 -63 -179 -114 -233 -32
-34 -46 -41 -76 -41 -50 0 -84 37 -143 155 -63 126 -115 215 -127 215 -14 0
-75 -43 -80 -57 -4 -9 6 -11 38 -7 39 6 45 3 69 -25 14 -17 51 -73 80 -124 30
-50 76 -120 101 -154 39 -53 51 -63 76 -63 27 0 36 9 85 84 31 47 69 114 86
150 37 78 59 190 42 207 -9 9 -13 6 -17 -12z"/>
<path d="M9040 5238 l0 -458 1110 0 1110 0 0 458 0 457 -1110 0 -1110 0 0
-457z m694 344 c9 -15 77 -335 83 -389 l6 -53 52 54 c54 57 109 96 136 96 23
0 58 -42 70 -85 6 -20 25 -53 44 -73 l33 -37 7 40 c31 189 74 341 109 378 30
32 93 42 172 28 66 -12 99 -40 88 -75 -8 -29 -44 -58 -63 -52 -92 31 -102 31
-121 8 -27 -32 -70 -260 -70 -369 0 -51 -30 -130 -53 -139 -27 -10 -72 18
-142 89 -39 40 -76 80 -81 89 -8 14 -17 7 -62 -46 -57 -68 -111 -111 -154
-121 -37 -9 -73 31 -88 98 -15 70 -46 259 -55 330 l-6 57 -37 -30 c-56 -46
-114 -34 -114 24 0 66 218 224 246 178z m-570 -64 c20 -38 20 -48 2 -48 -7 0
-16 10 -19 23 -2 12 -8 30 -12 40 -13 31 13 18 29 -15z m37 5 c1 -28 1 -28 8
-4 6 24 31 42 31 23 0 -17 -22 -72 -29 -72 -7 0 -41 64 -41 75 0 3 7 5 15 5 9
0 15 -10 16 -27z"/>
<path d="M9630 5496 c-52 -39 -96 -84 -88 -91 3 -3 16 4 30 14 39 31 73 36 96
13 14 -14 22 -45 31 -118 17 -135 50 -306 63 -321 23 -28 52 -12 127 67 101
106 106 106 216 -6 115 -117 114 -117 135 81 30 292 74 378 179 346 50 -14 69
-15 54 0 -6 6 -37 13 -69 16 -50 4 -63 2 -86 -16 -33 -26 -59 -103 -90 -268
-12 -63 -28 -121 -35 -129 -8 -8 -27 -14 -42 -14 -35 0 -105 72 -116 118 -11
54 -27 57 -81 14 -27 -22 -60 -51 -73 -66 -28 -29 -62 -34 -85 -10 -9 8 -16
17 -16 18 0 7 -50 246 -65 314 -9 39 -22 72 -28 72 -7 0 -32 -16 -57 -34z"/>
<path d="M11300 5693 c0 -2 0 -207 0 -455 l0 -453 1107 -3 1108 -2 -2 455 -2
455 -1106 3 c-608 1 -1105 1 -1105 0z m1116 -71 c20 -13 32 -47 24 -67 -4 -11
-66 -82 -138 -159 l-131 -138 86 -102 c47 -55 114 -127 149 -159 55 -50 64
-64 64 -93 0 -26 -6 -36 -27 -48 -19 -9 -35 -11 -52 -5 -24 9 -180 161 -262
255 l-45 51 -79 -90 c-114 -130 -146 -143 -185 -74 -13 24 -12 29 23 80 21 30
62 81 92 115 30 33 55 64 55 69 0 4 -18 31 -41 58 -22 27 -47 62 -55 77 -18
36 -30 35 -48 -1 -33 -64 -116 -51 -116 18 0 41 110 145 142 135 28 -8 137
-103 177 -153 l29 -36 127 128 c138 140 174 164 211 139z m-995 -84 c0 -10 2
-10 6 0 5 13 33 17 33 4 0 -4 -5 -13 -12 -20 -9 -9 -9 -15 0 -24 16 -16 15
-28 -3 -28 -8 0 -15 5 -15 11 0 8 -5 7 -15 -1 -20 -17 -32 -5 -15 15 10 12 10
19 2 27 -16 16 -15 28 3 28 8 0 15 -6 16 -12z"/>
<path d="M12344 5550 c-22 -17 -82 -75 -134 -130 -118 -124 -128 -126 -212
-43 -32 31 -60 54 -63 51 -3 -3 16 -34 43 -69 26 -35 51 -72 55 -82 10 -26 -6
-58 -63 -123 -66 -75 -105 -132 -96 -142 7 -6 61 47 132 130 38 43 68 61 93
53 9 -3 73 -64 141 -136 125 -133 165 -167 178 -154 4 4 -21 33 -54 64 -79 72
-222 245 -230 277 -8 32 4 49 140 192 99 104 130 142 112 142 -2 0 -21 -14
-42 -30z"/>
<path d="M11815 5450 c-21 -22 -35 -43 -31 -47 4 -4 12 0 17 9 20 37 42 50 75
46 32 -4 33 -3 17 14 -23 26 -34 23 -78 -22z"/>
<path d="M17 4743 c-4 -3 -7 -210 -7 -460 l0 -453 1110 0 1110 0 0 460 0 460
-1103 0 c-607 0 -1107 -3 -1110 -7z m1261 -141 c6 -9 12 -25 12 -35 0 -39
-159 -232 -234 -284 -23 -17 -67 -70 -109 -133 -93 -140 -133 -188 -186 -222
-57 -36 -86 -35 -145 3 -49 33 -82 71 -111 128 -21 41 -9 76 31 91 35 14 59
-1 85 -51 20 -40 69 -72 95 -62 7 3 51 60 97 127 l83 123 -47 51 c-52 57 -133
175 -144 210 -11 37 19 74 58 70 26 -2 41 -15 85 -73 28 -38 64 -93 79 -121
l27 -51 115 120 c64 65 125 123 136 127 25 11 56 3 73 -18z m-1140 -29 c9 -25
11 -25 11 -6 1 21 17 40 27 31 6 -6 -28 -92 -40 -100 -6 -4 -14 -4 -19 -1 -5
3 -4 9 3 13 10 6 10 15 1 40 -13 40 -14 50 -2 50 5 0 14 -12 19 -27z"/>
<path d="M760 4557 c0 -28 126 -204 138 -193 7 7 -70 133 -107 176 -23 27 -30
31 -31 17z"/>
<path d="M1095 4449 c-103 -106 -121 -120 -145 -117 -26 4 -27 3 -19 -20 13
-35 5 -54 -73 -169 -89 -131 -119 -157 -171 -150 -41 6 -101 53 -113 89 -3 10
-10 18 -15 18 -33 0 30 -95 85 -130 25 -15 45 -20 62 -16 40 10 114 91 201
221 54 81 95 130 124 151 43 30 175 178 198 222 28 53 -21 16 -134 -99z"/>
<path d="M2270 4290 l0 -460 1110 0 1110 0 0 460 0 460 -1110 0 -1110 0 0
-460z m1363 299 c32 -40 12 -68 -142 -193 -69 -57 -318 -313 -310 -320 2 -1
40 1 84 5 150 14 250 11 275 -9 26 -21 30 -66 9 -87 -22 -22 -142 -34 -309
-31 -121 2 -162 -1 -187 -12 -29 -14 -34 -13 -57 2 -25 16 -31 32 -26 66 3 24
98 133 270 310 88 91 160 166 160 167 0 1 -35 0 -77 -3 -122 -9 -367 10 -398
30 -37 24 -34 84 5 99 8 3 166 4 350 2 328 -5 335 -5 353 -26z m-1203 -2 c0
-7 -6 -19 -12 -26 -10 -11 -10 -14 0 -18 21 -8 13 -23 -13 -23 -27 0 -33 18
-12 39 10 11 10 14 0 18 -22 8 -14 23 12 23 14 0 25 -6 25 -13z"/>
<path d="M2950 4563 c0 -18 40 -23 250 -29 216 -7 240 -13 240 -56 0 -11 -75
-97 -174 -201 -173 -181 -246 -263 -246 -275 0 -9 368 -3 434 6 29 4 51 13 54
21 4 12 -21 13 -165 7 -161 -6 -170 -6 -187 13 -13 14 -16 28 -12 46 12 47
247 288 397 407 28 22 49 44 47 50 -5 14 -638 24 -638 11z"/>
<path d="M4530 4745 c0 -3 0 -209 0 -457 l0 -453 1110 -3 1110 -2 0 460 0 460
-1110 0 c-610 0 -1110 -2 -1110 -5z m1024 -41 c9 -8 16 -16 16 -17 0 -7 90
-338 98 -362 6 -16 20 -64 32 -105 11 -41 26 -79 33 -85 23 -17 38 -55 32 -75
-8 -24 -54 -50 -90 -50 -34 0 -78 69 -102 161 l-17 68 -108 -1 -108 -1 -40
-74 c-22 -41 -40 -82 -40 -92 0 -51 -63 -79 -102 -44 -38 34 -33 48 149 401
139 269 154 291 210 292 12 0 29 -7 37 -16z m-856 -141 c8 -35 7 -43 -4 -43
-8 0 -14 9 -14 20 0 11 -7 20 -15 20 -8 0 -15 -9 -15 -20 0 -11 -7 -20 -15
-20 -18 0 -18 1 -1 42 8 18 17 42 21 52 5 17 8 18 19 5 7 -8 18 -33 24 -56z"/>
<path d="M5487 4655 c-20 -20 -283 -531 -292 -567 -4 -16 -3 -28 3 -28 5 0 12
13 15 28 7 32 70 149 95 174 14 14 38 19 117 21 140 4 160 -2 180 -61 56 -155
71 -180 97 -154 7 7 4 19 -10 39 -20 27 -53 137 -131 422 -20 74 -41 136 -47
138 -7 2 -19 -3 -27 -12z m22 -125 c12 -6 26 -38 40 -90 24 -89 20 -113 -26
-131 -28 -11 -121 -2 -140 14 -20 15 -15 64 13 120 44 88 72 109 113 87z"/>
<path d="M5442 4430 l-41 -80 65 0 c39 0 63 4 59 10 -3 5 -14 41 -24 79 l-17
70 -42 -79z"/>
<path d="M6780 4290 l0 -460 1110 0 1110 0 0 460 0 460 -1110 0 -1110 0 0
-460z m1021 387 c18 -12 39 -34 46 -47 18 -35 17 -141 -2 -166 -23 -31 -19
-34 48 -34 143 -1 228 -93 197 -212 -28 -105 -234 -238 -400 -258 -46 -5 -115
-10 -152 -10 l-68 0 0 -33 c0 -40 -15 -57 -50 -57 -71 0 -84 65 -78 412 3 219
1 248 -12 242 -69 -30 -148 -54 -169 -52 -35 4 -56 44 -42 80 9 23 25 32 119
61 204 65 341 93 473 96 43 1 64 -4 90 -22z m-849 -56 c4 -1 6 -22 5 -48 -2
-46 -3 -48 -34 -51 l-33 -3 0 49 c0 62 -3 60 62 53z"/>
<path d="M7610 4643 c-106 -11 -411 -91 -434 -114 -23 -22 9 -19 83 7 67 24
83 26 105 16 14 -6 26 -20 26 -29 0 -10 1 -147 3 -305 1 -212 5 -290 14 -299
10 -10 14 -6 19 19 8 42 22 48 119 56 174 15 227 26 310 69 100 52 181 128
190 179 14 76 -42 131 -146 142 -101 12 -101 12 -93 121 6 91 6 94 -19 119
-23 23 -34 26 -84 24 -32 0 -74 -3 -93 -5z m145 -36 c18 -15 28 -36 32 -65 5
-40 3 -45 -34 -80 -43 -41 -128 -77 -222 -94 -54 -10 -63 -10 -81 7 -17 15
-20 31 -20 105 0 71 3 90 18 103 24 22 130 45 214 46 56 1 71 -3 93 -22z m199
-259 c50 -15 70 -47 63 -99 -7 -57 -59 -108 -161 -159 -68 -34 -96 -42 -176
-50 -158 -16 -217 -13 -241 11 -19 19 -21 30 -17 125 2 75 8 108 18 118 21 19
136 55 212 66 76 10 248 3 302 -12z"/>
<path d="M7620 4579 c-30 -4 -75 -11 -100 -16 l-45 -8 -3 -79 c-2 -62 0 -77
10 -73 8 2 38 10 68 16 30 6 84 26 120 44 57 28 65 36 68 64 2 23 -3 35 -20
47 -12 9 -27 15 -33 15 -5 -1 -35 -5 -65 -10z"/>
<path d="M7632 4310 c-29 -6 -69 -17 -88 -25 -20 -8 -45 -15 -55 -15 -17 0
-19 -9 -19 -101 l0 -101 38 6 c20 3 82 8 137 11 64 4 116 14 143 26 161 70
237 161 160 189 -43 15 -249 22 -316 10z"/>
<path d="M6910 4589 c0 -24 23 -21 28 4 2 10 -3 17 -12 17 -10 0 -16 -9 -16
-21z"/>
<path d="M6910 4550 c0 -5 7 -10 15 -10 8 0 15 5 15 10 0 6 -7 10 -15 10 -8 0
-15 -4 -15 -10z"/>
<path d="M9040 4290 l0 -460 1110 0 1110 0 0 460 0 460 -1110 0 -1110 0 0
-460z m1032 329 c87 -26 134 -64 124 -103 -11 -43 -44 -52 -120 -32 -90 22
-122 21 -140 -7 -28 -42 -47 -112 -53 -193 -13 -176 5 -190 216 -181 l134 6
26 32 c33 39 77 38 100 -2 13 -23 12 -30 -5 -64 -30 -62 -56 -74 -179 -87
-141 -14 -290 -4 -334 23 -66 40 -91 155 -72 319 9 78 19 111 56 188 37 76 50
95 77 107 46 20 90 18 170 -6z m-862 -4 c6 -8 9 -19 5 -25 -5 -7 -11 -5 -20 7
-13 17 -15 17 -30 2 -11 -11 -15 -24 -10 -38 7 -23 25 -27 43 -9 17 17 28 2
12 -17 -16 -20 -56 -19 -64 1 -10 26 -7 69 6 82 16 16 43 15 58 -3z"/>
<path d="M9919 4580 c-28 -16 -90 -165 -101 -242 -20 -140 3 -262 53 -289 32
-17 243 -23 329 -10 78 12 110 31 110 64 0 18 -2 18 -24 -6 -30 -33 -72 -40
-226 -41 -199 -1 -226 22 -224 194 1 160 49 278 120 296 25 6 89 -3 163 -23
18 -4 23 -2 19 8 -11 35 -179 72 -219 49z"/>
<path d="M11300 4745 c0 -3 0 -209 0 -457 l0 -453 1107 -3 1108 -2 -2 457 -2
458 -1106 3 c-608 1 -1105 0 -1105 -3z m1207 -123 c59 -31 84 -71 96 -157 19
-130 -30 -248 -124 -296 -43 -21 -234 -69 -281 -69 -24 0 -27 -4 -30 -37 -2
-30 -9 -41 -31 -51 -24 -12 -31 -11 -52 2 -14 9 -27 26 -30 39 -6 21 -10 22
-81 19 -81 -5 -114 10 -114 50 0 50 45 78 127 78 l45 0 -6 58 c-3 31 -8 98
-12 147 l-6 90 -96 -32 c-109 -36 -153 -40 -176 -17 -19 19 -21 67 -3 83 18
14 116 44 267 80 172 41 158 40 320 37 127 -2 150 -5 187 -24z m-1037 -7 c11
-7 13 -54 4 -79 -4 -10 -18 -16 -40 -16 -34 0 -34 0 -34 48 0 27 3 52 7 55 7
7 46 2 63 -8z"/>
<path d="M12215 4600 c-166 -16 -535 -120 -427 -120 10 0 61 14 112 30 107 35
110 35 136 16 16 -12 20 -35 30 -163 6 -84 8 -158 3 -171 -10 -27 -46 -42 -99
-42 -37 0 -60 -14 -46 -28 4 -3 34 -5 67 -4 66 3 94 -8 104 -38 9 -29 25 -24
31 10 4 16 11 34 18 39 6 4 59 18 118 30 195 39 258 76 287 170 23 80 8 185
-34 227 -40 40 -159 58 -300 44z m234 -34 c44 -14 68 -48 82 -116 23 -111 -26
-193 -141 -234 -81 -29 -207 -51 -243 -43 -35 9 -43 45 -52 219 -7 164 -3 172
92 183 32 3 67 7 78 9 37 4 150 -7 184 -18z"/>
<path d="M12220 4534 c-19 -3 -45 -7 -58 -10 l-23 -5 7 -152 c3 -84 8 -153 9
-155 7 -8 204 41 250 62 43 20 59 33 70 60 28 65 11 162 -32 184 -21 12 -169
22 -223 16z"/>
<path d="M11420 4576 c0 -39 18 -48 41 -20 15 18 2 47 -25 52 -12 3 -16 -4
-16 -32z"/>
<path d="M10 3340 l0 -460 1110 0 1110 0 0 460 0 460 -1110 0 -1110 0 0 -460z
m1132 365 c146 -3 229 -1 233 5 10 15 46 12 67 -7 24 -21 23 -65 -1 -87 -17
-15 -53 -18 -306 -23 -282 -6 -286 -6 -281 -27 5 -18 0 -49 -20 -135 l-5 -23
145 3 c127 4 148 2 166 -13 27 -24 25 -50 -5 -78 -24 -23 -34 -24 -174 -28
l-149 -4 -11 -63 c-15 -82 -14 -100 4 -115 20 -16 131 -8 233 16 52 13 78 15
89 8 50 -31 41 -84 -20 -116 -38 -20 -56 -23 -187 -23 -225 0 -243 18 -237
243 2 76 7 143 10 149 3 5 13 45 22 88 9 44 23 91 31 106 12 23 11 29 -1 39
-8 7 -15 22 -15 34 0 48 35 65 119 60 36 -2 168 -6 293 -9z m-957 -35 c4 -6
-5 -10 -19 -10 -19 0 -26 -5 -26 -19 0 -14 5 -18 19 -14 10 3 22 0 25 -6 5 -7
-3 -11 -18 -11 -14 0 -26 -4 -26 -10 0 -5 11 -10 25 -10 14 0 25 -4 25 -10 0
-5 -16 -10 -35 -10 l-35 0 0 55 c0 54 0 55 29 55 17 0 33 -4 36 -10z"/>
<path d="M793 3663 c-8 -3 -9 -12 -1 -33 7 -22 6 -42 -5 -77 -36 -113 -54
-222 -56 -338 -3 -118 -2 -120 24 -145 26 -24 31 -25 164 -25 116 0 141 3 165
18 42 28 25 31 -56 12 -40 -10 -107 -19 -150 -19 -67 -1 -79 2 -101 22 -33 31
-38 63 -23 150 18 105 19 106 194 113 161 7 152 6 152 17 0 4 -61 7 -135 7
-125 0 -136 2 -156 22 -21 21 -21 23 -9 118 8 53 19 104 26 113 11 15 42 18
246 22 128 3 222 8 208 12 -27 8 -467 17 -487 11z"/>
<path d="M1375 3660 c-18 -8 -17 -9 8 -9 15 -1 27 4 27 9 0 12 -8 12 -35 0z"/>
<path d="M2270 3340 l0 -460 1110 0 1110 0 0 460 0 460 -1110 0 -1110 0 0
-460z m1173 368 c26 -21 31 -61 10 -86 -19 -24 -88 -35 -281 -45 -46 -3 -85
-6 -87 -8 -1 -2 -5 -41 -7 -86 -4 -93 -12 -85 89 -88 28 -1 58 -7 67 -14 17
-14 21 -58 8 -79 -12 -19 -60 -29 -123 -27 l-56 2 -8 -106 c-4 -58 -7 -110 -6
-116 1 -5 4 -26 7 -46 5 -31 2 -39 -17 -53 -32 -22 -46 -20 -75 9 -24 24 -24
25 -18 165 6 126 5 144 -12 175 -17 33 -18 37 -2 68 9 17 19 67 23 111 6 73 5
78 -12 71 -10 -3 -64 -16 -120 -27 -96 -19 -104 -20 -128 -4 -19 12 -25 25
-25 52 0 30 5 37 33 49 34 14 229 48 372 65 44 6 112 14 150 19 108 13 199 13
218 -1z m-998 -38 c4 -6 -5 -10 -19 -10 -24 0 -30 -7 -24 -27 1 -5 8 -7 14 -5
7 1 15 -2 19 -8 3 -5 -3 -10 -14 -10 -14 0 -21 -6 -21 -20 0 -11 -4 -20 -10
-20 -5 0 -10 25 -10 55 0 54 0 55 29 55 17 0 33 -4 36 -10z"/>
<path d="M3215 3659 c-33 -4 -96 -12 -140 -18 -158 -20 -339 -51 -348 -60 -20
-20 16 -20 108 -1 118 24 129 25 150 3 14 -14 16 -31 11 -117 -4 -56 -6 -117
-5 -136 0 -19 0 -99 0 -177 -1 -87 3 -144 9 -148 7 -4 8 7 4 32 -3 21 -1 85 5
142 14 130 22 141 102 141 31 0 64 3 73 6 31 12 4 24 -55 24 -81 0 -99 18 -99
103 1 78 14 138 35 153 9 7 60 15 113 19 163 10 225 19 230 33 4 14 -93 15
-193 1z"/>
<path d="M4530 3795 c0 -3 0 -209 0 -457 l0 -453 1110 -3 1110 -2 0 460 0 460
-1110 0 c-610 0 -1110 -2 -1110 -5z m1046 -128 c52 -19 78 -54 65 -90 -14 -36
-43 -41 -146 -23 -72 13 -96 13 -129 4 -57 -17 -121 -82 -136 -138 -17 -64 -8
-189 16 -231 40 -69 170 -119 268 -105 57 9 76 33 85 115 l7 59 -43 6 c-23 3
-76 3 -117 1 -72 -4 -77 -3 -92 20 -20 31 -12 70 18 86 14 7 82 14 171 16 138
3 151 1 178 -18 22 -15 29 -29 29 -52 0 -18 7 -57 15 -87 22 -82 19 -115 -10
-138 -14 -11 -34 -18 -44 -15 -13 3 -24 -4 -36 -24 -41 -69 -130 -98 -255 -82
-91 11 -204 63 -249 114 -81 92 -93 339 -22 445 14 21 50 59 78 84 47 40 74
54 138 70 32 8 170 -3 211 -17z m-888 1 c7 -7 12 -31 12 -55 0 -40 -2 -43 -28
-43 -15 0 -33 5 -40 12 -17 17 -15 58 5 80 19 21 34 23 51 6z"/>
<path d="M5338 3625 c-60 -19 -149 -104 -169 -160 -17 -50 -18 -214 -1 -272
18 -61 57 -101 134 -138 132 -64 257 -56 332 20 22 23 53 45 69 49 18 4 27 13
27 26 0 37 -34 175 -44 182 -13 9 -211 10 -255 2 -43 -9 -39 -26 7 -23 102 7
172 -1 192 -21 37 -37 21 -156 -28 -211 -69 -75 -268 -50 -365 47 -49 49 -62
91 -61 204 0 79 4 103 23 143 27 54 67 92 130 120 45 20 116 20 224 1 25 -4
37 -3 37 5 0 33 -175 51 -252 26z"/>
<path d="M4644 3636 c-7 -29 1 -46 22 -46 17 0 19 20 2 20 -7 0 -5 5 5 11 14
8 16 14 6 25 -17 20 -28 17 -35 -10z"/>
<path d="M6780 3340 l0 -460 297 0 c294 0 296 0 278 20 -15 16 -19 45 -24 172
l-6 153 -26 -3 c-98 -11 -218 -17 -239 -12 -29 7 -50 43 -42 72 8 30 56 46
182 58 l115 12 0 190 c0 187 0 190 24 209 28 23 50 24 77 5 17 -13 19 -30 22
-201 l3 -187 47 7 c26 3 74 11 107 16 l60 10 -3 166 c-2 137 0 169 13 189 16
25 57 32 85 14 16 -10 28 -114 29 -263 l1 -88 55 6 c70 9 99 2 113 -30 18 -39
-2 -71 -56 -90 -25 -8 -59 -15 -75 -15 -29 0 -29 -1 -23 -42 3 -24 8 -87 12
-140 6 -81 4 -102 -9 -122 -31 -46 -88 -42 -107 9 -5 13 -14 79 -20 146 -6 68
-11 123 -13 124 -1 1 -45 -4 -97 -11 -52 -7 -99 -13 -104 -13 -4 -1 -6 -75 -5
-164 3 -128 1 -168 -10 -180 -12 -16 43 -17 773 -17 l786 0 0 460 0 460 -1110
0 -1110 0 0 -460z m130 310 c0 -23 4 -30 20 -30 16 0 20 7 20 30 0 17 5 30 10
30 6 0 10 -25 10 -55 0 -30 -4 -55 -10 -55 -5 0 -10 9 -10 20 0 13 -7 20 -20
20 -13 0 -20 -7 -20 -20 0 -11 -4 -20 -10 -20 -5 0 -10 25 -10 55 0 30 5 55
10 55 6 0 10 -13 10 -30z"/>
<path d="M9040 3340 l0 -460 1110 0 1110 0 0 460 0 460 -1110 0 -1110 0 0
-460z m1062 343 c41 -37 10 -103 -49 -103 -18 0 -33 -3 -33 -7 0 -5 9 -131 19
-281 20 -278 18 -322 -14 -346 -9 -7 -47 -11 -87 -10 -61 1 -74 4 -90 23 -10
13 -18 31 -18 41 0 27 38 54 71 52 l29 -2 0 82 c0 46 -7 144 -15 218 -8 74
-15 156 -15 182 0 38 -4 48 -20 53 -45 14 -51 82 -8 103 13 6 65 11 117 11 75
1 98 -2 113 -16z m-932 -64 c0 -27 -4 -49 -10 -49 -5 0 -10 25 -10 56 0 34 4
53 10 49 6 -3 10 -28 10 -56z"/>
<path d="M9900 3643 c0 -4 10 -17 21 -29 13 -14 23 -40 25 -66 2 -24 11 -115
19 -202 25 -263 19 -319 -36 -333 -43 -12 -40 -28 7 -31 29 -2 47 2 58 14 19
18 19 -5 -9 384 -14 206 -11 224 46 241 21 7 39 16 39 21 0 4 -38 8 -85 8 -47
0 -85 -3 -85 -7z"/>
<path d="M11300 3795 c0 -3 0 -209 0 -457 l0 -453 1107 -3 1108 -2 -2 457 -2
458 -1106 3 c-608 1 -1105 0 -1105 -3z m158 -167 c-3 -46 -6 -53 -26 -56 -22
-3 -42 22 -27 36 4 4 10 1 12 -5 10 -28 23 -10 23 32 0 25 5 45 11 45 6 0 9
-21 7 -52z m964 25 c31 -27 16 -93 -21 -93 -16 0 -17 -10 -13 -129 5 -147 -10
-276 -39 -334 -26 -50 -90 -80 -218 -101 -119 -20 -145 -20 -188 1 -46 21 -93
94 -93 143 0 57 77 149 144 173 55 21 93 -75 43 -108 -26 -17 -47 -55 -47 -85
0 -25 33 -26 138 -6 84 16 117 40 131 95 5 20 11 102 13 184 l3 147 -115 1
c-177 1 -210 12 -210 70 0 54 22 59 249 59 176 0 207 -2 223 -17z"/>
<path d="M12000 3611 c0 -17 32 -21 161 -21 110 0 132 -3 147 -18 17 -17 19
-16 50 15 l33 33 -196 0 c-108 0 -195 -4 -195 -9z"/>
<path d="M12319 3453 c-1 -32 -1 -80 0 -108 3 -76 -15 -172 -40 -206 -28 -39
-83 -64 -179 -80 -89 -14 -124 -8 -146 27 -14 21 -15 31 -5 64 6 22 23 53 38
70 32 38 24 49 -16 21 -39 -28 -71 -73 -71 -101 0 -58 57 -110 122 -110 49 0
210 35 245 53 45 24 64 81 71 217 8 134 5 210 -9 210 -5 0 -10 -26 -10 -57z"/>
<path d="M7696 3689 c-4 -23 -4 -98 0 -168 5 -101 3 -130 -8 -145 -25 -32
-230 -60 -268 -36 -17 10 -28 113 -29 267 -1 95 -11 134 -25 97 -3 -9 -6 -96
-6 -194 0 -144 -3 -180 -15 -190 -8 -7 -67 -19 -132 -27 -140 -17 -155 -21
-132 -33 9 -5 53 -5 105 0 123 13 139 13 164 -8 21 -17 23 -29 29 -165 4 -83
11 -151 17 -157 8 -8 10 32 7 147 -7 203 -5 205 125 222 174 22 174 22 190
-147 11 -125 15 -142 34 -142 6 0 8 46 3 140 -8 157 -4 173 59 185 45 9 86 26
86 36 0 5 -30 9 -66 8 -95 -2 -96 -1 -105 183 -4 84 -8 156 -8 161 -1 4 -5 7
-10 7 -5 0 -11 -19 -15 -41z"/>
<path d="M10 2390 l0 -460 1110 0 1110 0 0 460 0 460 -1110 0 -1110 0 0 -460z
m791 329 c22 -22 22 -31 2 -178 l-6 -43 74 62 c41 34 87 68 102 77 40 20 78
13 96 -18 13 -24 13 -29 -2 -52 -9 -14 -69 -67 -133 -118 l-116 -93 38 -11
c44 -13 243 -102 260 -116 5 -4 19 -6 30 -3 12 3 30 -3 44 -14 19 -16 22 -24
16 -55 -6 -32 -12 -38 -46 -47 -51 -14 -74 -7 -205 58 -118 58 -185 85 -185
74 0 -4 -7 -50 -15 -102 -12 -83 -12 -96 1 -111 32 -36 -22 -97 -71 -79 -39
14 -46 46 -39 175 4 66 9 147 10 180 3 56 25 257 39 353 11 75 63 104 106 61z
m-661 -16 l1 -28 17 28 c16 26 32 36 32 18 0 -5 -7 -14 -15 -21 -8 -7 -15 -18
-15 -25 0 -7 7 -18 15 -25 19 -16 19 -30 1 -30 -7 0 -17 10 -21 23 l-8 22 -4
-22 c-8 -43 -23 -23 -23 32 0 30 5 55 10 55 6 0 10 -12 10 -27z"/>
<path d="M747 2665 c-4 -8 -11 -63 -17 -122 -6 -59 -15 -133 -20 -163 -5 -30
-11 -113 -14 -185 l-4 -130 17 99 c26 151 46 156 246 57 137 -68 157 -75 185
-66 23 7 17 25 -8 25 -17 0 -308 126 -329 143 -7 5 -13 21 -13 36 0 30 30 61
153 160 71 57 91 81 68 81 -5 0 -47 -29 -93 -65 -133 -102 -165 -90 -155 55 6
81 -1 115 -16 75z"/>
<path d="M690 2032 c0 -18 5 -32 10 -32 6 0 8 11 4 28 -10 39 -14 40 -14 4z"/>
<path d="M2270 2390 l0 -460 1110 0 1110 0 0 460 0 460 -1110 0 -1110 0 0
-460z m746 416 c17 -13 19 -24 14 -128 -7 -155 -3 -314 7 -332 7 -13 38 -17
178 -20 186 -4 332 -26 353 -53 18 -25 15 -68 -8 -88 -19 -18 -26 -18 -93 -6
-138 26 -193 30 -342 30 -164 -1 -226 10 -250 44 -21 30 -20 160 4 324 23 156
36 207 57 228 19 19 54 19 80 1z m-616 -127 c0 -35 3 -39 25 -39 14 0 25 -4
25 -10 0 -5 -16 -10 -35 -10 l-35 0 0 56 c0 34 4 53 10 49 6 -3 10 -24 10 -46z"/>
<path d="M2961 2749 c-19 -50 -43 -219 -48 -341 l-6 -127 29 -12 c16 -6 128
-15 254 -20 124 -4 245 -13 269 -19 46 -11 81 -6 65 10 -17 17 -148 32 -323
39 l-174 6 -21 28 c-20 27 -21 41 -22 238 0 114 -3 211 -7 215 -3 4 -11 -4
-16 -17z"/>
<path d="M4530 2845 c0 -3 0 -209 0 -457 l0 -453 1110 -3 1110 -2 0 460 0 460
-1110 0 c-610 0 -1110 -2 -1110 -5z m549 -54 c21 -12 114 -144 157 -224 l31
-58 53 87 c69 114 125 170 178 179 48 8 79 -6 92 -40 5 -13 14 -64 21 -112 6
-48 29 -144 51 -213 47 -146 55 -233 24 -256 -52 -38 -106 6 -106 86 0 28 -15
89 -36 151 -19 57 -41 131 -48 163 l-11 59 -59 -92 c-32 -51 -69 -99 -83 -108
-54 -36 -125 -7 -189 77 -21 27 -39 48 -41 46 -2 -1 2 -86 8 -187 13 -213 6
-264 -37 -275 -40 -10 -72 10 -83 53 -12 45 -31 242 -31 326 l0 58 -34 -35
c-38 -41 -67 -45 -97 -15 -15 15 -19 28 -14 47 10 41 127 202 152 208 14 4 23
15 25 32 2 16 13 31 28 39 30 15 27 15 49 4z m-415 -96 c10 -49 23 -52 31 -5
4 24 12 39 18 37 15 -5 22 -107 8 -107 -6 0 -11 15 -12 33 l-1 32 -9 -32 c-5
-18 -14 -33 -19 -33 -5 0 -14 15 -19 33 l-9 32 -1 -32 c-1 -18 -5 -33 -11 -33
-11 0 -14 93 -3 103 13 14 21 6 27 -28z"/>
<path d="M5039 2718 c-6 -12 -24 -32 -40 -45 -30 -26 -119 -148 -119 -163 0
-16 16 -11 35 10 10 11 31 20 46 20 42 0 59 -32 59 -111 0 -93 19 -268 32
-292 23 -43 29 8 22 183 -4 96 -7 186 -6 199 4 59 58 68 110 19 l34 -33 -22
45 c-28 56 -121 190 -131 190 -5 0 -14 -10 -20 -22z"/>
<path d="M5472 2710 c-19 -12 -59 -61 -98 -121 -64 -97 -92 -123 -124 -111
-13 5 -13 3 -1 -12 9 -11 25 -16 45 -14 25 3 39 16 91 93 52 78 65 90 92 93
33 3 63 -25 63 -60 0 -10 20 -81 45 -158 25 -77 45 -155 45 -173 0 -17 4 -39
9 -46 8 -12 11 -10 16 11 7 28 -2 70 -45 203 -16 50 -37 135 -45 190 -21 132
-31 143 -93 105z"/>
<path d="M6780 2390 l0 -460 1110 0 1110 0 0 460 0 460 -1110 0 -1110 0 0
-460z m998 421 c8 -5 18 -42 23 -86 6 -43 12 -82 15 -86 2 -5 9 -66 14 -136
10 -142 21 -180 74 -268 35 -58 44 -98 28 -121 -12 -18 -49 -34 -79 -34 -34 0
-96 61 -216 211 -42 53 -102 118 -133 144 l-56 48 2 -199 c2 -244 5 -221 -24
-239 -19 -13 -28 -13 -49 -4 -45 21 -52 60 -52 336 0 245 1 253 22 274 17 18
28 20 60 14 31 -6 62 -30 177 -143 l139 -137 -7 84 c-3 46 -13 119 -23 163
-13 64 -14 81 -4 88 9 5 10 10 2 14 -16 10 -13 47 6 68 17 19 59 24 81 9z
m-846 -119 l16 -37 1 38 c2 59 21 43 21 -18 0 -66 -17 -73 -42 -17 l-16 37 -1
-37 c-2 -60 -21 -44 -21 17 0 66 17 73 42 17z"/>
<path d="M7730 2726 c0 -25 7 -73 15 -109 20 -86 23 -220 6 -241 -7 -9 -27
-16 -44 -16 -25 0 -51 21 -162 130 -73 72 -139 130 -148 130 -25 0 -30 -52
-25 -290 3 -154 7 -223 16 -232 9 -9 12 30 12 183 0 211 6 239 54 239 36 0
126 -80 217 -193 144 -178 193 -221 215 -186 3 6 -15 52 -40 103 -42 81 -48
101 -57 191 -24 248 -59 419 -59 291z"/>
<path d="M9040 2390 l0 -460 1110 0 1110 0 0 460 0 460 -1110 0 -1110 0 0
-460z m172 323 c20 -18 24 -63 6 -81 -17 -17 -65 -15 -72 4 -26 67 19 120 66
77z m843 -12 c100 -22 139 -40 143 -66 2 -11 22 -44 44 -73 22 -30 51 -78 65
-109 22 -47 24 -63 19 -114 -13 -113 -51 -179 -120 -209 -53 -24 -275 -54
-338 -47 -61 8 -209 81 -258 128 -44 43 -55 88 -45 182 9 81 33 134 95 212 70
88 126 115 234 115 45 0 117 -9 161 -19z"/>
<path d="M9160 2695 c-14 -17 -7 -43 15 -52 24 -8 39 12 31 41 -7 29 -27 34
-46 11z"/>
<path d="M9774 2646 c-42 -26 -108 -105 -138 -163 -9 -18 -19 -65 -22 -106 -9
-98 5 -124 96 -177 130 -76 169 -82 353 -54 123 19 159 38 191 98 14 28 20 60
20 110 l1 71 -68 102 c-65 98 -70 103 -120 119 -29 8 -101 18 -162 20 -105 5
-112 4 -151 -20z m236 -15 c80 -18 88 -22 128 -67 121 -136 143 -216 88 -321
-22 -43 -54 -58 -151 -73 -182 -28 -261 -15 -371 60 -59 41 -78 84 -69 154 9
68 28 109 75 173 71 93 137 110 300 74z"/>
<path d="M9814 2586 c-61 -27 -121 -125 -130 -214 -6 -57 -6 -59 27 -87 19
-15 62 -42 97 -58 59 -28 68 -29 145 -23 116 10 199 26 220 44 23 20 40 87 33
128 -5 23 -93 153 -130 191 -6 7 -166 33 -196 33 -19 -1 -49 -7 -66 -14z"/>
<path d="M11300 2845 c0 -3 0 -209 0 -457 l0 -453 1105 0 1106 0 0 455 0 455
-1105 3 c-609 1 -1106 0 -1106 -3z m989 -54 c73 -29 160 -88 182 -124 14 -23
19 -50 19 -98 0 -60 -2 -67 -32 -96 -40 -39 -58 -46 -226 -89 -82 -21 -171
-36 -232 -40 l-100 -7 -1 -66 c-1 -36 -5 -79 -8 -96 -6 -24 -3 -34 17 -51 45
-38 24 -106 -32 -106 -34 0 -56 19 -56 47 0 12 -7 42 -15 65 -8 24 -18 80 -22
126 -5 76 -8 84 -26 84 -30 0 -57 29 -57 61 0 32 23 59 51 59 16 0 19 7 19 42
l0 42 -48 -47 c-52 -51 -66 -55 -100 -31 -25 17 -30 60 -9 86 33 43 209 182
262 207 128 61 305 75 414 32z m-824 -96 c0 -23 -5 -31 -22 -33 -15 -2 -23
-10 -23 -23 0 -10 -4 -19 -10 -19 -11 0 -14 93 -3 104 4 4 19 6 33 4 20 -2 25
-8 25 -33z"/>
<path d="M12038 2760 c-71 -12 -138 -37 -184 -68 -53 -35 -204 -164 -204 -174
0 -14 15 -8 42 17 15 14 39 30 53 35 22 8 30 6 51 -15 39 -39 27 -117 -21
-135 -27 -10 -34 -30 -11 -30 33 0 56 -35 62 -90 10 -101 18 -110 24 -27 4 52
11 83 22 94 12 11 47 18 120 24 163 14 382 70 424 110 19 18 24 33 24 74 0 63
-14 84 -88 128 -100 61 -191 77 -314 57z m252 -47 c103 -45 153 -121 116 -177
-33 -52 -259 -114 -428 -119 -117 -3 -122 2 -126 129 -5 116 5 134 83 163 117
44 262 46 355 4z"/>
<path d="M12041 2689 c-29 -5 -73 -18 -97 -29 l-44 -19 0 -92 0 -92 93 8 c116
8 212 28 305 61 62 23 72 30 72 51 0 78 -178 139 -329 112z"/>
<path d="M11422 2693 c2 -10 8 -18 13 -18 5 0 11 8 13 18 2 10 -3 17 -13 17
-10 0 -15 -7 -13 -17z"/>
<path d="M10 1440 l0 -460 1110 0 1110 0 0 460 0 460 -1110 0 -1110 0 0 -460z
m1179 363 c9 -11 36 -28 59 -37 119 -46 212 -131 301 -275 67 -110 74 -141 42
-204 l-19 -36 71 -48 c110 -75 131 -120 73 -159 -31 -20 -61 -8 -152 62 -70
54 -73 55 -101 41 -33 -17 -175 -63 -242 -78 -158 -35 -386 33 -461 138 -30
41 -35 55 -34 103 2 85 30 176 86 275 66 118 121 191 159 211 73 37 190 41
218 7z m-1001 -35 c7 -7 12 -33 12 -58 l0 -47 -32 5 c-45 6 -58 19 -58 56 0
37 15 56 45 56 12 0 26 -5 33 -12z"/>
<path d="M1043 1770 c-68 -16 -111 -66 -202 -231 -45 -83 -76 -203 -67 -254
20 -102 239 -196 406 -174 34 5 108 25 164 45 159 56 161 56 248 -10 41 -31
80 -56 87 -56 25 0 3 26 -58 69 -34 24 -69 54 -78 67 -14 22 -14 28 1 67 18
48 21 97 6 97 -5 0 -10 -9 -10 -20 0 -29 -26 -76 -45 -84 -36 -13 -65 -3 -156
54 -51 33 -100 60 -107 60 -31 0 -1 -26 77 -69 89 -50 106 -69 97 -106 -8 -31
-24 -39 -141 -70 -118 -31 -191 -32 -281 -4 -204 63 -233 172 -109 408 66 125
129 182 203 182 46 0 190 -59 260 -107 29 -20 64 -57 80 -82 33 -54 81 -107
89 -98 4 3 -16 38 -42 78 -54 78 -135 145 -224 185 -30 13 -66 33 -79 44 -25
20 -63 23 -119 9z"/>
<path d="M1038 1686 c-16 -8 -39 -27 -52 -43 -36 -41 -112 -189 -131 -254 -14
-52 -14 -60 0 -96 18 -45 58 -72 144 -97 80 -23 161 -20 281 12 l104 29 -82
43 c-94 49 -142 89 -142 119 0 26 34 61 58 61 10 0 69 -31 131 -70 62 -38 116
-68 121 -65 4 2 13 19 21 37 11 28 11 33 -5 42 -44 27 -66 49 -94 99 -36 64
-78 98 -180 143 -42 19 -85 39 -94 44 -24 14 -48 12 -80 -4z"/>
<path d="M137 1753 c-13 -12 -7 -54 9 -60 23 -8 38 12 30 41 -6 25 -25 34 -39
19z"/>
<path d="M2270 1440 l0 -460 1110 0 1110 0 0 460 0 460 -1110 0 -1110 0 0
-460z m169 326 c9 -11 9 -20 2 -35 -7 -13 -8 -22 -1 -26 13 -8 13 -35 1 -35
-5 0 -13 9 -16 20 -3 11 -12 20 -20 20 -8 0 -11 -7 -8 -20 3 -11 0 -20 -6 -20
-7 0 -11 21 -11 55 0 51 2 55 24 55 13 0 29 -6 35 -14z m535 -7 l14 -21 83 21
c103 26 145 26 187 1 48 -29 95 -134 100 -220 3 -57 0 -70 -24 -107 -17 -25
-47 -53 -77 -69 -59 -32 -59 -32 83 -68 58 -15 124 -37 147 -48 56 -28 123
-93 123 -120 0 -52 -69 -77 -105 -38 -32 35 -77 57 -154 74 -41 10 -116 35
-168 57 -51 22 -113 42 -138 46 l-45 6 0 -64 c-1 -81 -14 -140 -36 -156 -26
-19 -58 -16 -79 7 -16 17 -17 33 -13 118 5 90 4 100 -14 111 -28 17 -22 82 10
96 20 9 22 16 22 97 0 48 -3 89 -8 91 -4 3 -30 -1 -57 -8 -57 -14 -80 -7 -97
30 -18 39 10 71 82 91 43 12 60 21 60 33 0 26 38 61 65 61 13 0 30 -9 39 -21z"/>
<path d="M2395 1750 c-3 -5 -4 -14 0 -20 8 -13 35 -1 35 16 0 16 -26 19 -35 4z"/>
<path d="M3090 1715 c-66 -17 -126 -19 -135 -5 -11 18 -30 10 -47 -19 -12 -22
-31 -34 -72 -47 -31 -10 -56 -22 -56 -26 0 -5 26 -6 58 -2 82 9 93 -6 100
-130 4 -92 4 -95 -22 -121 -30 -30 -32 -38 -11 -55 12 -10 15 -37 15 -119 1
-90 3 -103 14 -89 7 10 16 52 19 93 4 42 11 84 17 94 22 43 96 34 244 -28 50
-22 118 -44 150 -51 75 -15 101 -26 149 -63 25 -19 37 -24 37 -15 0 28 -105
90 -186 108 -118 28 -175 52 -185 77 -12 31 2 58 40 77 15 8 42 31 60 51 25
29 31 44 31 83 0 60 -27 137 -62 174 -30 32 -67 35 -158 13z m141 -55 c47 -49
63 -100 48 -155 -16 -59 -43 -81 -131 -111 -161 -53 -180 -42 -186 118 -4 99
-2 116 14 136 22 27 98 50 168 51 45 1 52 -3 87 -39z"/>
<path d="M3068 1642 l-58 -16 0 -108 c0 -88 3 -108 14 -108 29 0 175 51 191
66 37 38 31 95 -16 149 -35 39 -47 41 -131 17z"/>
<path d="M4530 1895 c0 -3 0 -209 0 -457 l0 -453 1110 -3 1110 -2 0 460 0 460
-1110 0 c-610 0 -1110 -2 -1110 -5z m1099 -90 c168 -40 284 -160 205 -212 -26
-17 -28 -16 -78 11 -172 95 -221 110 -299 95 -70 -13 -107 -42 -107 -84 0 -54
40 -79 211 -129 47 -14 101 -36 120 -48 66 -45 86 -127 50 -210 -22 -50 -43
-71 -94 -93 -82 -34 -323 -64 -411 -51 -56 9 -152 71 -184 120 -31 45 -34 122
-7 142 43 32 92 9 97 -46 3 -29 10 -39 52 -64 59 -37 130 -44 273 -27 125 15
157 32 161 88 4 50 -3 55 -130 89 -127 34 -184 67 -235 137 -46 63 -22 188 46
236 87 62 196 77 330 46z m-931 -50 c3 -16 1 -18 -9 -7 -15 14 -39 16 -39 4 0
-5 12 -14 26 -20 33 -16 30 -55 -5 -60 -30 -5 -50 13 -33 30 9 9 12 9 12 0 0
-7 7 -12 15 -12 22 0 18 21 -4 27 -25 6 -35 31 -20 50 17 20 53 12 57 -12z"/>
<path d="M5363 1740 c-61 -35 -83 -71 -83 -134 0 -39 5 -51 35 -81 48 -47 96
-70 201 -96 108 -27 154 -64 154 -123 0 -100 -71 -138 -287 -152 -76 -5 -111
-3 -154 9 -69 20 -134 74 -143 119 -5 23 -9 29 -15 20 -23 -38 35 -118 113
-153 52 -23 142 -24 285 -3 171 25 218 56 229 149 9 80 -29 110 -198 159 -135
40 -200 92 -200 162 0 42 33 84 86 110 49 24 63 26 131 22 67 -5 88 -11 179
-58 57 -29 106 -51 109 -48 11 11 -80 78 -134 100 -40 15 -85 22 -156 25 -97
4 -102 3 -152 -27z"/>
<path d="M6780 1440 l0 -460 1110 0 1110 0 0 460 0 460 -1110 0 -1110 0 0
-460z m1488 354 c16 -11 22 -25 22 -50 0 -31 -4 -37 -37 -51 -30 -12 -59 -14
-138 -9 -331 20 -312 20 -318 0 -3 -10 -11 -120 -17 -244 -15 -277 -18 -297
-51 -323 -24 -17 -30 -18 -55 -6 -37 18 -45 61 -38 199 5 112 21 284 30 337
l6 31 -39 -8 c-87 -18 -211 -32 -253 -28 -35 2 -47 8 -56 26 -15 30 -7 60 20
77 31 20 332 47 606 55 129 3 249 7 265 8 17 1 41 -5 53 -14z m-1298 -24 c0
-5 -9 -10 -21 -10 -18 0 -20 -5 -17 -42 1 -24 -2 -43 -7 -43 -5 0 -8 19 -7 43
3 37 1 42 -17 42 -12 0 -21 5 -21 10 0 6 20 10 45 10 25 0 45 -4 45 -10z"/>
<path d="M8055 1751 l-120 -6 105 -8 c119 -10 195 -7 195 8 0 12 -26 13 -180
6z"/>
<path d="M7575 1730 c-99 -10 -186 -19 -192 -19 -7 -1 -13 -5 -13 -11 0 -15
60 -12 188 7 l113 16 21 -21 c21 -21 22 -24 10 -149 -19 -207 -25 -366 -13
-383 20 -28 28 7 35 153 10 212 25 366 37 388 6 11 20 24 32 29 20 8 19 9 -8
8 -16 0 -111 -8 -210 -18z"/>
<path d="M9040 1443 l0 -458 1110 0 1110 0 0 458 0 457 -1110 0 -1110 0 0
-457z m1196 396 c18 -20 19 -38 16 -322 -1 -166 0 -314 4 -330 5 -26 7 -27 23
-13 25 22 57 20 81 -6 23 -25 24 -29 9 -61 -28 -61 -155 -101 -191 -59 -24 27
-38 80 -38 139 l0 54 -37 -37 c-58 -57 -113 -77 -208 -76 -135 0 -194 24 -221
89 -26 60 -44 455 -25 537 11 43 17 51 48 60 17 5 29 1 48 -18 l25 -25 0 -247
c0 -294 -3 -284 99 -284 96 0 147 28 183 100 38 74 58 178 68 343 7 109 12
143 26 158 23 25 66 24 90 -2z m-1066 -110 c0 -56 23 -46 31 12 3 31 7 39 13
27 12 -25 3 -80 -15 -91 -32 -20 -49 -1 -49 53 0 32 4 49 10 45 6 -3 10 -24
10 -46z"/>
<path d="M10176 1788 c-3 -13 -6 -57 -6 -98 0 -89 -23 -231 -51 -317 -42 -129
-138 -192 -271 -180 -66 6 -104 26 -118 63 -6 14 -10 133 -10 265 0 145 -4
239 -10 239 -18 0 -23 -76 -16 -265 10 -286 15 -297 136 -316 99 -15 162 -1
232 52 80 60 111 49 123 -43 10 -83 23 -108 55 -108 15 0 39 9 54 21 31 24 36
45 7 29 -33 -17 -60 -11 -78 17 -16 25 -18 53 -15 303 3 271 -1 360 -17 360
-5 0 -11 -10 -15 -22z"/>
<path d="M11299 1896 c-2 -2 -3 -208 -1 -458 l2 -453 1106 2 1105 3 2 455 2
455 -1106 0 c-608 0 -1108 -2 -1110 -4z m656 -92 c9 -9 35 -55 59 -103 24 -47
89 -166 146 -264 l102 -177 49 103 c36 76 55 131 69 208 26 138 44 183 77 198
23 10 30 9 52 -7 22 -17 26 -27 24 -68 -1 -27 -17 -107 -37 -179 -56 -204
-195 -465 -248 -465 -25 0 -97 93 -155 200 -99 182 -233 472 -233 502 0 54 60
87 95 52z m-535 -43 c0 -11 3 -27 7 -37 5 -15 9 -12 17 14 9 27 21 39 28 30 1
-2 -4 -24 -10 -50 -15 -58 -33 -61 -49 -10 -6 20 -15 45 -18 55 -5 12 -2 17 9
17 9 0 16 -8 16 -19z"/>
<path d="M11914 1733 c12 -52 265 -548 299 -588 29 -33 37 -38 49 -27 9 7 48
76 87 155 59 117 78 168 109 289 34 134 37 177 12 152 -5 -5 -17 -40 -25 -77
-8 -37 -22 -97 -30 -134 -15 -69 -83 -224 -112 -255 -9 -10 -28 -18 -43 -18
-15 0 -34 8 -42 18 -21 24 -197 330 -247 430 -41 81 -70 109 -57 55z"/>
<path d="M12 495 l3 -455 1108 -3 1107 -2 0 458 0 457 -1110 0 -1110 0 2 -455z
m1180 328 c20 -18 24 -53 8 -69 -6 -6 -15 -49 -20 -96 -20 -175 -83 -459 -107
-483 -22 -22 -72 -18 -108 9 -17 14 -49 57 -69 96 l-38 72 -37 -35 c-20 -19
-46 -40 -58 -46 -15 -7 -23 -21 -23 -36 0 -29 -32 -65 -58 -65 -10 0 -26 6
-35 12 -20 15 -65 151 -109 333 -20 82 -40 140 -54 157 -14 18 -20 35 -17 49
12 45 115 78 141 46 13 -15 74 -223 93 -314 l13 -61 48 53 c51 56 102 81 143
71 18 -5 29 -22 51 -78 30 -81 44 -103 44 -72 0 11 13 73 29 139 16 66 31 150
34 187 6 68 16 98 45 131 19 22 60 22 84 0z m-1053 -34 c3 -29 5 -31 12 -14 7
16 8 13 6 -14 -3 -54 -24 -49 -36 9 -14 63 -14 63 2 58 6 -3 14 -20 16 -39z
m49 8 c4 -34 22 -25 22 9 0 14 5 24 10 22 13 -4 13 -6 -1 -61 -7 -26 -17 -46
-22 -44 -10 3 -37 73 -37 95 0 25 25 6 28 -21z"/>
<path d="M1131 771 c-7 -11 -16 -57 -22 -102 -12 -99 -64 -316 -80 -335 -14
-17 -50 -18 -71 -1 -9 6 -27 39 -40 72 -15 36 -31 61 -41 63 -10 2 -42 -20
-75 -52 -61 -58 -98 -70 -121 -42 -7 8 -30 83 -52 166 -50 193 -57 207 -98
181 -11 -7 -10 -13 4 -34 9 -15 30 -79 45 -144 35 -147 88 -313 100 -313 5 0
14 16 20 35 6 19 15 35 18 35 4 0 29 18 56 40 86 71 111 65 168 -43 33 -61 68
-93 92 -84 16 6 44 121 75 302 43 260 47 304 22 256z"/>
<path d="M2270 493 l0 -458 1110 0 1110 0 0 458 0 457 -1110 0 -1110 0 0 -457z
m1254 396 c14 -11 26 -30 26 -42 0 -14 -42 -74 -106 -151 -96 -116 -105 -130
-88 -139 11 -5 48 -40 84 -77 36 -37 84 -82 108 -99 35 -27 42 -38 42 -67 0
-24 -6 -38 -24 -49 -38 -25 -82 0 -196 115 l-100 102 -120 -158 c-187 -247
-214 -270 -262 -227 -31 28 -22 67 38 155 58 85 155 209 207 264 l29 32 -69
37 c-177 98 -213 125 -213 163 0 31 26 62 51 62 11 0 81 -38 156 -84 l138 -85
25 28 c14 15 56 63 93 107 63 73 131 134 147 134 4 0 19 -9 34 -21z m-1125
-76 c9 -17 11 -17 25 2 8 11 18 17 22 13 4 -5 0 -16 -9 -26 -10 -10 -17 -22
-17 -27 0 -5 7 -17 17 -27 9 -10 13 -21 9 -26 -4 -4 -14 2 -22 12 -14 20 -14
20 -28 0 -20 -26 -29 -13 -14 20 9 21 9 32 0 47 -14 23 -15 29 -2 29 5 0 13
-8 19 -17z"/>
<path d="M3379 743 c-108 -128 -124 -143 -153 -143 -12 0 -78 34 -147 75 -68
41 -130 75 -138 75 -28 0 12 -30 113 -87 126 -70 136 -79 136 -117 0 -25 -21
-57 -96 -151 -98 -123 -174 -230 -174 -246 0 -16 27 -9 41 10 110 150 273 350
290 354 37 10 69 -11 164 -108 52 -52 101 -95 109 -95 26 0 18 16 -21 46 -59
44 -203 194 -203 210 0 25 19 55 105 159 97 120 101 125 81 125 -9 0 -56 -48
-107 -107z"/>
<path d="M4530 945 c0 -3 0 -208 0 -455 l0 -451 1107 0 1108 1 3 455 2 455
-1110 0 c-610 0 -1110 -2 -1110 -5z m816 -64 c12 -10 76 -100 144 -200 l124
-180 32 89 c17 49 39 124 49 167 21 93 38 129 65 138 25 8 66 -16 75 -44 11
-37 -114 -432 -176 -553 -45 -88 -138 -190 -208 -228 -33 -17 -139 -7 -188 19
-77 41 -100 72 -83 116 14 38 53 42 98 11 60 -41 95 -50 131 -32 34 18 113
111 141 167 19 36 19 37 -2 55 -28 26 -239 308 -272 365 -32 56 -33 93 -4 113
30 21 50 20 74 -3z m-690 -73 l6 -21 17 22 c23 30 34 15 16 -20 -8 -15 -15
-37 -15 -49 0 -11 -4 -20 -10 -20 -5 0 -10 10 -10 23 0 13 -7 32 -15 43 -8 10
-15 25 -15 32 0 20 18 14 26 -10z"/>
<path d="M5300 831 c0 -17 116 -182 210 -300 50 -62 92 -122 96 -135 8 -32
-14 -79 -71 -154 -94 -124 -169 -143 -277 -69 -31 20 -38 9 -10 -16 29 -26 88
-47 135 -47 35 0 54 7 88 34 61 46 122 127 163 217 61 135 163 464 146 474
-12 8 -16 -1 -39 -95 -28 -110 -70 -230 -89 -252 -8 -10 -28 -18 -44 -18 -22
0 -35 9 -58 43 -207 298 -250 353 -250 318z"/>
<path d="M6782 495 l3 -456 1107 -2 1108 -2 0 458 0 457 -1110 0 -1110 0 2
-455z m843 354 c162 -33 269 -41 351 -25 37 7 43 6 58 -15 34 -49 20 -68 -131
-176 -51 -36 -90 -70 -87 -74 3 -5 22 -9 43 -9 79 0 123 -78 66 -116 -26 -17
-92 -16 -206 2 -36 6 -38 4 -138 -107 l-102 -113 58 -13 c32 -8 81 -16 108
-19 46 -5 51 -4 60 18 7 16 20 24 41 26 38 4 64 -19 64 -57 0 -34 -63 -98
-106 -107 -17 -3 -78 4 -139 16 -92 19 -116 21 -157 11 -69 -15 -108 -14 -130
6 -43 39 -16 86 143 248 65 67 119 124 119 127 0 3 -26 8 -57 11 -89 10 -152
34 -159 63 -9 35 3 72 25 79 10 3 83 -6 161 -19 l142 -25 64 57 64 57 -72 13
c-170 30 -278 55 -307 73 -37 22 -41 59 -10 90 24 24 9 25 234 -22z m-665 -31
c0 -7 -9 -24 -20 -38 -25 -32 -25 -40 0 -40 11 0 20 -4 20 -10 0 -5 -16 -10
-35 -10 -40 0 -44 13 -15 50 25 32 25 40 0 40 -11 0 -20 5 -20 10 0 6 16 10
35 10 21 0 35 -5 35 -12z"/>
<path d="M7432 829 c6 -17 64 -34 208 -60 143 -26 164 -35 167 -74 3 -34 -2
-42 -74 -107 -62 -57 -71 -58 -242 -28 -63 11 -117 17 -120 15 -12 -13 22 -27
98 -42 91 -18 119 -41 106 -85 -4 -13 -56 -72 -115 -133 -108 -111 -150 -161
-150 -176 0 -5 46 -6 103 -3 76 5 119 2 170 -10 96 -23 119 -21 150 12 37 38
34 50 -4 18 -35 -30 -66 -32 -148 -12 -31 8 -68 17 -83 20 -38 9 -61 46 -49
78 13 34 189 228 216 238 14 5 63 4 119 -2 72 -9 99 -9 108 0 13 13 10 14 -60
32 -54 14 -73 47 -49 83 9 14 59 56 111 93 100 72 122 102 64 87 -58 -14 -169
-5 -328 26 -85 17 -166 34 -179 38 -18 4 -22 2 -19 -8z"/>
</g>
</svg>
