<?xml version="1.0" standalone="no"?>
<!DOCTYPE svg PUBLIC "-//W3C//DTD SVG 20010904//EN"
 "http://www.w3.org/TR/2001/REC-SVG-20010904/DTD/svg10.dtd">
<svg version="1.0" xmlns="http://www.w3.org/2000/svg"
 width="76.000000pt" height="43.000000pt" viewBox="0 0 76.000000 43.000000"
 preserveAspectRatio="xMidYMid meet">
<metadata>
Created by potrace 1.16, written by Peter Selinger 2001-2019
</metadata>
<g transform="translate(0.000000,43.000000) scale(0.100000,-0.100000)"
fill="#000000" stroke="none">
<path d="M0 309 l0 -121 28 6 c91 17 104 17 128 1 19 -12 24 -24 24 -55 0 -44
-15 -56 -97 -80 -35 -11 -43 -18 -43 -37 l0 -23 360 0 360 0 0 215 0 215 -380
0 -380 0 0 -121z"/>
<path d="M0 115 c0 -30 2 -30 65 0 l50 23 -57 1 c-55 1 -58 0 -58 -24z"/>
</g>
</svg>
