<?xml version="1.0" standalone="no"?>
<!DOCTYPE svg PUBLIC "-//W3C//DTD SVG 20010904//EN"
 "http://www.w3.org/TR/2001/REC-SVG-20010904/DTD/svg10.dtd">
<svg version="1.0" xmlns="http://www.w3.org/2000/svg"
 width="27.000000pt" height="31.000000pt" viewBox="0 0 27.000000 31.000000"
 preserveAspectRatio="xMidYMid meet">
<metadata>
Created by potrace 1.16, written by Peter Selinger 2001-2019
</metadata>
<g transform="translate(0.000000,31.000000) scale(0.100000,-0.100000)"
fill="#000000" stroke="none">
<path d="M0 155 l0 -155 136 0 c91 0 135 3 132 11 -2 5 -30 21 -63 34 -105 43
-141 86 -117 139 19 42 58 44 124 8 l58 -31 0 47 c0 27 -6 60 -12 75 l-13 27
-122 0 -123 0 0 -155z"/>
<path d="M154 141 c7 -11 92 -51 108 -51 7 1 -12 14 -42 30 -58 30 -75 36 -66
21z"/>
</g>
</svg>
