<?xml version="1.0" standalone="no"?>
<!DOCTYPE svg PUBLIC "-//W3C//DTD SVG 20010904//EN"
 "http://www.w3.org/TR/2001/REC-SVG-20010904/DTD/svg10.dtd">
<svg version="1.0" xmlns="http://www.w3.org/2000/svg"
 width="35.000000pt" height="50.000000pt" viewBox="0 0 35.000000 50.000000"
 preserveAspectRatio="xMidYMid meet">
<metadata>
Created by potrace 1.16, written by Peter Selinger 2001-2019
</metadata>
<g transform="translate(0.000000,50.000000) scale(0.100000,-0.100000)"
fill="#000000" stroke="none">
<path d="M0 250 l0 -250 105 0 c58 0 105 2 105 3 0 2 -7 17 -15 34 -38 77 -46
354 -12 420 10 18 17 34 17 38 0 3 -45 5 -100 5 l-100 0 0 -250z"/>
<path d="M236 421 c-28 -118 -19 -291 20 -367 25 -50 30 -54 63 -54 l36 0 -35
19 c-54 28 -77 78 -84 185 -9 124 5 221 38 255 32 33 32 41 3 41 -20 0 -24 -9
-41 -79z"/>
<path d="M314 419 c-17 -19 -19 -37 -19 -160 0 -138 0 -139 28 -166 l27 -28 0
188 c0 103 -4 187 -8 187 -5 0 -17 -9 -28 -21z"/>
</g>
</svg>
