<?xml version="1.0" standalone="no"?>
<!DOCTYPE svg PUBLIC "-//W3C//DTD SVG 20010904//EN"
 "http://www.w3.org/TR/2001/REC-SVG-20010904/DTD/svg10.dtd">
<svg version="1.0" xmlns="http://www.w3.org/2000/svg"
 width="46.000000pt" height="12.000000pt" viewBox="0 0 46.000000 12.000000"
 preserveAspectRatio="xMidYMid meet">
<metadata>
Created by potrace 1.16, written by Peter Selinger 2001-2019
</metadata>
<g transform="translate(0.000000,12.000000) scale(0.100000,-0.100000)"
fill="#000000" stroke="none">
<path d="M50 60 l0 -60 100 0 100 0 0 60 0 60 -100 0 -100 0 0 -60z"/>
<path d="M300 91 c0 -43 11 -91 21 -91 5 0 9 27 9 60 0 47 -3 60 -15 60 -10 0
-15 -10 -15 -29z"/>
<path d="M390 60 l0 -60 35 0 35 0 0 60 0 60 -35 0 -35 0 0 -60z"/>
</g>
</svg>
