<?xml version="1.0" standalone="no"?>
<!DOCTYPE svg PUBLIC "-//W3C//DTD SVG 20010904//EN"
 "http://www.w3.org/TR/2001/REC-SVG-20010904/DTD/svg10.dtd">
<svg version="1.0" xmlns="http://www.w3.org/2000/svg"
 width="23.000000pt" height="24.000000pt" viewBox="0 0 23.000000 24.000000"
 preserveAspectRatio="xMidYMid meet">
<metadata>
Created by potrace 1.16, written by Peter Selinger 2001-2019
</metadata>
<g transform="translate(0.000000,24.000000) scale(0.100000,-0.100000)"
fill="#000000" stroke="none">
<path d="M0 120 l0 -120 115 0 115 0 0 120 0 120 -115 0 -115 0 0 -120z m84 8
c5 -10 7 -10 12 0 8 16 34 15 34 -1 0 -24 -31 -77 -45 -77 -18 0 -22 7 -30 53
-6 30 -4 37 8 37 8 0 18 -6 21 -12z"/>
</g>
</svg>
