<?xml version="1.0" standalone="no"?>
<!DOCTYPE svg PUBLIC "-//W3C//DTD SVG 20010904//EN"
 "http://www.w3.org/TR/2001/REC-SVG-20010904/DTD/svg10.dtd">
<svg version="1.0" xmlns="http://www.w3.org/2000/svg"
 width="94.000000pt" height="50.000000pt" viewBox="0 0 94.000000 50.000000"
 preserveAspectRatio="xMidYMid meet">
<metadata>
Created by potrace 1.16, written by Peter Selinger 2001-2019
</metadata>
<g transform="translate(0.000000,50.000000) scale(0.100000,-0.100000)"
fill="#000000" stroke="none">
<path d="M0 405 c0 -52 4 -95 9 -95 10 0 27 63 37 138 6 51 6 52 -20 52 l-26
0 0 -95z"/>
<path d="M98 428 c-6 -93 -30 -147 -69 -155 -28 -5 -29 -8 -29 -62 l0 -57 39
-10 39 -11 -16 34 c-16 33 -15 37 7 96 40 106 64 237 42 237 -4 0 -10 -33 -13
-72z"/>
<path d="M172 414 c-7 -56 -22 -110 -41 -150 l-30 -63 40 -32 c31 -25 39 -37
39 -64 0 -24 -7 -39 -22 -49 -31 -22 -56 -20 -94 9 -50 38 -64 33 -64 -20 l0
-45 470 0 470 0 0 250 0 250 -378 0 -378 0 -12 -86z"/>
</g>
</svg>
