<?xml version="1.0" standalone="no"?>
<!DOCTYPE svg PUBLIC "-//W3C//DTD SVG 20010904//EN"
 "http://www.w3.org/TR/2001/REC-SVG-20010904/DTD/svg10.dtd">
<svg version="1.0" xmlns="http://www.w3.org/2000/svg"
 width="27.000000pt" height="39.000000pt" viewBox="0 0 27.000000 39.000000"
 preserveAspectRatio="xMidYMid meet">
<metadata>
Created by potrace 1.16, written by Peter Selinger 2001-2019
</metadata>
<g transform="translate(0.000000,39.000000) scale(0.100000,-0.100000)"
fill="#000000" stroke="none">
<path d="M0 195 l0 -195 35 0 c28 0 36 4 39 23 30 145 43 179 105 282 23 37
41 71 41 76 0 5 -49 9 -110 9 l-110 0 0 -195z"/>
<path d="M213 243 c-28 -54 -56 -116 -61 -138 -17 -70 -22 -105 -13 -105 4 0
11 22 14 48 8 68 54 177 89 212 20 21 28 38 26 55 -2 20 -13 6 -55 -72z"/>
<path d="M242 143 c-26 -62 -43 -124 -36 -135 3 -4 18 -8 35 -8 l29 0 0 95 c0
52 -2 95 -4 95 -2 0 -13 -21 -24 -47z"/>
</g>
</svg>
