<?xml version="1.0" standalone="no"?>
<!DOCTYPE svg PUBLIC "-//W3C//DTD SVG 20010904//EN"
 "http://www.w3.org/TR/2001/REC-SVG-20010904/DTD/svg10.dtd">
<svg version="1.0" xmlns="http://www.w3.org/2000/svg"
 width="42.000000pt" height="12.000000pt" viewBox="0 0 42.000000 12.000000"
 preserveAspectRatio="xMidYMid meet">
<metadata>
Created by potrace 1.16, written by Peter Selinger 2001-2019
</metadata>
<g transform="translate(0.000000,12.000000) scale(0.100000,-0.100000)"
fill="#000000" stroke="none">
<path d="M0 60 l0 -60 213 0 c208 0 211 0 177 18 -31 15 -35 22 -38 60 l-3 42
-130 0 -129 0 0 -25 c0 -16 -6 -25 -15 -25 -9 0 -15 9 -15 25 0 21 -5 25 -30
25 l-30 0 0 -60z"/>
<path d="M412 100 c0 -14 2 -19 5 -12 2 6 2 18 0 25 -3 6 -5 1 -5 -13z"/>
</g>
</svg>
