<?xml version="1.0" standalone="no"?>
<!DOCTYPE svg PUBLIC "-//W3C//DTD SVG 20010904//EN"
 "http://www.w3.org/TR/2001/REC-SVG-20010904/DTD/svg10.dtd">
<svg version="1.0" xmlns="http://www.w3.org/2000/svg"
 width="27.000000pt" height="43.000000pt" viewBox="0 0 27.000000 43.000000"
 preserveAspectRatio="xMidYMid meet">
<metadata>
Created by potrace 1.16, written by Peter Selinger 2001-2019
</metadata>
<g transform="translate(0.000000,43.000000) scale(0.100000,-0.100000)"
fill="#000000" stroke="none">
<path d="M0 215 l0 -215 75 0 74 0 6 38 c9 58 53 167 86 211 25 36 29 49 29
111 l0 70 -135 0 -135 0 0 -215z"/>
<path d="M244 125 c-27 -62 -39 -125 -24 -125 5 0 10 5 10 12 0 6 9 22 21 34
16 17 20 32 17 75 l-3 54 -21 -50z"/>
</g>
</svg>
