<?xml version="1.0" standalone="no"?>
<!DOCTYPE svg PUBLIC "-//W3C//DTD SVG 20010904//EN"
 "http://www.w3.org/TR/2001/REC-SVG-20010904/DTD/svg10.dtd">
<svg version="1.0" xmlns="http://www.w3.org/2000/svg"
 width="94.000000pt" height="31.000000pt" viewBox="0 0 94.000000 31.000000"
 preserveAspectRatio="xMidYMid meet">
<metadata>
Created by potrace 1.16, written by Peter Selinger 2001-2019
</metadata>
<g transform="translate(0.000000,31.000000) scale(0.100000,-0.100000)"
fill="#000000" stroke="none">
<path d="M0 195 c0 -64 4 -115 9 -115 13 0 18 23 26 115 3 44 9 88 11 98 4 13
-1 17 -20 17 l-26 0 0 -115z"/>
<path d="M97 243 c-4 -38 -7 -86 -7 -109 0 -23 -10 -61 -24 -87 l-23 -47 448
0 449 0 0 155 0 155 -419 0 -418 0 -6 -67z"/>
</g>
</svg>
