<?xml version="1.0" standalone="no"?>
<!DOCTYPE svg PUBLIC "-//W3C//DTD SVG 20010904//EN"
 "http://www.w3.org/TR/2001/REC-SVG-20010904/DTD/svg10.dtd">
<svg version="1.0" xmlns="http://www.w3.org/2000/svg"
 width="35.000000pt" height="10.000000pt" viewBox="0 0 35.000000 10.000000"
 preserveAspectRatio="xMidYMid meet">
<metadata>
Created by potrace 1.16, written by Peter Selinger 2001-2019
</metadata>
<g transform="translate(0.000000,10.000000) scale(0.100000,-0.100000)"
fill="#000000" stroke="none">
<path d="M130 91 c0 -12 52 -21 79 -14 38 10 22 23 -29 23 -27 0 -50 -4 -50
-9z"/>
<path d="M305 78 c-31 -67 -139 -83 -237 -35 -30 15 -58 27 -61 27 -4 0 -7
-16 -7 -35 l0 -35 175 0 175 0 0 50 c0 41 -3 50 -18 50 -9 0 -22 -10 -27 -22z"/>
</g>
</svg>
