<?xml version="1.0" standalone="no"?>
<!DOCTYPE svg PUBLIC "-//W3C//DTD SVG 20010904//EN"
 "http://www.w3.org/TR/2001/REC-SVG-20010904/DTD/svg10.dtd">
<svg version="1.0" xmlns="http://www.w3.org/2000/svg"
 width="46.000000pt" height="50.000000pt" viewBox="0 0 46.000000 50.000000"
 preserveAspectRatio="xMidYMid meet">
<metadata>
Created by potrace 1.16, written by Peter Selinger 2001-2019
</metadata>
<g transform="translate(0.000000,50.000000) scale(0.100000,-0.100000)"
fill="#000000" stroke="none">
<path d="M0 275 c0 -232 12 -299 23 -128 6 89 28 254 43 326 5 25 4 27 -30 27
l-36 0 0 -225z"/>
<path d="M101 318 c-12 -101 -25 -198 -28 -216 -6 -35 -41 -82 -62 -82 -6 0
-11 -4 -11 -10 0 -5 22 -10 49 -10 l48 0 7 88 c8 116 21 133 109 147 79 13 97
24 30 18 -39 -4 -53 -1 -77 18 l-29 23 6 103 c5 80 4 103 -6 103 -9 0 -19 -54
-36 -182z"/>
<path d="M202 418 c-7 -46 -12 -88 -12 -95 0 -24 39 -24 88 1 80 40 104 85 86
154 -6 20 -12 22 -79 22 l-72 0 -11 -82z"/>
<path d="M424 469 c10 -50 -13 -117 -52 -155 -19 -19 -32 -34 -28 -34 4 0 32
25 62 55 52 52 54 56 54 110 0 49 -2 55 -21 55 -19 0 -21 -4 -15 -31z"/>
<path d="M436 274 c-29 -41 -150 -94 -213 -94 l-52 0 -5 -42 c-3 -24 -7 -64
-10 -90 l-6 -48 155 0 155 0 0 150 c0 83 -1 150 -2 150 -2 0 -11 -12 -22 -26z"/>
<path d="M310 270 c-9 -6 -10 -10 -3 -10 6 0 15 5 18 10 8 12 4 12 -15 0z"/>
</g>
</svg>
