<?xml version="1.0" standalone="no"?>
<!DOCTYPE svg PUBLIC "-//W3C//DTD SVG 20010904//EN"
 "http://www.w3.org/TR/2001/REC-SVG-20010904/DTD/svg10.dtd">
<svg version="1.0" xmlns="http://www.w3.org/2000/svg"
 width="102.000000pt" height="57.000000pt" viewBox="0 0 102.000000 57.000000"
 preserveAspectRatio="xMidYMid meet">
<metadata>
Created by potrace 1.16, written by Peter Selinger 2001-2019
</metadata>
<g transform="translate(0.000000,57.000000) scale(0.100000,-0.100000)"
fill="#000000" stroke="none">
<path d="M0 475 c0 -52 3 -95 8 -95 9 0 62 148 62 173 0 13 -8 17 -35 17 l-35
0 0 -95z"/>
<path d="M131 555 c-1 -11 -4 -31 -6 -45 l-6 -25 11 25 c6 13 9 33 7 45 -4 19
-4 19 -6 0z"/>
<path d="M200 546 c0 -36 -86 -289 -130 -384 -24 -51 -45 -82 -54 -82 -12 0
-16 -10 -16 -40 l0 -40 510 0 510 0 0 285 0 285 -410 0 -410 0 0 -24z"/>
<path d="M83 399 c-16 -38 -30 -53 -52 -62 -30 -11 -31 -13 -31 -79 0 -37 4
-68 9 -68 9 0 83 178 96 233 11 42 1 32 -22 -24z"/>
</g>
</svg>
