<?xml version="1.0" standalone="no"?>
<!DOCTYPE svg PUBLIC "-//W3C//DTD SVG 20010904//EN"
 "http://www.w3.org/TR/2001/REC-SVG-20010904/DTD/svg10.dtd">
<svg version="1.0" xmlns="http://www.w3.org/2000/svg"
 width="19.000000pt" height="43.000000pt" viewBox="0 0 19.000000 43.000000"
 preserveAspectRatio="xMidYMid meet">
<metadata>
Created by potrace 1.16, written by Peter Selinger 2001-2019
</metadata>
<g transform="translate(0.000000,43.000000) scale(0.100000,-0.100000)"
fill="#000000" stroke="none">
<path d="M0 215 l0 -215 30 0 c29 0 30 2 30 45 0 26 6 58 14 74 16 30 90 101
106 101 6 0 10 9 10 20 0 17 -3 19 -19 10 -32 -17 -79 -12 -91 9 -15 28 -12
86 5 128 8 19 15 37 15 39 0 2 -22 4 -50 4 l-50 0 0 -215z"/>
<path d="M141 372 c-5 -9 -12 -35 -16 -57 l-7 -40 36 34 c38 37 46 65 20 75
-22 8 -22 8 -33 -12z"/>
<path d="M153 121 c-29 -24 -33 -34 -33 -74 l0 -47 35 0 35 0 0 75 c0 41 -1
75 -2 75 -2 -1 -18 -13 -35 -29z"/>
</g>
</svg>
