<?xml version="1.0" standalone="no"?>
<!DOCTYPE svg PUBLIC "-//W3C//DTD SVG 20010904//EN"
 "http://www.w3.org/TR/2001/REC-SVG-20010904/DTD/svg10.dtd">
<svg version="1.0" xmlns="http://www.w3.org/2000/svg"
 width="27.000000pt" height="50.000000pt" viewBox="0 0 27.000000 50.000000"
 preserveAspectRatio="xMidYMid meet">
<metadata>
Created by potrace 1.16, written by Peter Selinger 2001-2019
</metadata>
<g transform="translate(0.000000,50.000000) scale(0.100000,-0.100000)"
fill="#000000" stroke="none">
<path d="M0 490 c0 -5 6 -10 14 -10 14 0 26 -42 26 -93 l0 -30 30 41 c16 22
43 51 60 63 16 13 30 26 30 31 0 4 -36 8 -80 8 -47 0 -80 -4 -80 -10z"/>
<path d="M207 472 c-3 -16 -32 -53 -72 -91 -61 -59 -68 -63 -100 -57 l-35 7 0
-166 c0 -96 4 -165 9 -165 6 0 12 21 16 48 23 189 46 251 121 329 39 41 46 45
83 41 l41 -4 0 43 c0 41 -2 43 -29 43 -23 0 -30 -5 -34 -28z"/>
<path d="M172 314 c-53 -71 -78 -140 -85 -236 l-7 -78 95 0 95 0 0 163 c0 131
-3 167 -16 185 -8 12 -21 22 -28 22 -7 0 -31 -25 -54 -56z"/>
</g>
</svg>
