<?xml version="1.0" standalone="no"?>
<!DOCTYPE svg PUBLIC "-//W3C//DTD SVG 20010904//EN"
 "http://www.w3.org/TR/2001/REC-SVG-20010904/DTD/svg10.dtd">
<svg version="1.0" xmlns="http://www.w3.org/2000/svg"
 width="35.000000pt" height="43.000000pt" viewBox="0 0 35.000000 43.000000"
 preserveAspectRatio="xMidYMid meet">
<metadata>
Created by potrace 1.16, written by Peter Selinger 2001-2019
</metadata>
<g transform="translate(0.000000,43.000000) scale(0.100000,-0.100000)"
fill="#000000" stroke="none">
<path d="M0 315 c0 -63 2 -115 6 -115 3 0 29 26 59 58 71 77 140 112 223 112
l62 0 0 30 0 30 -175 0 -175 0 0 -115z"/>
<path d="M203 289 c-23 -11 -68 -47 -101 -80 -35 -34 -69 -59 -81 -59 -19 0
-21 -6 -21 -75 0 -77 13 -100 24 -42 10 53 50 129 95 179 68 76 146 103 214
73 12 -5 17 -3 17 9 0 24 -94 22 -147 -5z"/>
<path d="M254 239 c-59 -16 -173 -161 -174 -221 0 -16 13 -18 135 -18 l135 0
0 63 c0 76 -24 163 -48 175 -9 5 -31 5 -48 1z"/>
</g>
</svg>
