<?xml version="1.0" standalone="no"?>
<!DOCTYPE svg PUBLIC "-//W3C//DTD SVG 20010904//EN"
 "http://www.w3.org/TR/2001/REC-SVG-20010904/DTD/svg10.dtd">
<svg version="1.0" xmlns="http://www.w3.org/2000/svg"
 width="19.000000pt" height="31.000000pt" viewBox="0 0 19.000000 31.000000"
 preserveAspectRatio="xMidYMid meet">
<metadata>
Created by potrace 1.16, written by Peter Selinger 2001-2019
</metadata>
<g transform="translate(0.000000,31.000000) scale(0.100000,-0.100000)"
fill="#000000" stroke="none">
<path d="M0 225 l0 -85 32 0 c17 0 60 5 95 11 l63 11 0 59 0 59 -80 0 c-64 0
-80 3 -80 15 0 8 -7 15 -15 15 -12 0 -15 -16 -15 -85z"/>
<path d="M70 85 c-74 -12 -74 -13 -24 -14 67 -1 144 9 144 20 0 11 -23 10
-120 -6z"/>
<path d="M55 10 c-55 -6 -53 -7 38 -8 59 -1 97 2 97 8 0 11 -38 11 -135 0z"/>
</g>
</svg>
