<?xml version="1.0" standalone="no"?>
<!DOCTYPE svg PUBLIC "-//W3C//DTD SVG 20010904//EN"
 "http://www.w3.org/TR/2001/REC-SVG-20010904/DTD/svg10.dtd">
<svg version="1.0" xmlns="http://www.w3.org/2000/svg"
 width="76.000000pt" height="50.000000pt" viewBox="0 0 76.000000 50.000000"
 preserveAspectRatio="xMidYMid meet">
<metadata>
Created by potrace 1.16, written by Peter Selinger 2001-2019
</metadata>
<g transform="translate(0.000000,50.000000) scale(0.100000,-0.100000)"
fill="#000000" stroke="none">
<path d="M0 341 l0 -160 34 6 c42 7 76 -23 76 -66 0 -33 -57 -91 -90 -91 -11
0 -20 -7 -20 -15 0 -13 49 -15 380 -15 l380 0 0 250 0 250 -380 0 -380 0 0
-159z"/>
<path d="M0 110 c0 -11 4 -20 9 -20 13 0 32 26 24 33 -13 14 -33 6 -33 -13z"/>
</g>
</svg>
