<?xml version="1.0" standalone="no"?>
<!DOCTYPE svg PUBLIC "-//W3C//DTD SVG 20010904//EN"
 "http://www.w3.org/TR/2001/REC-SVG-20010904/DTD/svg10.dtd">
<svg version="1.0" xmlns="http://www.w3.org/2000/svg"
 width="29.000000pt" height="12.000000pt" viewBox="0 0 29.000000 12.000000"
 preserveAspectRatio="xMidYMid meet">
<metadata>
Created by potrace 1.16, written by Peter Selinger 2001-2019
</metadata>
<g transform="translate(0.000000,12.000000) scale(0.100000,-0.100000)"
fill="#000000" stroke="none">
<path d="M0 60 l0 -60 145 0 145 0 0 60 0 60 -75 0 c-74 0 -75 0 -75 -26 0
-23 -3 -25 -37 -22 -28 2 -41 9 -48 26 -6 13 -18 22 -32 22 -21 0 -23 -4 -23
-60z"/>
<path d="M90 110 c0 -5 5 -10 10 -10 6 0 10 5 10 10 0 6 -4 10 -10 10 -5 0
-10 -4 -10 -10z"/>
</g>
</svg>
