<?xml version="1.0" standalone="no"?>
<!DOCTYPE svg PUBLIC "-//W3C//DTD SVG 20010904//EN"
 "http://www.w3.org/TR/2001/REC-SVG-20010904/DTD/svg10.dtd">
<svg version="1.0" xmlns="http://www.w3.org/2000/svg"
 width="46.000000pt" height="75.000000pt" viewBox="0 0 46.000000 75.000000"
 preserveAspectRatio="xMidYMid meet">
<metadata>
Created by potrace 1.16, written by Peter Selinger 2001-2019
</metadata>
<g transform="translate(0.000000,75.000000) scale(0.100000,-0.100000)"
fill="#000000" stroke="none">
<path d="M0 420 c0 -213 4 -330 10 -330 6 0 10 8 10 18 1 29 70 95 173 164
l39 26 2 92 c1 83 4 94 25 111 31 26 57 24 86 -6 20 -19 25 -34 25 -76 l0 -51
31 6 c17 3 38 6 45 6 11 0 14 35 14 185 l0 185 -79 0 -80 0 5 -32 c3 -18 1
-45 -5 -60 -9 -23 -17 -28 -44 -28 -49 0 -71 28 -63 80 l6 40 -100 0 -100 0 0
-330z"/>
<path d="M290 363 c-1 -38 -6 -78 -13 -90 -7 -12 -50 -51 -97 -86 -102 -78
-114 -95 -105 -148 9 -54 25 -49 25 7 0 43 4 51 49 95 55 56 94 64 127 28 20
-22 26 -90 11 -142 -4 -15 -3 -27 1 -27 12 0 22 75 22 157 0 93 16 118 93 142
l62 20 -56 0 c-69 1 -89 15 -96 69 -9 65 -23 50 -23 -25z"/>
<path d="M403 239 c-33 -9 -33 -10 -33 -72 0 -34 -3 -86 -6 -114 l-7 -53 52 0
51 0 0 125 c0 135 2 131 -57 114z"/>
<path d="M193 104 c-42 -41 -51 -66 -34 -92 14 -22 54 -10 69 21 7 15 12 46
10 70 l-3 42 -42 -41z"/>
<path d="M0 25 c0 -14 5 -25 10 -25 6 0 10 11 10 25 0 14 -4 25 -10 25 -5 0
-10 -11 -10 -25z"/>
</g>
</svg>
