<?xml version="1.0" standalone="no"?>
<!DOCTYPE svg PUBLIC "-//W3C//DTD SVG 20010904//EN"
 "http://www.w3.org/TR/2001/REC-SVG-20010904/DTD/svg10.dtd">
<svg version="1.0" xmlns="http://www.w3.org/2000/svg"
 width="46.000000pt" height="10.000000pt" viewBox="0 0 46.000000 10.000000"
 preserveAspectRatio="xMidYMid meet">
<metadata>
Created by potrace 1.16, written by Peter Selinger 2001-2019
</metadata>
<g transform="translate(0.000000,10.000000) scale(0.100000,-0.100000)"
fill="#000000" stroke="none">
<path d="M80 85 c0 -10 -14 -17 -40 -21 -36 -6 -40 -10 -40 -35 l0 -29 116 0
115 0 -20 26 c-12 15 -21 37 -21 50 0 22 -4 24 -55 24 -42 0 -55 -4 -55 -15z"/>
<path d="M250 88 c0 -7 16 -30 35 -50 41 -44 75 -49 98 -15 9 13 29 30 46 37
17 7 31 19 31 26 0 11 -22 14 -105 14 -77 0 -105 -3 -105 -12z"/>
</g>
</svg>
