<?xml version="1.0" standalone="no"?>
<!DOCTYPE svg PUBLIC "-//W3C//DTD SVG 20010904//EN"
 "http://www.w3.org/TR/2001/REC-SVG-20010904/DTD/svg10.dtd">
<svg version="1.0" xmlns="http://www.w3.org/2000/svg"
 width="35.000000pt" height="13.000000pt" viewBox="0 0 35.000000 13.000000"
 preserveAspectRatio="xMidYMid meet">
<metadata>
Created by potrace 1.16, written by Peter Selinger 2001-2019
</metadata>
<g transform="translate(0.000000,13.000000) scale(0.100000,-0.100000)"
fill="#000000" stroke="none">
<path d="M0 65 l0 -65 63 0 63 0 27 55 c15 31 27 60 27 65 0 6 -38 10 -90 10
l-90 0 0 -65z"/>
<path d="M226 78 c-9 -29 -20 -60 -22 -68 -3 -8 4 2 16 22 24 44 46 58 94 58
29 0 36 4 36 20 0 17 -7 20 -53 20 l-53 0 -18 -52z"/>
<path d="M280 20 c-10 -18 -8 -20 30 -20 33 0 40 3 40 20 0 16 -7 20 -30 20
-19 0 -33 -7 -40 -20z"/>
</g>
</svg>
