<?xml version="1.0" standalone="no"?>
<!DOCTYPE svg PUBLIC "-//W3C//DTD SVG 20010904//EN"
 "http://www.w3.org/TR/2001/REC-SVG-20010904/DTD/svg10.dtd">
<svg version="1.0" xmlns="http://www.w3.org/2000/svg"
 width="28.000000pt" height="75.000000pt" viewBox="0 0 28.000000 75.000000"
 preserveAspectRatio="xMidYMid meet">
<metadata>
Created by potrace 1.16, written by Peter Selinger 2001-2019
</metadata>
<g transform="translate(0.000000,75.000000) scale(0.100000,-0.100000)"
fill="#000000" stroke="none">
<path d="M205 661 c-99 -25 -157 -97 -159 -196 -1 -76 38 -138 101 -159 25 -9
66 -16 90 -16 41 0 43 2 43 29 0 27 -2 29 -56 33 -62 5 -98 32 -113 84 -11 40
9 101 44 131 28 25 100 48 116 37 7 -4 9 6 7 27 -3 37 -19 43 -73 30z"/>
<path d="M213 579 c-47 -14 -83 -62 -83 -113 0 -53 21 -83 67 -95 54 -15 83
-5 83 29 0 27 -2 28 -35 23 -63 -10 -86 37 -40 82 13 14 36 25 50 25 21 0 25
5 25 30 0 33 -10 36 -67 19z"/>
<path d="M252 176 c-26 -34 -44 -96 -40 -139 2 -26 8 -33 30 -35 26 -3 26 -3
33 81 4 46 5 92 3 103 -3 16 -6 15 -26 -10z"/>
</g>
</svg>
