<?xml version="1.0" standalone="no"?>
<!DOCTYPE svg PUBLIC "-//W3C//DTD SVG 20010904//EN"
 "http://www.w3.org/TR/2001/REC-SVG-20010904/DTD/svg10.dtd">
<svg version="1.0" xmlns="http://www.w3.org/2000/svg"
 width="95.000000pt" height="24.000000pt" viewBox="0 0 95.000000 24.000000"
 preserveAspectRatio="xMidYMid meet">
<metadata>
Created by potrace 1.16, written by Peter Selinger 2001-2019
</metadata>
<g transform="translate(0.000000,24.000000) scale(0.100000,-0.100000)"
fill="#000000" stroke="none">
<path d="M113 131 c-25 -11 -45 -39 -68 -93 l-15 -38 34 0 c28 0 36 5 46 30 7
17 21 35 31 40 21 12 96 12 124 0 12 -4 -5 -6 -42 -3 -56 5 -63 3 -87 -20 -14
-14 -26 -31 -26 -37 0 -14 46 -13 69 2 15 9 25 9 46 0 14 -7 44 -12 65 -12 69
0 94 72 39 113 -20 14 -47 20 -110 23 -46 2 -94 0 -106 -5z"/>
</g>
</svg>
