<?xml version="1.0" standalone="no"?>
<!DOCTYPE svg PUBLIC "-//W3C//DTD SVG 20010904//EN"
 "http://www.w3.org/TR/2001/REC-SVG-20010904/DTD/svg10.dtd">
<svg version="1.0" xmlns="http://www.w3.org/2000/svg"
 width="19.000000pt" height="35.000000pt" viewBox="0 0 19.000000 35.000000"
 preserveAspectRatio="xMidYMid meet">
<metadata>
Created by potrace 1.16, written by Peter Selinger 2001-2019
</metadata>
<g transform="translate(0.000000,35.000000) scale(0.100000,-0.100000)"
fill="#000000" stroke="none">
<path d="M23 225 c-1 -67 1 -75 18 -75 15 0 19 7 19 40 0 29 4 40 15 40 11 0
15 -11 15 -40 0 -33 3 -40 20 -40 17 0 20 7 20 49 0 54 -17 77 -50 68 -15 -4
-20 0 -20 14 0 12 -7 19 -18 19 -15 0 -18 -10 -19 -75z"/>
</g>
</svg>
