<?xml version="1.0" standalone="no"?>
<!DOCTYPE svg PUBLIC "-//W3C//DTD SVG 20010904//EN"
 "http://www.w3.org/TR/2001/REC-SVG-20010904/DTD/svg10.dtd">
<svg version="1.0" xmlns="http://www.w3.org/2000/svg"
 width="16.000000pt" height="48.000000pt" viewBox="0 0 16.000000 48.000000"
 preserveAspectRatio="xMidYMid meet">
<metadata>
Created by potrace 1.16, written by Peter Selinger 2001-2019
</metadata>
<g transform="translate(0.000000,48.000000) scale(0.100000,-0.100000)"
fill="#000000" stroke="none">
<path d="M40 457 c0 -26 16 -49 45 -66 16 -9 9 -10 -33 -5 -51 6 -52 6 -52
-19 0 -31 39 -47 111 -47 l49 0 0 54 c0 53 -1 55 -31 61 -19 4 -33 15 -36 26
-3 12 -14 19 -29 19 -18 0 -24 -5 -24 -23z"/>
</g>
</svg>
