<?xml version="1.0" standalone="no"?>
<!DOCTYPE svg PUBLIC "-//W3C//DTD SVG 20010904//EN"
 "http://www.w3.org/TR/2001/REC-SVG-20010904/DTD/svg10.dtd">
<svg version="1.0" xmlns="http://www.w3.org/2000/svg"
 width="32.000000pt" height="12.000000pt" viewBox="0 0 32.000000 12.000000"
 preserveAspectRatio="xMidYMid meet">
<metadata>
Created by potrace 1.16, written by Peter Selinger 2001-2019
</metadata>
<g transform="translate(0.000000,12.000000) scale(0.100000,-0.100000)"
fill="#000000" stroke="none">
<path d="M176 98 c-19 -94 -19 -98 12 -98 25 0 30 5 36 31 3 17 6 44 6 60 0
24 -4 29 -25 29 -18 0 -26 -6 -29 -22z"/>
<path d="M270 91 c0 -16 -3 -43 -6 -60 -6 -29 -5 -31 25 -31 l31 0 0 60 c0 57
-1 60 -25 60 -21 0 -25 -5 -25 -29z"/>
</g>
</svg>
