<?xml version="1.0" standalone="no"?>
<!DOCTYPE svg PUBLIC "-//W3C//DTD SVG 20010904//EN"
 "http://www.w3.org/TR/2001/REC-SVG-20010904/DTD/svg10.dtd">
<svg version="1.0" xmlns="http://www.w3.org/2000/svg"
 width="82.000000pt" height="35.000000pt" viewBox="0 0 82.000000 35.000000"
 preserveAspectRatio="xMidYMid meet">
<metadata>
Created by potrace 1.16, written by Peter Selinger 2001-2019
</metadata>
<g transform="translate(0.000000,35.000000) scale(0.100000,-0.100000)"
fill="#000000" stroke="none">
<path d="M48 213 c-40 -13 -48 -20 -48 -41 0 -22 3 -24 38 -18 20 4 76 9 123
12 80 6 88 5 109 -16 20 -20 21 -28 15 -87 l-7 -64 28 3 c24 2 30 9 37 43 13
64 3 124 -27 154 -25 24 -33 26 -124 28 -69 2 -111 -2 -144 -14z"/>
<path d="M118 132 c-50 -24 -118 -88 -118 -112 0 -34 51 -27 79 11 23 31 98
72 114 62 9 -5 5 -41 -9 -76 -6 -16 -2 -18 27 -15 33 3 34 4 37 54 3 46 0 54
-24 73 -32 25 -57 26 -106 3z"/>
</g>
</svg>
