<?xml version="1.0" standalone="no"?>
<!DOCTYPE svg PUBLIC "-//W3C//DTD SVG 20010904//EN"
 "http://www.w3.org/TR/2001/REC-SVG-20010904/DTD/svg10.dtd">
<svg version="1.0" xmlns="http://www.w3.org/2000/svg"
 width="38.000000pt" height="35.000000pt" viewBox="0 0 38.000000 35.000000"
 preserveAspectRatio="xMidYMid meet">
<metadata>
Created by potrace 1.16, written by Peter Selinger 2001-2019
</metadata>
<g transform="translate(0.000000,35.000000) scale(0.100000,-0.100000)"
fill="#000000" stroke="none">
<path d="M193 189 c-50 -24 -65 -45 -87 -121 -20 -71 -21 -68 14 -68 27 0 31
4 41 45 12 49 49 92 86 102 14 3 49 3 79 0 54 -6 54 -5 54 23 0 20 -6 29 -22
34 -48 12 -123 6 -165 -15z"/>
<path d="M243 110 c-25 -10 -49 -43 -58 -82 -7 -26 -5 -28 24 -28 21 0 31 5
31 15 0 8 9 24 19 34 17 17 26 18 53 11 18 -6 41 -19 51 -31 17 -21 17 -20 17
24 0 42 -2 46 -31 56 -37 13 -75 13 -106 1z"/>
</g>
</svg>
