<?xml version="1.0" standalone="no"?>
<!DOCTYPE svg PUBLIC "-//W3C//DTD SVG 20010904//EN"
 "http://www.w3.org/TR/2001/REC-SVG-20010904/DTD/svg10.dtd">
<svg version="1.0" xmlns="http://www.w3.org/2000/svg"
 width="1221.000000pt" height="1830.000000pt" viewBox="0 0 1221.000000 1830.000000"
 preserveAspectRatio="xMidYMid meet">
<metadata>
Created by potrace 1.16, written by Peter Selinger 2001-2019
</metadata>
<g transform="translate(0.000000,1830.000000) scale(0.100000,-0.100000)"
fill="#000000" stroke="none">
<path d="M12200 10170 l0 -8130 -2032 0 -2033 0 3 -1015 2 -1015 -4072 -3
c-3263 -2 -2858 -3 2035 -5 l6107 -2 0 9150 c0 5033 -2 9150 -5 9150 -3 0 -5
-3658 -5 -8130z"/>
<path d="M5078 18272 l-988 -2 0 -990 0 -990 990 2 990 3 0 989 c0 544 -1 990
-2 990 -2 1 -447 0 -990 -2z m-858 -127 c17 -20 4 -32 -19 -18 -14 9 -21 9
-30 0 -26 -26 -1 -63 30 -44 23 14 36 2 19 -18 -15 -18 -51 -20 -68 -3 -7 7
-12 26 -12 43 0 17 5 36 12 43 17 17 53 15 68 -3z m841 -371 c193 -67 241
-104 208 -162 -25 -45 -67 -46 -203 -6 -65 20 -143 38 -172 41 -52 6 -55 5
-89 -33 -53 -58 -104 -150 -121 -218 -8 -34 -18 -115 -21 -182 -5 -103 -3
-124 11 -146 35 -53 113 -74 389 -103 31 -4 64 -13 72 -21 13 -14 15 -13 15 2
0 27 30 54 59 54 43 0 71 -26 71 -66 0 -29 -8 -43 -46 -77 -53 -49 -67 -55
-114 -56 -51 -1 -405 73 -472 98 -73 28 -114 74 -124 137 -9 60 1 289 16 369
14 77 77 203 140 281 36 46 65 70 111 93 85 42 137 41 270 -5z"/>
<path d="M4811 17734 c-86 -43 -182 -182 -218 -315 -13 -48 -17 -107 -17 -236
-1 -168 0 -172 23 -197 35 -37 112 -63 309 -101 213 -42 229 -43 275 -7 41 31
52 51 38 65 -7 7 -19 1 -36 -17 -20 -22 -32 -27 -53 -22 -15 3 -101 15 -191
26 -214 27 -283 57 -317 137 -31 73 -5 322 45 428 32 68 97 158 132 183 37 26
127 19 267 -21 121 -35 152 -37 152 -12 0 14 -86 55 -192 91 -94 32 -150 31
-217 -2z"/>
<path d="M7108 18272 l-988 -2 0 -990 0 -990 990 2 990 3 0 989 c0 544 -1 990
-2 990 -2 1 -447 0 -990 -2z m-848 -152 l0 -70 -33 0 c-41 0 -57 15 -57 55 0
37 16 55 47 55 14 0 23 6 23 15 0 8 5 15 10 15 6 0 10 -30 10 -70z m1022 33
c27 -31 29 -57 13 -249 -35 -412 -40 -807 -11 -892 10 -29 24 -56 32 -59 8 -3
31 6 52 19 55 36 70 39 102 23 37 -19 48 -59 27 -94 -11 -19 -36 -33 -93 -53
-154 -53 -202 -32 -249 107 -5 16 -9 12 -22 -25 -8 -25 -26 -57 -40 -71 -54
-58 -286 -137 -363 -124 -155 26 -370 224 -370 339 1 97 59 241 133 328 46 53
161 132 265 181 94 44 237 49 334 12 14 -6 17 5 23 72 25 295 50 454 76 482
24 26 70 27 91 4z"/>
<path d="M6200 18124 c-10 -11 -11 -20 -3 -32 17 -27 38 -20 38 12 0 34 -16
44 -35 20z"/>
<path d="M7220 18101 c-11 -21 -44 -272 -55 -416 -4 -53 -13 -100 -22 -114
-14 -22 -19 -23 -67 -15 -28 5 -96 8 -151 8 -94 1 -104 -2 -165 -33 -197 -101
-282 -190 -329 -345 -29 -93 -27 -133 7 -187 62 -95 200 -196 294 -214 44 -8
149 17 238 57 79 35 95 50 120 105 33 75 83 72 120 -7 26 -55 44 -70 83 -70
37 0 123 28 149 49 21 18 22 20 5 27 -12 4 -33 -1 -57 -15 -80 -45 -122 -26
-151 69 -33 110 -31 416 6 883 9 114 14 215 11 222 -8 21 -23 19 -36 -4z
m-229 -585 c78 -17 143 -48 154 -73 14 -31 18 -258 6 -281 -6 -11 -24 -23 -40
-27 -31 -7 -41 -25 -81 -148 -28 -88 -116 -144 -240 -154 -62 -5 -75 -3 -126
22 -80 39 -179 138 -194 195 -25 95 13 199 113 306 65 70 204 150 285 164 26
4 49 8 52 9 3 0 35 -6 71 -13z"/>
<path d="M6842 17466 c-23 -8 -73 -32 -110 -54 -165 -99 -260 -269 -207 -371
18 -36 108 -117 157 -142 71 -36 210 -15 266 40 19 19 36 55 52 108 28 97 52
133 88 133 l27 0 -3 123 -3 122 -57 24 c-70 29 -153 35 -210 17z"/>
<path d="M8154 18271 c-2 -2 -4 -449 -4 -993 l0 -988 993 0 992 0 -2 990 -3
990 -986 3 c-542 1 -988 0 -990 -2z m124 -123 c7 -7 12 -20 12 -30 0 -14 -8
-18 -37 -18 -35 0 -36 -1 -21 -17 14 -14 20 -14 33 -3 18 15 30 7 22 -15 -8
-18 -58 -20 -75 -3 -16 16 -15 65 1 83 15 18 49 19 65 3z m1139 -195 c111 -51
339 -305 457 -509 62 -106 61 -138 -4 -174 -40 -22 -56 -25 -135 -23 -49 1
-143 9 -208 17 -125 17 -261 20 -419 9 l-96 -6 -12 -61 c-6 -34 -13 -109 -17
-167 -11 -202 26 -232 208 -163 53 20 78 37 117 79 28 31 58 55 70 55 32 0 72
-38 72 -68 0 -132 -98 -188 -345 -198 -145 -6 -178 3 -219 59 -20 27 -21 42
-21 253 0 207 -1 224 -17 224 -27 0 -58 37 -58 68 0 40 33 72 74 72 34 0 34 0
61 88 54 176 147 326 254 411 74 59 158 71 238 34z"/>
<path d="M8230 18130 c0 -5 9 -10 20 -10 11 0 20 5 20 10 0 6 -9 10 -20 10
-11 0 -20 -4 -20 -10z"/>
<path d="M9284 17921 c-111 -27 -249 -216 -314 -428 -27 -89 -38 -104 -85
-118 -49 -13 -54 -30 -16 -50 17 -8 34 -23 39 -33 5 -9 5 -82 1 -162 -4 -80
-5 -176 -2 -215 5 -60 11 -74 35 -99 l29 -29 132 6 c201 8 281 41 294 120 8
52 -14 49 -74 -11 -58 -57 -140 -92 -235 -99 -52 -4 -73 -2 -93 11 -60 40 -76
143 -51 331 24 175 16 168 217 178 160 8 198 6 501 -24 105 -11 121 -10 162 5
31 12 46 24 46 35 0 24 -85 164 -157 259 -32 42 -101 120 -153 173 -130 130
-199 168 -276 150z m104 -63 c67 -32 188 -159 275 -288 79 -118 91 -154 61
-184 -13 -14 -58 -16 -339 -16 -226 0 -332 4 -350 12 -38 17 -41 49 -10 136
68 195 204 360 299 362 11 0 40 -10 64 -22z"/>
<path d="M9274 17811 c-70 -43 -152 -167 -204 -310 l-30 -80 331 -3 c182 -2
333 0 335 4 2 4 0 9 -5 13 -5 3 -40 51 -78 107 -78 118 -164 214 -230 258 -54
35 -76 37 -119 11z"/>
<path d="M10184 18271 c-2 -2 -4 -449 -4 -993 l0 -988 993 0 992 0 0 990 0
990 -988 2 c-544 2 -991 1 -993 -1z m106 -75 c0 -8 -5 -18 -10 -21 -8 -5 -8
-11 0 -20 8 -9 8 -15 0 -20 -5 -3 -10 -24 -10 -46 0 -21 -4 -39 -10 -39 -9 0
-15 68 -10 115 4 36 40 63 40 31z m1047 -225 c79 -42 188 -132 209 -172 22
-44 11 -90 -31 -127 -38 -34 -145 -70 -290 -98 -49 -9 -93 -22 -97 -28 -4 -6
-10 -36 -13 -66 -3 -30 -8 -70 -11 -87 l-5 -33 74 0 c48 0 85 6 106 16 31 16
34 15 59 -3 30 -22 40 -69 23 -101 -12 -22 -68 -38 -172 -48 l-66 -6 1 -142
c1 -132 -1 -144 -25 -197 -33 -69 -63 -91 -179 -129 -83 -28 -93 -29 -118 -16
-78 40 -147 245 -99 293 21 21 82 22 103 2 8 -9 19 -43 24 -77 4 -34 11 -66
15 -72 17 -27 102 7 126 51 13 26 16 114 5 212 l-8 67 -78 0 c-43 0 -90 4
-103 9 -32 12 -53 62 -38 90 17 32 47 43 131 48 l78 6 6 66 c4 36 9 76 13 89
4 18 1 22 -20 22 -32 0 -64 28 -73 62 -8 36 31 75 84 84 39 6 39 6 50 68 20
103 51 194 79 227 26 31 28 31 103 27 61 -4 87 -11 137 -37z"/>
<path d="M11126 17938 c-15 -24 -66 -189 -66 -215 0 -37 -30 -70 -75 -83 -54
-15 -63 -44 -16 -53 45 -9 54 -36 46 -138 -10 -121 -18 -130 -123 -139 -89 -8
-98 -11 -89 -35 5 -11 22 -15 76 -15 81 0 115 -11 132 -41 6 -12 13 -79 16
-148 4 -108 2 -131 -14 -161 -26 -50 -76 -80 -133 -80 -59 0 -80 21 -95 98 -8
37 -17 58 -27 60 -24 5 -27 -18 -11 -78 20 -79 56 -130 92 -130 44 0 163 48
188 76 41 45 57 125 50 252 -6 109 -5 115 16 136 18 18 39 24 101 30 88 8 126
20 126 39 0 11 -22 13 -110 9 -136 -6 -150 2 -150 83 0 76 18 157 39 178 12
12 59 27 132 42 150 30 237 62 263 98 19 26 19 30 6 55 -21 37 -123 117 -194
152 -77 39 -158 42 -180 8z m187 -60 c83 -43 117 -76 117 -114 0 -50 -57 -75
-201 -90 -82 -8 -94 4 -110 109 -13 89 -8 119 23 135 34 17 84 5 171 -40z"/>
<path d="M11156 17871 c-3 -4 -1 -23 4 -42 6 -19 10 -53 10 -77 0 -37 3 -43
18 -38 9 3 51 11 92 17 41 6 83 16 93 21 18 9 18 11 -5 35 -27 29 -155 93
-186 93 -11 0 -23 -4 -26 -9z"/>
<path d="M30 17280 l0 -990 990 0 990 0 0 990 0 990 -990 0 -990 0 0 -990z
m118 823 l3 -53 -35 0 c-33 0 -36 2 -36 29 0 22 6 30 25 35 14 4 25 11 25 16
0 14 -13 13 -28 -2 -15 -15 -24 -6 -16 16 4 11 15 16 33 14 24 -3 26 -7 29
-55z m784 -274 c40 -6 82 -21 103 -34 32 -22 36 -23 64 -9 23 11 35 12 51 4
25 -13 50 -61 50 -95 0 -14 7 -40 16 -57 21 -40 15 -133 -17 -266 -27 -114
-19 -151 42 -207 49 -44 76 -43 104 3 42 70 70 95 105 95 36 0 70 -31 70 -65
0 -47 -74 -148 -135 -183 -88 -51 -147 -41 -226 38 l-46 46 -28 -72 c-32 -80
-78 -132 -169 -186 -84 -50 -130 -62 -232 -63 -137 0 -184 31 -231 152 -40
105 -5 509 60 682 45 118 129 210 209 228 38 8 115 4 210 -11z"/>
<path d="M106 18094 c-9 -22 -8 -24 9 -24 8 0 15 9 15 20 0 24 -15 27 -24 4z"/>
<path d="M722 17789 c-45 -13 -115 -87 -147 -155 -45 -95 -95 -379 -95 -537 0
-129 42 -233 105 -259 17 -7 66 -13 112 -12 71 0 90 5 145 32 111 56 153 94
188 169 45 99 44 98 79 101 25 3 41 -5 83 -42 66 -57 95 -64 153 -36 58 28
135 125 120 150 -13 22 -37 8 -66 -40 -36 -59 -53 -70 -108 -70 -33 0 -49 7
-80 35 -75 68 -88 143 -51 297 24 99 25 153 6 216 -8 26 -17 60 -21 75 -5 27
-8 28 -47 22 -32 -6 -50 -2 -92 19 -32 16 -82 29 -136 36 -97 12 -103 12 -148
-1z m123 -40 c60 -11 227 -80 256 -106 31 -27 29 -76 -11 -294 -14 -76 -66
-232 -100 -299 -37 -72 -69 -101 -163 -146 -72 -34 -83 -36 -144 -31 -74 6
-108 25 -136 78 -16 30 -18 52 -13 179 9 255 64 503 128 576 44 50 88 61 183
43z"/>
<path d="M714 17692 c-60 -48 -107 -232 -134 -521 -14 -149 -2 -214 41 -237
54 -27 116 -21 201 20 63 30 82 45 107 84 47 74 108 270 131 423 21 140 21
159 -5 159 -9 0 -41 13 -73 29 -117 59 -227 77 -268 43z"/>
<path d="M2060 17280 l0 -990 990 0 990 0 0 990 0 990 -990 0 -990 0 0 -990z
m90 891 c0 -14 5 -18 20 -14 40 11 67 -61 35 -93 -9 -9 -28 -14 -46 -12 -30 3
-30 3 -33 71 -1 50 1 67 11 67 7 0 13 -9 13 -19z m757 -63 c12 -13 26 -41 32
-63 14 -50 14 -303 1 -499 -6 -82 -9 -151 -6 -153 2 -2 46 17 97 43 168 84
220 94 354 64 151 -34 242 -78 275 -133 33 -53 23 -213 -18 -292 -27 -53 -123
-144 -219 -206 -176 -114 -232 -128 -438 -111 -74 7 -124 7 -129 1 -16 -15
-51 -10 -77 9 -13 11 -58 24 -100 31 -161 25 -232 58 -265 124 -42 80 71 141
123 67 14 -20 82 -43 161 -55 l42 -7 0 334 c0 309 11 585 26 665 4 23 3 33 -7
33 -22 0 -49 32 -49 59 1 38 23 62 83 88 66 28 88 28 114 1z"/>
<path d="M2154 18126 c-9 -23 0 -51 16 -51 10 0 15 10 15 29 0 32 -21 47 -31
22z"/>
<path d="M2823 18067 c-18 -7 -40 -20 -50 -30 -17 -17 -17 -18 11 -40 l29 -23
-11 -190 c-7 -104 -13 -319 -14 -479 -2 -313 -7 -392 -29 -406 -16 -12 -118
-5 -170 11 -20 5 -53 21 -73 35 -44 30 -56 31 -56 6 0 -39 61 -71 177 -93 59
-11 124 -27 143 -35 25 -10 91 -14 230 -16 194 -2 195 -2 254 26 90 42 218
131 279 196 65 68 87 127 87 234 0 67 -1 71 -35 103 -40 37 -142 74 -263 94
-91 15 -126 7 -268 -60 -173 -83 -189 -72 -174 121 14 182 13 498 -3 528 -15
30 -24 32 -64 18z m565 -663 c141 -29 192 -77 192 -183 0 -101 -49 -165 -205
-271 -140 -95 -141 -95 -310 -95 -169 0 -198 5 -220 39 -14 21 -13 38 4 175
11 84 26 159 32 168 24 28 207 153 245 167 52 20 168 19 262 0z"/>
<path d="M3173 17370 c-35 -8 -56 -20 -176 -103 l-84 -59 -12 -111 c-7 -62
-16 -129 -20 -149 l-9 -37 77 -7 c147 -15 231 -10 281 15 156 81 281 189 299
259 14 49 1 109 -27 135 -38 35 -257 73 -329 57z"/>
<path d="M3048 16243 l-988 -3 0 -990 0 -990 990 0 990 0 0 995 c0 547 -1 994
-2 993 -2 -2 -447 -4 -990 -5z m-898 -104 c0 -16 4 -19 20 -14 32 10 50 -12
50 -61 0 -32 -4 -44 -14 -44 -10 0 -16 14 -18 43 -2 29 -8 42 -18 42 -10 0
-16 -13 -18 -42 -2 -26 -8 -43 -16 -43 -8 0 -12 20 -12 70 1 49 5 70 14 70 6
0 12 -9 12 -21z m737 -93 c50 -26 102 -75 126 -120 17 -32 22 -59 22 -121 0
-75 -3 -86 -47 -177 -57 -115 -133 -202 -213 -244 l-55 -29 0 -58 0 -58 33 25
c49 38 131 66 191 66 49 0 57 -3 84 -34 45 -51 57 -121 57 -331 0 -110 4 -182
10 -185 6 -3 29 29 52 70 66 117 104 141 157 99 50 -39 23 -117 -77 -220 -88
-90 -165 -113 -228 -68 -43 30 -50 74 -48 302 1 112 -1 209 -5 215 -18 29 -87
1 -135 -54 -17 -19 -44 -61 -60 -92 -24 -50 -29 -73 -35 -177 -9 -175 -23
-241 -53 -265 -34 -27 -47 -25 -85 9 -32 28 -33 33 -37 115 -1 46 4 129 12
183 9 54 19 141 22 193 3 52 8 118 10 147 l5 52 -47 -20 c-27 -11 -69 -23 -94
-26 -39 -5 -50 -2 -68 16 -24 24 -27 59 -7 86 7 10 55 42 107 69 l93 51 -5 75
c-12 221 8 391 57 465 28 43 91 67 164 62 36 -2 80 -11 97 -21z"/>
<path d="M2698 16002 c-64 -39 -93 -175 -83 -394 8 -184 13 -172 -113 -238
-44 -23 -83 -48 -86 -56 -9 -24 23 -28 82 -9 72 22 102 22 119 -1 18 -24 17
-170 -2 -304 -23 -155 -30 -322 -16 -348 14 -26 38 -29 45 -4 9 34 17 99 26
224 8 116 11 133 42 190 43 82 101 141 162 163 43 17 51 17 75 4 47 -27 51
-48 50 -269 -1 -207 5 -252 36 -264 59 -22 124 15 198 114 52 69 61 103 25 98
-16 -2 -35 -25 -65 -78 -23 -41 -50 -81 -60 -87 -25 -19 -57 -16 -79 8 -17 19
-19 38 -19 218 0 200 -8 253 -43 294 -26 29 -97 22 -175 -18 -111 -57 -137
-45 -137 66 l0 69 68 44 c92 59 143 118 196 228 38 77 46 104 46 148 -1 94
-52 171 -137 207 -45 18 -122 16 -155 -5z m140 -36 c68 -36 119 -123 107 -185
-15 -77 -70 -159 -149 -220 -54 -42 -107 -54 -123 -28 -15 24 -20 124 -13 239
9 125 26 178 63 196 32 15 84 14 115 -2z"/>
<path d="M2748 15929 c-27 -15 -37 -71 -44 -233 -8 -173 -12 -170 92 -69 63
60 104 133 104 181 0 34 -53 109 -83 117 -46 14 -52 14 -69 4z"/>
<path d="M5078 16242 l-988 -2 0 -990 0 -990 990 0 990 0 2 991 c2 545 1 992
-2 992 -3 1 -449 1 -992 -1z m-898 -92 c0 -5 -9 -10 -20 -10 -11 0 -20 5 -20
10 0 6 9 10 20 10 11 0 20 -4 20 -10z m0 -76 c0 -37 -4 -54 -11 -52 -7 2 -12
24 -11 51 1 60 0 57 12 57 6 0 10 -25 10 -56z m863 -48 c18 -7 53 -36 80 -64
43 -47 47 -55 47 -103 0 -46 -4 -55 -35 -84 -61 -58 -169 -68 -256 -24 -43 22
-49 34 -49 103 0 48 4 56 38 89 20 20 47 50 60 67 27 34 61 39 115 16z m-199
-437 c36 -29 35 -52 -24 -344 -51 -252 -60 -344 -37 -363 24 -19 75 -23 163
-11 49 6 116 14 149 19 69 8 98 -1 114 -37 16 -35 3 -71 -30 -89 -36 -18 -288
-38 -374 -29 -150 15 -160 31 -159 240 0 115 7 187 28 308 41 236 64 301 116
320 24 9 26 8 54 -14z"/>
<path d="M4952 15960 c-10 -16 -30 -39 -45 -50 -37 -29 -38 -92 -3 -115 42
-28 115 -29 166 -3 40 20 45 27 48 60 4 43 -9 65 -63 108 -49 39 -80 39 -103
0z m25 -144 c-4 -9 -16 -16 -27 -16 -29 0 -38 30 -15 47 16 11 21 11 33 -1 8
-8 12 -22 9 -30z"/>
<path d="M4945 15830 c-3 -5 -1 -10 4 -10 6 0 11 5 11 10 0 6 -2 10 -4 10 -3
0 -8 -4 -11 -10z"/>
<path d="M4776 15518 c-36 -86 -86 -410 -86 -559 0 -115 12 -156 48 -167 36
-9 326 -6 377 5 27 6 41 15 43 27 4 20 -16 20 -233 -3 -90 -9 -141 0 -173 32
-43 43 -40 99 17 383 28 138 51 265 51 282 0 43 -27 42 -44 0z"/>
<path d="M6124 16241 c-2 -2 -4 -449 -4 -993 l0 -988 993 0 992 0 -2 990 -3
990 -986 3 c-542 1 -988 0 -990 -2z m801 -65 c26 -11 36 -23 44 -53 20 -72 11
-106 -36 -131 -30 -16 -47 -15 -73 6 -18 14 -23 31 -26 84 -5 62 -3 67 22 87
32 25 26 24 69 7z m-715 -26 c0 -5 -9 -10 -20 -10 -11 0 -20 5 -20 10 0 6 9
10 20 10 11 0 20 -4 20 -10z m-2 -92 c-2 -60 -6 -73 -20 -76 -11 -2 -18 3 -18
12 0 9 5 16 10 16 6 0 10 27 10 60 0 35 4 60 10 60 7 0 10 -27 8 -72z m833
-317 l24 -19 0 -351 c0 -206 4 -351 9 -351 22 0 158 94 184 128 16 20 53 80
83 132 29 52 60 100 69 107 24 20 59 15 86 -13 22 -21 25 -31 19 -61 -11 -61
-84 -193 -137 -249 -56 -60 -169 -141 -256 -184 l-60 -29 -4 -93 c-6 -124 -42
-229 -96 -279 -45 -43 -139 -81 -202 -83 -54 -1 -167 35 -221 71 -66 44 -82
81 -83 192 -1 82 2 102 22 138 37 70 143 114 340 140 l125 16 -6 111 c-13 212
-20 582 -13 619 13 71 68 98 117 58z"/>
<path d="M6882 16088 c2 -35 7 -43 23 -43 13 0 21 8 23 22 4 28 -14 63 -34 63
-12 0 -14 -10 -12 -42z"/>
<path d="M6982 15698 c-14 -14 -15 -237 -3 -522 5 -109 5 -203 0 -221 -11 -40
-35 -50 -149 -66 -194 -25 -288 -64 -314 -129 -32 -79 -19 -187 28 -234 39
-38 153 -80 216 -79 54 1 134 34 173 71 36 34 72 151 81 261 4 47 11 90 17 97
5 6 46 33 92 59 167 97 247 172 300 280 46 92 50 110 34 124 -18 14 -17 14
-92 -113 -66 -114 -118 -169 -203 -214 -68 -36 -102 -40 -125 -14 -15 17 -17
56 -17 354 0 266 -3 338 -13 347 -10 8 -17 7 -25 -1z m-28 -864 c31 -31 10
-187 -34 -260 -22 -34 -98 -73 -161 -81 -55 -8 -147 23 -186 62 -29 29 -33 40
-33 84 0 60 17 98 60 135 34 28 76 42 190 61 106 18 146 18 164 -1z"/>
<path d="M6789 14785 c-138 -24 -169 -39 -193 -90 -30 -62 -20 -98 35 -126 89
-45 211 -29 250 34 24 41 59 208 43 206 -5 0 -66 -11 -135 -24z"/>
<path d="M8154 16241 c-2 -2 -4 -449 -4 -993 l0 -988 993 0 992 0 -2 990 -3
990 -986 3 c-542 1 -988 0 -990 -2z m86 -116 c0 -38 15 -47 25 -15 3 11 12 20
19 20 23 0 26 -13 6 -27 -24 -17 -26 -36 -5 -53 8 -7 15 -16 15 -21 0 -17 -28
-9 -43 14 l-16 22 0 -22 c-1 -13 -5 -23 -11 -23 -6 0 -10 30 -10 70 0 40 4 70
10 70 6 0 10 -16 10 -35z m907 -143 c109 -87 155 -153 193 -280 25 -82 22
-137 -8 -162 -10 -8 -38 -53 -62 -99 -52 -96 -105 -149 -207 -205 -37 -21 -59
-35 -48 -31 135 43 322 99 366 110 89 20 154 3 203 -56 23 -27 26 -39 26 -103
0 -40 -7 -93 -15 -117 -43 -126 -175 -204 -362 -216 -51 -3 -93 -7 -93 -9 0
-9 111 -145 152 -186 39 -39 55 -48 83 -48 19 0 35 4 35 10 0 18 49 42 74 36
80 -20 70 -127 -16 -172 -35 -18 -139 -18 -181 0 -52 22 -204 191 -294 327
l-47 71 -12 -93 c-24 -191 -55 -258 -113 -244 -14 4 -34 14 -43 22 -28 25 -22
128 20 376 l38 219 -26 -6 c-201 -44 -320 -46 -352 -6 -48 60 1 104 139 125
48 7 122 20 163 29 41 9 78 16 81 16 3 0 9 78 13 173 13 320 57 500 134 542
15 8 46 14 69 15 33 0 51 -7 90 -38z"/>
<path d="M8994 15943 c-49 -53 -81 -218 -92 -482 -7 -170 -9 -185 -29 -201
-20 -16 -176 -51 -290 -66 -58 -7 -90 -25 -79 -42 10 -16 113 -15 211 3 107
19 129 19 150 -5 18 -20 18 -26 -14 -218 -54 -317 -57 -362 -25 -362 22 0 33
33 55 162 21 125 32 148 71 148 24 0 47 -24 127 -134 35 -49 101 -126 145
-172 l81 -84 68 0 c59 0 71 3 92 25 49 48 21 75 -35 34 -62 -46 -143 -5 -244
124 -80 103 -92 131 -71 163 8 13 21 24 28 24 6 0 51 5 99 10 214 25 318 116
318 278 0 59 -3 72 -23 90 -33 32 -82 43 -131 32 -23 -5 -95 -25 -161 -44
-169 -49 -204 -56 -231 -45 -49 18 -26 55 83 133 66 47 96 82 139 165 19 36
44 78 56 94 20 25 21 31 11 82 -22 103 -60 169 -139 245 -63 60 -79 70 -110
70 -25 0 -42 -7 -60 -27z m126 -52 c43 -30 106 -133 118 -195 10 -47 9 -65 -4
-104 -38 -110 -104 -206 -173 -253 -51 -33 -67 -36 -93 -12 -15 14 -18 32 -18
132 0 138 24 357 44 406 23 55 70 65 126 26z m370 -681 c48 -48 32 -149 -35
-215 -34 -35 -54 -45 -121 -62 -170 -45 -257 -38 -324 26 -45 43 -58 82 -38
112 13 20 199 96 343 139 83 25 150 25 175 0z"/>
<path d="M9036 15854 c-22 -59 -57 -504 -39 -504 6 0 36 25 67 55 42 40 67 76
98 141 39 85 40 89 29 139 -24 106 -133 226 -155 169z"/>
<path d="M9370 15177 c-25 -7 -112 -37 -195 -66 -82 -29 -156 -55 -163 -57
-10 -3 -8 -12 8 -34 38 -54 66 -65 155 -64 178 1 295 71 295 176 0 58 -19 66
-100 45z"/>
<path d="M10184 16241 c-2 -2 -4 -449 -4 -993 l0 -988 993 0 992 0 -2 990 -3
990 -986 3 c-542 1 -988 0 -990 -2z m86 -141 c0 -33 4 -60 10 -60 6 0 10 -4
10 -10 0 -5 -9 -10 -20 -10 -18 0 -20 7 -20 70 0 40 4 70 10 70 6 0 10 -27 10
-60z m1271 -48 c35 -39 37 -70 9 -197 -46 -208 -155 -344 -452 -563 l-77 -57
0 -75 c-1 -102 24 -282 45 -325 22 -47 45 -58 113 -55 169 8 182 7 204 -22 17
-23 18 -31 8 -55 -19 -47 -43 -54 -185 -60 -117 -4 -135 -3 -166 15 -81 45
-147 202 -157 375 l-6 98 -21 -20 c-12 -10 -70 -51 -131 -90 -125 -82 -161
-89 -198 -39 -37 50 -20 70 180 213 l181 130 12 55 c41 184 231 572 323 658
42 39 93 52 195 50 92 -3 94 -4 123 -36z"/>
<path d="M11290 16022 c-19 -9 -51 -39 -72 -67 -89 -118 -220 -397 -264 -559
-13 -50 -32 -98 -41 -108 -10 -9 -92 -71 -183 -136 -91 -65 -165 -125 -165
-132 0 -34 45 -17 161 60 167 110 204 107 204 -18 1 -134 57 -305 117 -352 22
-17 39 -20 132 -19 122 1 155 8 159 33 4 16 -4 17 -110 11 -103 -6 -116 -4
-145 14 -65 41 -87 104 -104 306 -17 184 -12 195 99 281 299 232 382 334 426
531 34 150 20 173 -104 173 -51 0 -86 -6 -110 -18z m166 -33 c33 -37 18 -118
-48 -257 -54 -115 -256 -302 -325 -302 -73 0 -63 60 45 275 66 133 107 199
152 244 62 61 140 79 176 40z"/>
<path d="M11363 15951 c-45 -21 -79 -62 -146 -176 -44 -76 -150 -306 -143
-313 10 -9 185 144 233 203 75 94 145 289 108 301 -5 2 -29 -5 -52 -15z"/>
<path d="M30 15250 l0 -990 990 0 990 0 0 990 0 990 -990 0 -990 0 0 -990z
m140 816 c0 -51 -3 -65 -17 -71 -54 -24 -68 -12 -71 56 -3 62 9 79 54 79 l34
0 0 -64z m830 -283 c68 -18 170 -63 170 -74 0 -5 12 -4 26 1 28 11 49 3 79
-30 17 -18 19 -40 23 -168 2 -81 -1 -199 -6 -262 -5 -63 -7 -117 -6 -118 1 -2
33 16 71 41 56 36 74 54 98 100 21 39 39 60 58 67 37 12 72 -4 88 -41 10 -26
8 -37 -20 -94 -41 -82 -94 -129 -213 -185 l-94 -45 -21 -175 c-36 -287 -47
-309 -177 -374 -153 -77 -316 -67 -368 22 -24 41 -39 150 -27 203 15 66 56
143 100 189 49 51 159 122 266 174 l82 39 3 109 c2 59 1 108 -3 108 -3 0 -20
-15 -38 -34 -44 -46 -93 -58 -235 -57 -181 0 -293 37 -338 109 -30 49 -37 204
-13 288 14 49 27 69 79 120 81 80 114 96 206 104 90 7 137 3 210 -17z"/>
<path d="M111 16096 c-16 -20 -10 -50 11 -54 23 -4 34 36 16 55 -13 12 -16 12
-27 -1z"/>
<path d="M113 16013 c9 -2 23 -2 30 0 6 3 -1 5 -18 5 -16 0 -22 -2 -12 -5z"/>
<path d="M789 15751 c-40 -5 -80 -16 -101 -29 -58 -36 -125 -115 -138 -163
-16 -57 -9 -216 11 -247 37 -59 204 -98 363 -85 69 5 85 11 136 45 66 44 73
45 100 18 17 -17 20 -33 20 -122 0 -62 -5 -113 -13 -128 -8 -17 -50 -45 -127
-85 -199 -104 -263 -165 -301 -287 -27 -86 -11 -191 34 -221 81 -53 297 -5
371 83 25 30 47 136 67 325 7 61 16 120 20 132 6 15 40 38 101 69 51 25 108
58 127 71 63 48 117 163 77 163 -8 0 -26 -20 -39 -43 -33 -56 -90 -107 -152
-137 -44 -21 -50 -22 -74 -9 l-26 15 4 244 c4 279 0 300 -51 300 -18 0 -48 9
-66 20 -47 29 -167 67 -227 73 -27 3 -80 2 -116 -2z m220 -82 c158 -42 155
-39 148 -108 -8 -86 -43 -167 -96 -221 -59 -62 -102 -74 -236 -67 -180 8 -245
53 -245 167 0 113 42 195 124 237 76 40 130 38 305 -8z m140 -746 c23 -16 24
-19 17 -112 -7 -112 -25 -195 -52 -242 -41 -73 -226 -126 -290 -85 -28 19 -54
71 -54 110 0 47 34 128 72 171 36 41 126 103 223 154 48 25 54 26 84 4z"/>
<path d="M734 15640 c-77 -38 -104 -89 -104 -195 0 -73 12 -88 87 -111 55 -17
215 -21 255 -5 55 21 102 90 132 193 21 75 22 75 -21 81 -21 3 -81 18 -132 32
-115 30 -163 31 -217 5z"/>
<path d="M1023 14841 c-109 -66 -159 -111 -184 -166 -25 -54 -25 -119 1 -145
25 -25 38 -25 123 -1 106 29 128 58 146 196 18 142 21 175 13 174 -4 -1 -48
-26 -99 -58z"/>
<path d="M30 13220 l0 -990 990 0 990 0 0 990 0 990 -990 0 -990 0 0 -990z
m183 871 c11 -1 8 -101 -3 -101 -5 0 -10 18 -10 40 0 29 -4 40 -15 40 -11 0
-15 -11 -15 -40 0 -28 -4 -40 -14 -40 -11 0 -13 10 -9 40 5 32 2 40 -10 40
-11 0 -17 -12 -19 -42 -2 -24 -7 -43 -13 -43 -10 0 -20 78 -12 99 4 10 64 14
120 7z m162 -447 c37 -37 58 -108 71 -243 l7 -73 34 63 c18 35 41 74 51 87 24
31 86 45 127 28 45 -19 99 -88 125 -157 13 -33 26 -57 30 -52 4 4 15 31 25 58
49 138 120 228 191 241 46 9 79 -8 111 -55 23 -33 23 -39 23 -320 1 -265 13
-450 35 -503 13 -33 33 -18 106 78 39 53 82 100 94 106 33 15 77 -3 93 -36 18
-37 5 -69 -68 -160 -98 -124 -171 -175 -225 -162 -35 9 -102 72 -125 116 -10
19 -23 62 -29 95 -15 79 -34 515 -26 585 4 30 5 53 2 50 -3 -3 -28 -56 -55
-117 -73 -161 -102 -260 -102 -344 0 -81 -17 -130 -55 -155 -35 -23 -66 -8
-91 43 -16 31 -20 70 -25 223 -6 178 -19 264 -50 322 -10 19 -11 19 -30 2 -10
-9 -19 -21 -19 -26 0 -15 -61 -138 -77 -154 -10 -10 -25 -13 -44 -9 l-29 7 0
-99 c0 -218 -53 -627 -86 -664 -23 -26 -72 -24 -101 3 -31 29 -30 68 8 308 26
163 32 232 36 415 2 121 1 238 -4 259 -7 33 -13 39 -38 42 -33 3 -65 36 -65
66 0 27 24 69 57 99 54 51 90 61 118 33z"/>
<path d="M281 13564 c-18 -20 -30 -41 -28 -47 2 -7 20 -20 41 -30 20 -9 42
-30 49 -45 8 -18 12 -101 12 -257 0 -211 -3 -248 -33 -442 -36 -228 -38 -286
-10 -291 12 -2 20 8 27 35 21 72 52 348 60 525 5 117 11 182 20 192 7 8 27 16
44 18 29 3 36 11 77 93 36 71 51 91 74 98 47 15 77 -16 105 -109 19 -66 24
-111 30 -266 5 -159 9 -190 23 -205 29 -28 40 -4 49 105 10 110 41 213 114
369 48 102 72 124 109 99 23 -14 23 -19 30 -258 8 -278 20 -396 45 -453 17
-39 81 -105 102 -105 26 0 72 35 132 101 73 80 103 129 94 153 -10 25 -32 10
-78 -52 -69 -93 -110 -132 -140 -132 -80 0 -101 91 -105 460 -1 140 -3 283 -3
318 -1 53 -5 67 -26 87 -63 64 -132 -4 -219 -217 -33 -82 -97 -71 -130 22 -11
30 -35 71 -54 92 -28 31 -41 38 -71 38 -34 0 -39 -4 -71 -57 -45 -77 -69 -103
-96 -103 -35 0 -46 25 -60 129 -22 171 -51 206 -113 135z"/>
<path d="M2060 13220 l0 -990 990 0 990 0 0 990 0 990 -990 0 -990 0 0 -990z
m150 865 c14 -16 9 -100 -5 -100 -5 0 -11 19 -13 43 -3 34 -7 43 -20 40 -12
-2 -19 -16 -22 -43 -7 -53 -25 -42 -25 15 0 25 0 47 2 50 4 12 73 7 83 -5z
m1038 -239 c39 -34 72 -112 98 -224 34 -154 48 -323 48 -620 1 -229 3 -261 16
-256 63 28 110 1 110 -61 0 -44 -35 -70 -80 -61 -23 4 -30 2 -30 -9 0 -40
-121 -42 -156 -4 -17 18 -19 37 -18 143 6 620 5 731 -5 819 -20 175 -42 192
-189 146 -94 -30 -99 -33 -157 -97 -33 -36 -86 -93 -118 -126 l-58 -61 -5
-115 c-10 -241 -58 -590 -89 -651 -25 -47 -73 -52 -112 -13 -25 25 -26 29 -19
107 3 45 17 145 30 222 42 241 47 287 47 394 0 96 -7 135 -18 103 -19 -52 -86
-55 -116 -4 -19 32 -19 33 3 135 25 116 40 157 76 204 21 27 32 33 63 33 72 0
95 -36 116 -177 l6 -41 76 79 c92 97 162 133 290 154 104 16 159 11 191 -19z"/>
<path d="M3054 13816 c-109 -21 -158 -47 -248 -136 -68 -66 -88 -80 -114 -80
-37 0 -46 14 -57 85 -4 28 -13 65 -21 83 -11 28 -18 33 -41 30 -37 -4 -61 -49
-90 -167 -26 -107 -26 -111 -15 -128 6 -10 17 -8 47 7 77 39 100 -10 92 -190
-3 -63 -21 -209 -41 -325 -37 -218 -44 -299 -25 -311 44 -27 86 198 112 592
l12 189 65 65 c36 37 92 95 125 131 57 62 65 68 155 97 106 36 147 39 190 17
60 -31 76 -101 90 -391 6 -123 6 -262 0 -364 -14 -257 -13 -356 6 -374 21 -22
57 -20 79 4 12 14 31 20 57 20 32 0 39 3 36 18 -3 13 -12 16 -37 14 -19 -1
-44 4 -57 13 -23 15 -23 16 -24 222 0 464 -52 804 -134 872 -23 19 -83 22
-162 7z"/>
<path d="M4090 13220 l0 -990 990 0 990 0 2 990 3 990 -992 0 -993 0 0 -990z
m128 868 c7 -7 12 -26 12 -43 0 -36 -15 -55 -45 -55 -30 0 -45 19 -45 55 0 36
15 55 45 55 12 0 26 -5 33 -12z m1098 -308 c153 -25 197 -60 237 -185 58 -184
71 -393 33 -518 -17 -57 -135 -215 -212 -286 -59 -54 -108 -79 -238 -123 -76
-26 -108 -31 -191 -32 -90 -1 -106 2 -163 28 -75 35 -157 118 -219 223 -59
100 -75 153 -80 268 -5 93 -3 108 25 188 75 218 210 352 407 402 32 8 74 15
92 15 18 0 33 4 33 9 0 29 130 34 276 11z"/>
<path d="M4164 14055 c-8 -21 3 -45 20 -45 16 0 31 34 21 50 -9 15 -35 12 -41
-5z"/>
<path d="M5075 13737 c-11 -8 -58 -22 -105 -31 -117 -22 -215 -71 -279 -142
-136 -149 -191 -344 -146 -518 21 -79 87 -188 160 -262 81 -83 146 -108 260
-101 84 6 198 38 290 83 87 43 261 242 288 329 7 24 11 96 11 180 -1 117 -5
156 -27 239 -29 108 -49 149 -87 177 -53 40 -327 74 -365 46z m278 -69 c82
-28 113 -74 141 -208 27 -131 31 -257 12 -325 -36 -125 -176 -286 -300 -344
-135 -64 -293 -80 -385 -41 -115 50 -233 237 -248 394 -10 110 52 282 137 378
55 63 123 94 271 122 68 14 135 29 149 35 29 13 174 5 223 -11z"/>
<path d="M5135 13631 c-6 -6 -51 -17 -100 -26 -164 -27 -211 -43 -263 -91 -80
-71 -152 -232 -152 -337 0 -106 56 -230 149 -330 74 -79 156 -92 316 -50 99
27 155 60 241 147 139 141 164 229 130 456 -20 129 -47 188 -98 213 -45 22
-207 35 -223 18z"/>
<path d="M6120 13220 l0 -990 993 0 992 0 0 990 0 990 -992 0 -993 0 0 -990z
m147 864 c16 -16 17 -66 1 -82 -7 -7 -22 -12 -35 -12 -16 0 -23 -6 -23 -20 0
-11 -4 -20 -10 -20 -6 0 -10 31 -10 73 l0 74 32 0 c18 0 38 -6 45 -13z m990
-106 c38 -35 100 -174 114 -252 16 -95 8 -221 -18 -271 -33 -64 -102 -120
-215 -174 -102 -49 -222 -91 -259 -91 -18 0 -19 -5 -14 -47 9 -83 25 -392 26
-532 2 -128 1 -135 -21 -153 -28 -23 -72 -23 -93 0 -8 9 -20 35 -26 57 -13 50
-37 347 -51 615 -5 113 -12 234 -15 270 -3 36 0 115 7 177 16 158 7 167 -120
109 -42 -19 -82 -31 -94 -28 -11 2 -27 19 -35 37 -15 31 -15 35 6 63 12 17 36
35 54 41 59 19 191 51 208 51 10 0 20 8 23 18 13 40 51 60 166 86 264 61 314
64 357 24z"/>
<path d="M6210 14040 c0 -23 5 -30 19 -30 21 0 33 22 25 45 -4 8 -15 15 -25
15 -14 0 -19 -7 -19 -30z"/>
<path d="M7135 13953 c-83 -12 -313 -66 -332 -79 -12 -7 -24 -22 -28 -33 -7
-22 -27 -30 -145 -59 -111 -27 -140 -38 -140 -57 0 -20 8 -19 74 10 145 64
198 15 176 -162 -12 -91 -10 -143 16 -568 25 -411 39 -515 69 -515 8 0 16 8
19 18 6 17 -4 272 -20 548 -10 168 -15 160 131 203 97 28 245 102 296 148 61
55 79 100 79 203 0 47 -7 112 -15 143 -16 62 -65 166 -87 184 -17 15 -56 21
-93 16z m71 -48 c32 -22 52 -72 69 -176 18 -111 19 -151 4 -202 -21 -77 -103
-137 -284 -206 -110 -43 -136 -46 -164 -24 -25 20 -21 -5 -67 440 -5 42 -3 67
5 76 12 15 132 59 241 88 82 22 169 24 196 4z"/>
<path d="M7060 13864 c-41 -10 -237 -71 -258 -80 -1 -1 2 -21 7 -45 6 -24 18
-126 27 -226 15 -154 20 -183 33 -183 22 0 155 52 233 91 140 69 159 121 122
323 -12 66 -23 96 -40 113 -26 26 -46 27 -124 7z"/>
<path d="M8150 13220 l0 -990 993 0 992 0 0 990 0 990 -992 0 -993 0 0 -990z
m140 803 c0 -42 -4 -73 -10 -73 -5 0 -10 9 -10 20 0 14 -7 20 -23 20 -31 0
-47 18 -47 53 0 35 21 54 61 54 l29 0 0 -74z m804 48 c62 -27 186 -147 217
-210 15 -31 32 -51 44 -53 11 -2 28 -19 38 -38 22 -43 19 -91 -25 -345 -22
-128 -33 -229 -37 -350 -4 -93 -6 -171 -5 -173 1 -2 23 11 50 27 55 36 104 47
132 32 25 -13 42 -59 32 -87 -14 -37 -75 -80 -148 -103 -41 -12 -72 -28 -72
-35 0 -25 -41 -66 -66 -66 -74 0 -89 48 -80 265 8 202 25 452 32 486 l5 25
-88 -17 c-103 -21 -172 -23 -261 -8 -125 22 -178 104 -190 296 -4 75 -2 86 25
145 29 60 106 171 138 198 53 44 174 49 259 11z"/>
<path d="M8226 14055 c-8 -22 4 -46 23 -43 9 2 17 15 19 31 3 21 -1 27 -16 27
-11 0 -22 -7 -26 -15z"/>
<path d="M8894 14036 c-36 -16 -109 -107 -148 -183 -20 -40 -26 -67 -26 -115
0 -97 25 -187 62 -225 52 -54 165 -67 331 -37 82 14 91 14 114 -2 25 -16 26
-17 19 -118 -30 -459 -33 -594 -11 -622 15 -18 16 -19 28 0 30 47 46 58 112
82 71 26 115 57 115 81 0 26 -29 24 -90 -8 -52 -27 -65 -30 -85 -21 -34 16
-38 43 -32 215 3 108 15 215 41 366 43 254 44 283 14 311 -12 11 -25 20 -29
20 -4 0 -21 24 -37 53 -35 62 -120 149 -180 184 -53 31 -151 41 -198 19z m121
-37 c31 -8 66 -37 159 -130 l119 -120 -6 -57 c-12 -106 -24 -132 -70 -152 -48
-21 -261 -45 -310 -35 -93 20 -140 91 -141 214 0 62 5 87 27 136 37 78 73 124
111 141 38 16 60 17 111 3z"/>
<path d="M8898 13933 c-15 -16 -39 -53 -55 -83 -24 -47 -28 -67 -28 -135 1
-140 40 -171 199 -160 114 8 193 22 202 37 3 5 12 39 20 76 11 53 11 68 2 71
-7 2 -38 31 -68 65 -79 87 -132 136 -158 147 -44 17 -87 11 -114 -18z"/>
<path d="M10180 13220 l0 -990 993 0 992 0 0 990 0 990 -992 0 -993 0 0 -990z
m125 871 c3 -6 -4 -15 -15 -21 -14 -8 -20 -21 -20 -45 0 -19 -4 -35 -10 -35
-5 0 -10 25 -10 55 0 52 1 55 24 55 14 0 27 -4 31 -9z m896 -81 c97 -27 137
-156 85 -272 -50 -112 -133 -189 -316 -293 -47 -27 -87 -50 -89 -52 -3 -2 32
-40 77 -86 89 -89 102 -106 186 -244 31 -51 69 -102 84 -113 l27 -22 45 50
c55 60 69 66 109 41 26 -16 31 -25 31 -59 0 -35 -5 -43 -42 -71 -58 -43 -157
-89 -190 -89 -42 0 -83 43 -151 157 -51 88 -80 122 -165 202 -105 98 -130 116
-119 88 12 -30 10 -266 -1 -280 -19 -22 -30 -188 -15 -217 16 -32 16 -50 -1
-72 -20 -27 -59 -38 -87 -24 -52 26 -53 34 -54 538 0 258 -1 468 -3 468 -1 0
-21 -12 -44 -26 -74 -47 -148 -26 -148 41 0 38 26 64 126 128 60 39 72 52 83
87 15 50 49 68 98 50 27 -9 38 -8 70 9 109 55 313 86 404 61z"/>
<path d="M10970 13955 c-36 -8 -96 -26 -133 -41 -49 -19 -80 -25 -107 -21 -43
5 -53 -2 -64 -45 -4 -20 -31 -44 -98 -90 -96 -65 -121 -98 -74 -98 14 0 43 9
63 20 46 24 55 25 82 3 22 -18 22 -20 25 -483 1 -256 6 -473 10 -482 5 -10 13
-18 20 -18 7 0 11 38 12 123 0 72 6 131 12 144 8 13 12 74 12 157 0 123 2 138
20 156 11 11 26 20 33 20 24 0 74 -39 168 -131 73 -71 108 -116 147 -184 28
-50 62 -101 76 -114 23 -22 29 -23 63 -13 51 15 153 80 153 97 0 31 -23 24
-64 -19 -79 -86 -125 -62 -238 126 -53 87 -97 145 -160 209 -69 70 -88 96 -88
118 0 34 8 41 144 122 193 114 284 228 274 345 -4 43 -11 61 -32 82 -24 24
-34 27 -109 29 -45 1 -111 -4 -147 -12z m217 -59 c35 -41 32 -110 -6 -164 -27
-37 -119 -116 -198 -171 -45 -31 -171 -81 -203 -81 -47 0 -55 21 -58 155 -3
96 -1 129 11 152 34 65 254 146 376 139 45 -2 59 -8 78 -30z"/>
<path d="M10975 13861 c-38 -9 -99 -33 -135 -52 l-65 -34 -3 -134 c-2 -108 0
-132 10 -123 7 5 42 22 76 36 116 46 293 190 307 248 3 13 1 36 -4 51 -10 25
-15 27 -63 26 -29 0 -84 -8 -123 -18z"/>
<path d="M30 11190 l0 -990 990 0 990 0 0 990 0 990 -990 0 -990 0 0 -990z
m104 874 c9 -3 16 -12 16 -20 0 -11 -7 -13 -27 -8 -25 7 -27 6 -14 -9 7 -10
20 -17 27 -17 8 0 14 -10 14 -25 0 -22 -4 -25 -35 -25 -29 0 -35 4 -35 22 0
17 3 19 12 10 7 -7 18 -12 26 -12 12 0 12 3 2 15 -7 8 -19 15 -26 15 -18 0
-19 46 -1 53 18 8 23 8 41 1z m797 -104 c117 -12 199 -31 234 -54 33 -22 112
-127 136 -181 18 -41 18 -47 5 -74 -33 -62 -73 -55 -160 27 -81 78 -114 102
-171 124 -92 36 -170 27 -242 -28 -47 -36 -96 -139 -101 -217 -4 -51 0 -67 31
-130 37 -74 91 -138 136 -162 14 -7 53 -18 86 -25 33 -6 79 -20 102 -30 56
-24 162 -135 204 -212 32 -60 34 -67 33 -163 -1 -140 -17 -208 -59 -249 -36
-36 -257 -153 -342 -180 -54 -18 -180 -24 -249 -12 -54 10 -76 34 -119 133
-72 167 -77 237 -25 377 26 69 50 96 85 96 28 0 75 -40 75 -63 0 -8 -12 -46
-26 -83 -30 -80 -29 -132 5 -229 36 -103 74 -120 194 -89 69 18 239 101 284
138 27 23 31 33 36 101 8 90 0 113 -73 219 -56 81 -67 88 -212 131 -100 29
-126 49 -203 150 -67 90 -115 187 -115 236 0 53 37 186 71 256 41 85 120 156
202 182 76 24 55 23 178 11z"/>
<path d="M769 11905 c-56 -18 -130 -81 -166 -142 -31 -53 -73 -193 -73 -242 0
-47 39 -129 101 -213 68 -92 98 -114 182 -139 136 -39 155 -49 202 -102 25
-28 61 -82 80 -118 32 -62 35 -74 35 -155 0 -134 -19 -156 -215 -251 -143 -69
-261 -86 -323 -46 -32 20 -78 121 -93 202 -11 62 -10 74 11 144 35 119 4 147
-39 33 -30 -82 -35 -135 -17 -205 21 -83 79 -207 102 -219 33 -17 129 -23 195
-13 65 11 244 91 341 152 59 38 77 82 85 209 5 89 4 101 -19 151 -31 68 -103
156 -157 193 -24 17 -73 36 -121 47 -45 11 -94 26 -109 34 -44 22 -117 110
-153 183 -29 58 -33 77 -33 142 1 62 6 86 31 140 40 84 71 120 130 150 41 21
63 25 134 25 76 0 92 -4 147 -32 33 -18 96 -64 138 -104 78 -72 105 -80 91
-26 -8 32 -89 142 -119 162 -59 38 -293 64 -368 40z"/>
<path d="M2060 11190 l0 -990 990 0 990 0 0 990 0 990 -990 0 -990 0 0 -990z
m90 890 c0 -11 5 -20 12 -20 9 0 9 -3 0 -12 -15 -15 -16 -64 -2 -73 19 -12 -1
-25 -21 -14 -16 8 -18 17 -13 43 3 19 1 36 -4 40 -7 4 -6 15 1 31 14 30 27 32
27 5z m777 -142 c19 -15 16 -81 -8 -197 -11 -57 -19 -105 -16 -107 2 -3 47 1
98 8 215 30 301 11 307 -65 3 -32 -1 -39 -30 -57 -27 -17 -43 -20 -88 -15 -44
4 -70 0 -127 -20 -48 -16 -94 -25 -136 -25 l-63 0 -13 -77 c-45 -281 -63 -432
-64 -533 -2 -151 6 -165 96 -175 75 -8 141 7 165 37 51 64 72 80 100 74 63
-15 79 -84 32 -144 -33 -42 -117 -90 -179 -103 -74 -15 -236 -7 -277 14 -17 9
-39 33 -49 53 -16 34 -17 64 -12 318 5 248 22 464 42 527 6 18 0 19 -92 20
-147 1 -177 9 -199 50 -9 18 -13 41 -9 56 8 32 60 54 108 46 20 -3 78 -2 130
2 l95 7 22 111 c25 125 51 189 83 205 24 12 64 7 84 -10z"/>
<path d="M2851 11886 c-13 -15 -46 -138 -57 -211 -4 -30 -16 -57 -30 -72 -22
-22 -31 -23 -148 -23 -132 0 -156 -4 -156 -26 0 -24 37 -34 134 -34 108 0 143
-10 151 -42 3 -13 -1 -75 -9 -139 -21 -157 -40 -525 -32 -624 5 -67 10 -83 31
-104 23 -23 34 -26 129 -29 116 -5 171 8 237 53 52 37 74 95 36 95 -7 0 -25
-16 -41 -36 -39 -49 -85 -66 -178 -66 -95 0 -140 19 -164 70 -33 69 -20 271
41 632 30 173 35 180 130 180 36 0 86 8 120 20 35 12 85 20 124 20 72 0 97 10
88 33 -9 24 -91 32 -183 19 -103 -15 -187 -15 -202 0 -16 16 -15 67 3 161 19
99 19 137 1 137 -7 0 -19 -6 -25 -14z"/>
<path d="M4090 11190 l0 -990 993 0 992 0 -3 990 -2 990 -990 0 -990 0 0 -990z
m90 835 c0 -38 3 -45 19 -45 16 0 20 8 23 43 4 59 22 52 26 -10 l3 -53 -44 0
-45 0 -4 48 c-5 50 -2 62 13 62 5 0 9 -20 9 -45z m1149 -163 c36 -35 38 -51
56 -457 8 -182 19 -355 25 -385 21 -110 62 -245 81 -266 41 -43 11 -124 -46
-124 -33 0 -98 60 -124 113 -11 23 -25 83 -31 132 -18 148 -18 148 -49 57 -52
-148 -132 -243 -232 -274 -83 -26 -207 -33 -250 -15 -90 37 -143 115 -184 270
-26 96 -84 377 -105 505 -11 69 -13 72 -27 53 -20 -30 -86 -29 -107 1 -25 35
-20 61 34 181 28 62 50 122 50 134 0 26 44 63 75 63 63 0 89 -88 146 -490 53
-374 91 -526 144 -570 20 -17 136 -18 176 -2 99 39 156 163 227 492 25 117 26
139 24 338 l-3 212 30 30 c37 37 55 38 90 2z"/>
<path d="M5266 11818 c-14 -43 -15 -79 -6 -198 9 -116 8 -147 -10 -258 -25
-153 -73 -343 -110 -435 -56 -136 -122 -188 -249 -195 -54 -3 -87 0 -113 11
-80 33 -119 161 -179 572 -55 388 -79 493 -110 483 -5 -2 -26 -41 -45 -88 -76
-184 -78 -190 -65 -203 9 -9 16 -9 31 1 28 17 64 15 82 -5 9 -10 29 -95 48
-198 63 -345 109 -501 167 -566 45 -50 88 -63 177 -55 112 10 145 24 207 86
43 42 63 73 88 135 17 44 36 90 41 102 5 12 21 26 36 29 39 10 60 -21 73 -108
24 -152 49 -210 102 -238 26 -15 38 14 15 39 -17 19 -67 191 -85 296 -6 33
-18 213 -26 400 -8 187 -19 354 -23 370 -9 31 -39 46 -46 23z"/>
<path d="M6120 11190 l0 -990 993 0 992 0 0 990 0 990 -992 0 -993 0 0 -990z
m80 861 c5 -11 10 -30 11 -43 0 -17 5 -11 16 20 8 23 19 42 24 42 12 0 12 -47
-1 -55 -5 -3 -10 -14 -10 -24 0 -10 -7 -24 -15 -31 -12 -10 -16 -7 -26 16 -6
16 -15 37 -20 46 -12 23 -11 48 1 48 5 0 14 -9 20 -19z m1290 -181 c20 -20 26
-66 12 -85 -17 -23 -42 -36 -92 -45 -30 -6 -65 -17 -78 -26 -37 -24 -67 -103
-117 -307 -28 -114 -65 -234 -95 -307 -98 -237 -213 -440 -249 -440 -34 0
-103 62 -132 120 -63 123 -216 641 -221 748 -2 26 1 66 6 90 4 23 4 42 -1 42
-4 0 -26 -28 -48 -63 -85 -133 -137 -165 -185 -117 -36 36 -26 71 45 159 114
141 139 163 171 155 89 -20 103 -51 234 -534 51 -190 75 -272 106 -370 5 -14
67 108 145 282 43 98 91 237 139 407 40 143 84 252 107 265 76 46 219 60 253
26z"/>
<path d="M7329 11831 c-78 -24 -83 -33 -169 -319 -33 -112 -74 -238 -91 -279
-42 -107 -156 -344 -176 -365 -19 -21 -66 -24 -81 -5 -18 21 -56 150 -214 730
-6 20 -14 37 -18 37 -14 0 -20 -89 -10 -142 28 -145 147 -542 197 -658 25 -56
70 -110 91 -110 18 0 65 74 132 208 80 162 133 307 181 502 69 277 106 339
214 356 51 7 81 26 71 42 -8 13 -87 15 -127 3z"/>
<path d="M6418 11663 c-88 -106 -104 -131 -90 -145 16 -16 43 10 103 99 50 74
73 89 111 77 21 -6 22 -6 6 17 -31 48 -59 37 -130 -48z"/>
<path d="M8150 11190 l0 -990 993 0 992 0 0 990 0 990 -992 0 -993 0 0 -990z
m80 853 c6 -16 15 -36 20 -45 15 -26 12 -38 -9 -38 -12 0 -21 9 -24 28 -3 15
-9 39 -13 55 -4 17 -2 27 5 27 6 0 16 -12 21 -27z m60 -15 c0 -17 4 -27 10
-23 6 3 10 17 10 30 0 25 14 40 29 31 10 -6 -18 -89 -35 -106 -11 -11 -58 85
-49 100 11 19 35 -3 35 -32z m315 -212 c46 -46 78 -221 114 -631 12 -126 24
-261 27 -299 l6 -68 42 123 c46 140 82 208 120 228 43 23 107 -9 201 -101 44
-43 80 -78 81 -78 0 0 4 80 7 178 10 284 34 501 64 572 26 65 49 80 119 80 40
0 82 -7 114 -20 28 -11 62 -20 76 -20 29 0 74 -41 74 -68 0 -11 -9 -31 -21
-46 -33 -42 -90 -33 -117 18 -9 18 -10 18 -22 -3 l-12 -23 -32 31 c-27 26 -35
29 -44 18 -18 -21 -31 -177 -42 -499 -10 -292 -22 -435 -41 -470 -15 -28 -57
-33 -96 -13 -19 10 -81 68 -139 128 -58 60 -107 107 -109 105 -2 -1 -28 -65
-59 -141 -42 -104 -58 -158 -66 -225 -22 -178 -29 -206 -51 -224 -12 -10 -33
-18 -48 -18 -46 0 -71 38 -92 142 -23 111 -80 523 -113 808 -17 146 -25 196
-31 175 -4 -16 -11 -47 -16 -67 -18 -70 -91 -80 -122 -16 -18 37 -18 39 8 130
55 191 89 269 133 306 24 19 61 14 87 -12z"/>
<path d="M8526 11759 c-15 -17 -42 -81 -65 -152 -48 -151 -53 -178 -41 -197 8
-13 11 -13 23 0 8 8 19 34 26 57 15 53 43 71 76 49 28 -18 27 -17 56 -261 51
-445 109 -816 131 -842 28 -34 58 12 58 87 0 84 32 216 81 334 63 152 72 166
108 166 24 0 48 -19 133 -106 57 -58 115 -112 130 -120 24 -13 28 -12 37 4 13
25 29 239 36 492 7 257 20 398 39 444 17 41 53 53 96 31 33 -17 50 -19 50 -6
0 15 -59 31 -111 31 -53 0 -71 -16 -89 -81 -15 -51 -39 -295 -50 -509 -9 -181
-11 -196 -31 -212 -12 -10 -28 -18 -35 -18 -8 0 -52 35 -98 79 -94 88 -136
110 -163 83 -22 -22 -63 -116 -98 -220 -20 -61 -33 -86 -50 -94 -29 -13 -63 4
-70 35 -2 12 -16 150 -30 306 -42 466 -70 629 -110 645 -8 3 -25 -9 -39 -25z"/>
<path d="M9552 11710 c7 -11 18 -20 25 -20 7 0 13 9 13 20 0 15 -7 20 -25 20
-23 0 -24 -2 -13 -20z"/>
<path d="M10180 11190 l0 -990 993 0 992 0 0 990 0 990 -992 0 -993 0 0 -990z
m106 860 c6 14 13 17 24 10 12 -7 12 -12 -4 -29 -18 -20 -18 -22 -3 -39 21
-23 21 -32 2 -32 -9 0 -18 7 -22 15 -5 13 -8 12 -20 -5 -11 -15 -19 -18 -26
-11 -6 6 -4 15 7 26 20 20 20 29 0 49 -8 9 -12 21 -8 28 5 8 12 5 24 -10 17
-20 18 -20 26 -2z m1208 -281 c49 -38 38 -66 -76 -186 -115 -123 -321 -352
-331 -370 -13 -21 59 -146 130 -226 20 -22 33 -48 33 -64 0 -38 -36 -73 -76
-73 -29 0 -39 9 -102 93 -38 50 -75 103 -82 116 l-13 25 -24 -30 c-13 -16 -75
-97 -138 -180 -124 -165 -145 -181 -195 -145 -39 28 -38 74 5 145 35 58 152
227 219 316 l34 45 -89 155 c-49 84 -91 159 -93 164 -3 7 -8 5 -14 -4 -82
-126 -169 -149 -186 -48 -6 32 -1 45 50 120 82 121 100 138 146 138 28 0 46
-8 73 -31 38 -33 117 -156 180 -279 21 -41 39 -76 40 -78 1 -1 51 48 111 109
305 312 337 336 398 288z"/>
<path d="M11411 11719 c-19 -11 -114 -101 -212 -199 -98 -98 -185 -180 -194
-184 -31 -12 -61 16 -104 97 -60 111 -135 228 -165 256 -39 37 -63 25 -127
-64 -61 -84 -71 -106 -59 -124 11 -18 32 -4 69 45 37 49 71 63 101 43 26 -18
190 -305 197 -344 4 -26 -9 -49 -93 -165 -168 -232 -210 -310 -166 -310 11 0
57 52 125 143 122 162 148 193 176 202 32 10 55 -9 115 -92 84 -118 92 -127
110 -120 24 9 20 20 -26 78 -68 86 -118 179 -118 219 0 31 13 51 96 145 53 61
150 167 216 238 78 83 118 133 114 142 -7 20 -14 19 -55 -6z"/>
<path d="M30 9160 l0 -990 990 0 990 0 0 990 0 990 -990 0 -990 0 0 -990z m83
838 c9 -24 16 -35 16 -26 1 9 6 29 11 44 8 20 14 24 22 16 6 -6 7 -18 3 -29
-5 -10 -15 -38 -24 -63 -12 -33 -22 -46 -38 -48 -27 -4 -30 6 -6 23 15 11 15
15 0 54 -19 46 -22 71 -8 71 5 0 16 -19 24 -42z m1109 -85 c24 -28 26 -45 12
-85 -15 -44 -115 -227 -191 -350 l-54 -87 0 -328 c0 -180 3 -342 6 -358 13
-62 -61 -104 -110 -63 -36 31 -45 104 -48 383 l-2 223 -30 6 c-36 8 -134 106
-219 219 -76 102 -205 304 -212 333 -15 59 54 111 104 78 48 -32 269 -394 297
-489 5 -15 15 -4 46 55 47 85 196 321 251 397 21 28 48 59 60 67 30 21 71 20
90 -1z"/>
<path d="M1128 9841 c-38 -45 -199 -296 -261 -408 -30 -55 -50 -78 -70 -85
-34 -12 -23 -31 29 -48 19 -7 39 -20 44 -30 6 -10 10 -81 10 -157 1 -158 15
-390 25 -416 10 -24 41 -17 38 8 -1 11 -3 171 -4 356 l-1 337 74 123 c105 174
178 312 178 337 0 33 -25 26 -62 -17z"/>
<path d="M426 9831 c-8 -12 30 -81 105 -193 64 -95 186 -258 195 -258 18 0
-76 171 -182 333 -76 116 -103 143 -118 118z"/>
<path d="M2060 9160 l0 -990 990 0 990 0 0 990 0 990 -990 0 -990 0 0 -990z
m140 859 c0 -6 -9 -23 -21 -37 l-21 -27 21 -3 c37 -6 25 -31 -13 -29 -49 3
-52 12 -22 52 25 33 26 35 7 35 -11 0 -23 5 -26 10 -4 6 10 10 34 10 23 0 41
-5 41 -11z m950 -179 c5 -8 10 -39 10 -68 0 -57 -29 -125 -253 -584 -58 -120
-104 -218 -102 -218 1 0 63 7 137 15 73 8 184 16 245 17 l113 3 -25 20 c-43
36 -105 119 -105 141 0 34 37 74 70 74 33 0 47 -12 125 -102 31 -38 64 -68 71
-68 7 0 21 -11 30 -25 21 -33 10 -81 -22 -98 -14 -7 -31 -24 -37 -38 -7 -13
-25 -30 -40 -37 -109 -53 -654 -102 -735 -67 -34 15 -52 48 -52 94 0 98 235
569 383 768 30 41 49 55 79 64 80 21 26 20 -184 -5 -117 -15 -237 -26 -266
-26 -48 0 -66 -10 -42 -25 18 -11 10 -56 -15 -80 -50 -51 -110 -14 -140 87
-21 71 -19 95 9 122 18 19 38 25 97 31 311 27 634 30 649 5z"/>
<path d="M2665 9799 c-200 -11 -222 -15 -230 -39 -7 -23 9 -87 30 -117 22 -32
48 -19 40 19 -12 52 14 75 92 83 37 3 143 15 235 26 207 25 248 23 265 -11 12
-24 13 -24 13 13 l0 37 -142 -1 c-79 -1 -215 -6 -303 -10z"/>
<path d="M3058 9690 c-43 -23 -108 -117 -219 -315 -118 -211 -209 -420 -209
-477 0 -51 7 -53 187 -52 116 1 209 8 298 22 209 33 233 40 253 70 9 15 28 36
41 48 l24 21 -34 26 c-19 14 -59 56 -88 92 -50 62 -79 77 -88 49 -2 -7 18 -38
45 -71 27 -32 52 -69 56 -80 10 -32 -25 -63 -71 -63 -21 0 -126 -7 -234 -16
-108 -9 -208 -14 -223 -10 -41 10 -42 44 -5 122 17 38 91 193 164 344 121 252
148 311 142 310 -1 -1 -19 -10 -39 -20z"/>
<path d="M4090 9160 l0 -990 993 0 992 0 -3 990 -2 990 -990 0 -990 0 0 -990z
m134 874 c4 -16 12 -37 17 -46 5 -10 9 -29 9 -44 0 -32 -22 -27 -30 7 -8 34
-40 38 -40 6 0 -22 -26 -45 -37 -33 -4 3 33 122 44 139 9 15 28 0 37 -29z
m536 -114 c30 -16 36 -33 111 -293 60 -206 146 -472 318 -975 39 -115 37 -145
-12 -172 -24 -13 -30 -13 -54 0 -15 9 -38 33 -50 55 -37 65 -107 232 -148 350
-21 61 -39 111 -40 112 0 1 -18 -2 -40 -7 -22 -6 -77 -10 -122 -11 l-82 0 -5
-52 c-3 -29 -10 -115 -16 -193 -6 -78 -14 -154 -19 -170 -16 -61 -99 -70 -129
-14 -27 50 0 462 64 965 41 326 58 385 112 385 15 1 38 7 52 15 30 17 36 18
60 5z"/>
<path d="M4196 10021 c-4 -7 -5 -15 -2 -18 9 -9 19 4 14 18 -4 11 -6 11 -12 0z"/>
<path d="M4672 9858 c-38 -13 -42 -25 -71 -218 -61 -414 -108 -1003 -85 -1064
8 -20 30 -21 38 -1 3 9 13 102 22 208 18 222 23 237 85 237 22 0 83 5 136 11
94 11 95 11 118 -12 12 -13 37 -67 55 -119 38 -107 125 -313 147 -347 18 -27
53 -31 53 -5 0 9 -23 82 -51 162 -143 407 -188 547 -345 1078 -27 90 -31 92
-102 70z m67 -207 c22 -22 19 -14 97 -304 35 -128 54 -217 50 -232 -7 -29 -55
-45 -136 -45 -84 0 -128 16 -137 48 -8 31 34 473 49 511 16 45 46 53 77 22z"/>
<path d="M4700 9618 c0 -29 -26 -292 -45 -450 l-6 -48 102 0 c92 0 101 2 94
18 -3 9 -36 127 -72 262 -36 135 -67 247 -69 249 -2 2 -4 -11 -4 -31z"/>
<path d="M6120 9160 l0 -990 985 0 c542 0 987 -1 990 -2 3 -2 6 444 8 990 l2
992 -992 0 -993 0 0 -990z m148 898 c13 -13 16 -48 4 -48 -4 0 -13 9 -20 20
-17 28 -42 26 -42 -5 0 -22 4 -25 35 -25 32 0 35 -2 35 -29 0 -35 -8 -41 -55
-46 l-35 -3 0 74 0 74 33 0 c18 0 38 -5 45 -12z m971 -126 c102 -53 107 -219
14 -412 -27 -55 -57 -95 -112 -150 l-76 -76 80 0 c69 1 91 -4 157 -32 84 -37
138 -85 157 -144 26 -78 -28 -200 -142 -322 -83 -90 -88 -91 -327 -126 -80
-11 -160 -28 -179 -36 -24 -12 -40 -13 -55 -7 -12 6 -50 7 -91 3 -150 -16
-270 -19 -305 -7 -55 19 -68 95 -21 124 26 16 164 33 268 33 l83 0 -5 53 c-5
50 -17 278 -31 620 l-7 158 -36 -34 c-91 -85 -198 -157 -234 -157 -32 0 -67
27 -67 53 1 48 31 79 184 198 230 176 306 225 383 249 131 39 299 44 362 12z"/>
<path d="M6210 9966 c0 -11 9 -16 26 -16 31 0 28 23 -4 28 -15 2 -22 -2 -22
-12z"/>
<path d="M7040 9904 c-118 -20 -151 -29 -195 -47 -47 -20 -446 -311 -472 -345
-18 -22 -16 -42 3 -42 18 0 72 36 169 114 73 59 111 70 136 40 9 -11 16 -63
20 -158 27 -569 31 -668 25 -690 -8 -33 -46 -43 -191 -50 -66 -2 -133 -9 -148
-15 -39 -15 -34 -39 8 -47 40 -7 343 12 420 27 28 5 111 19 185 30 183 27 209
35 253 77 51 49 125 147 143 191 24 55 23 115 -2 148 -48 65 -165 113 -275
113 -57 0 -70 3 -82 21 -22 30 -12 49 56 116 104 102 165 226 175 355 6 81 -9
123 -50 144 -29 15 -134 26 -178 18z m89 -44 c46 -13 89 -56 97 -97 7 -38 -13
-107 -59 -203 -43 -89 -130 -173 -234 -228 -96 -50 -140 -53 -160 -12 -6 14
-14 108 -18 218 l-8 192 37 34 c40 38 118 71 216 91 83 17 88 17 129 5z m127
-681 c80 -30 104 -56 104 -114 0 -25 -7 -60 -16 -77 -30 -57 -103 -150 -136
-174 -47 -33 -136 -54 -263 -61 -148 -8 -142 -16 -157 206 -15 213 -19 205
127 225 161 22 274 20 341 -5z"/>
<path d="M6972 9800 c-40 -11 -95 -31 -123 -46 l-49 -27 0 -76 c0 -42 3 -133
7 -202 l6 -126 91 49 c136 74 198 143 251 279 37 93 33 129 -16 154 -37 20
-78 18 -167 -5z"/>
<path d="M6960 9142 c-74 -9 -135 -21 -135 -27 2 -56 17 -267 22 -293 l5 -33
62 6 c183 18 269 43 300 86 9 13 34 49 56 79 71 97 64 144 -29 174 -73 24
-136 26 -281 8z"/>
<path d="M8150 9160 l0 -990 985 0 c542 0 987 1 990 3 3 1 6 446 8 990 l2 987
-992 0 -993 0 0 -990z m148 898 c14 -14 16 -48 2 -48 -5 0 -13 7 -18 16 -12
21 -46 14 -50 -9 -7 -33 7 -67 27 -67 10 0 21 7 25 15 3 8 10 15 16 15 16 0
11 -32 -7 -46 -60 -45 -123 48 -77 114 17 24 62 30 82 10z m1004 -168 c40 -12
58 -34 58 -72 0 -34 -35 -68 -69 -68 -52 0 -285 -20 -356 -30 -149 -23 -190
-51 -225 -154 -22 -68 -58 -289 -62 -383 -3 -56 0 -64 26 -92 38 -40 120 -82
245 -125 124 -43 180 -49 212 -21 12 11 46 57 76 103 29 45 65 88 79 94 33 16
74 0 94 -35 14 -26 13 -30 -17 -90 -45 -87 -126 -183 -175 -208 -29 -15 -60
-21 -107 -21 -125 0 -423 117 -510 200 -49 47 -61 90 -61 222 0 249 74 492
174 573 59 48 132 89 185 103 57 16 381 18 433 4z"/>
<path d="M8885 9841 c-42 -11 -92 -37 -150 -81 -103 -76 -163 -252 -172 -501
-7 -176 1 -207 60 -251 109 -79 346 -169 450 -170 75 -1 112 16 161 75 52 63
105 157 99 173 -11 30 -34 11 -91 -73 -97 -146 -140 -159 -319 -99 -185 62
-277 116 -310 179 -19 38 -14 153 16 328 33 194 74 274 156 310 55 24 187 46
364 59 79 6 148 13 152 16 17 10 9 32 -13 38 -32 8 -366 6 -403 -3z"/>
<path d="M10180 9162 c0 -544 2 -991 4 -993 2 -2 449 -3 993 -1 l988 2 0 990
0 990 -992 0 -993 0 0 -988z m164 886 c39 -55 6 -121 -60 -124 l-34 -1 0 74 0
73 39 0 c30 0 44 -6 55 -22z m345 -192 c8 -9 32 -14 70 -15 73 0 92 -8 204
-83 106 -71 186 -148 240 -230 56 -86 68 -129 70 -248 2 -104 2 -105 -37 -179
-61 -112 -112 -159 -255 -229 -68 -34 -154 -69 -193 -79 l-70 -18 2 -70 c3
-99 2 -103 -20 -125 -25 -25 -72 -26 -94 -1 -10 11 -23 49 -29 85 -10 59 -12
64 -27 51 -9 -8 -30 -18 -47 -21 -26 -5 -37 -1 -57 19 -14 15 -26 37 -26 51 0
30 59 91 104 107 l32 12 -1 378 c0 209 -2 379 -4 379 -2 0 -24 -17 -50 -39
-96 -80 -137 -95 -179 -65 -25 17 -29 56 -9 91 13 23 112 96 210 154 31 18 57
38 57 43 0 38 84 62 109 32z"/>
<path d="M10277 10043 c-4 -3 -7 -26 -7 -50 0 -39 2 -43 24 -43 39 0 52 71 17
90 -23 12 -26 12 -34 3z"/>
<path d="M10621 9801 c-7 -12 -67 -57 -135 -101 -122 -79 -147 -103 -127 -123
10 -10 15 -7 130 72 48 34 82 39 101 16 9 -11 12 -112 13 -403 0 -214 -3 -393
-6 -399 -4 -6 -31 -25 -61 -41 -55 -32 -76 -60 -54 -73 6 -4 20 -3 29 2 10 5
31 9 48 9 36 0 55 -25 66 -85 7 -44 22 -68 36 -59 5 3 9 41 9 85 0 72 3 82 25
104 13 14 33 25 44 25 29 0 133 40 236 92 112 55 171 111 220 211 l38 77 -7
92 c-7 107 -28 158 -101 250 -51 65 -126 127 -230 193 -58 36 -83 45 -145 53
-41 6 -85 13 -97 17 -16 5 -24 2 -32 -14z m197 -69 c104 -40 262 -171 315
-262 92 -158 61 -346 -73 -444 -65 -48 -256 -136 -311 -143 -28 -4 -42 0 -58
16 -21 21 -21 27 -21 420 l0 400 22 15 c29 21 67 20 126 -2z"/>
<path d="M10718 9313 c2 -214 5 -389 7 -391 4 -5 151 56 226 94 195 98 243
266 127 447 -64 100 -257 237 -332 237 l-31 0 3 -387z"/>
<path d="M32 7130 l3 -990 988 -3 987 -2 0 993 0 992 -990 0 -990 0 2 -990z
m153 895 c0 -5 -15 -11 -32 -13 -25 -2 -33 -8 -33 -23 0 -14 7 -19 30 -19 17
0 30 -4 30 -10 0 -10 -13 -14 -42 -11 -11 2 -18 -5 -18 -16 0 -13 8 -18 28
-18 15 0 28 -4 30 -10 1 -5 -17 -10 -40 -10 l-43 0 -2 60 c-2 33 -1 66 2 73 6
16 90 13 90 -3z m1422 -223 c26 -14 38 -51 29 -85 -12 -49 -34 -52 -375 -49
-250 3 -340 1 -429 -12 -62 -9 -117 -16 -122 -16 -6 0 -10 -79 -10 -203 l0
-203 138 18 c75 10 160 23 188 30 65 13 97 6 112 -27 39 -85 -6 -109 -288
-155 -69 -11 -129 -20 -134 -20 -12 0 -1 -298 12 -332 21 -51 54 -63 177 -63
155 0 196 15 336 121 136 103 150 109 189 89 59 -31 46 -103 -29 -162 -203
-162 -331 -204 -551 -182 -117 11 -198 41 -224 81 -34 52 -76 259 -76 376 l0
54 -65 -6 c-75 -7 -111 4 -126 38 -28 61 15 99 124 111 l57 6 0 107 c0 59 3
150 6 203 l7 97 -44 -9 c-53 -10 -121 -11 -144 -3 -8 4 -23 20 -31 36 -13 24
-13 35 -4 58 15 36 45 47 145 55 44 3 123 10 175 15 99 10 450 38 555 44 130
7 380 0 402 -12z"/>
<path d="M1100 7759 c-253 -17 -705 -61 -714 -69 -5 -5 -6 -16 -2 -26 6 -15
17 -16 91 -10 78 6 86 5 106 -15 19 -19 21 -29 15 -88 -3 -36 -6 -128 -6 -204
0 -131 -1 -139 -23 -161 -17 -17 -40 -25 -84 -30 -65 -7 -99 -29 -72 -47 8 -5
45 -8 82 -8 49 1 73 -3 83 -13 10 -10 19 -51 25 -117 12 -124 32 -236 53 -285
21 -50 79 -75 207 -89 180 -19 299 17 465 140 78 59 100 85 88 104 -11 19 -36
6 -146 -76 -143 -108 -203 -130 -358 -129 -84 1 -114 5 -153 22 -73 32 -87 72
-94 270 -7 196 -14 187 165 217 185 32 237 44 258 60 15 11 16 16 7 26 -9 9
-26 9 -70 1 -32 -6 -115 -18 -186 -27 -178 -24 -173 -28 -182 148 -4 74 -6
171 -4 216 4 71 8 86 26 101 42 33 184 45 550 45 260 0 345 3 354 13 10 9 10
15 1 25 -16 15 -297 19 -482 6z"/>
<path d="M2060 7128 l0 -993 990 0 990 0 0 993 0 992 -990 0 -990 0 0 -992z
m155 897 c0 -5 -15 -11 -32 -13 -43 -4 -47 -39 -5 -44 15 -2 25 -7 22 -13 -3
-5 -15 -9 -27 -7 -20 2 -23 -2 -23 -28 0 -21 -4 -30 -12 -28 -9 3 -12 27 -11
74 1 38 2 70 2 72 2 8 86 -4 86 -13z m1283 -45 c12 -12 22 -32 22 -46 0 -81
-63 -99 -455 -129 -110 -9 -238 -20 -285 -25 -47 -6 -93 -10 -102 -10 -17 0
-18 -17 -18 -220 l0 -220 213 1 c146 1 220 -2 235 -10 39 -21 42 -100 4 -120
-20 -10 -105 -18 -307 -27 -77 -3 -141 -7 -142 -8 -5 -5 -4 -558 1 -563 13
-14 5 -58 -16 -80 -39 -42 -99 -26 -118 31 -17 52 -30 240 -30 439 l0 177 -90
1 c-49 1 -93 2 -97 3 -50 11 -65 20 -74 43 -28 74 18 103 161 103 l100 0 0
159 c0 87 3 179 6 205 l7 46 -58 -20 c-31 -11 -79 -22 -105 -26 -43 -6 -51 -4
-74 19 -39 40 -29 95 21 115 68 28 669 134 933 166 177 21 242 20 268 -4z"/>
<path d="M3220 7934 c-274 -33 -880 -143 -907 -165 -16 -14 -5 -39 16 -39 10
0 52 9 95 20 72 19 80 20 102 5 24 -15 24 -16 24 -203 0 -227 -6 -257 -58
-272 -20 -5 -71 -10 -113 -10 -54 0 -80 -4 -88 -14 -19 -23 17 -36 96 -36 82
0 138 -14 148 -38 4 -9 11 -132 15 -272 5 -140 12 -274 15 -297 7 -41 29 -72
41 -60 4 3 5 143 5 310 -2 288 -1 305 18 328 19 23 25 24 230 34 221 12 258
20 216 51 -17 13 -51 14 -221 8 l-200 -7 -22 28 c-21 27 -22 37 -22 242 0 123
4 222 10 233 18 34 99 47 410 70 324 24 444 45 438 78 -4 23 -93 25 -248 6z"/>
<path d="M4092 7130 l3 -990 988 0 987 0 0 987 0 988 -990 3 -990 2 2 -990z
m141 896 c16 -13 24 -46 10 -46 -3 0 -15 8 -25 17 -15 13 -23 15 -36 7 -36
-23 -22 -84 19 -84 24 0 25 27 2 33 -17 4 -17 4 0 12 30 13 49 -2 45 -36 -3
-28 -7 -32 -38 -34 -48 -4 -70 18 -70 68 0 65 47 97 93 63z m980 -146 c47 -18
66 -32 103 -78 56 -73 144 -244 144 -282 0 -38 -32 -70 -68 -70 -36 0 -61 28
-146 162 -37 59 -79 117 -92 127 -39 31 -97 34 -224 12 -222 -39 -247 -53
-334 -184 -73 -110 -91 -174 -83 -297 12 -179 84 -408 141 -445 38 -25 130
-45 210 -45 66 0 70 1 102 36 23 24 41 59 57 112 l24 77 -26 3 c-127 14 -273
35 -304 43 -76 20 -101 83 -53 128 29 27 24 27 334 -19 154 -24 197 -27 217
-18 21 10 30 8 53 -9 56 -41 33 -124 -35 -127 -16 -1 -27 -6 -26 -12 25 -136
34 -465 14 -502 -24 -45 -88 -48 -116 -5 -9 13 -21 64 -27 113 l-11 88 -41
-21 c-33 -18 -60 -22 -141 -24 -55 -1 -124 3 -154 9 -65 11 -157 51 -189 81
-32 30 -73 113 -110 222 -46 139 -55 198 -56 351 l0 141 36 76 c49 101 127
216 181 263 119 105 455 156 620 94z"/>
<path d="M4878 7845 c-193 -40 -260 -80 -341 -203 -86 -130 -108 -185 -114
-286 -10 -162 34 -370 108 -517 50 -101 128 -138 304 -146 94 -5 118 -2 169
16 88 31 108 14 120 -99 4 -35 12 -72 17 -82 16 -30 36 -21 44 19 8 42 -1 236
-16 366 -12 101 -2 130 50 140 18 4 31 13 31 22 0 12 -13 15 -57 15 -32 0
-112 9 -178 19 -184 30 -303 43 -315 36 -20 -13 -9 -34 24 -45 19 -6 101 -20
183 -30 197 -25 201 -30 156 -175 -47 -148 -142 -192 -321 -150 -76 18 -113
36 -147 73 -51 55 -116 272 -130 442 -8 91 7 185 42 254 36 73 129 192 168
216 55 34 218 71 340 76 150 7 155 4 270 -166 50 -73 96 -135 102 -138 31 -10
23 34 -20 121 -100 197 -142 229 -317 233 -63 2 -132 -2 -172 -11z"/>
<path d="M6122 7130 l3 -990 988 0 987 0 0 987 0 988 -990 3 -990 2 2 -990z
m88 875 c0 -32 2 -35 30 -35 28 0 30 3 30 36 0 24 4 34 13 31 8 -2 12 -26 12
-72 0 -46 -4 -70 -12 -73 -9 -2 -13 7 -13 27 0 28 -3 31 -30 31 -27 0 -30 -3
-30 -30 0 -16 -4 -30 -10 -30 -6 0 -10 32 -10 75 0 43 4 75 10 75 6 0 10 -16
10 -35z m260 -133 c17 -13 24 -32 26 -68 3 -27 13 -170 24 -318 11 -148 22
-271 24 -273 4 -4 80 6 384 50 l153 22 -5 40 c-12 88 -28 397 -24 459 5 84 28
112 81 102 19 -4 41 -13 47 -21 8 -10 18 -88 26 -208 21 -318 25 -349 39 -344
32 13 164 29 186 24 26 -7 49 -43 49 -76 0 -33 -43 -57 -142 -80 l-96 -23 4
-31 c13 -94 54 -598 54 -661 0 -69 -2 -76 -27 -96 -31 -24 -68 -20 -94 10 -29
34 -48 170 -74 534 -8 115 -16 210 -17 211 -2 1 -91 -11 -198 -26 -107 -16
-227 -31 -267 -35 l-71 -7 4 -31 c11 -82 34 -334 34 -377 0 -57 -24 -89 -68
-89 -66 0 -82 49 -111 325 l-16 160 -35 5 c-70 10 -80 96 -15 127 19 9 35 24
35 32 0 9 -7 115 -15 236 -8 121 -15 260 -15 308 0 80 2 90 25 112 29 30 64
32 95 7z"/>
<path d="M6412 7828 c-16 -16 -15 -154 3 -413 17 -232 14 -249 -36 -278 -26
-14 -29 -20 -19 -32 7 -8 20 -15 30 -15 39 0 50 -32 70 -211 27 -234 40 -283
69 -265 15 10 14 53 -6 264 -17 181 -17 183 3 203 17 17 61 25 275 54 140 19
266 35 281 35 49 0 56 -25 72 -265 21 -299 38 -441 58 -477 12 -23 34 -23 41
1 5 21 5 24 -28 394 -29 320 -29 337 -12 361 8 10 51 27 107 42 102 27 121 37
102 56 -9 9 -31 8 -96 -1 -96 -14 -123 -10 -136 24 -5 13 -17 133 -26 267 -12
176 -21 247 -31 258 -36 38 -41 -48 -21 -345 6 -99 8 -192 5 -207 -9 -36 -31
-41 -282 -77 -293 -41 -308 -42 -329 -8 -11 16 -21 106 -37 322 -21 298 -29
341 -57 313z"/>
<path d="M8152 7130 l3 -990 988 0 987 0 3 990 2 990 -993 0 -992 0 2 -990z
m88 835 c0 -43 -4 -75 -10 -75 -6 0 -10 32 -10 75 0 43 4 75 10 75 6 0 10 -32
10 -75z m741 -21 c17 -21 2 -81 -25 -99 -29 -19 -84 -3 -96 29 -22 59 26 113
81 94 15 -5 33 -16 40 -24z m-6 -248 c17 0 44 4 61 8 42 10 74 -19 74 -67 0
-40 -21 -62 -68 -72 l-33 -7 6 -66 c10 -114 35 -638 35 -727 l0 -83 93 5 c90
6 95 5 110 -18 10 -13 17 -36 17 -51 0 -49 -44 -76 -152 -94 -32 -6 -38 -11
-38 -31 0 -29 -41 -73 -68 -73 -27 0 -72 38 -72 61 0 16 -7 18 -44 17 -58 -3
-96 22 -96 63 0 40 39 79 80 79 17 0 30 5 30 13 0 6 -7 89 -15 182 -9 94 -18
295 -22 447 l-6 277 -51 6 c-94 13 -130 84 -63 125 28 18 41 20 112 13 44 -4
94 -7 110 -7z"/>
<path d="M8910 7904 c0 -9 5 -14 12 -12 18 6 21 28 4 28 -9 0 -16 -7 -16 -16z"/>
<path d="M8778 7649 c-21 -13 5 -31 56 -36 76 -9 79 -16 82 -226 3 -191 19
-489 34 -641 11 -111 2 -136 -55 -152 -62 -17 -58 -40 10 -49 49 -6 59 -11 73
-36 22 -38 39 -37 56 5 17 41 22 45 99 62 66 16 87 28 87 52 0 12 -13 14 -85
10 -132 -9 -123 -29 -140 317 -30 577 -30 613 -11 634 9 10 31 21 47 25 20 4
29 11 27 21 -2 12 -28 15 -135 18 -72 3 -137 1 -145 -4z"/>
<path d="M10182 7130 l3 -990 988 0 987 0 3 990 2 990 -993 0 -992 0 2 -990z
m137 895 c0 -3 1 -32 1 -64 0 -49 -3 -61 -19 -66 -28 -9 -51 5 -51 31 0 13 5
24 10 24 6 0 10 -7 10 -15 0 -8 7 -15 15 -15 12 0 15 13 15 61 0 33 4 58 9 55
5 -3 9 -8 10 -11z m1193 -164 c101 -17 138 -49 124 -107 -4 -13 -17 -31 -30
-40 -22 -14 -34 -14 -140 5 -132 24 -268 28 -261 9 6 -16 87 -582 115 -795 30
-239 42 -415 31 -465 -18 -79 -120 -133 -271 -144 -85 -7 -240 16 -305 45 -58
26 -171 150 -186 203 -21 78 3 420 34 468 6 11 24 25 39 31 23 9 33 8 53 -5
45 -30 48 -56 24 -220 -12 -89 -18 -166 -15 -190 9 -56 49 -120 91 -146 75
-46 275 -60 362 -25 42 18 58 73 49 170 -19 200 -59 464 -111 735 -19 102 -38
218 -42 258 l-6 74 -31 -6 c-71 -15 -224 -36 -260 -36 -51 0 -86 31 -86 75 0
65 16 70 370 104 190 19 352 20 452 2z"/>
<path d="M11095 7816 c-207 -21 -331 -37 -345 -46 -7 -4 -10 -15 -7 -24 8 -20
51 -21 181 -1 114 17 145 18 165 6 9 -6 24 -67 41 -168 15 -87 42 -234 59
-328 67 -368 97 -680 72 -746 -25 -68 -101 -93 -256 -86 -178 8 -247 42 -299
147 -35 70 -38 115 -16 267 12 76 18 148 15 161 -7 27 -31 29 -45 3 -25 -48
-40 -373 -19 -428 12 -33 112 -138 150 -158 14 -8 66 -21 115 -31 150 -28 297
-7 372 52 27 22 27 23 26 141 -2 125 -27 333 -100 838 -48 333 -48 346 2 365
38 15 125 11 249 -9 75 -13 114 -15 123 -8 61 49 -217 79 -483 53z"/>
<path d="M30 5098 l0 -993 990 0 990 0 0 993 0 992 -990 0 -990 0 0 -992z m90
869 l0 -32 22 35 c12 19 23 37 25 39 2 3 8 0 14 -6 8 -8 6 -18 -10 -34 -26
-28 -26 -44 -1 -71 23 -26 25 -38 6 -38 -8 0 -23 15 -35 33 l-21 32 0 -33 c0
-22 -4 -32 -12 -30 -12 4 -20 122 -11 141 9 16 23 -6 23 -36z m405 -52 l25
-24 0 -292 0 -292 58 54 c93 89 424 331 543 398 64 35 95 32 124 -13 15 -23
15 -27 -1 -58 -9 -18 -22 -36 -28 -40 -38 -22 -333 -247 -448 -341 l-137 -111
147 -151 c327 -333 512 -562 512 -632 0 -34 -34 -63 -74 -63 -41 0 -56 16
-181 191 -70 98 -133 167 -299 331 -116 114 -212 206 -213 205 -1 -1 2 -85 7
-187 5 -102 9 -249 10 -327 0 -135 -1 -143 -22 -157 -58 -41 -110 -2 -126 95
-20 114 -34 454 -35 849 -1 438 7 531 49 568 33 29 59 28 89 -3z"/>
<path d="M455 5863 c-37 -97 -22 -1206 18 -1369 14 -57 42 -72 51 -27 4 15 2
116 -4 223 -13 266 -13 393 2 408 7 7 25 12 40 12 22 0 60 -31 192 -157 209
-202 250 -248 366 -406 100 -138 122 -159 141 -140 32 32 -154 262 -488 604
-94 96 -153 164 -153 176 0 11 9 32 20 46 27 34 223 192 424 342 88 66 162
128 164 138 7 34 -38 17 -148 -58 -136 -91 -403 -289 -421 -312 -21 -25 -90
-73 -106 -73 -7 0 -22 9 -33 20 -19 19 -20 33 -20 305 0 273 -1 285 -19 285
-10 0 -22 -8 -26 -17z"/>
<path d="M2060 5098 l0 -993 990 0 990 0 0 993 0 992 -990 0 -990 0 0 -992z
m90 849 c0 -61 0 -62 28 -62 15 0 28 -4 30 -10 1 -5 -17 -10 -39 -10 l-42 0
-2 65 c-2 68 0 80 16 80 5 0 9 -28 9 -63z m422 -40 c12 -22 11 -47 -18 -764
-10 -246 -13 -406 -7 -430 20 -84 95 -76 451 46 125 43 248 81 274 85 44 7 50
5 74 -21 20 -22 24 -34 20 -58 -8 -37 -22 -48 -105 -79 -140 -53 -552 -157
-683 -172 -55 -6 -59 -5 -86 24 -79 84 -87 140 -86 597 1 387 16 688 37 753
15 45 48 64 88 50 16 -6 34 -20 41 -31z"/>
<path d="M2486 5865 c-26 -103 -46 -907 -27 -1088 11 -111 26 -157 63 -197 18
-19 27 -21 67 -15 80 11 359 76 483 111 173 49 233 75 233 99 0 33 -48 22
-321 -71 -386 -131 -462 -128 -485 20 -5 28 -2 201 6 390 8 188 17 439 21 559
7 214 7 217 -13 217 -14 0 -23 -9 -27 -25z"/>
<path d="M4090 5098 l0 -993 990 2 990 3 0 987 0 988 -990 3 -990 2 0 -992z
m1266 897 c40 -43 40 -132 -1 -625 -20 -252 -32 -985 -15 -995 9 -6 11 0 6 22
-8 37 24 83 58 83 34 0 76 -37 76 -66 0 -40 -15 -59 -81 -103 -99 -66 -161
-54 -190 36 -17 53 -21 382 -11 878 5 226 8 411 7 413 -1 1 -31 -42 -67 -95
-119 -179 -276 -381 -308 -398 -49 -26 -86 -22 -121 11 -47 45 -121 141 -168
219 l-42 70 6 -245 c4 -135 13 -305 21 -378 19 -182 19 -286 -2 -306 -40 -41
-96 -27 -120 29 -23 57 -37 304 -37 667 1 333 0 346 -18 351 -11 3 -25 20 -33
37 -11 28 -11 41 0 86 10 37 11 60 4 79 -24 62 3 115 58 115 36 0 55 -21 122
-135 30 -49 101 -164 159 -254 90 -141 106 -162 115 -146 98 168 408 584 493
663 29 26 57 23 89 -13z m-1167 6 c8 -5 11 -16 8 -25 -3 -8 -2 -18 3 -21 6 -4
10 -17 10 -31 0 -43 17 -25 26 28 6 38 14 54 27 56 15 3 17 -6 17 -72 0 -44
-4 -76 -10 -76 -5 0 -10 20 -10 45 0 25 -4 45 -10 45 -5 0 -10 -15 -10 -32 0
-41 -15 -67 -29 -53 -6 6 -15 28 -20 50 l-9 40 -1 -48 c-1 -28 -5 -47 -11 -45
-5 2 -10 6 -10 11 0 4 0 36 0 72 0 65 3 72 29 56z"/>
<path d="M5234 5898 c-99 -118 -246 -315 -328 -438 -42 -63 -83 -125 -92 -137
-21 -32 -60 -40 -85 -17 -22 20 -155 222 -262 399 -39 66 -78 120 -86 120 -11
0 -15 -23 -16 -108 -2 -94 0 -109 15 -117 35 -19 41 -66 34 -265 -7 -207 9
-653 27 -734 8 -39 15 -51 29 -51 29 0 31 27 14 176 -9 77 -18 266 -21 424 -6
314 -6 315 53 308 22 -2 39 -20 85 -88 77 -113 145 -190 170 -190 11 0 29 5
40 11 21 11 154 185 276 361 76 110 106 134 142 111 18 -12 19 -107 12 -833
-4 -352 -3 -401 12 -452 15 -51 21 -58 43 -58 14 0 35 5 47 12 l22 12 -25 6
c-53 13 -55 31 -52 440 2 211 9 454 17 555 42 507 42 615 5 623 -9 1 -41 -29
-76 -70z"/>
<path d="M5393 4418 c-15 -19 -23 -58 -12 -58 15 0 51 40 47 53 -6 17 -24 19
-35 5z"/>
<path d="M6120 5098 l0 -993 990 2 990 3 0 987 0 988 -990 3 -990 2 0 -992z
m126 852 l23 -55 1 58 c0 42 3 57 13 54 8 -2 12 -26 11 -73 0 -90 -20 -97 -55
-22 l-24 53 -3 -52 c-5 -81 -22 -63 -22 23 0 64 2 75 16 72 9 -2 26 -28 40
-58z m355 -87 c14 -16 86 -127 159 -248 116 -191 202 -329 468 -747 30 -49 57
-86 59 -84 4 4 -28 286 -63 546 -14 107 -27 255 -30 327 -2 73 -6 143 -9 156
-4 15 1 32 16 51 21 26 26 28 72 23 100 -12 159 -64 137 -121 -5 -15 -21 -31
-36 -36 -25 -10 -26 -13 -20 -68 3 -31 13 -154 21 -272 20 -289 29 -366 75
-635 57 -333 58 -350 30 -380 -13 -14 -35 -25 -49 -25 -38 0 -121 94 -221 248
-47 73 -134 208 -194 300 -201 308 -318 495 -392 626 l-73 129 5 -149 c3 -82
11 -390 19 -684 10 -448 10 -539 -1 -557 -31 -50 -101 -34 -121 30 -20 60 -55
934 -51 1247 3 226 6 270 21 297 17 31 48 50 66 39 5 -3 20 -2 33 3 38 16 53
12 79 -16z"/>
<path d="M7240 5724 c0 -113 14 -257 59 -599 30 -223 37 -341 21 -360 -22 -27
-66 -19 -93 18 -36 48 -326 508 -500 792 l-152 250 -46 3 c-29 2 -50 -2 -57
-10 -30 -37 -34 -514 -7 -958 3 -52 10 -192 15 -310 11 -241 14 -260 42 -260
18 0 19 6 14 83 -3 45 -11 351 -17 679 -13 639 -14 628 35 628 30 0 53 -28
111 -130 149 -264 668 -1060 728 -1119 70 -67 71 -43 7 334 -46 274 -55 347
-75 655 -9 129 -18 245 -20 257 -7 29 11 73 35 90 41 29 14 56 -67 70 l-33 6
0 -119z"/>
<path d="M8150 5098 l0 -993 990 2 990 3 3 990 2 990 -992 0 -993 0 0 -992z
m157 890 c47 -44 16 -128 -47 -128 -55 0 -81 83 -40 128 26 28 57 28 87 0z
m959 -179 c85 -15 92 -17 128 -52 19 -18 54 -45 80 -60 51 -31 98 -93 122
-159 22 -61 28 -218 15 -403 -13 -193 -22 -214 -145 -361 -175 -208 -301 -304
-420 -319 -51 -7 -177 6 -247 25 -53 15 -143 78 -178 125 -60 83 -116 358
-115 575 0 123 1 127 46 253 25 70 61 153 79 184 103 171 344 244 635 192z"/>
<path d="M8234 5956 c-10 -40 -1 -61 28 -64 30 -4 44 23 34 64 -9 34 -53 34
-62 0z"/>
<path d="M8985 5773 c-16 -2 -65 -15 -108 -29 -147 -48 -209 -124 -284 -343
-36 -107 -43 -138 -43 -206 0 -182 52 -461 103 -548 54 -92 168 -140 332 -141
91 -1 105 2 155 28 90 47 344 315 399 423 26 51 41 435 20 532 -14 69 -58 133
-114 167 -26 16 -64 44 -86 63 -34 29 -51 35 -131 47 -88 13 -177 16 -243 7z
m380 -112 c22 -21 57 -50 77 -65 68 -51 80 -91 85 -304 8 -273 -15 -344 -163
-501 -188 -200 -309 -264 -456 -240 -114 18 -190 65 -228 139 -51 100 -97 420
-79 548 21 148 99 332 167 394 69 62 169 80 412 72 l145 -4 40 -39z"/>
<path d="M8945 5654 c-100 -13 -152 -45 -195 -119 -39 -68 -97 -245 -105 -320
-13 -115 35 -410 83 -505 32 -64 78 -92 186 -111 127 -23 202 16 382 195 87
87 118 126 145 181 l34 69 3 192 c4 229 -3 264 -61 314 -22 19 -56 51 -76 70
l-36 35 -165 1 c-91 1 -178 0 -195 -2z"/>
<path d="M10182 5100 l3 -990 988 0 987 0 0 987 0 988 -990 3 -990 2 2 -990z
m146 897 c6 -5 12 -21 12 -37 0 -31 -14 -45 -45 -45 -14 0 -21 -8 -23 -27 -7
-57 -22 -25 -22 45 l0 74 33 -1 c17 -1 38 -5 45 -9z m689 -93 c92 -31 258
-119 299 -159 52 -49 68 -101 69 -215 0 -83 -1 -89 -53 -195 -55 -113 -95
-165 -147 -192 -64 -34 -356 -113 -415 -113 l-30 0 6 -207 c11 -346 -11 -448
-96 -441 -29 2 -38 9 -53 39 -16 34 -16 41 -1 120 25 129 2 451 -34 476 -36
25 -42 35 -42 64 0 18 9 38 23 52 23 21 23 25 15 117 -13 130 -4 211 27 268
28 51 27 61 -6 38 -26 -18 -45 -10 -96 39 -34 33 -41 62 -23 95 11 21 177 120
311 185 104 51 161 58 246 29z"/>
<path d="M10270 5962 c0 -26 10 -33 31 -21 28 14 24 39 -6 39 -18 0 -25 -5
-25 -18z"/>
<path d="M10745 5807 c-171 -91 -245 -136 -245 -151 0 -26 41 -51 84 -51 l41
0 5 45 c4 39 11 49 55 82 27 20 71 49 97 63 91 50 214 31 379 -56 91 -49 139
-116 139 -194 0 -64 -63 -230 -103 -273 -48 -52 -187 -100 -358 -123 -95 -13
-134 -8 -148 19 -5 9 -14 81 -21 160 -7 79 -16 156 -20 170 -7 26 -8 26 -30
-22 -21 -47 -22 -58 -15 -193 6 -137 6 -144 -16 -174 l-22 -31 27 -22 c34 -26
40 -57 56 -266 10 -130 10 -168 -3 -239 -16 -89 -13 -121 9 -121 33 0 39 51
40 334 1 311 -2 299 73 312 78 13 211 46 303 76 121 38 150 65 215 197 47 93
48 99 48 186 0 115 -18 155 -95 207 -96 65 -236 122 -310 125 -63 4 -68 2
-185 -60z"/>
<path d="M10837 5770 c-20 -6 -107 -62 -165 -106 -2 -1 3 -33 11 -71 14 -61
23 -130 42 -344 l6 -66 96 14 c128 17 250 50 295 79 49 31 81 82 107 168 46
149 20 200 -139 275 -121 57 -189 70 -253 51z"/>
<path d="M30 3065 l0 -995 990 0 990 0 0 995 0 995 -990 0 -990 0 0 -995z
m160 886 c5 -11 9 -44 9 -73 l-2 -53 -41 3 c-56 6 -76 26 -76 77 0 51 13 65
62 65 27 0 40 -5 48 -19z m731 -107 c94 -5 139 -20 248 -86 311 -186 365 -284
342 -614 -13 -169 -38 -336 -75 -490 l-24 -97 37 -30 c20 -17 66 -61 104 -97
58 -58 67 -71 67 -103 0 -27 -7 -41 -27 -57 -38 -30 -62 -21 -164 60 -73 57
-89 66 -100 55 -19 -19 -185 -78 -295 -105 -68 -17 -106 -21 -160 -17 -87 6
-273 67 -352 114 -127 76 -313 238 -345 300 -47 91 -48 332 -1 562 25 119 111
373 144 422 75 114 150 177 225 190 36 7 154 5 376 -7z"/>
<path d="M112 3938 c-28 -28 6 -99 42 -85 20 8 32 56 19 76 -13 20 -45 25 -61
9z"/>
<path d="M545 3801 c-47 -12 -68 -26 -113 -75 -70 -76 -100 -134 -147 -278
-73 -225 -101 -404 -93 -587 6 -133 20 -166 104 -247 152 -147 285 -228 460
-279 124 -37 205 -32 379 25 72 23 147 51 168 62 49 24 63 19 154 -53 41 -33
83 -59 94 -59 42 0 18 40 -76 127 -53 48 -98 98 -102 111 -3 12 4 65 16 116
40 171 60 309 73 482 10 153 10 178 -5 240 -10 39 -32 92 -53 122 -40 60 -159
153 -292 228 -75 42 -95 48 -171 56 -132 13 -363 18 -396 9z m330 -72 c118 8
130 6 208 -32 91 -45 222 -141 272 -200 58 -67 69 -124 62 -317 -6 -169 -22
-287 -58 -443 -22 -93 -39 -114 -84 -103 -12 3 -84 69 -158 146 -75 77 -140
140 -146 140 -19 0 -22 -20 -6 -50 17 -33 103 -132 229 -265 115 -122 106
-155 -60 -211 -60 -20 -106 -28 -189 -31 -100 -5 -117 -3 -189 21 -178 60
-294 129 -414 244 -91 88 -106 128 -104 277 3 253 74 571 159 708 28 44 69 72
138 92 65 19 218 35 270 27 22 -3 54 -4 70 -3z"/>
<path d="M920 3685 c-30 -17 -76 -19 -86 -4 -5 8 -35 10 -102 5 -130 -9 -226
-32 -262 -63 -43 -36 -85 -133 -124 -284 -41 -162 -58 -287 -60 -439 -1 -146
8 -167 125 -269 96 -83 195 -141 329 -192 71 -27 99 -32 170 -32 98 0 202 22
278 59 l53 26 -118 122 c-213 218 -254 285 -203 336 11 11 33 20 50 20 31 0
31 0 262 -245 31 -33 59 -58 61 -55 10 10 56 257 66 352 18 160 14 346 -8 393
-31 69 -178 187 -304 245 -85 39 -98 41 -127 25z"/>
<path d="M2060 3065 l0 -995 990 0 990 0 0 995 0 995 -990 0 -990 0 0 -995z
m154 883 c8 -13 8 -23 -1 -36 -7 -12 -8 -24 -2 -33 14 -22 11 -49 -6 -49 -8 0
-15 8 -15 18 0 19 -18 42 -32 42 -4 0 -8 -14 -8 -31 0 -19 -4 -29 -12 -27 -9
3 -16 113 -9 141 3 11 76 -11 85 -25z m350 -128 c15 -5 31 -20 37 -33 l10 -23
72 19 c47 13 109 20 177 21 103 1 108 0 182 -37 87 -43 170 -113 198 -167 37
-72 51 -229 26 -279 -50 -95 -312 -269 -500 -331 l-38 -12 54 -31 c113 -64
310 -235 388 -336 32 -42 69 -86 83 -99 l24 -23 37 25 c31 21 42 23 63 15 31
-12 52 -37 53 -62 1 -55 -88 -127 -155 -127 -37 0 -48 9 -234 198 -141 143
-220 215 -283 257 -48 32 -90 56 -93 53 -3 -3 -1 -52 4 -109 10 -107 15 -219
12 -301 -1 -56 -26 -88 -69 -88 -69 0 -82 49 -104 373 l-12 188 -33 14 c-56
24 -58 107 -3 128 l30 11 -6 96 c-2 52 -9 164 -14 249 -4 85 -6 160 -3 167 7
19 -1 18 -50 -7 -75 -39 -94 -41 -127 -12 -17 13 -30 32 -30 40 0 27 40 71 74
83 19 6 37 17 40 25 3 8 31 31 63 52 32 20 64 45 71 55 15 21 21 22 56 8z"/>
<path d="M2150 3924 c0 -33 33 -30 38 4 3 17 -2 22 -17 22 -16 0 -21 -6 -21
-26z"/>
<path d="M2480 3729 c-30 -22 -66 -50 -80 -63 -14 -12 -37 -27 -52 -34 -29
-12 -39 -42 -14 -42 8 0 33 9 57 20 104 47 114 32 128 -193 6 -98 11 -221 11
-273 0 -95 0 -95 -32 -125 l-33 -30 39 -32 38 -32 13 -194 c17 -243 24 -296
40 -318 11 -15 16 -16 27 -5 15 15 15 189 -1 337 -18 177 30 188 219 52 30
-22 136 -123 235 -224 201 -204 207 -207 270 -152 19 17 35 35 35 40 0 18 -31
21 -49 5 -10 -9 -34 -16 -53 -16 -39 0 -70 28 -161 147 -52 68 -226 223 -315
280 -80 52 -102 73 -102 98 0 31 22 47 131 94 135 59 252 133 333 212 l69 68
-6 84 c-7 108 -28 157 -87 210 -119 107 -225 134 -400 101 -124 -23 -151 -22
-168 5 -19 28 -27 26 -92 -20z m527 -49 c122 -56 183 -140 183 -251 0 -61 -10
-87 -48 -124 -47 -46 -224 -149 -342 -199 -135 -57 -160 -62 -189 -39 -19 16
-24 33 -32 128 -6 61 -9 188 -7 283 3 166 4 175 25 192 20 16 66 25 218 43 58
7 131 -5 192 -33z"/>
<path d="M2730 3655 c-47 -7 -91 -14 -97 -14 -14 -1 -18 -277 -7 -453 l7 -96
61 23 c169 64 402 194 434 243 20 30 21 90 3 145 -17 49 -60 91 -135 129 -73
37 -142 43 -266 23z"/>
<path d="M4090 3065 l0 -995 990 2 990 3 0 990 0 990 -990 3 -990 2 0 -995z
m1132 929 c115 -37 308 -201 308 -261 0 -36 -33 -73 -65 -73 -16 0 -56 28
-119 85 -53 46 -109 91 -125 100 -51 26 -175 38 -321 30 -144 -8 -165 -13
-220 -50 -55 -38 -74 -77 -66 -138 16 -118 30 -130 362 -300 115 -59 240 -131
278 -159 119 -89 238 -260 265 -378 58 -260 18 -486 -99 -565 -72 -48 -284
-86 -485 -88 -104 -1 -114 1 -165 29 -30 16 -89 63 -131 104 -98 96 -159 214
-167 319 -4 65 -3 69 24 90 31 25 67 22 95 -7 9 -9 24 -48 34 -86 26 -98 66
-173 127 -235 69 -70 104 -85 198 -83 100 1 365 54 398 79 37 28 53 85 53 194
0 113 -22 234 -56 304 -30 61 -123 169 -190 219 -27 21 -93 58 -145 83 -236
112 -303 149 -386 212 -73 55 -94 78 -119 126 -28 55 -30 65 -28 165 1 121 11
148 70 200 46 41 147 89 210 100 74 14 409 2 465 -16z m-988 -30 c9 -3 16 -12
16 -20 0 -16 -16 -19 -25 -4 -9 15 -45 12 -45 -3 0 -7 16 -19 35 -26 37 -13
47 -45 23 -69 -27 -27 -102 -2 -83 28 5 8 13 6 26 -6 14 -13 23 -14 30 -7 14
14 3 32 -27 43 -23 9 -34 47 -17 63 8 9 46 9 67 1z"/>
<path d="M4748 3960 c-62 -16 -153 -66 -186 -104 -23 -26 -32 -49 -37 -91 -10
-80 2 -162 30 -211 43 -73 180 -165 397 -265 73 -34 158 -77 188 -96 116 -73
233 -212 268 -318 48 -144 55 -355 15 -446 -29 -66 -63 -82 -246 -118 -272
-53 -359 -40 -463 70 -66 71 -96 125 -129 232 -23 71 -31 87 -47 87 -19 0 -20
-5 -16 -55 7 -89 72 -208 158 -288 110 -104 131 -112 280 -110 140 2 338 32
405 62 103 45 152 212 125 420 -20 155 -56 234 -163 363 -66 81 -157 141 -395
264 -252 129 -307 165 -332 214 -26 50 -38 135 -27 187 10 53 86 125 155 146
62 20 266 29 373 17 127 -15 159 -31 279 -142 76 -71 87 -77 96 -53 13 33
-115 149 -225 203 l-74 37 -196 2 c-108 1 -213 -2 -233 -7z"/>
<path d="M6120 3065 l0 -995 990 2 990 3 0 990 0 990 -990 3 -990 2 0 -995z
m175 895 c-3 -5 -17 -10 -30 -10 -23 0 -24 -3 -22 -56 1 -38 -2 -58 -10 -61
-10 -3 -13 12 -13 56 0 58 -1 61 -25 61 -14 0 -25 5 -25 10 0 6 29 10 66 10
41 0 63 -4 59 -10z m981 -187 c383 2 403 1 423 -17 29 -26 27 -68 -5 -99 -43
-43 -111 -52 -392 -52 l-252 0 0 -45 c1 -25 9 -268 19 -540 12 -312 15 -499 9
-507 -5 -6 -22 -16 -37 -21 -40 -14 -73 5 -88 51 -27 80 -53 506 -53 858 l0
216 -137 6 c-75 4 -169 7 -210 7 -118 0 -175 39 -158 108 11 43 44 48 271 40
115 -4 390 -7 610 -5z"/>
<path d="M6463 3730 c-27 -11 -28 -14 -7 -34 12 -12 38 -16 107 -16 51 -1 150
-5 221 -9 113 -7 132 -11 146 -29 15 -18 18 -65 23 -379 6 -356 18 -570 38
-670 8 -41 15 -53 29 -53 17 0 18 8 14 113 -30 737 -34 951 -19 974 l15 23
233 0 c127 0 261 5 297 11 67 10 114 33 108 50 -2 7 -202 11 -568 14 -311 1
-576 5 -590 8 -14 4 -35 2 -47 -3z"/>
<path d="M8152 3070 l3 -990 988 0 987 0 0 987 0 988 -990 3 -990 2 2 -990z
m88 851 c0 -42 4 -60 14 -64 24 -9 38 19 34 69 -2 32 1 49 10 51 9 4 12 -13
12 -59 0 -68 -10 -88 -45 -88 -12 0 -26 5 -33 12 -15 15 -16 138 -2 138 6 0
10 -26 10 -59z m410 -18 c16 -20 20 -36 16 -57 -7 -33 10 -521 24 -728 11
-151 44 -279 83 -322 29 -33 112 -56 222 -62 114 -7 149 8 184 80 34 67 37
183 16 481 -9 132 -18 291 -18 353 -2 108 -1 115 22 133 30 24 73 24 95 0 31
-34 46 -112 66 -338 20 -227 41 -337 112 -591 29 -103 33 -111 48 -97 21 19
60 19 88 -1 16 -11 22 -25 22 -55 0 -34 -5 -42 -42 -69 -77 -56 -146 -59 -181
-10 -8 12 -28 60 -43 108 l-28 85 -12 -52 c-14 -66 -43 -96 -124 -134 -84 -39
-194 -47 -324 -23 -161 31 -202 60 -262 191 -50 109 -90 409 -101 752 l-6 203
-37 -6 c-32 -5 -40 -2 -58 21 -27 34 -27 49 -2 85 15 22 34 31 74 40 30 6 60
18 66 26 21 25 76 18 100 -13z"/>
<path d="M8560 3864 c-14 -8 -44 -19 -67 -24 -33 -8 -43 -16 -43 -30 0 -16 7
-20 39 -20 63 0 65 -8 73 -239 7 -213 27 -436 54 -588 23 -133 81 -245 142
-277 45 -23 175 -46 261 -46 141 0 232 49 265 142 34 93 87 72 129 -51 35
-101 50 -111 115 -79 32 16 48 30 50 46 4 24 -4 27 -42 12 -50 -18 -74 4 -101
94 -68 229 -102 398 -119 602 -25 288 -36 344 -70 344 -26 0 -29 -62 -12 -308
34 -500 32 -567 -17 -662 -42 -82 -136 -112 -278 -91 -104 16 -164 38 -198 72
-35 34 -76 152 -90 254 -9 64 -33 570 -41 858 0 11 -22 7 -50 -9z"/>
<path d="M10182 3070 l3 -990 988 0 987 0 0 987 0 988 -990 3 -990 2 2 -990z
m88 871 c1 -31 29 -87 30 -58 0 32 25 97 35 94 11 -4 8 -56 -5 -72 -4 -5 -11
-25 -15 -42 -7 -36 -32 -45 -41 -15 -3 9 -10 25 -15 34 -5 10 -9 26 -9 36 0
10 -5 23 -11 29 -15 15 -3 34 16 26 8 -3 15 -17 15 -32z m1394 -162 c19 -15
26 -30 26 -54 0 -44 -34 -71 -103 -80 -161 -21 -194 -63 -232 -289 -38 -226
-53 -269 -201 -583 -144 -302 -153 -325 -146 -376 7 -63 -53 -106 -104 -72
-55 36 -194 384 -279 697 -51 188 -105 431 -112 503 -5 58 -7 62 -37 71 -18 5
-36 20 -44 36 -27 57 29 110 131 124 36 5 45 2 63 -18 24 -26 50 -138 89 -378
64 -393 90 -490 190 -704 l28 -58 27 68 c15 38 55 132 90 209 133 298 159 375
225 682 26 118 51 163 108 191 42 22 163 48 228 51 15 1 38 -8 53 -20z"/>
<path d="M11504 3735 c-143 -26 -152 -39 -205 -292 -37 -180 -72 -283 -166
-498 -41 -93 -93 -212 -115 -263 -43 -97 -63 -118 -105 -107 -19 4 -34 26 -70
103 -82 178 -108 274 -168 632 -40 236 -61 343 -76 379 -8 20 -14 22 -47 16
-77 -14 -94 -43 -42 -70 32 -17 36 -28 64 -185 29 -165 106 -458 166 -640 55
-165 141 -374 175 -426 24 -37 42 -20 47 44 4 60 17 90 186 447 101 212 122
277 152 450 49 285 85 335 263 365 69 12 95 33 66 51 -18 11 -37 10 -125 -6z"/>
<path d="M30 1033 l0 -993 990 0 990 0 0 993 0 992 -990 0 -990 0 0 -992z m84
885 c3 -13 6 -34 6 -48 l0 -25 15 29 c8 15 15 37 15 47 0 11 7 19 15 19 10 0
15 -11 15 -35 0 -24 5 -35 15 -35 10 0 15 11 15 35 0 28 4 35 20 35 17 0 19
-4 14 -27 -4 -16 -11 -36 -15 -45 -5 -9 -9 -28 -9 -42 0 -19 -5 -26 -20 -26
-15 0 -20 7 -20 26 0 14 -6 35 -12 47 -12 20 -13 19 -18 -23 -3 -31 -10 -46
-21 -48 -12 -2 -20 13 -33 62 -19 79 -19 76 -2 76 7 0 16 -10 20 -22z m1480
-18 c54 -20 59 -98 8 -124 -15 -7 -71 -23 -124 -35 -127 -27 -182 -53 -210
-100 -21 -32 -23 -47 -21 -146 7 -532 6 -556 -21 -810 -30 -277 -49 -378 -77
-406 -22 -22 -67 -25 -92 -6 -22 16 -109 247 -186 497 -34 107 -63 200 -65
205 -2 6 -7 1 -11 -10 -4 -11 -37 -87 -73 -170 -123 -282 -140 -328 -134 -363
6 -47 -20 -82 -62 -82 -40 0 -78 32 -100 84 -54 130 -183 605 -227 836 -19
103 -24 118 -52 141 -27 22 -29 29 -23 62 7 39 50 80 97 92 20 5 32 0 56 -25
39 -40 56 -95 99 -315 19 -99 46 -237 60 -306 26 -137 69 -273 77 -249 3 8 18
58 33 110 44 155 131 405 163 469 32 62 71 101 102 101 10 0 33 -15 52 -33 37
-34 40 -45 71 -237 13 -81 122 -427 132 -418 1 2 12 75 24 163 16 121 24 246
30 510 9 357 14 411 47 447 35 39 157 86 289 112 86 18 106 18 138 6z"/>
<path d="M1472 1849 c-81 -16 -208 -59 -243 -82 -47 -31 -57 -85 -59 -317 -3
-421 -34 -764 -72 -802 -23 -23 -40 -23 -67 0 -34 28 -127 312 -152 467 -22
137 -37 175 -69 175 -26 0 -51 -39 -93 -145 -29 -74 -157 -465 -157 -479 0 -3
-7 -12 -16 -20 -21 -21 -57 -20 -76 2 -28 30 -67 180 -113 432 -58 320 -77
393 -108 419 -20 16 -54 6 -68 -21 -9 -17 -7 -24 15 -45 14 -13 28 -34 31 -46
2 -12 16 -79 30 -149 34 -170 96 -410 152 -592 52 -171 66 -208 88 -230 30
-30 42 -19 47 42 4 44 26 106 101 277 124 281 117 269 151 273 36 4 60 -18 75
-71 60 -209 196 -594 217 -617 38 -40 58 40 95 395 23 207 24 290 16 785 -3
181 45 235 260 286 113 27 151 47 123 64 -18 11 -48 11 -108 -1z"/>
<path d="M2060 1033 l0 -993 990 0 990 0 0 993 0 992 -990 0 -990 0 0 -992z
m160 898 c0 -4 -10 -17 -21 -30 -19 -20 -20 -26 -9 -47 8 -13 17 -24 22 -24 4
0 8 -7 8 -15 0 -25 -29 -17 -36 9 -7 29 -34 24 -34 -5 0 -12 -7 -19 -20 -19
-25 0 -25 4 1 40 22 29 21 38 -7 78 -16 21 -15 22 4 22 11 0 22 -8 25 -20 6
-22 27 -28 27 -7 0 17 21 38 32 31 4 -3 8 -9 8 -13z m1325 -95 c42 -18 53 -51
31 -94 -11 -21 -25 -31 -50 -36 -46 -9 -103 -73 -143 -161 -86 -189 -155 -329
-206 -418 -31 -54 -57 -100 -57 -101 0 -2 46 -48 101 -102 139 -136 199 -209
199 -242 0 -16 13 -43 29 -63 41 -49 44 -86 11 -119 -48 -48 -127 1 -150 92
-18 70 -30 88 -145 207 l-111 113 -118 -198 c-141 -235 -261 -416 -309 -467
-80 -85 -160 -15 -112 99 27 65 259 437 400 642 l23 33 -176 167 c-173 164
-264 263 -284 308 -10 21 -13 22 -32 9 -30 -22 -64 -18 -91 10 -35 34 -31 61
13 102 20 18 56 52 79 75 40 38 44 40 80 31 53 -12 71 -49 47 -98 l-16 -35 41
-54 c37 -47 394 -406 405 -406 2 0 36 54 75 121 63 106 143 275 166 349 11 37
74 159 99 193 11 16 32 35 46 43 33 18 112 18 155 0z"/>
<path d="M3408 1789 c-27 -15 -82 -116 -132 -243 -67 -170 -174 -372 -229
-433 -35 -39 -60 -29 -155 56 -121 109 -313 308 -347 358 -24 38 -27 49 -21
92 7 57 -5 72 -31 41 -10 -12 -37 -35 -60 -51 -59 -41 -57 -81 2 -59 41 16 60
5 109 -64 25 -35 132 -147 237 -248 166 -160 192 -189 192 -215 0 -22 -44 -99
-160 -280 -89 -137 -184 -289 -212 -338 -51 -89 -65 -145 -36 -145 27 0 149
178 330 480 54 91 107 175 118 188 36 39 62 29 154 -60 111 -109 162 -176 185
-245 19 -60 42 -93 65 -93 20 0 16 26 -12 68 -13 20 -28 53 -31 72 -6 27 -40
67 -151 181 -115 117 -143 151 -143 174 0 16 33 87 80 170 43 79 99 191 124
249 87 202 132 270 199 297 49 19 59 29 46 45 -13 16 -95 18 -121 3z"/>
<path d="M4090 1032 l0 -992 990 2 990 3 0 988 0 987 -990 3 -990 2 0 -993z
m96 886 l17 -33 14 34 c10 25 17 31 25 23 8 -8 5 -23 -11 -55 -12 -24 -21 -52
-19 -62 2 -10 -3 -20 -9 -22 -9 -3 -13 6 -13 26 0 16 -9 46 -21 65 -11 19 -18
40 -14 46 9 15 13 13 31 -22z m1404 -60 c11 -12 20 -34 20 -49 0 -26 -10 -42
-111 -181 -26 -34 -77 -117 -114 -183 -97 -172 -156 -267 -182 -293 -20 -19
-21 -26 -12 -45 14 -24 6 -441 -12 -638 -16 -185 -34 -229 -95 -229 -40 0 -74
38 -74 85 0 17 12 90 26 161 24 118 26 144 22 307 -5 169 -6 179 -27 193 -12
9 -55 66 -96 129 -59 89 -115 154 -268 311 -205 211 -257 273 -257 309 0 37
32 68 71 68 28 0 42 -10 97 -69 116 -126 426 -475 456 -514 l30 -39 29 52 c95
171 140 247 220 377 50 80 106 165 124 190 60 79 114 100 153 58z"/>
<path d="M5517 1819 c-31 -18 -235 -342 -366 -580 -22 -43 -48 -80 -57 -83
-45 -17 -62 -6 -155 102 -206 237 -441 492 -454 492 -21 0 -27 -17 -15 -40 6
-11 103 -116 216 -232 147 -153 225 -243 276 -318 39 -58 86 -121 104 -141 32
-36 32 -38 39 -175 9 -164 3 -253 -25 -391 -12 -57 -20 -115 -18 -130 4 -36
35 -43 47 -10 19 50 33 262 37 549 l3 297 35 46 c19 25 61 91 92 148 99 179
156 270 221 356 60 78 73 110 48 117 -5 2 -18 -1 -28 -7z"/>
<path d="M6120 1033 l0 -993 990 0 990 0 0 985 c0 542 -1 987 -2 990 -2 3
-447 6 -991 8 l-987 2 0 -992z m160 896 c0 -6 -14 -30 -31 -55 -23 -34 -27
-45 -16 -50 8 -3 20 -4 27 -2 7 2 15 -3 17 -9 3 -9 -9 -13 -41 -13 -35 0 -46
4 -46 15 0 17 25 60 49 85 13 13 11 15 -17 18 -48 5 -38 22 13 22 25 0 45 -5
45 -11z m702 -55 c209 -4 407 -2 532 5 184 10 202 10 235 -6 30 -15 36 -24 39
-54 3 -30 -2 -41 -24 -58 -15 -11 -32 -21 -40 -21 -30 0 -223 -233 -388 -470
l-66 -95 63 -31 c111 -57 141 -103 98 -155 -30 -37 -77 -31 -165 23 l-75 46
-82 -122 c-132 -194 -238 -345 -302 -430 l-60 -78 39 6 c22 3 109 13 194 21
85 9 184 20 220 25 36 5 151 14 256 21 l190 13 -38 73 c-43 84 -48 131 -18
158 26 24 76 23 100 -1 11 -10 39 -66 63 -124 37 -90 48 -107 77 -122 44 -23
66 -62 51 -94 -22 -48 -44 -54 -277 -64 -711 -32 -673 -29 -869 -74 -60 -14
-140 -26 -177 -26 -58 0 -69 3 -82 22 -21 30 -20 71 3 92 10 9 21 34 25 55 11
70 156 287 385 576 l118 150 -83 21 c-86 22 -108 33 -125 67 -14 26 5 70 38
88 22 12 37 9 144 -27 l118 -40 56 68 c121 147 309 363 321 371 32 18 7 22
-118 19 -151 -4 -604 13 -633 24 -18 7 -18 6 3 -21 36 -45 6 -105 -54 -105
-26 0 -40 9 -73 46 -27 31 -41 56 -41 74 0 19 -6 29 -20 33 -28 7 -46 51 -34
85 13 37 50 54 101 48 24 -3 192 -8 375 -12z"/>
<path d="M6562 1828 c-9 -12 -7 -19 13 -38 13 -12 27 -36 30 -51 8 -36 51 -89
72 -89 12 0 14 8 9 43 -5 35 -3 47 12 60 16 15 38 16 223 7 112 -5 288 -10
391 -10 156 0 189 -3 202 -16 35 -35 42 -24 -251 -369 -65 -77 -130 -146 -144
-154 -23 -13 -35 -11 -139 23 -74 24 -116 34 -123 27 -20 -20 3 -39 70 -56
110 -28 119 -35 115 -88 -1 -10 -57 -89 -125 -175 -231 -295 -367 -497 -367
-544 0 -8 -9 -31 -20 -53 -11 -22 -20 -43 -20 -47 0 -18 126 -6 249 22 154 36
265 46 666 60 165 6 322 14 350 18 62 9 70 31 22 61 -21 12 -41 38 -55 68 -12
26 -35 78 -51 115 -23 52 -35 68 -50 68 -30 0 -27 -26 13 -110 51 -106 30
-139 -89 -140 -67 0 -279 -19 -554 -50 -237 -26 -266 -26 -284 1 -21 29 -11
52 63 153 36 49 130 184 210 300 80 116 157 217 171 225 28 16 19 19 143 -48
44 -23 62 -29 72 -20 22 18 6 36 -67 74 -73 38 -94 63 -85 99 3 13 51 87 106
165 163 232 298 389 362 422 42 21 49 44 18 54 -11 4 -116 1 -233 -6 -202 -11
-703 -7 -852 8 -46 4 -63 2 -73 -9z"/>
</g>
</svg>
