<?xml version="1.0" standalone="no"?>
<!DOCTYPE svg PUBLIC "-//W3C//DTD SVG 20010904//EN"
 "http://www.w3.org/TR/2001/REC-SVG-20010904/DTD/svg10.dtd">
<svg version="1.0" xmlns="http://www.w3.org/2000/svg"
 width="11.000000pt" height="27.000000pt" viewBox="0 0 11.000000 27.000000"
 preserveAspectRatio="xMidYMid meet">
<metadata>
Created by potrace 1.16, written by Peter Selinger 2001-2019
</metadata>
<g transform="translate(0.000000,27.000000) scale(0.100000,-0.100000)"
fill="#000000" stroke="none">
<path d="M80 225 c0 -8 -9 -15 -20 -15 -26 0 -60 -34 -60 -60 0 -34 31 -60 72
-60 l38 0 0 75 c0 60 -3 75 -15 75 -8 0 -15 -7 -15 -15z m0 -74 c0 -23 -9 -31
-26 -24 -17 6 -18 25 -2 41 14 14 28 6 28 -17z"/>
</g>
</svg>
