<?xml version="1.0" standalone="no"?>
<!DOCTYPE svg PUBLIC "-//W3C//DTD SVG 20010904//EN"
 "http://www.w3.org/TR/2001/REC-SVG-20010904/DTD/svg10.dtd">
<svg version="1.0" xmlns="http://www.w3.org/2000/svg"
 width="28.000000pt" height="12.000000pt" viewBox="0 0 28.000000 12.000000"
 preserveAspectRatio="xMidYMid meet">
<metadata>
Created by potrace 1.16, written by Peter Selinger 2001-2019
</metadata>
<g transform="translate(0.000000,12.000000) scale(0.100000,-0.100000)"
fill="#000000" stroke="none">
<path d="M80 83 c0 -21 -3 -48 -6 -60 -6 -20 -3 -23 24 -23 26 0 30 4 36 37
12 73 9 83 -24 83 -28 0 -30 -3 -30 -37z"/>
<path d="M176 89 c-3 -17 -6 -44 -6 -60 0 -24 4 -29 25 -29 26 0 27 3 40 83 6
36 5 37 -23 37 -25 0 -30 -5 -36 -31z"/>
</g>
</svg>
