<?xml version="1.0" standalone="no"?>
<!DOCTYPE svg PUBLIC "-//W3C//DTD SVG 20010904//EN"
 "http://www.w3.org/TR/2001/REC-SVG-20010904/DTD/svg10.dtd">
<svg version="1.0" xmlns="http://www.w3.org/2000/svg"
 width="38.000000pt" height="17.000000pt" viewBox="0 0 38.000000 17.000000"
 preserveAspectRatio="xMidYMid meet">
<metadata>
Created by potrace 1.16, written by Peter Selinger 2001-2019
</metadata>
<g transform="translate(0.000000,17.000000) scale(0.100000,-0.100000)"
fill="#000000" stroke="none">
<path d="M96 154 c-3 -9 -6 -47 -6 -85 0 -66 1 -69 24 -69 30 0 36 16 36 101
0 66 -1 69 -24 69 -13 0 -27 -7 -30 -16z"/>
<path d="M372 163 c-1 -7 -8 -13 -14 -13 -19 -1 -50 -29 -91 -84 -44 -57 -45
-66 -9 -66 20 0 39 14 75 55 41 46 48 60 44 88 -2 17 -5 26 -5 20z"/>
</g>
</svg>
