<?xml version="1.0" standalone="no"?>
<!DOCTYPE svg PUBLIC "-//W3C//DTD SVG 20010904//EN"
 "http://www.w3.org/TR/2001/REC-SVG-20010904/DTD/svg10.dtd">
<svg version="1.0" xmlns="http://www.w3.org/2000/svg"
 width="60.000000pt" height="12.000000pt" viewBox="0 0 60.000000 12.000000"
 preserveAspectRatio="xMidYMid meet">
<metadata>
Created by potrace 1.16, written by Peter Selinger 2001-2019
</metadata>
<g transform="translate(0.000000,12.000000) scale(0.100000,-0.100000)"
fill="#000000" stroke="none">
<path d="M50 106 c0 -7 14 -16 33 -19 57 -9 87 -26 105 -57 12 -22 24 -30 45
-30 31 0 32 0 13 43 -30 67 -47 77 -125 77 -53 0 -71 -3 -71 -14z"/>
<path d="M294 98 c3 -13 6 -40 6 -60 0 -35 2 -38 30 -38 28 0 30 2 30 38 0 65
-9 82 -42 82 -27 0 -30 -3 -24 -22z"/>
</g>
</svg>
