<?xml version="1.0" standalone="no"?>
<!DOCTYPE svg PUBLIC "-//W3C//DTD SVG 20010904//EN"
 "http://www.w3.org/TR/2001/REC-SVG-20010904/DTD/svg10.dtd">
<svg version="1.0" xmlns="http://www.w3.org/2000/svg"
 width="19.000000pt" height="27.000000pt" viewBox="0 0 19.000000 27.000000"
 preserveAspectRatio="xMidYMid meet">
<metadata>
Created by potrace 1.16, written by Peter Selinger 2001-2019
</metadata>
<g transform="translate(0.000000,27.000000) scale(0.100000,-0.100000)"
fill="#000000" stroke="none">
<path d="M25 168 l1 -73 37 -3 c44 -4 67 15 67 55 -1 36 -21 63 -49 63 -12 0
-21 6 -21 15 0 8 -8 15 -18 15 -16 0 -18 -8 -17 -72z m65 -18 c0 -25 -18 -36
-26 -16 -8 21 3 49 16 41 5 -3 10 -15 10 -25z"/>
</g>
</svg>
