<?xml version="1.0" standalone="no"?>
<!DOCTYPE svg PUBLIC "-//W3C//DTD SVG 20010904//EN"
 "http://www.w3.org/TR/2001/REC-SVG-20010904/DTD/svg10.dtd">
<svg version="1.0" xmlns="http://www.w3.org/2000/svg"
 width="23.000000pt" height="35.000000pt" viewBox="0 0 23.000000 35.000000"
 preserveAspectRatio="xMidYMid meet">
<metadata>
Created by potrace 1.16, written by Peter Selinger 2001-2019
</metadata>
<g transform="translate(0.000000,35.000000) scale(0.100000,-0.100000)"
fill="#000000" stroke="none">
<path d="M30 225 c0 -60 3 -75 15 -75 8 0 15 8 15 18 1 16 1 16 11 0 11 -20
49 -25 49 -6 0 6 -8 20 -17 30 -13 14 -14 21 -5 30 15 15 16 48 1 48 -7 0 -18
-8 -25 -17 -12 -16 -13 -15 -14 15 0 22 -5 32 -15 32 -12 0 -15 -15 -15 -75z"/>
</g>
</svg>
