<?xml version="1.0" standalone="no"?>
<!DOCTYPE svg PUBLIC "-//W3C//DTD SVG 20010904//EN"
 "http://www.w3.org/TR/2001/REC-SVG-20010904/DTD/svg10.dtd">
<svg version="1.0" xmlns="http://www.w3.org/2000/svg"
 width="38.000000pt" height="48.000000pt" viewBox="0 0 38.000000 48.000000"
 preserveAspectRatio="xMidYMid meet">
<metadata>
Created by potrace 1.16, written by Peter Selinger 2001-2019
</metadata>
<g transform="translate(0.000000,48.000000) scale(0.100000,-0.100000)"
fill="#000000" stroke="none">
<path d="M0 450 c0 -34 14 -40 170 -67 53 -9 105 -25 119 -35 43 -33 91 -21
91 23 0 23 -4 29 -22 29 -12 0 -40 6 -63 14 -22 8 -80 22 -130 31 -50 9 -91
20 -93 26 -2 5 -19 9 -38 9 -31 0 -34 -3 -34 -30z"/>
</g>
</svg>
