<?xml version="1.0" standalone="no"?>
<!DOCTYPE svg PUBLIC "-//W3C//DTD SVG 20010904//EN"
 "http://www.w3.org/TR/2001/REC-SVG-20010904/DTD/svg10.dtd">
<svg version="1.0" xmlns="http://www.w3.org/2000/svg"
 width="38.000000pt" height="23.000000pt" viewBox="0 0 38.000000 23.000000"
 preserveAspectRatio="xMidYMid meet">
<metadata>
Created by potrace 1.16, written by Peter Selinger 2001-2019
</metadata>
<g transform="translate(0.000000,23.000000) scale(0.100000,-0.100000)"
fill="#000000" stroke="none">
<path d="M78 131 l5 -99 -29 -16 -29 -15 52 -1 c50 0 52 1 58 31 4 17 4 69 0
115 -7 83 -7 84 -34 84 l-28 0 5 -99z"/>
<path d="M172 174 c3 -48 7 -60 29 -76 18 -14 33 -17 54 -12 38 9 125 94 125
122 0 37 -33 26 -96 -33 l-59 -54 -3 54 c-3 51 -5 55 -28 55 -24 0 -25 -2 -22
-56z"/>
<path d="M341 44 c-40 -33 -39 -44 4 -44 33 0 35 2 35 35 0 19 -2 35 -4 35 -3
0 -18 -12 -35 -26z"/>
</g>
</svg>
