<?xml version="1.0" standalone="no"?>
<!DOCTYPE svg PUBLIC "-//W3C//DTD SVG 20010904//EN"
 "http://www.w3.org/TR/2001/REC-SVG-20010904/DTD/svg10.dtd">
<svg version="1.0" xmlns="http://www.w3.org/2000/svg"
 width="16.000000pt" height="35.000000pt" viewBox="0 0 16.000000 35.000000"
 preserveAspectRatio="xMidYMid meet">
<metadata>
Created by potrace 1.16, written by Peter Selinger 2001-2019
</metadata>
<g transform="translate(0.000000,35.000000) scale(0.100000,-0.100000)"
fill="#000000" stroke="none">
<path d="M63 141 c-17 -11 -34 -29 -38 -40 -3 -12 -11 -21 -16 -21 -5 0 -9
-11 -9 -25 0 -35 20 -32 70 10 23 19 53 35 66 35 20 0 24 5 24 30 0 27 -3 30
-32 30 -18 0 -47 -9 -65 -19z"/>
<path d="M102 34 c-33 -23 -27 -34 18 -34 36 0 40 3 40 25 0 29 -24 33 -58 9z"/>
</g>
</svg>
