<?xml version="1.0" standalone="no"?>
<!DOCTYPE svg PUBLIC "-//W3C//DTD SVG 20010904//EN"
 "http://www.w3.org/TR/2001/REC-SVG-20010904/DTD/svg10.dtd">
<svg version="1.0" xmlns="http://www.w3.org/2000/svg"
 width="38.000000pt" height="21.000000pt" viewBox="0 0 38.000000 21.000000"
 preserveAspectRatio="xMidYMid meet">
<metadata>
Created by potrace 1.16, written by Peter Selinger 2001-2019
</metadata>
<g transform="translate(0.000000,21.000000) scale(0.100000,-0.100000)"
fill="#000000" stroke="none">
<path d="M56 194 c-3 -9 -6 -56 -6 -105 l0 -89 30 0 30 0 0 105 c0 104 0 105
-24 105 -13 0 -27 -7 -30 -16z"/>
<path d="M176 148 c-4 -35 -9 -82 -12 -105 -6 -42 -6 -43 24 -43 29 0 30 2 36
58 4 31 9 78 12 105 6 47 6 47 -24 47 -29 0 -30 -1 -36 -62z"/>
</g>
</svg>
