<?xml version="1.0" standalone="no"?>
<!DOCTYPE svg PUBLIC "-//W3C//DTD SVG 20010904//EN"
 "http://www.w3.org/TR/2001/REC-SVG-20010904/DTD/svg10.dtd">
<svg version="1.0" xmlns="http://www.w3.org/2000/svg"
 width="82.000000pt" height="23.000000pt" viewBox="0 0 82.000000 23.000000"
 preserveAspectRatio="xMidYMid meet">
<metadata>
Created by potrace 1.16, written by Peter Selinger 2001-2019
</metadata>
<g transform="translate(0.000000,23.000000) scale(0.100000,-0.100000)"
fill="#000000" stroke="none">
<path d="M42 195 c-12 -19 -27 -35 -32 -35 -6 0 -10 -12 -10 -26 0 -23 3 -25
27 -20 62 15 115 116 61 116 -15 0 -31 -12 -46 -35z"/>
<path d="M180 216 c0 -8 -40 -57 -90 -108 -49 -51 -90 -96 -90 -100 0 -5 16
-8 35 -8 30 0 44 9 97 63 69 70 118 133 118 154 0 8 -12 13 -35 13 -24 0 -35
-5 -35 -14z"/>
</g>
</svg>
