<?xml version="1.0" standalone="no"?>
<!DOCTYPE svg PUBLIC "-//W3C//DTD SVG 20010904//EN"
 "http://www.w3.org/TR/2001/REC-SVG-20010904/DTD/svg10.dtd">
<svg version="1.0" xmlns="http://www.w3.org/2000/svg"
 width="93.000000pt" height="159.000000pt" viewBox="0 0 93.000000 159.000000"
 preserveAspectRatio="xMidYMid meet">
<metadata>
Created by potrace 1.16, written by Peter Selinger 2001-2019
</metadata>
<g transform="translate(0.000000,159.000000) scale(0.100000,-0.100000)"
fill="#000000" stroke="none">
<path d="M375 1576 c-59 -18 -83 -33 -138 -85 -57 -53 -96 -125 -126 -232 -39
-140 -25 -201 77 -344 95 -133 115 -147 304 -199 65 -18 106 -59 164 -162 31
-55 34 -68 34 -141 0 -104 -9 -116 -152 -187 -136 -67 -242 -95 -290 -75 -36
15 -70 81 -89 175 -12 58 -11 66 14 137 32 90 33 97 6 131 -24 31 -66 35 -98
9 -29 -24 -71 -142 -78 -218 -6 -66 18 -154 76 -277 43 -90 66 -102 206 -102
126 1 172 15 348 107 179 92 200 128 201 332 1 117 0 121 -31 175 -45 78 -132
171 -189 202 -27 14 -85 33 -128 43 -73 16 -84 21 -131 69 -60 60 -106 148
-113 214 -5 54 20 134 62 201 59 93 200 118 317 55 30 -16 88 -62 130 -101 88
-84 121 -94 159 -46 29 37 21 71 -36 155 -84 123 -131 149 -314 168 -118 12
-135 12 -185 -4z"/>
</g>
</svg>
