<?xml version="1.0" standalone="no"?>
<!DOCTYPE svg PUBLIC "-//W3C//DTD SVG 20010904//EN"
 "http://www.w3.org/TR/2001/REC-SVG-20010904/DTD/svg10.dtd">
<svg version="1.0" xmlns="http://www.w3.org/2000/svg"
 width="94.000000pt" height="155.000000pt" viewBox="0 0 94.000000 155.000000"
 preserveAspectRatio="xMidYMid meet">
<metadata>
Created by potrace 1.16, written by Peter Selinger 2001-2019
</metadata>
<g transform="translate(0.000000,155.000000) scale(0.100000,-0.100000)"
fill="#000000" stroke="none">
<path d="M435 1542 c-51 -6 -316 -143 -403 -209 -49 -37 -45 -77 13 -131 51
-47 60 -49 94 -26 23 16 22 15 -5 -32 -29 -49 -29 -51 -29 -210 0 -140 -2
-164 -17 -181 -24 -26 -23 -78 2 -103 11 -11 24 -20 29 -20 10 0 17 -48 32
-231 9 -117 8 -149 -6 -224 -23 -122 -5 -175 57 -175 63 0 80 28 94 150 8 73
7 331 -2 428 -3 34 -3 62 1 62 28 0 221 46 313 74 175 54 198 74 280 243 41
86 47 107 51 174 4 100 -18 176 -66 229 -25 29 -74 59 -167 104 -141 70 -200
87 -271 78z m157 -184 c100 -38 166 -84 191 -132 18 -34 19 -45 9 -95 -13 -72
-47 -162 -73 -195 -12 -15 -37 -35 -57 -45 -48 -24 -228 -68 -314 -77 l-68 -6
0 28 c-1 87 -36 373 -50 409 -6 15 -8 30 -5 35 12 20 146 103 176 109 51 11
106 2 191 -31z"/>
</g>
</svg>
