<?xml version="1.0" standalone="no"?>
<!DOCTYPE svg PUBLIC "-//W3C//DTD SVG 20010904//EN"
 "http://www.w3.org/TR/2001/REC-SVG-20010904/DTD/svg10.dtd">
<svg version="1.0" xmlns="http://www.w3.org/2000/svg"
 width="97.000000pt" height="144.000000pt" viewBox="0 0 97.000000 144.000000"
 preserveAspectRatio="xMidYMid meet">
<metadata>
Created by potrace 1.16, written by Peter Selinger 2001-2019
</metadata>
<g transform="translate(0.000000,144.000000) scale(0.100000,-0.100000)"
fill="#000000" stroke="none">
<path d="M67 1418 c-44 -39 -53 -135 -63 -673 -8 -439 1 -568 42 -652 31 -65
65 -93 113 -93 72 0 460 93 655 157 117 38 156 65 156 108 0 37 -42 75 -81 75
-18 0 -153 -41 -300 -91 -361 -122 -436 -128 -440 -36 -1 18 -2 52 -2 77 -1
63 14 522 18 540 2 9 6 139 10 290 7 261 7 276 -11 292 -34 30 -68 32 -97 6z"/>
</g>
</svg>
