<?xml version="1.0" standalone="no"?>
<!DOCTYPE svg PUBLIC "-//W3C//DTD SVG 20010904//EN"
 "http://www.w3.org/TR/2001/REC-SVG-20010904/DTD/svg10.dtd">
<svg version="1.0" xmlns="http://www.w3.org/2000/svg"
 width="144.000000pt" height="166.000000pt" viewBox="0 0 144.000000 166.000000"
 preserveAspectRatio="xMidYMid meet">
<metadata>
Created by potrace 1.16, written by Peter Selinger 2001-2019
</metadata>
<g transform="translate(0.000000,166.000000) scale(0.100000,-0.100000)"
fill="#000000" stroke="none">
<path d="M74 1635 c-33 -33 -31 -71 6 -105 17 -15 30 -37 30 -48 0 -29 55 -98
87 -110 65 -22 121 35 94 95 -11 25 -11 25 31 19 71 -8 454 -20 587 -18 l124
3 -55 -63 c-30 -35 -116 -136 -192 -226 -76 -90 -143 -162 -149 -160 -7 2 -58
19 -114 38 -114 38 -145 36 -172 -11 -33 -60 12 -103 139 -130 30 -7 57 -14
59 -15 2 -2 -23 -36 -56 -76 -254 -314 -439 -589 -447 -665 -2 -14 -7 -28 -13
-31 -39 -26 -34 -88 9 -116 30 -18 140 -8 293 27 142 33 238 42 545 52 216 6
348 13 444 22 57 5 74 11 93 31 39 42 25 94 -32 117 -28 12 -38 27 -76 117
-65 155 -110 189 -171 128 -36 -36 -34 -50 18 -153 19 -37 34 -70 34 -71 0 -2
-44 -4 -97 -5 -53 -1 -99 -4 -102 -5 -3 -2 -44 -7 -91 -10 -94 -7 -322 -31
-444 -46 -44 -6 -94 -10 -113 -10 l-34 0 59 78 c32 42 110 151 172 242 171
249 201 290 206 290 3 0 28 -15 57 -33 103 -64 134 -70 172 -32 51 50 19 107
-91 161 -30 14 -54 29 -54 32 0 9 94 144 186 267 125 168 225 278 272 299 66
30 75 94 18 131 -22 15 -45 16 -198 8 -211 -10 -533 -10 -806 -1 l-204 7 -24
-24z"/>
</g>
</svg>
