<?xml version="1.0" standalone="no"?>
<!DOCTYPE svg PUBLIC "-//W3C//DTD SVG 20010904//EN"
 "http://www.w3.org/TR/2001/REC-SVG-20010904/DTD/svg10.dtd">
<svg version="1.0" xmlns="http://www.w3.org/2000/svg"
 width="97.000000pt" height="151.000000pt" viewBox="0 0 97.000000 151.000000"
 preserveAspectRatio="xMidYMid meet">
<metadata>
Created by potrace 1.16, written by Peter Selinger 2001-2019
</metadata>
<g transform="translate(0.000000,151.000000) scale(0.100000,-0.100000)"
fill="#000000" stroke="none">
<path d="M375 1500 c-50 -11 -95 -39 -115 -73 -11 -17 -29 -72 -41 -122 -19
-80 -21 -108 -15 -250 l6 -160 -83 -44 c-102 -55 -127 -77 -127 -113 0 -27 29
-67 50 -69 5 -1 16 -2 23 -3 11 -2 82 20 130 39 15 6 17 0 17 -66 0 -76 -26
-324 -35 -340 -3 -4 -6 -55 -7 -113 0 -118 16 -163 64 -180 32 -11 74 12 88
48 9 25 26 171 34 292 6 103 72 216 147 254 80 41 84 32 77 -209 -8 -242 10
-303 93 -320 62 -13 108 7 180 78 104 104 134 184 86 229 -51 48 -100 19 -161
-98 -20 -38 -41 -72 -45 -75 -17 -10 -21 46 -15 177 10 202 -19 337 -79 369
-53 29 -198 -3 -258 -57 -16 -14 -17 -11 -20 36 l-4 51 50 29 c101 59 177 153
237 293 53 121 39 224 -39 308 -69 73 -157 106 -238 89z m116 -178 c48 -49 56
-80 35 -136 -21 -55 -56 -99 -120 -154 l-51 -43 -5 53 c-7 71 5 256 19 291 9
22 16 27 47 27 29 0 44 -8 75 -38z"/>
</g>
</svg>
