<?xml version="1.0" standalone="no"?>
<!DOCTYPE svg PUBLIC "-//W3C//DTD SVG 20010904//EN"
 "http://www.w3.org/TR/2001/REC-SVG-20010904/DTD/svg10.dtd">
<svg version="1.0" xmlns="http://www.w3.org/2000/svg"
 width="95.000000pt" height="157.000000pt" viewBox="0 0 95.000000 157.000000"
 preserveAspectRatio="xMidYMid meet">
<metadata>
Created by potrace 1.16, written by Peter Selinger 2001-2019
</metadata>
<g transform="translate(0.000000,157.000000) scale(0.100000,-0.100000)"
fill="#000000" stroke="none">
<path d="M649 1554 c-183 -33 -293 -64 -321 -91 -16 -15 -28 -33 -28 -40 0 -7
-10 -13 -23 -13 -13 0 -68 -11 -122 -25 -80 -21 -106 -32 -127 -56 -16 -16
-28 -38 -28 -48 0 -21 43 -71 61 -71 6 0 46 16 89 35 43 19 83 35 89 35 24 0
31 -50 20 -143 -13 -107 -9 -226 27 -732 24 -356 35 -397 106 -403 29 -3 40 2
58 25 21 27 22 33 15 193 -3 91 -11 228 -16 305 -12 187 -11 215 4 219 204 58
349 129 423 209 63 68 74 101 74 222 0 148 -52 300 -126 364 -39 35 -57 37
-175 15z m115 -152 c22 -43 49 -210 42 -266 -7 -63 -39 -104 -113 -143 -60
-32 -197 -87 -245 -99 -27 -6 -28 -5 -28 35 0 54 -29 336 -40 384 -7 33 -6 37
11 37 11 0 36 7 57 16 66 28 206 63 254 63 42 1 49 -2 62 -27z"/>
</g>
</svg>
