<?xml version="1.0" standalone="no"?>
<!DOCTYPE svg PUBLIC "-//W3C//DTD SVG 20010904//EN"
 "http://www.w3.org/TR/2001/REC-SVG-20010904/DTD/svg10.dtd">
<svg version="1.0" xmlns="http://www.w3.org/2000/svg"
 width="149.000000pt" height="161.000000pt" viewBox="0 0 149.000000 161.000000"
 preserveAspectRatio="xMidYMid meet">
<metadata>
Created by potrace 1.16, written by Peter Selinger 2001-2019
</metadata>
<g transform="translate(0.000000,161.000000) scale(0.100000,-0.100000)"
fill="#000000" stroke="none">
<path d="M383 1599 c-54 -13 -135 -86 -196 -177 -34 -50 -57 -103 -91 -209
-75 -235 -101 -405 -94 -602 3 -103 7 -124 32 -174 31 -64 134 -163 265 -257
181 -130 400 -192 563 -160 73 14 314 94 334 111 11 9 27 -1 80 -44 86 -72
124 -92 157 -83 33 8 60 56 51 91 -3 14 -51 67 -107 119 l-100 94 22 95 c62
269 96 613 72 729 -27 133 -92 214 -255 323 -151 100 -233 138 -310 141 -248
11 -386 12 -423 3z m328 -177 c20 -8 33 -7 54 4 15 8 38 14 51 14 61 0 244
-111 338 -204 39 -39 56 -66 64 -99 14 -56 15 -208 2 -337 -12 -118 -60 -370
-70 -370 -4 0 -72 67 -152 150 -132 136 -148 149 -174 144 -33 -5 -64 -37 -64
-64 0 -52 51 -122 215 -296 l117 -124 -55 -25 c-129 -59 -291 -71 -413 -30
-164 55 -270 118 -387 231 -84 81 -90 96 -88 237 2 273 89 626 174 711 32 32
109 54 222 64 104 9 130 8 166 -6z"/>
</g>
</svg>
