<?xml version="1.0" standalone="no"?>
<!DOCTYPE svg PUBLIC "-//W3C//DTD SVG 20010904//EN"
 "http://www.w3.org/TR/2001/REC-SVG-20010904/DTD/svg10.dtd">
<svg version="1.0" xmlns="http://www.w3.org/2000/svg"
 width="1356.000000pt" height="856.000000pt" viewBox="0 0 1356.000000 856.000000"
 preserveAspectRatio="xMidYMid meet">
<metadata>
Created by potrace 1.16, written by Peter Selinger 2001-2019
</metadata>
<g transform="translate(0.000000,856.000000) scale(0.100000,-0.100000)"
fill="#000000" stroke="none">
<path d="M13555 4765 c0 -2090 1 -2944 2 -1897 2 1047 2 2757 0 3800 -1 1043
-2 187 -2 -1903z"/>
<path d="M30 8085 l0 -455 1105 0 1105 0 0 455 0 455 -1105 0 -1105 0 0 -455z
m140 275 c0 -36 -2 -40 -25 -40 -22 0 -25 4 -23 33 2 42 5 47 29 47 16 0 19
-7 19 -40z m945 -9 c22 -10 55 -35 74 -57 19 -21 41 -39 48 -40 8 -2 23 -10
34 -20 25 -23 25 -74 -1 -158 -19 -61 -20 -67 -4 -90 31 -48 53 -44 106 15 26
30 48 57 48 61 0 9 42 23 60 19 26 -5 50 -33 50 -59 0 -40 -86 -149 -142 -178
-46 -24 -109 -18 -159 16 l-44 29 -30 -29 c-45 -43 -116 -56 -197 -35 -115 29
-155 94 -145 238 4 62 13 93 42 155 44 92 58 109 110 133 51 23 99 24 150 0z"/>
<path d="M972 8300 c-24 -15 -44 -42 -70 -98 -34 -71 -37 -84 -37 -169 0 -87
1 -93 29 -122 33 -35 108 -55 165 -45 20 4 51 20 69 35 40 35 65 36 117 4 64
-39 106 -34 164 20 26 24 53 56 61 70 26 49 -2 38 -59 -23 -52 -57 -61 -62
-98 -62 -34 0 -46 6 -72 35 -35 41 -39 73 -16 149 22 72 20 105 -7 115 -13 5
-39 26 -58 46 -65 68 -126 83 -188 45z m93 -20 c39 -15 113 -80 119 -105 8
-31 -21 -173 -42 -208 -30 -52 -67 -72 -132 -72 -68 1 -93 17 -111 73 -30 92
27 278 95 308 38 16 39 16 71 4z"/>
<path d="M1002 8228 c-40 -50 -75 -170 -65 -223 9 -47 30 -65 78 -65 46 0 92
34 99 74 3 12 11 49 18 83 l14 62 -45 40 c-47 41 -81 51 -99 29z"/>
<path d="M2280 8085 l0 -455 1108 2 1107 3 3 453 2 452 -507 0 -508 0 42 -25
c23 -14 44 -33 47 -43 16 -48 -37 -131 -158 -252 l-76 -74 0 -122 c0 -129 7
-184 22 -184 5 0 21 14 35 30 14 17 42 39 62 49 46 24 67 48 74 88 10 51 0 63
-47 63 -50 0 -66 13 -66 54 0 59 20 80 85 94 191 40 234 45 260 28 33 -22 42
-61 21 -85 -9 -10 -44 -28 -77 -40 l-59 -22 6 -63 c4 -40 2 -77 -5 -99 -24
-73 -176 -174 -276 -184 -60 -6 -110 9 -125 37 -5 9 -14 68 -20 131 -7 63 -13
115 -14 117 -2 1 -45 -32 -96 -73 -160 -130 -217 -152 -249 -94 -13 24 -13 29
2 53 10 15 92 88 182 163 l165 137 0 119 c0 123 11 165 47 186 13 7 -138 10
-484 11 l-503 0 0 -455z m130 327 c0 -4 10 -12 22 -17 44 -19 30 -75 -18 -75
-22 0 -24 4 -24 50 0 28 5 50 10 50 6 0 10 -3 10 -8z"/>
<path d="M2410 8360 c0 -13 5 -20 13 -17 6 2 12 10 12 17 0 7 -6 15 -12 18 -8
2 -13 -5 -13 -18z"/>
<path d="M4540 8085 l0 -455 1105 0 1105 0 0 455 0 455 -1105 0 -1105 0 0
-455z m874 335 c57 -13 95 -56 112 -126 27 -117 12 -174 -46 -174 -35 0 -57
25 -69 82 -18 78 -31 98 -63 98 -84 0 -185 -118 -209 -244 -15 -81 12 -129 85
-155 25 -10 31 -7 57 20 16 17 29 35 29 39 0 4 13 13 29 20 47 19 100 -23 84
-67 -13 -38 -73 -110 -106 -128 -47 -25 -124 -14 -202 29 -103 56 -120 105
-95 266 25 157 141 298 280 341 34 10 68 10 114 -1z m-716 -38 c3 -9 -3 -13
-19 -10 -17 2 -25 -3 -27 -16 -3 -16 0 -18 23 -12 20 5 26 3 23 -6 -3 -7 -18
-13 -34 -13 -23 0 -30 5 -32 23 -2 13 2 30 9 38 14 18 51 15 57 -4z"/>
<path d="M5301 8369 c-85 -26 -183 -127 -215 -222 -9 -26 -19 -85 -22 -132 -8
-105 2 -125 89 -166 100 -47 152 -37 197 37 31 49 16 56 -25 12 -53 -58 -107
-62 -173 -12 -51 39 -65 77 -60 155 14 196 216 373 321 281 9 -8 26 -46 37
-84 22 -71 40 -89 40 -38 0 55 -21 128 -44 149 -26 25 -96 35 -145 20z"/>
<path d="M6800 8085 l0 -455 1105 0 1105 0 0 455 0 455 -627 0 c-606 0 -626
-1 -610 -18 22 -24 21 -49 -2 -130 -10 -37 -24 -105 -30 -152 -6 -47 -15 -112
-21 -144 -6 -32 -9 -98 -8 -145 l3 -86 36 -3 c25 -2 40 3 54 18 53 59 134 -20
85 -83 -50 -64 -147 -84 -227 -48 -49 23 -59 40 -69 108 l-6 51 -62 -42 c-44
-30 -84 -47 -139 -60 -189 -45 -257 10 -257 205 0 106 25 153 105 194 54 28
67 30 159 29 79 0 112 -5 153 -22 l52 -21 5 27 c3 15 12 72 21 127 16 97 32
143 63 178 14 16 -7 17 -436 17 l-452 0 0 -455z m160 284 l0 -50 -32 3 c-30 3
-33 6 -33 38 0 29 4 36 23 38 12 2 22 8 22 13 0 5 5 9 10 9 6 0 10 -23 10 -51z"/>
<path d="M6910 8361 c0 -12 6 -21 16 -21 9 0 14 7 12 17 -5 25 -28 28 -28 4z"/>
<path d="M9050 8085 l0 -455 1110 0 1110 0 0 455 0 455 -1110 0 -1110 0 0
-455z m155 275 c0 -28 -4 -36 -21 -38 -11 -2 -27 4 -34 13 -20 24 3 67 33 63
18 -2 22 -9 22 -38z m486 11 c93 -62 173 -136 188 -174 13 -35 13 -40 -6 -65
-26 -35 -97 -61 -188 -69 l-73 -6 5 -36 c18 -114 102 -148 240 -95 111 41 139
45 168 22 43 -33 32 -79 -26 -108 -58 -30 -206 -70 -259 -70 -57 0 -157 47
-194 91 -29 34 -46 87 -46 142 0 30 -7 45 -30 67 -36 34 -38 53 -6 85 19 19
24 36 28 94 3 51 9 78 24 98 45 60 107 68 175 24z"/>
<path d="M9170 8350 c0 -5 4 -10 9 -10 6 0 13 5 16 10 3 6 -1 10 -9 10 -9 0
-16 -4 -16 -10z"/>
<path d="M9561 8324 c-16 -20 -21 -41 -21 -83 0 -31 -7 -67 -15 -81 -8 -14
-17 -31 -21 -38 -4 -7 3 -23 14 -35 15 -15 25 -45 31 -91 5 -37 17 -78 26 -92
25 -38 113 -84 164 -84 74 0 261 58 261 81 0 17 -46 9 -135 -22 -107 -38 -166
-36 -222 7 -65 49 -95 161 -54 198 12 11 49 21 97 27 171 22 185 53 66 152
-43 35 -87 69 -99 75 -36 20 -70 14 -92 -14z m125 -41 c14 -9 40 -23 57 -32
40 -20 47 -59 17 -86 -26 -24 -136 -33 -170 -15 -20 11 -22 18 -18 65 3 30 10
61 17 69 17 21 65 20 97 -1z"/>
<path d="M9616 8229 c-3 -17 -6 -35 -6 -39 0 -9 111 0 130 11 12 6 10 8 -8 9
-28 0 -64 18 -75 36 -14 24 -34 15 -41 -17z"/>
<path d="M11310 8085 l0 -455 369 0 c361 0 369 0 364 19 -5 22 36 71 59 71 9
0 19 27 29 75 l15 75 -48 0 c-35 0 -54 6 -68 20 -51 51 3 110 101 110 23 0 27
5 32 37 4 20 5 39 2 41 -2 2 -34 -1 -72 -8 -97 -17 -141 -11 -166 22 -17 23
-19 31 -9 53 15 32 35 40 153 60 l96 16 7 97 c7 109 20 136 78 165 31 15 43
16 82 6 65 -16 106 -57 106 -104 0 -82 -20 -127 -87 -192 l-63 -63 0 -60 0
-60 63 0 c34 0 80 5 101 11 33 9 43 8 65 -9 50 -37 36 -95 -27 -111 -20 -6
-76 -13 -124 -17 l-88 -7 -4 -31 c-18 -119 -27 -174 -32 -193 l-6 -23 641 0
641 0 0 455 0 455 -1105 0 -1105 0 0 -455z m135 327 c-10 -7 -11 -10 -13 -62
-3 -50 -22 -34 -22 18 0 51 16 80 34 62 7 -7 7 -13 1 -18z"/>
<path d="M3291 8487 c-17 -27 -21 -55 -25 -154 -2 -67 -8 -128 -13 -136 -4 -8
-78 -74 -165 -145 -155 -130 -175 -149 -165 -158 10 -10 64 25 157 101 100 80
126 93 158 76 23 -12 29 -33 41 -153 8 -82 21 -118 42 -118 5 0 2 12 -8 26
-13 21 -18 55 -21 150 -6 181 -7 178 113 305 57 60 108 123 114 139 9 27 7 33
-27 65 -35 33 -41 35 -109 35 -70 0 -72 -1 -92 -33z m161 -24 c31 -27 23 -69
-23 -118 -46 -50 -76 -63 -108 -45 -42 22 -18 159 31 180 29 12 77 4 100 -17z"/>
<path d="M3351 8389 c-6 -29 -10 -53 -8 -55 8 -8 89 85 83 95 -4 6 -20 11 -36
11 -26 0 -29 -4 -39 -51z"/>
<path d="M7704 8459 c-8 -17 -24 -81 -35 -143 -10 -61 -23 -121 -29 -133 -13
-32 -52 -38 -103 -18 -23 9 -79 20 -124 23 -101 6 -157 -12 -203 -65 -32 -35
-32 -37 -28 -129 4 -119 21 -147 92 -152 68 -5 162 23 232 68 33 22 67 40 75
40 30 0 49 -26 59 -80 12 -66 25 -80 78 -87 51 -7 81 0 115 28 39 30 24 40
-23 17 -48 -24 -97 -19 -126 13 -23 26 -31 152 -15 244 6 33 15 96 21 140 6
44 18 109 27 145 24 99 26 120 14 120 -6 0 -18 -14 -27 -31z m-184 -329 c96
-37 106 -79 34 -147 -126 -117 -302 -147 -340 -57 -19 46 -17 111 6 162 10 23
20 42 22 42 2 0 21 7 43 15 53 20 163 13 235 -15z"/>
<path d="M7293 8100 c-31 -13 -43 -41 -43 -103 0 -36 5 -59 15 -67 22 -18 102
-8 157 19 46 23 138 96 138 110 0 4 -30 17 -67 29 -70 23 -160 28 -200 12z"/>
<path d="M12247 8422 c-11 -12 -19 -50 -25 -115 -5 -53 -15 -103 -22 -112 -14
-17 -53 -28 -157 -45 -54 -9 -73 -16 -73 -27 0 -14 11 -15 78 -8 150 14 162
10 162 -64 0 -56 -20 -87 -60 -95 -17 -3 -43 -9 -60 -12 -44 -8 -37 -24 10
-24 59 0 95 -37 85 -88 -23 -124 -26 -133 -61 -154 -19 -11 -34 -23 -34 -28 0
-9 77 -20 94 -14 11 4 20 50 42 206 10 67 28 79 134 89 52 6 105 14 118 19 38
16 16 29 -30 18 -60 -14 -164 -6 -184 14 -19 19 -29 92 -20 143 5 27 23 51 66
92 61 57 80 95 80 160 0 22 -7 37 -22 47 -31 22 -101 21 -121 -2z"/>
<path d="M3605 8190 c-135 -29 -135 -29 -135 -49 0 -13 10 -20 36 -24 54 -9
74 -32 74 -86 0 -59 -26 -110 -70 -138 -49 -30 -102 -75 -96 -80 10 -10 128
62 162 99 34 39 35 40 32 118 -3 93 7 110 83 135 28 10 49 23 49 31 0 18 -24
17 -135 -6z"/>
<path d="M30 7135 l0 -455 441 0 c416 0 441 1 436 18 -3 9 -15 43 -26 74 -50
136 -5 216 163 294 81 37 85 41 86 72 l0 32 -42 -21 c-96 -49 -207 -62 -291
-33 -89 30 -127 146 -79 240 23 45 43 64 92 89 93 48 346 -8 443 -98 30 -29
34 -52 14 -82 -8 -12 -12 -38 -9 -66 l4 -46 91 40 c51 22 104 49 118 60 23 16
30 17 50 6 31 -16 39 -28 39 -60 0 -37 -31 -61 -168 -127 l-124 -60 -4 -68
c-6 -77 -33 -148 -81 -211 -18 -24 -33 -45 -33 -48 0 -3 245 -5 545 -5 l545 0
0 455 0 455 -1105 0 -1105 0 0 -455z m160 271 c0 -47 -17 -70 -47 -64 -13 2
-19 14 -21 42 -5 53 3 66 38 66 29 0 30 -2 30 -44z"/>
<path d="M140 7410 c0 -13 5 -20 13 -17 6 2 12 10 12 17 0 7 -6 15 -12 18 -8
2 -13 -5 -13 -18z"/>
<path d="M2280 7135 l0 -455 1108 2 1107 3 3 453 2 452 -1110 0 -1110 0 0
-455z m679 351 c54 -28 107 -83 117 -122 8 -33 -3 -99 -23 -138 -15 -26 -18
-54 -9 -64 2 -1 29 11 62 28 90 46 123 49 166 12 19 -17 50 -61 68 -98 29 -57
34 -76 35 -139 0 -40 3 -76 7 -80 4 -4 17 0 30 9 29 20 57 20 86 0 18 -12 22
-24 20 -52 -3 -34 -8 -39 -68 -70 -75 -39 -126 -39 -166 -1 -22 20 -24 31 -24
105 0 98 -15 175 -39 205 -15 18 -22 20 -47 12 -42 -14 -57 -52 -56 -147 1
-133 -27 -196 -82 -182 -48 12 -56 30 -56 127 0 73 -5 101 -27 156 -14 38 -27
70 -29 72 -1 1 -13 -4 -26 -13 -47 -34 -108 -9 -108 44 0 19 12 38 38 62 l38
34 -33 69 c-18 38 -33 81 -33 95 0 36 35 88 62 93 43 8 49 7 97 -17z m-526
-36 c8 0 18 -7 21 -16 9 -25 7 -64 -4 -64 -5 0 -10 14 -10 30 0 20 -5 30 -15
30 -10 0 -15 -10 -15 -30 0 -16 -4 -30 -10 -30 -6 0 -10 26 -10 58 1 49 2 55
14 40 7 -10 20 -18 29 -18z"/>
<path d="M2866 7444 c-23 -22 -20 -44 14 -116 16 -34 30 -71 30 -80 0 -10 -16
-36 -36 -58 -20 -22 -34 -43 -31 -46 3 -3 21 0 41 7 55 20 78 3 111 -78 21
-50 29 -90 32 -153 5 -102 9 -118 25 -102 7 7 15 61 19 125 3 61 12 125 20
140 21 46 92 71 144 51 39 -15 75 -137 75 -252 0 -98 26 -113 115 -70 47 23
65 57 23 43 -95 -30 -117 -12 -122 101 -2 56 -9 91 -24 120 -29 56 -70 104
-90 104 -10 0 -46 -14 -80 -30 -76 -36 -106 -38 -126 -8 -21 30 -20 57 4 109
32 72 27 110 -21 153 -36 34 -76 56 -99 56 -5 0 -16 -7 -24 -16z"/>
<path d="M4540 7135 l0 -455 1105 0 1105 0 0 455 0 455 -1105 0 -1105 0 0
-455z m647 363 c40 -42 4 -111 -52 -100 -34 6 -47 25 -43 64 2 23 10 36 28 45
35 18 43 16 67 -9z m-527 -88 c0 -22 -4 -40 -10 -40 -5 0 -10 18 -10 40 0 22
5 40 10 40 6 0 10 -18 10 -40z m546 -209 c7 -13 15 -73 18 -135 4 -61 9 -141
12 -178 6 -65 5 -67 -23 -81 -34 -18 -66 -8 -84 24 -14 28 -38 210 -39 297 0
53 4 67 24 87 19 19 30 22 52 16 16 -4 34 -18 40 -30z"/>
<path d="M5140 7122 c0 -56 15 -204 25 -249 3 -13 10 -23 16 -23 6 0 8 21 5
58 -3 31 -8 105 -12 165 -5 82 -9 107 -20 107 -10 0 -14 -15 -14 -58z"/>
<path d="M6800 7135 l0 -455 365 0 366 0 -34 30 c-71 62 -98 189 -51 242 11
11 58 50 106 85 l86 65 4 89 c2 75 6 92 25 110 15 15 28 20 45 15 44 -11 51
-23 56 -85 2 -34 5 -61 7 -61 24 0 251 52 259 60 5 5 25 10 43 10 45 0 71 -37
53 -79 -15 -36 -57 -58 -153 -77 -39 -8 -102 -21 -138 -30 l-67 -16 -4 -111
c-5 -135 -20 -173 -86 -217 l-45 -30 686 0 687 0 0 455 0 455 -1105 0 -1105 0
0 -455z m884 419 c27 -10 37 -39 25 -73 -16 -44 -41 -56 -79 -36 -27 14 -31
21 -28 53 2 27 9 40 28 49 29 15 33 15 54 7z m-767 -90 c-3 -3 -12 -4 -19 -1
-8 3 -5 6 6 6 11 1 17 -2 13 -5z m3 -63 c0 -28 -5 -53 -11 -56 -15 -10 -16 -6
-11 53 5 66 22 68 22 3z"/>
<path d="M9050 7135 l0 -455 344 0 c382 0 356 -5 356 70 0 44 -29 180 -39 180
-3 0 -26 -6 -51 -14 -121 -37 -135 77 -21 178 11 11 21 26 21 35 0 12 -3 12
-12 3 -31 -31 -98 1 -98 46 0 16 14 43 33 65 l32 39 -9 70 c-12 87 -5 102 56
106 52 3 66 -9 93 -80 12 -32 16 -61 11 -86 -3 -22 -3 -42 1 -45 3 -4 51 36
106 89 102 98 150 134 179 134 19 0 58 -45 58 -68 0 -9 -63 -79 -140 -157
-124 -125 -137 -141 -111 -137 67 10 157 -73 211 -193 29 -66 30 -66 67 -62
21 2 51 9 66 17 25 12 33 12 55 -1 30 -17 41 -61 21 -85 -41 -50 -144 -68
-217 -39 -44 18 -68 46 -106 127 -27 57 -75 108 -102 108 -17 0 -17 -19 -3
-80 6 -25 14 -83 17 -130 l7 -85 695 0 695 0 3 453 2 452 -1110 0 -1110 0 0
-455z m130 313 c0 -17 2 -18 15 -8 9 7 19 10 22 6 4 -4 1 -11 -7 -16 -12 -8
-13 -13 -2 -30 16 -26 15 -30 -3 -30 -8 0 -15 6 -16 13 0 10 -2 10 -6 0 -12
-30 -23 -9 -23 43 0 34 4 53 10 49 6 -3 10 -15 10 -27z"/>
<path d="M11310 7135 l0 -455 1105 0 1105 0 0 455 0 455 -1105 0 -1105 0 0
-455z m123 283 c3 -36 1 -48 -9 -48 -10 0 -14 14 -14 48 0 27 3 52 7 56 9 9
10 5 16 -56z m818 -9 c39 -21 40 -48 4 -246 -34 -187 -40 -233 -29 -233 3 0
24 11 47 24 60 35 153 51 184 31 35 -24 40 -62 11 -91 -30 -31 -164 -58 -255
-52 -115 7 -127 45 -93 288 26 187 36 233 62 265 21 27 39 31 69 14z"/>
<path d="M12200 7321 c-14 -54 -50 -315 -50 -368 0 -32 5 -45 19 -53 29 -15
45 -12 27 5 -27 28 -27 51 8 246 19 106 32 197 30 201 -11 18 -24 6 -34 -31z"/>
<path d="M12373 6940 c-52 -11 -128 -49 -97 -50 35 0 138 21 151 32 13 10 9
29 -5 27 -4 -1 -26 -5 -49 -9z"/>
<path d="M845 7405 c-90 -31 -123 -125 -76 -213 31 -59 180 -57 310 5 49 23
83 9 95 -39 15 -60 -1 -81 -100 -130 -160 -79 -184 -123 -144 -257 13 -42 30
-82 39 -88 16 -14 99 -17 119 -5 12 8 69 98 102 162 10 19 21 67 25 105 4 39
12 78 17 88 5 9 67 46 138 82 118 59 149 79 138 91 -3 2 -55 -19 -117 -47
-121 -55 -149 -58 -169 -14 -14 31 -16 109 -2 134 35 66 -261 165 -375 126z
m168 -34 c76 -21 107 -43 107 -78 0 -48 -76 -93 -191 -113 -88 -15 -133 1
-148 55 -16 59 8 111 64 136 51 24 84 24 168 0z m165 -393 c25 -54 -11 -154
-89 -242 -52 -60 -109 -42 -138 43 -29 88 -3 150 84 198 75 41 123 42 143 1z"/>
<path d="M846 7317 c-29 -29 -34 -68 -11 -87 28 -24 171 5 220 45 l28 22 -43
17 c-24 9 -71 20 -106 23 -58 5 -64 4 -88 -20z"/>
<path d="M1075 6944 c-71 -35 -87 -54 -87 -102 1 -41 25 -102 41 -102 9 0 68
78 89 116 14 26 26 114 16 113 -5 0 -31 -11 -59 -25z"/>
<path d="M9985 7372 c-33 -27 -80 -71 -105 -97 -62 -65 -93 -80 -128 -63 -24
12 -28 20 -33 78 -7 83 -22 120 -50 120 -20 0 -20 -3 -14 -72 7 -71 6 -74 -24
-112 -40 -50 -39 -60 3 -52 24 5 39 2 50 -9 28 -29 19 -67 -29 -124 -63 -74
-61 -83 19 -75 60 6 65 5 79 -17 26 -40 49 -177 42 -242 -7 -54 -6 -59 11 -55
17 3 19 12 16 83 -2 44 -10 113 -18 154 -18 97 -7 125 51 129 55 4 96 -33 149
-133 25 -47 52 -85 67 -92 33 -17 104 -16 139 2 32 17 42 42 13 30 -102 -41
-160 -22 -193 65 -32 85 -117 170 -169 170 -40 0 -61 18 -61 52 0 27 19 50
126 159 131 132 165 191 59 101z"/>
<path d="M7696 7263 c-3 -3 -6 -36 -6 -73 0 -88 -13 -123 -59 -153 -21 -14
-65 -48 -99 -76 -51 -42 -62 -57 -62 -82 0 -40 24 -94 60 -135 16 -19 30 -39
30 -44 0 -44 134 65 151 122 5 18 9 70 9 115 0 136 11 147 170 178 125 24 168
36 181 51 19 23 3 27 -43 10 -51 -18 -196 -46 -243 -46 -42 0 -57 19 -63 81
-4 48 -13 65 -26 52z m-5 -305 c14 -25 4 -109 -17 -150 -8 -16 -30 -36 -49
-45 -62 -30 -115 13 -115 92 0 26 9 45 38 76 63 70 115 80 143 27z"/>
<path d="M7596 6911 c-45 -46 -49 -53 -40 -78 20 -58 79 -31 89 42 4 23 5 52
3 64 -3 20 -8 17 -52 -28z"/>
<path d="M30 6188 l0 -453 1105 0 1105 0 0 453 0 452 -563 0 c-469 0 -569 -2
-593 -14 -23 -12 -38 -12 -74 -3 -29 7 -216 12 -512 14 l-468 4 0 -453z m1315
300 c42 -33 56 -79 62 -212 5 -103 3 -133 -16 -205 -11 -47 -21 -88 -21 -92 0
-3 20 1 44 9 40 15 45 15 70 -1 20 -13 26 -26 26 -52 0 -30 -6 -38 -41 -61
-62 -39 -130 -65 -158 -62 -42 5 -74 77 -67 154 3 33 12 80 21 105 21 59 33
283 16 294 -16 9 -58 -30 -118 -110 -51 -67 -67 -100 -83 -163 -15 -57 -43
-86 -78 -77 -36 9 -49 31 -57 98 -5 44 -13 66 -35 90 l-28 32 -22 -20 c-34
-30 -79 -100 -96 -147 -8 -23 -19 -85 -24 -137 -6 -52 -17 -105 -25 -117 -33
-51 -98 -37 -115 25 -5 20 -10 118 -10 219 0 120 -3 181 -10 177 -5 -3 -10
-15 -10 -26 0 -26 -35 -59 -62 -59 -31 0 -58 28 -58 60 0 16 9 57 20 94 26 84
68 121 125 110 49 -9 72 -36 86 -103 19 -97 21 -99 53 -52 51 72 149 123 210
107 13 -3 38 -24 54 -46 l30 -41 35 48 c80 108 175 181 238 183 9 0 29 -10 44
-22z m-1125 -28 c0 -48 -19 -54 -22 -7 l-1 32 -4 -32 c-5 -41 -23 -43 -23 -3
0 17 -4 30 -10 30 -5 0 -10 -13 -10 -30 0 -16 -4 -30 -10 -30 -5 0 -10 18 -10
40 l0 40 45 0 45 0 0 -40z"/>
<path d="M1255 6446 c-26 -12 -81 -65 -178 -174 -38 -42 -62 -40 -107 8 -23
25 -46 40 -60 40 -35 0 -101 -43 -137 -88 -40 -49 -66 -59 -98 -38 -17 11 -26
29 -31 63 -9 66 -20 90 -44 103 -17 9 -26 8 -45 -4 -35 -23 -74 -156 -46 -156
5 0 13 9 16 20 4 11 17 28 31 36 22 15 26 15 47 1 21 -13 25 -27 30 -93 4 -42
7 -127 7 -189 0 -80 4 -117 14 -131 14 -18 15 -18 25 9 6 16 11 45 11 66 0
153 106 351 187 351 59 0 101 -57 118 -158 9 -56 25 -49 46 19 18 64 81 160
148 230 54 56 94 64 127 28 28 -32 26 -224 -4 -330 -12 -41 -22 -92 -22 -112
0 -42 18 -87 35 -87 24 0 135 62 135 76 0 17 -7 17 -49 3 -24 -8 -39 -9 -57 0
-29 13 -32 54 -8 145 23 88 15 307 -13 345 -24 31 -39 35 -78 17z"/>
<path d="M2280 6188 l0 -453 1107 2 1108 3 3 450 2 450 -1110 0 -1110 0 0
-452z m1110 363 c33 -24 67 -84 80 -146 7 -29 11 -140 11 -262 -1 -209 5 -254
30 -201 13 30 94 86 137 94 40 8 72 -17 72 -57 0 -37 -54 -83 -148 -126 -80
-36 -126 -41 -160 -17 -44 30 -47 48 -52 304 -6 261 -10 283 -55 294 -37 9
-86 -23 -139 -92 -84 -109 -119 -203 -134 -361 -8 -84 -13 -98 -35 -117 -30
-25 -56 -23 -84 8 -15 17 -17 33 -13 102 6 119 5 227 -3 257 -3 14 -17 31 -31
37 -53 24 -40 89 23 122 53 27 68 25 101 -10 l28 -30 27 40 c56 81 156 157
235 180 34 10 80 2 110 -19z m-936 -67 c9 -25 7 -64 -4 -64 -5 0 -10 14 -10
30 0 20 -5 30 -15 30 -10 0 -15 -10 -15 -30 0 -16 -4 -30 -10 -30 -5 0 -10 18
-10 40 0 37 2 40 29 40 17 0 31 -6 35 -16z"/>
<path d="M3231 6497 c-25 -12 -77 -58 -120 -104 -82 -91 -99 -97 -144 -59 -24
21 -32 23 -53 14 -30 -14 -30 -29 0 -57 38 -36 52 -138 36 -268 -10 -79 -10
-107 -2 -115 21 -21 30 4 40 107 13 130 55 241 127 337 63 83 123 128 172 128
38 0 72 -15 90 -39 22 -30 33 -138 33 -332 0 -220 5 -239 63 -239 l32 0 -25
13 c-46 23 -52 48 -47 227 6 236 -9 333 -61 393 -21 24 -87 22 -141 -6z"/>
<path d="M3620 5973 c-35 -23 -80 -65 -80 -75 0 -11 80 29 108 55 40 37 19 52
-28 20z"/>
<path d="M4540 6188 l0 -453 1105 0 1105 0 0 453 0 452 -1105 0 -1105 0 0
-452z m155 272 c0 -32 -2 -35 -30 -35 -24 0 -31 5 -33 23 -6 38 5 54 35 50 25
-3 28 -7 28 -38z m934 -32 c185 -97 231 -166 210 -314 -21 -147 -89 -248 -205
-305 -145 -72 -328 -22 -379 103 -27 65 -33 307 -11 376 24 72 89 125 205 167
61 23 94 17 180 -27z"/>
<path d="M4657 6473 c-13 -12 -7 -33 8 -33 8 0 15 9 15 20 0 20 -11 26 -23 13z"/>
<path d="M5433 6398 c-68 -27 -129 -79 -143 -125 -18 -54 -9 -308 13 -349 37
-70 98 -99 207 -98 107 1 217 86 260 202 28 75 32 186 7 227 -36 59 -208 166
-265 164 -15 0 -50 -10 -79 -21z m196 -66 c117 -58 136 -81 136 -165 0 -100
-28 -171 -88 -232 -88 -87 -205 -109 -294 -54 -54 33 -73 87 -76 211 -4 186
14 228 117 267 75 29 101 26 205 -27z"/>
<path d="M5446 6315 c-32 -13 -64 -29 -69 -34 -27 -27 -30 -275 -5 -324 16
-31 70 -57 119 -57 61 0 139 40 174 89 56 82 73 211 33 248 -18 17 -179 104
-190 103 -2 0 -30 -11 -62 -25z"/>
<path d="M6800 6188 l0 -453 310 0 309 0 -5 35 c-9 61 51 578 71 611 3 4 -48
5 -114 2 l-119 -6 -17 26 c-21 32 -14 72 15 87 19 10 265 30 360 29 83 0 169
-17 199 -38 16 -12 43 -42 60 -68 27 -40 31 -56 31 -110 0 -35 -6 -79 -14 -97
-38 -91 -161 -170 -263 -171 -42 0 -53 -3 -53 -16 0 -22 -19 -229 -24 -259
l-5 -25 735 0 734 0 0 453 0 452 -1105 0 -1105 0 0 -452z m165 272 c0 -29 -4
-36 -22 -38 -13 -2 -23 -10 -23 -18 0 -8 -4 -14 -10 -14 -5 0 -10 25 -10 56
l0 55 33 -3 c29 -3 32 -6 32 -38z"/>
<path d="M6920 6460 c0 -11 7 -20 15 -20 8 0 15 9 15 20 0 11 -7 20 -15 20 -8
0 -15 -9 -15 -20z"/>
<path d="M9052 6190 l3 -450 1105 0 1105 0 3 450 2 450 -699 0 c-682 0 -699 0
-712 -20 -24 -33 -64 -36 -94 -6 l-26 26 -345 0 -344 0 2 -450z m1169 357 c78
-5 149 -99 157 -207 5 -66 -19 -172 -52 -239 -27 -53 -25 -61 32 -90 31 -16
31 -74 0 -95 -32 -23 -53 -20 -91 13 l-33 30 -27 -34 c-30 -38 -137 -95 -177
-95 -62 0 -127 29 -173 79 -85 91 -103 152 -86 299 12 113 38 189 84 252 71
97 104 105 366 87z m-1011 -104 c-1 -50 -2 -56 -14 -40 -7 9 -18 17 -23 17 -6
0 -16 7 -23 15 -20 24 3 65 35 65 24 0 25 -3 25 -57z"/>
<path d="M9977 6496 c-48 -18 -60 -28 -96 -85 -40 -62 -62 -150 -64 -263 -1
-107 13 -146 80 -210 86 -83 172 -76 280 23 24 22 49 39 56 39 8 0 31 -11 52
-25 50 -35 58 -23 12 19 -21 19 -37 43 -37 56 0 12 14 53 31 91 43 99 50 215
17 278 -36 70 -57 80 -183 86 -81 4 -120 2 -148 -9z m270 -41 c35 -23 57 -95
50 -168 -11 -116 -41 -177 -88 -177 -11 0 -47 23 -80 52 -32 28 -62 48 -66 45
-3 -4 21 -36 55 -71 77 -80 81 -109 24 -166 -77 -78 -169 -75 -241 6 -65 75
-74 137 -41 286 29 131 63 188 126 208 41 13 234 1 261 -15z"/>
<path d="M9984 6421 c-42 -19 -94 -182 -94 -297 0 -55 34 -121 76 -149 41 -27
99 -15 143 29 l35 35 -73 75 c-60 62 -71 79 -66 98 8 27 41 58 62 58 8 0 43
-27 77 -60 35 -33 65 -60 69 -60 3 0 13 26 22 57 20 68 17 176 -5 198 -18 17
-214 30 -246 16z"/>
<path d="M9165 6470 c-7 -12 2 -30 16 -30 5 0 9 9 9 20 0 21 -15 27 -25 10z"/>
<path d="M11310 6188 l0 -453 1105 0 1105 0 0 453 0 452 -1105 0 -1105 0 0
-452z m656 331 c20 -19 26 -19 87 -9 55 10 75 9 121 -4 63 -19 130 -75 141
-119 21 -80 -28 -145 -145 -194 l-71 -30 55 -36 c31 -20 63 -48 71 -61 23 -34
33 -36 110 -20 60 13 71 13 91 -1 46 -30 39 -81 -15 -109 -15 -8 -62 -18 -103
-22 -84 -7 -135 9 -157 49 -7 13 -49 46 -94 75 l-82 52 -6 -101 c-5 -78 -11
-107 -26 -127 -27 -36 -59 -39 -90 -10 -25 22 -25 26 -19 113 4 50 10 131 15
180 5 50 6 112 3 138 -5 49 -5 49 -36 43 -97 -20 -104 -19 -130 7 -31 31 -32
47 -8 76 15 19 49 31 155 55 16 4 27 13 27 23 0 48 67 69 106 32z m-519 -37
c-10 -10 -17 -28 -17 -40 0 -12 -4 -22 -10 -22 -5 0 -10 18 -10 40 0 37 2 40
27 40 25 0 25 -1 10 -18z"/>
<path d="M11898 6460 c-16 -28 -47 -42 -150 -64 -16 -4 -28 -13 -28 -22 0 -14
7 -15 48 -8 71 12 95 8 115 -18 18 -21 19 -35 13 -163 -3 -77 -9 -170 -12
-207 -7 -75 0 -108 18 -90 6 6 13 46 15 89 2 43 6 88 9 100 5 28 31 53 53 53
27 0 151 -78 203 -128 l47 -45 68 6 c81 7 103 14 103 34 0 10 -6 13 -17 8 -10
-3 -45 -9 -79 -12 -61 -6 -62 -5 -105 34 -24 21 -61 51 -81 66 -83 61 -75 93
36 145 123 58 148 112 83 177 -44 44 -94 56 -189 49 -62 -6 -82 -4 -102 10
-32 20 -28 21 -48 -14z m290 -47 c83 -62 -14 -166 -168 -180 -71 -7 -85 7 -85
88 0 42 5 63 18 76 43 44 185 54 235 16z"/>
<path d="M12045 6385 c-5 -2 -22 -6 -37 -9 -26 -6 -28 -10 -28 -56 l0 -49 33
5 c70 12 128 37 148 62 19 25 19 27 3 39 -16 12 -93 17 -119 8z"/>
<path d="M7413 6461 c-80 -4 -127 -11 -135 -20 -11 -10 4 -12 87 -11 134 3
132 3 150 -24 14 -21 14 -35 -5 -147 -21 -135 -50 -406 -50 -475 0 -36 3 -44
18 -44 17 0 20 15 31 143 16 186 19 190 101 198 104 9 202 70 229 142 6 16 11
51 11 80 0 55 -30 112 -76 142 -29 19 -184 26 -361 16z m337 -39 c69 -35 94
-130 53 -208 -15 -29 -35 -47 -82 -71 -66 -35 -93 -39 -136 -23 -40 15 -46 47
-30 152 20 124 22 134 41 152 21 22 109 21 154 -2z"/>
<path d="M7606 6286 c-9 -61 -16 -115 -16 -120 0 -17 91 2 129 27 49 33 68 83
52 137 -12 42 -36 57 -102 63 l-46 4 -17 -111z"/>
<path d="M30 5240 l0 -450 1105 -2 1105 -3 0 453 0 452 -1105 0 -1105 0 0
-450z m138 270 c1 -36 -2 -40 -24 -40 -15 0 -24 6 -24 16 0 11 6 14 18 10 16
-6 16 -5 0 8 -26 20 -23 46 6 46 21 0 24 -5 24 -40z m998 -41 c99 -41 128 -86
87 -131 -22 -24 -48 -23 -138 7 -81 28 -108 24 -120 -16 -10 -30 17 -54 103
-90 139 -57 177 -97 175 -178 -1 -29 -9 -43 -41 -71 -100 -89 -260 -96 -414
-19 -73 37 -98 90 -61 131 24 27 57 22 129 -18 85 -47 166 -57 207 -24 15 12
27 26 27 31 0 10 -44 31 -135 64 -27 10 -65 33 -82 51 -29 28 -33 38 -33 86 0
89 52 175 120 201 39 14 105 5 176 -24z"/>
<path d="M978 5427 c-58 -49 -78 -150 -37 -193 12 -12 57 -35 100 -50 89 -31
119 -54 119 -90 0 -41 -19 -65 -67 -86 -62 -27 -132 -18 -224 29 -73 38 -102
37 -57 -2 46 -39 135 -67 213 -67 77 0 114 11 162 48 26 20 33 32 33 60 0 47
-31 74 -131 114 -101 41 -139 75 -139 125 0 27 8 44 29 66 35 35 65 37 153 9
72 -23 88 -24 88 -9 0 5 -29 23 -65 40 -80 36 -139 38 -177 6z"/>
<path d="M2280 5240 l0 -450 1110 0 1110 0 0 450 0 450 -1110 0 -1110 0 0
-450z m973 352 c25 -22 21 -51 -23 -153 -22 -51 -39 -94 -37 -95 7 -7 200 -43
207 -39 16 10 61 -19 67 -42 8 -35 -12 -71 -43 -79 -15 -4 -86 1 -157 10 -71
9 -132 15 -135 12 -3 -3 -7 -27 -10 -54 -4 -44 -2 -51 23 -70 51 -40 99 -46
205 -27 180 34 223 31 236 -19 8 -32 -11 -64 -44 -78 -41 -16 -199 -38 -272
-38 -121 0 -200 38 -248 119 -27 46 -34 113 -19 172 6 25 5 26 -80 47 -100 25
-123 42 -123 89 0 58 43 63 231 26 25 -5 28 0 69 96 58 139 97 170 153 123z
m-842 -29 c6 -49 3 -93 -7 -93 -12 0 -25 65 -16 88 5 13 21 17 23 5z"/>
<path d="M3186 5538 c-8 -13 -29 -57 -47 -98 -50 -119 -60 -125 -170 -104 -41
8 -84 14 -96 14 -46 0 -21 -20 50 -40 126 -36 122 -32 122 -135 0 -102 15
-135 83 -177 34 -21 47 -23 172 -21 133 1 235 18 235 38 0 18 -56 17 -165 -5
-105 -21 -110 -21 -170 -4 -107 30 -148 94 -119 186 21 65 41 71 186 51 116
-16 161 -14 148 7 -3 5 -19 10 -35 10 -45 0 -183 31 -207 46 -32 20 -29 56 12
151 19 45 35 86 35 92 0 19 -19 12 -34 -11z"/>
<path d="M4540 5238 l0 -453 1105 0 1105 0 0 453 0 452 -1105 0 -1105 0 0
-452z m120 282 c0 -20 5 -30 15 -30 10 0 15 10 15 30 0 17 5 30 10 30 6 0 10
-18 10 -41 0 -39 -1 -40 -32 -37 -30 3 -33 6 -36 41 -2 21 1 37 7 37 6 0 11
-13 11 -30z m684 -16 c9 -3 25 -22 37 -41 21 -33 21 -41 13 -157 -13 -185 -12
-211 10 -235 11 -12 31 -21 45 -21 33 0 113 38 169 79 67 49 78 76 86 203 9
132 23 168 66 168 17 0 39 -9 50 -20 23 -23 25 -75 11 -285 -9 -127 -5 -195
11 -195 6 0 26 14 45 30 40 36 43 36 77 9 37 -29 35 -70 -5 -104 -77 -64 -169
-85 -208 -46 -21 21 -41 80 -41 123 l0 28 -57 -37 c-116 -74 -231 -95 -310
-56 -66 32 -77 65 -80 245 -3 142 -5 160 -23 178 -35 35 -18 83 44 121 34 21
37 22 60 13z"/>
<path d="M5287 5432 c-15 -16 -15 -20 3 -47 17 -26 20 -48 20 -160 1 -223 16
-249 140 -243 70 3 83 7 160 52 98 57 128 56 143 -4 27 -112 26 -110 58 -110
33 0 98 30 119 55 21 25 4 29 -28 5 -19 -14 -40 -20 -63 -18 -58 5 -61 23 -54
271 5 156 3 217 -5 217 -16 0 -19 -15 -29 -139 -8 -101 -12 -118 -38 -154 -36
-51 -142 -123 -211 -143 -47 -14 -59 -14 -90 -2 -43 16 -72 60 -74 114 -1 22
2 96 7 166 6 98 5 131 -5 143 -16 20 -33 19 -53 -3z"/>
<path d="M6800 5237 l0 -452 1105 0 1105 0 0 453 0 452 -1105 0 -1105 0 0
-453z m117 286 l10 -28 6 28 c4 15 12 27 17 27 14 0 12 -12 -6 -48 -23 -47
-36 -43 -49 16 -8 40 9 44 22 5z m1028 -45 c27 -21 27 -24 22 -92 -7 -94 -34
-167 -104 -284 -78 -131 -109 -162 -164 -162 -39 0 -48 5 -88 49 -26 26 -84
111 -130 189 l-83 140 -34 -14 c-39 -16 -66 -8 -84 27 -17 30 16 78 80 117 30
17 58 32 63 32 22 0 71 -71 137 -199 39 -77 82 -151 95 -165 33 -35 54 -24
105 55 41 64 65 126 75 199 10 73 26 111 49 120 30 12 30 12 61 -12z"/>
<path d="M7895 5428 c-2 -7 -9 -42 -15 -77 -15 -82 -40 -147 -86 -215 -64 -97
-114 -111 -172 -48 -20 20 -70 102 -112 182 -42 80 -83 146 -91 148 -18 3 -81
-37 -87 -57 -3 -10 4 -12 36 -6 53 9 66 -4 159 -160 91 -153 135 -205 172
-205 35 0 45 12 121 135 65 108 100 201 100 271 0 41 -15 60 -25 32z"/>
<path d="M9050 5240 l0 -450 1110 0 1110 0 0 450 0 450 -1110 0 -1110 0 0
-450z m700 328 c12 -28 80 -349 80 -377 0 -33 15 -32 51 5 36 38 102 86 132
97 24 9 63 -34 78 -84 7 -21 26 -52 44 -69 l31 -30 27 133 c44 226 79 294 154
304 67 9 150 -6 180 -31 32 -28 26 -67 -13 -92 -23 -16 -28 -16 -80 2 -55 18
-56 18 -70 -1 -8 -10 -19 -35 -24 -55 -15 -49 -50 -287 -50 -335 0 -44 -26
-103 -52 -119 -22 -13 -94 19 -116 52 -9 14 -40 48 -68 77 l-53 52 -57 -64
c-100 -114 -164 -139 -207 -81 -23 30 -58 190 -78 350 l-13 107 -33 -30 c-19
-16 -45 -29 -58 -29 -25 0 -65 31 -65 50 0 27 33 70 87 111 104 82 155 99 173
57z m-581 -35 c10 -17 10 -17 11 0 0 26 30 21 31 -5 l0 -23 9 23 c15 35 33 27
25 -10 -10 -46 -22 -56 -40 -32 -13 17 -14 17 -15 2 0 -26 -27 -22 -33 5 -2
12 -8 30 -12 40 -4 10 -3 17 3 17 6 0 16 -8 21 -17z"/>
<path d="M9670 5518 c-56 -34 -120 -89 -120 -104 0 -19 7 -18 37 6 52 41 113
13 113 -51 0 -46 51 -332 65 -366 9 -20 21 -33 32 -33 10 0 55 38 100 85 58
60 89 85 106 85 17 0 47 -23 100 -79 94 -98 114 -111 126 -79 5 13 16 86 25
163 36 302 70 364 183 330 26 -8 51 -11 56 -6 13 13 -8 22 -67 28 -79 8 -102
-1 -126 -47 -21 -40 -62 -203 -76 -294 -7 -52 -32 -86 -64 -86 -32 0 -86 56
-110 115 -12 30 -28 55 -35 55 -7 0 -43 -27 -79 -60 -102 -93 -135 -80 -162
61 -20 106 -61 290 -66 295 -2 2 -19 -6 -38 -18z"/>
<path d="M11310 5238 l0 -453 1105 3 1105 2 0 450 0 450 -1105 0 -1105 0 0
-452z m1130 372 c37 -37 30 -50 -125 -214 -66 -70 -121 -130 -123 -135 -4 -11
105 -140 209 -247 49 -50 89 -99 89 -108 0 -19 -43 -66 -60 -66 -30 0 -79 42
-204 171 -74 79 -137 141 -139 138 -37 -50 -147 -169 -169 -183 -36 -23 -74
-15 -90 20 -16 35 3 71 97 183 l76 91 -43 54 c-24 30 -51 67 -62 81 l-18 27
-19 -31 c-41 -67 -119 -58 -119 14 0 28 9 43 50 84 27 27 59 52 70 56 28 9 75
-24 164 -114 l70 -70 100 106 c152 161 200 189 246 143z m-1009 -72 c0 -10 2
-10 6 0 2 6 11 12 19 12 12 0 12 -4 4 -20 -8 -14 -8 -26 0 -40 9 -16 8 -20 -5
-20 -8 0 -15 5 -15 11 0 8 -5 7 -15 -1 -20 -17 -32 -5 -15 15 10 12 10 19 2
27 -16 16 -15 28 3 28 8 0 15 -6 16 -12z"/>
<path d="M12247 5450 c-96 -96 -136 -130 -154 -130 -17 0 -51 25 -113 85 -49
47 -95 85 -103 85 -19 0 -64 -36 -78 -62 -18 -33 -1 -33 30 1 31 33 57 39 83
19 37 -29 128 -164 128 -190 0 -19 -22 -53 -73 -115 -83 -98 -102 -129 -87
-138 5 -3 31 18 57 47 146 160 159 166 222 100 205 -216 271 -276 271 -245 0
4 -33 41 -74 83 -41 41 -104 111 -140 155 -93 112 -92 117 33 253 54 59 110
118 125 131 27 26 34 51 14 51 -6 0 -70 -58 -141 -130z"/>
<path d="M30 4290 l0 -450 1105 0 1105 0 0 450 0 450 -1105 0 -1105 0 0 -450z
m860 212 c39 -58 70 -112 70 -121 1 -13 3 -12 16 4 38 51 231 236 251 242 28
6 68 -18 76 -47 7 -29 -57 -122 -151 -218 -42 -43 -89 -87 -104 -99 -15 -12
-58 -69 -97 -127 -148 -220 -225 -272 -317 -215 -49 30 -112 106 -126 152 -11
38 -11 41 16 63 36 32 60 30 88 -6 13 -17 34 -44 46 -60 33 -41 63 -39 100 8
36 44 142 201 142 209 0 3 -22 29 -49 59 -57 62 -129 168 -138 203 -7 29 5 52
37 68 38 19 66 -3 140 -115z m-744 76 l7 -23 8 23 c5 12 13 22 20 22 7 0 8 -7
4 -17 -4 -10 -12 -31 -18 -48 -5 -16 -15 -33 -21 -37 -16 -10 -28 2 -16 17 7
9 7 21 0 39 -12 34 -13 46 -1 46 5 0 13 -10 17 -22z"/>
<path d="M1118 4464 c-62 -63 -121 -120 -131 -125 -26 -15 -55 -2 -73 34 -33
65 -127 197 -140 197 -8 0 -14 -4 -14 -8 0 -17 79 -131 129 -186 72 -79 70
-93 -26 -235 -42 -62 -88 -120 -101 -129 -53 -34 -126 -10 -164 54 -11 19 -26
34 -34 34 -21 0 -17 -12 15 -56 42 -59 88 -94 122 -94 44 0 114 71 208 209 52
76 103 138 149 178 113 101 220 243 182 243 -5 0 -60 -52 -122 -116z"/>
<path d="M2280 4290 l0 -450 1110 0 1110 0 0 450 0 450 -1110 0 -1110 0 0
-450z m1361 304 c31 -33 19 -65 -48 -121 -71 -60 -393 -375 -393 -384 0 -4 77
-7 171 -6 l172 2 19 -26 c24 -32 17 -62 -20 -87 -22 -14 -59 -17 -247 -20
-121 -2 -224 -8 -230 -13 -25 -25 -95 13 -95 52 0 30 83 129 259 311 l170 175
-202 6 c-252 6 -290 17 -290 77 0 61 1 61 376 59 335 -3 337 -3 358 -25z
m-1201 -7 c0 -7 -6 -19 -12 -26 -10 -11 -10 -14 0 -18 21 -8 13 -23 -13 -23
-27 0 -33 18 -12 39 10 11 10 14 0 18 -22 8 -14 23 12 23 14 0 25 -6 25 -13z"/>
<path d="M2960 4562 c0 -20 39 -24 243 -31 191 -5 210 -8 223 -25 8 -11 14
-28 14 -39 0 -10 -69 -89 -160 -184 -89 -91 -184 -192 -211 -225 -53 -63 -54
-87 -5 -68 15 5 107 10 204 10 202 0 252 6 252 28 0 13 -21 14 -152 10 -84 -3
-163 -2 -175 3 -33 12 -39 52 -15 91 23 36 287 298 370 366 28 24 52 49 52 56
0 10 -70 13 -320 15 -200 1 -320 -1 -320 -7z"/>
<path d="M4540 4290 l0 -450 1105 0 1105 0 0 450 0 450 -1105 0 -1105 0 0
-450z m1023 417 c11 -7 31 -63 52 -147 19 -74 44 -162 54 -195 10 -33 29 -95
41 -138 13 -47 32 -88 46 -102 31 -31 30 -59 -1 -90 -29 -30 -84 -34 -107 -7
-24 26 -54 91 -71 152 l-16 55 -104 0 -104 0 -41 -74 c-23 -41 -42 -84 -42
-96 0 -48 -64 -76 -99 -44 -42 40 -30 75 169 459 55 107 112 205 126 218 28
24 71 29 97 9z m-857 -144 c4 -29 3 -43 -5 -43 -6 0 -11 9 -11 20 0 11 -7 20
-15 20 -8 0 -15 -9 -15 -20 0 -11 -7 -20 -16 -20 -17 0 -15 12 13 78 12 30 16
33 28 21 8 -8 17 -33 21 -56z"/>
<path d="M5482 4643 c-35 -50 -282 -544 -282 -564 0 -10 5 -19 10 -19 6 0 10
6 10 14 0 17 76 164 98 189 13 14 33 17 137 17 143 0 141 1 174 -104 26 -82
47 -116 72 -116 29 0 33 20 9 45 -23 25 -43 86 -128 398 -49 181 -60 196 -100
140z m42 -128 c17 -18 46 -111 46 -152 0 -41 -17 -53 -76 -53 -111 0 -134 34
-89 127 44 89 82 114 119 78z"/>
<path d="M5453 4426 l-32 -63 52 -6 c28 -4 52 -5 54 -3 5 5 -31 136 -37 136
-3 0 -20 -29 -37 -64z"/>
<path d="M6800 4290 l0 -450 1105 0 1105 0 0 450 0 450 -1105 0 -1105 0 0
-450z m1006 394 c19 -9 41 -29 49 -45 17 -32 20 -151 5 -178 -8 -16 -3 -19 52
-25 76 -8 141 -38 170 -79 35 -49 32 -140 -6 -196 -36 -52 -98 -98 -202 -150
-85 -42 -141 -55 -299 -66 -88 -7 -90 -7 -92 -33 -2 -34 -39 -65 -67 -56 -62
18 -69 60 -64 406 l3 256 -35 -15 c-120 -51 -161 -55 -186 -18 -22 33 -11 71
25 90 67 34 310 97 461 119 69 10 154 5 186 -10z m-848 -63 c9 -5 12 -24 10
-52 -3 -42 -5 -44 -35 -47 l-33 -3 0 55 c0 51 2 56 23 56 12 0 28 -4 35 -9z"/>
<path d="M7605 4643 c-72 -8 -158 -27 -267 -59 -128 -37 -168 -53 -168 -66 0
-14 36 -9 104 17 78 29 89 30 110 9 14 -13 16 -55 16 -302 0 -158 3 -297 6
-309 9 -32 30 -29 37 6 8 38 36 47 185 60 140 13 190 29 298 96 115 72 154
140 125 218 -14 36 -67 64 -146 76 -41 6 -75 17 -81 26 -8 10 -10 46 -6 104 4
81 3 90 -17 110 -18 18 -32 21 -93 20 -40 -1 -86 -4 -103 -6z m139 -27 c59
-25 68 -104 19 -158 -26 -29 -163 -80 -229 -86 -58 -4 -63 -3 -79 22 -13 20
-16 42 -13 96 5 88 19 104 113 124 90 19 147 19 189 2z m202 -267 c84 -22 106
-90 51 -162 -26 -34 -138 -105 -197 -126 -19 -6 -93 -16 -165 -22 -193 -16
-209 -4 -203 148 4 103 13 113 128 147 70 21 107 25 213 25 71 1 148 -4 173
-10z"/>
<path d="M7575 4569 c-93 -21 -85 -12 -85 -89 l0 -70 43 6 c53 8 159 50 192
76 27 21 33 56 13 76 -14 14 -104 14 -163 1z"/>
<path d="M7560 4286 l-75 -23 -3 -92 -3 -91 43 0 c24 1 90 5 148 10 88 8 116
15 170 42 88 45 142 98 138 134 -4 38 -23 42 -198 42 -123 1 -156 -3 -220 -22z"/>
<path d="M6920 4590 c0 -13 5 -20 13 -17 6 2 12 10 12 17 0 7 -6 15 -12 18 -8
2 -13 -5 -13 -18z"/>
<path d="M6920 4550 c0 -5 7 -10 15 -10 8 0 15 5 15 10 0 6 -7 10 -15 10 -8 0
-15 -4 -15 -10z"/>
<path d="M9050 4290 l0 -450 1110 0 1110 0 0 450 0 450 -1110 0 -1110 0 0
-450z m1060 321 c91 -33 115 -63 90 -108 -20 -35 -44 -39 -124 -19 -82 21
-101 20 -124 -5 -39 -41 -66 -191 -54 -294 7 -59 7 -60 47 -72 26 -8 79 -10
155 -7 144 6 156 9 163 34 3 11 18 25 33 30 23 9 33 8 53 -8 15 -10 27 -29 29
-40 4 -28 -34 -97 -62 -111 -57 -28 -276 -40 -404 -22 -121 17 -165 142 -132
374 10 69 65 204 98 240 40 45 124 48 232 8z m-890 4 c6 -8 8 -19 4 -26 -5 -8
-9 -7 -16 5 -12 22 -25 20 -39 -5 -9 -17 -8 -25 5 -37 12 -13 18 -13 31 -2 20
17 32 5 15 -15 -17 -20 -50 -19 -66 3 -18 23 -17 43 2 70 17 25 46 29 64 7z"/>
<path d="M9917 4572 c-29 -31 -77 -148 -87 -208 -13 -76 -13 -199 0 -245 6
-19 21 -46 35 -59 24 -23 34 -24 178 -28 177 -4 239 8 270 50 29 38 13 47 -22
14 -28 -27 -37 -29 -153 -37 -141 -10 -214 0 -256 36 -26 22 -27 28 -30 134
-4 127 18 226 63 279 33 39 71 45 161 25 111 -24 118 0 10 37 -75 25 -147 26
-169 2z"/>
<path d="M11310 4290 l0 -450 1105 0 1105 0 0 450 0 450 -1105 0 -1105 0 0
-450z m1177 345 c56 -17 107 -65 120 -113 5 -15 8 -67 8 -117 0 -101 -17 -145
-77 -203 -47 -45 -113 -66 -335 -108 -15 -3 -20 -9 -16 -23 7 -27 -40 -73 -70
-69 -12 2 -31 17 -42 34 -20 31 -22 32 -91 30 -83 -1 -114 17 -114 66 0 40 48
68 119 68 50 0 53 1 48 23 -3 12 -9 77 -13 145 -5 98 -9 122 -20 118 -22 -9
-177 -54 -207 -60 -21 -5 -33 -1 -52 18 -31 31 -31 48 -2 81 18 21 54 33 202
71 99 25 214 49 255 54 96 11 221 4 287 -15z m-998 -37 c13 -23 13 -30 1 -52
-10 -20 -21 -26 -47 -26 -33 0 -33 0 -33 48 0 27 3 52 7 56 15 15 58 0 72 -26z"/>
<path d="M12193 4600 c-127 -16 -413 -93 -413 -111 0 -16 45 -10 124 17 93 31
136 29 153 -6 6 -14 15 -90 19 -170 8 -170 8 -170 -89 -179 -46 -4 -62 -10
-62 -21 0 -12 15 -15 73 -15 71 0 74 -1 101 -34 29 -35 34 -34 45 11 8 35 28
45 128 64 239 44 307 108 296 281 -6 85 -24 118 -80 146 -43 21 -191 30 -295
17z m280 -40 c52 -25 86 -130 66 -203 -23 -86 -79 -128 -209 -160 -127 -31
-154 -31 -184 -5 -26 22 -27 28 -36 168 -11 173 -6 189 60 207 58 16 265 11
303 -7z"/>
<path d="M12177 4523 l-27 -4 5 -112 c3 -62 8 -131 11 -153 l5 -42 102 22
c177 38 223 74 221 176 -1 71 -21 105 -65 114 -33 6 -205 6 -252 -1z"/>
<path d="M11430 4575 c0 -24 5 -35 15 -35 21 0 35 32 24 53 -17 30 -39 20 -39
-18z"/>
<path d="M30 3340 l0 -450 1105 0 1105 0 0 450 0 450 -1105 0 -1105 0 0 -450z
m1130 371 c128 -5 213 -4 227 2 51 23 103 -25 83 -77 -14 -38 -59 -44 -345
-48 l-260 -3 0 -35 c0 -19 -4 -56 -8 -81 l-8 -46 99 -6 c55 -4 120 -4 145 -1
41 6 46 4 63 -21 13 -20 15 -33 8 -53 -14 -40 -67 -54 -215 -56 l-127 -1 -10
-74 c-12 -87 -9 -98 28 -106 34 -7 155 8 224 29 53 16 89 9 100 -19 32 -84
-57 -130 -246 -127 -129 1 -186 21 -214 74 -18 33 -19 87 -9 273 3 55 40 216
56 246 7 13 6 26 -1 39 -18 33 -8 73 20 87 28 14 96 15 390 4z m-965 -41 c4
-6 -5 -10 -19 -10 -16 0 -26 -6 -26 -15 0 -8 9 -15 20 -15 11 0 20 -4 20 -10
0 -5 -9 -10 -20 -10 -11 0 -20 -4 -20 -10 0 -5 11 -10 25 -10 14 0 25 -4 25
-10 0 -5 -16 -10 -35 -10 l-35 0 0 55 c0 54 0 55 29 55 17 0 33 -4 36 -10z"/>
<path d="M793 3613 c0 -32 -10 -96 -22 -143 -26 -98 -43 -317 -29 -367 14 -51
50 -64 176 -65 104 -2 185 12 198 33 12 20 -7 22 -83 6 -132 -27 -177 -30
-216 -14 -19 9 -41 25 -48 38 -14 27 -5 158 14 198 12 26 14 26 152 33 77 4
150 9 162 13 52 13 15 20 -114 22 -181 4 -183 5 -169 146 13 124 -6 116 313
124 150 3 278 10 285 14 21 13 1 22 -29 12 -16 -5 -109 -6 -218 -2 -104 4
-231 8 -281 8 l-90 1 -1 -57z"/>
<path d="M2280 3340 l0 -450 1110 0 1110 0 0 450 0 450 -1110 0 -1110 0 0
-450z m1181 359 c26 -26 22 -67 -11 -90 -20 -14 -60 -21 -185 -30 -88 -6 -161
-12 -163 -14 -1 -1 -5 -39 -9 -84 l-6 -81 59 0 c78 0 99 -7 113 -36 13 -29 0
-68 -28 -83 -11 -6 -49 -11 -85 -11 l-65 0 -6 -42 c-10 -68 -11 -191 -2 -215
6 -18 3 -28 -17 -48 -31 -31 -59 -32 -87 -4 -21 21 -22 28 -16 172 4 127 2
154 -12 178 -15 26 -15 31 1 61 10 20 18 62 20 106 l3 74 -25 -5 c-223 -45
-228 -45 -255 -3 -20 30 -13 61 18 81 20 13 210 46 372 66 39 4 99 12 135 17
36 5 102 10 148 11 70 1 85 -2 103 -20z m-1006 -29 c4 -6 -5 -10 -19 -10 -32
0 -35 -25 -3 -35 l22 -8 -22 -4 c-15 -3 -23 -12 -23 -24 0 -10 -4 -19 -10 -19
-5 0 -10 25 -10 55 0 54 0 55 29 55 17 0 33 -4 36 -10z"/>
<path d="M3130 3650 c-74 -10 -192 -28 -262 -39 -70 -12 -130 -21 -133 -21 -3
0 -5 -7 -5 -15 0 -19 25 -19 110 0 90 20 133 19 153 -3 22 -24 23 -148 2 -198
-10 -25 -12 -41 -5 -54 6 -10 10 -86 10 -169 0 -82 4 -152 9 -155 4 -3 8 32 8
77 -1 114 11 192 32 219 15 18 31 23 90 26 52 3 71 8 71 18 0 10 -14 14 -52
14 -104 0 -130 39 -110 162 6 39 17 78 26 86 9 10 49 18 118 24 188 16 231 23
236 36 5 18 -131 14 -298 -8z"/>
<path d="M4540 3340 l0 -450 1105 0 1105 0 0 450 0 450 -1105 0 -1105 0 0
-450z m1064 321 c54 -23 68 -56 41 -97 -16 -25 -20 -26 -73 -20 -184 20 -178
20 -227 -4 -87 -42 -124 -133 -110 -266 6 -56 12 -72 41 -104 52 -57 118 -81
211 -78 69 3 78 5 96 30 12 17 22 49 25 83 l4 55 -112 0 c-126 0 -150 10 -150
61 0 51 35 63 194 70 135 5 143 4 179 -18 28 -18 37 -30 37 -51 0 -15 7 -49
15 -76 18 -60 19 -126 2 -149 -6 -10 -26 -19 -42 -20 -20 -1 -36 -11 -47 -28
-43 -69 -141 -100 -260 -83 -126 19 -237 84 -278 163 -42 83 -51 254 -18 355
24 75 137 175 221 197 54 14 201 3 251 -20z m-906 7 c7 -7 12 -31 12 -55 0
-40 -2 -43 -28 -43 -35 0 -52 16 -52 51 0 46 41 74 68 47z"/>
<path d="M5341 3628 c-19 -7 -60 -36 -92 -66 -70 -64 -89 -114 -89 -232 0
-152 46 -233 162 -285 125 -56 268 -42 324 31 15 19 40 38 58 42 26 7 31 13
34 43 1 19 -6 66 -16 104 l-18 70 -120 3 c-65 2 -134 0 -151 -3 -65 -12 -31
-23 77 -27 134 -4 145 -11 145 -96 -1 -117 -56 -172 -171 -172 -121 0 -228 55
-270 138 -46 90 -38 246 16 325 29 42 85 82 138 98 35 10 60 10 138 -1 52 -7
97 -10 100 -7 3 3 -6 13 -21 23 -32 21 -193 29 -244 12z"/>
<path d="M4654 3636 c-7 -29 1 -46 22 -46 17 0 19 20 2 20 -8 1 -6 6 4 14 13
10 15 15 6 24 -18 18 -27 15 -34 -12z"/>
<path d="M6800 3340 l0 -450 281 0 c264 0 281 1 274 18 -4 9 -11 81 -15 160
-5 79 -10 146 -13 148 -3 3 -56 0 -119 -6 -124 -12 -159 -6 -178 30 -13 24 -6
52 17 71 8 8 74 20 145 29 l129 15 2 186 c2 168 4 189 21 208 26 28 71 28 90
-1 10 -16 16 -75 21 -198 4 -96 7 -176 8 -176 1 -1 46 5 100 13 l99 16 -7 136
c-8 151 1 210 38 236 19 14 -22 15 -436 15 l-457 0 0 -450z m120 315 c0 -18 5
-25 20 -25 15 0 20 7 20 25 0 14 5 25 10 25 6 0 10 -25 10 -55 0 -30 -4 -55
-10 -55 -5 0 -10 9 -10 20 0 13 -7 20 -20 20 -13 0 -20 -7 -20 -20 0 -11 -4
-20 -10 -20 -5 0 -10 25 -10 55 0 30 5 55 10 55 6 0 10 -11 10 -25z"/>
<path d="M7746 3780 c12 -5 26 -15 30 -22 5 -7 11 -85 14 -173 l5 -160 71 3
c65 3 73 2 88 -19 37 -53 8 -93 -84 -115 l-65 -16 7 -76 c3 -43 7 -107 7 -144
1 -57 -2 -70 -21 -88 -29 -27 -66 -22 -89 10 -14 19 -22 58 -31 153 l-11 129
-56 -7 c-31 -3 -78 -9 -104 -12 l-48 -6 3 -173 3 -174 773 0 772 0 0 450 0
450 -642 -1 c-373 0 -634 -4 -622 -9z"/>
<path d="M9050 3340 l0 -450 1110 0 1110 0 0 450 0 450 -1110 0 -1110 0 0
-450z m1056 352 c43 -28 35 -97 -13 -108 -64 -14 -63 -13 -58 -52 12 -92 36
-509 30 -539 -8 -47 -38 -63 -113 -63 -53 0 -67 4 -87 25 -25 24 -31 50 -17
71 11 16 48 34 71 34 19 0 21 6 21 63 0 34 -7 123 -15 197 -8 74 -15 163 -15
198 0 47 -3 62 -14 62 -18 0 -46 38 -46 62 0 10 9 27 20 38 17 17 33 20 123
20 56 0 107 -4 113 -8z m-926 -73 c0 -27 -4 -49 -10 -49 -5 0 -10 25 -10 56 0
34 4 53 10 49 6 -3 10 -28 10 -56z"/>
<path d="M9907 3644 c-3 -3 6 -16 20 -29 24 -20 27 -31 34 -126 3 -57 12 -168
20 -245 15 -169 7 -210 -48 -228 -51 -17 -43 -31 19 -34 54 -3 58 -1 64 22 3
13 -2 132 -11 263 -9 131 -15 258 -13 283 3 42 6 46 46 65 23 11 42 23 42 27
0 9 -164 11 -173 2z"/>
<path d="M11310 3340 l0 -450 1105 0 1105 0 0 450 0 450 -1105 0 -1105 0 0
-450z m158 288 c-3 -46 -6 -53 -26 -56 -22 -3 -42 22 -27 36 4 4 10 1 12 -5
10 -28 23 -10 23 32 0 25 5 45 11 45 6 0 9 -21 7 -52z m978 7 c9 -35 -4 -65
-32 -76 -23 -8 -24 -12 -17 -46 11 -51 6 -242 -8 -325 -20 -123 -61 -158 -218
-188 -176 -34 -225 -25 -281 52 -52 71 -39 141 40 212 59 53 84 63 114 43 33
-22 41 -53 21 -80 -56 -77 -65 -92 -65 -108 0 -23 27 -24 125 -6 133 26 140
37 148 237 3 80 9 155 13 168 l6 22 -136 0 c-101 0 -145 4 -165 15 -37 19 -46
53 -22 85 18 25 18 25 227 30 115 3 217 1 226 -3 10 -4 20 -18 24 -32z"/>
<path d="M12012 3608 c3 -9 45 -14 146 -18 109 -4 145 -9 157 -20 13 -14 14
-40 7 -201 -7 -165 -11 -190 -30 -221 -28 -45 -70 -65 -180 -85 -77 -14 -93
-14 -118 -2 -25 12 -29 21 -32 59 -2 38 2 53 28 88 34 47 35 52 16 52 -7 0
-32 -20 -55 -45 -54 -59 -56 -102 -7 -151 29 -29 41 -34 83 -34 72 0 216 29
252 51 18 11 39 35 47 55 21 49 36 241 28 345 -6 84 -6 86 20 106 14 12 26 24
26 27 0 3 -88 6 -196 6 -152 0 -195 -3 -192 -12z"/>
<path d="M7704 3694 c-4 -20 -4 -91 0 -158 8 -149 1 -166 -69 -184 -28 -7 -84
-14 -124 -15 -70 -2 -76 0 -87 21 -7 14 -15 97 -19 193 -5 120 -11 169 -19
166 -7 -2 -12 -62 -14 -189 -2 -167 -4 -187 -21 -202 -13 -12 -55 -22 -133
-32 -62 -7 -119 -14 -125 -14 -7 0 -13 -7 -13 -15 0 -18 12 -18 137 -5 106 11
138 4 154 -37 5 -15 14 -95 19 -177 5 -83 10 -152 10 -153 0 -2 5 -3 11 -3 7
0 10 55 7 180 -2 150 -1 182 12 194 18 19 101 35 188 39 87 3 92 -4 108 -157
13 -132 18 -151 36 -140 7 5 8 49 4 138 -7 123 -6 133 13 158 13 15 35 28 58
33 91 17 97 45 10 45 -97 0 -100 7 -107 192 -3 104 -9 153 -17 155 -7 3 -15
-11 -19 -33z"/>
<path d="M30 2390 l0 -450 332 0 c290 0 329 2 312 14 -18 14 -19 26 -17 168 3
175 5 201 27 393 18 164 22 184 43 208 22 23 66 22 88 -3 17 -19 18 -29 8
-113 -5 -50 -9 -93 -8 -94 0 -1 31 23 69 53 38 30 86 64 108 75 37 19 41 19
64 4 30 -19 40 -58 22 -84 -8 -11 -65 -60 -127 -110 l-112 -90 38 -16 c21 -9
59 -25 85 -36 27 -10 75 -32 108 -49 33 -16 72 -30 88 -30 53 0 80 -61 48
-106 -11 -15 -26 -19 -69 -19 -47 0 -72 9 -178 62 -68 34 -136 65 -150 68 -26
7 -26 6 -41 -87 -11 -78 -12 -97 0 -114 15 -26 7 -70 -17 -84 -10 -6 253 -10
737 -10 l752 0 0 450 0 450 -1105 0 -1105 0 0 -450z m120 318 l0 -23 20 25
c24 32 38 19 16 -16 -16 -23 -16 -27 -2 -43 20 -21 20 -31 3 -31 -8 0 -19 10
-25 23 l-11 22 0 -22 c-1 -13 -5 -23 -11 -23 -5 0 -10 25 -10 55 0 30 5 55 10
55 6 0 10 -10 10 -22z"/>
<path d="M2280 2390 l0 -450 1110 0 1110 0 0 450 0 450 -1110 0 -1110 0 0
-450z m753 410 c12 -17 13 -58 9 -224 -3 -134 -1 -209 6 -222 9 -17 23 -19
124 -20 120 -1 275 -17 355 -37 37 -9 51 -19 61 -41 13 -25 12 -31 -5 -55 -25
-33 -63 -37 -153 -17 -47 11 -120 16 -227 16 -194 0 -279 12 -312 44 -21 22
-23 32 -23 112 0 147 44 415 74 451 17 21 75 16 91 -7z m-623 -121 c0 -32 3
-39 20 -39 11 0 20 -4 20 -10 0 -5 -13 -10 -30 -10 -30 0 -30 0 -30 56 0 34 4
53 10 49 6 -3 10 -24 10 -46z"/>
<path d="M2956 2698 c-36 -166 -52 -396 -29 -419 20 -20 93 -28 263 -29 103 0
189 -6 230 -15 85 -19 120 -19 120 -1 0 10 -21 18 -67 25 -118 19 -296 32
-346 26 -29 -4 -59 -2 -76 5 -51 21 -56 44 -55 272 0 159 -3 208 -12 208 -8 0
-19 -30 -28 -72z"/>
<path d="M4540 2390 l0 -450 1105 0 1105 0 0 450 0 450 -1105 0 -1105 0 0
-450z m556 396 c23 -17 114 -145 154 -218 l27 -49 61 94 c69 107 117 153 166
162 79 15 100 -12 121 -155 8 -58 31 -154 51 -215 45 -132 52 -227 20 -251
-52 -38 -106 -1 -106 73 0 28 -18 101 -45 184 -25 76 -45 149 -45 163 0 14 -3
26 -7 26 -5 0 -25 -30 -46 -66 -49 -82 -91 -130 -122 -138 -41 -10 -102 22
-156 83 l-50 56 6 -35 c3 -19 7 -117 8 -218 2 -173 1 -184 -18 -198 -11 -8
-33 -14 -50 -12 -23 2 -34 11 -47 39 -20 40 -38 184 -38 308 l0 85 -33 -32
c-36 -35 -71 -41 -99 -15 -21 19 -23 45 -7 76 28 53 132 187 145 187 8 0 14 7
14 15 0 19 44 65 62 65 8 0 23 -6 34 -14z m-421 -86 c10 -44 23 -46 31 -5 3
20 11 34 18 32 14 -5 21 -107 7 -107 -6 0 -12 15 -12 33 l-1 32 -7 -29 c-9
-41 -28 -43 -40 -4 l-9 33 -1 -32 c-1 -18 -5 -33 -11 -33 -11 0 -14 93 -3 103
13 14 22 6 28 -23z"/>
<path d="M5042 2715 c-7 -14 -19 -28 -27 -31 -15 -6 -100 -117 -124 -162 -19
-35 -6 -38 29 -8 35 29 57 32 85 12 16 -12 20 -33 26 -157 11 -198 20 -249 46
-249 14 0 15 23 9 209 -8 208 -8 209 14 224 30 21 59 9 106 -43 21 -23 51 -48
67 -56 39 -21 61 -5 122 88 55 83 60 88 96 88 33 0 44 -13 59 -70 6 -25 27
-94 47 -154 19 -60 38 -132 42 -160 3 -28 11 -51 16 -51 24 0 14 77 -25 199
-22 70 -47 170 -54 222 -17 108 -19 114 -51 114 -35 0 -80 -43 -145 -139 -31
-48 -65 -93 -74 -100 -30 -25 -67 -2 -104 63 -48 87 -121 186 -136 186 -7 0
-18 -11 -24 -25z"/>
<path d="M6800 2390 l0 -450 1105 0 1105 0 0 450 0 450 -1105 0 -1105 0 0
-450z m990 420 c12 -12 20 -34 20 -52 0 -18 5 -51 10 -73 5 -22 15 -96 20
-165 13 -151 28 -208 74 -280 60 -93 41 -160 -46 -160 -47 0 -67 18 -184 163
-76 94 -112 133 -178 197 l-48 45 3 -208 c3 -184 1 -209 -14 -227 -21 -25 -48
-26 -76 -2 -31 25 -41 103 -42 337 -2 216 6 265 44 282 40 18 81 -9 217 -139
73 -71 134 -128 135 -128 7 0 -8 144 -20 205 -15 69 -18 153 -8 188 5 18 34
35 61 36 6 1 21 -8 32 -19z m-849 -112 l13 -33 3 33 c7 53 23 36 23 -23 0 -66
-19 -74 -43 -17 l-15 37 -1 -37 c-2 -60 -21 -44 -21 17 0 64 20 75 41 23z"/>
<path d="M7740 2718 c1 -29 7 -82 15 -118 8 -36 14 -98 15 -137 0 -65 -2 -74
-24 -88 -15 -10 -30 -13 -45 -8 -11 5 -79 64 -151 131 -84 80 -136 122 -148
120 -14 -3 -18 -19 -25 -83 -7 -84 5 -415 17 -434 18 -28 21 0 17 160 -1 93 0
185 3 204 8 39 36 60 69 49 29 -9 135 -112 205 -199 133 -165 153 -185 183
-185 39 0 39 30 -1 90 -42 62 -66 148 -74 260 -9 118 -37 290 -48 290 -4 0 -8
-24 -8 -52z"/>
<path d="M9050 2390 l0 -450 1110 0 1110 0 0 450 0 450 -1110 0 -1110 0 0
-450z m172 323 c20 -18 24 -63 6 -81 -29 -29 -87 -3 -88 38 0 23 29 60 47 60
9 0 25 -7 35 -17z m839 -8 c94 -19 137 -39 151 -72 7 -15 31 -56 55 -89 75
-108 88 -164 60 -271 -19 -70 -54 -119 -102 -142 -54 -26 -250 -55 -333 -49
-113 8 -282 105 -312 178 -19 46 -8 188 19 242 30 62 105 154 149 183 67 44
160 50 313 20z"/>
<path d="M9171 2692 c-11 -21 3 -52 23 -52 18 0 28 27 21 51 -8 24 -31 24 -44
1z"/>
<path d="M9840 2671 c-51 -11 -73 -25 -120 -78 -76 -87 -94 -126 -98 -223 -4
-81 -3 -87 23 -118 15 -17 66 -52 117 -77 82 -41 97 -45 162 -45 75 0 223 22
267 38 60 23 99 101 99 197 0 41 -7 62 -34 105 -19 30 -49 79 -66 107 -28 46
-38 55 -82 68 -78 23 -216 36 -268 26z m147 -36 c43 -8 90 -20 104 -26 30 -12
121 -120 150 -176 33 -65 20 -169 -27 -216 -31 -31 -159 -57 -280 -57 -73 0
-88 4 -153 36 -123 61 -151 106 -130 207 13 61 30 95 76 159 32 44 71 67 138
81 35 8 41 7 122 -8z"/>
<path d="M9843 2590 c-42 -10 -53 -20 -97 -83 -42 -61 -65 -154 -48 -192 6
-13 42 -42 81 -64 68 -40 71 -41 163 -41 118 1 227 21 245 46 7 10 18 36 24
57 14 54 -1 94 -72 181 l-58 73 -83 17 c-90 17 -106 18 -155 6z"/>
<path d="M11310 2390 l0 -450 1105 0 1105 0 0 450 0 450 -1105 0 -1105 0 0
-450z m1034 380 c111 -54 151 -98 160 -172 10 -76 -9 -118 -66 -151 -79 -46
-280 -95 -419 -104 l-107 -6 -4 -96 c-4 -89 -3 -98 19 -124 29 -36 29 -52 -2
-82 -29 -30 -45 -31 -75 -7 -26 21 -35 59 -66 278 -4 25 -10 33 -33 37 -40 8
-60 57 -37 91 8 14 26 26 38 28 18 2 24 10 26 37 l3 33 -49 -42 c-34 -28 -58
-41 -73 -38 -30 4 -63 50 -55 76 10 31 192 185 266 225 36 19 90 40 120 46 30
6 64 13 75 15 11 3 59 4 107 2 79 -3 95 -7 172 -46z m-869 -75 c0 -23 -5 -31
-22 -33 -15 -2 -23 -10 -23 -23 0 -10 -4 -19 -10 -19 -11 0 -14 93 -3 104 4 4
19 6 33 4 20 -2 25 -8 25 -33z"/>
<path d="M12008 2755 c-102 -26 -155 -59 -312 -197 -55 -48 -43 -71 13 -24 47
39 67 44 96 22 40 -29 14 -136 -32 -136 -23 0 -14 -24 16 -42 32 -18 50 -65
52 -133 1 -88 16 -79 20 12 5 122 7 124 146 134 110 8 198 25 310 59 127 39
149 61 138 141 -8 59 -46 96 -145 143 -56 27 -78 31 -155 33 -52 1 -114 -4
-147 -12z m304 -49 c74 -35 108 -75 108 -126 0 -27 -7 -45 -21 -59 -45 -42
-275 -99 -421 -103 -104 -4 -112 4 -116 120 -3 105 7 129 69 160 65 32 120 41
229 38 80 -2 104 -7 152 -30z"/>
<path d="M12002 2674 c-94 -25 -92 -23 -92 -125 l0 -90 83 6 c169 14 378 71
385 106 5 26 -39 70 -92 95 -42 20 -67 24 -141 23 -49 0 -114 -7 -143 -15z"/>
<path d="M11870 2086 c0 -9 5 -16 10 -16 6 0 10 4 10 9 0 6 -4 13 -10 16 -5 3
-10 -1 -10 -9z"/>
<path d="M11430 2695 c0 -8 7 -15 15 -15 8 0 15 7 15 15 0 8 -7 15 -15 15 -8
0 -15 -7 -15 -15z"/>
<path d="M754 2677 c-18 -47 -63 -640 -50 -672 12 -31 24 -6 14 29 -12 39 11
206 32 231 25 30 82 17 221 -50 91 -45 143 -65 163 -63 42 4 43 24 2 32 -19 4
-83 29 -143 56 -186 86 -178 81 -181 122 -3 36 0 39 105 123 59 48 112 93 116
101 21 37 -64 -6 -123 -61 -14 -13 -41 -31 -61 -39 -32 -13 -38 -13 -59 1 -21
15 -22 19 -15 109 5 67 4 94 -4 94 -7 0 -14 -6 -17 -13z"/>
<path d="M30 1440 l0 -450 1105 0 1105 0 0 450 0 450 -1105 0 -1105 0 0 -450z
m1163 370 c14 -12 63 -39 108 -62 103 -51 187 -133 257 -249 71 -119 75 -131
56 -182 -8 -23 -17 -49 -20 -57 -3 -10 9 -23 33 -36 21 -12 60 -41 86 -64 56
-49 60 -80 15 -113 -27 -20 -29 -20 -65 -3 -21 10 -65 40 -100 67 -58 47 -63
49 -85 35 -36 -22 -211 -75 -287 -86 -160 -23 -364 52 -431 157 -34 53 -37 85
-15 186 21 100 132 303 204 371 55 53 196 74 244 36z m-995 -42 c7 -7 12 -31
12 -55 0 -42 -1 -43 -33 -43 -41 0 -57 15 -57 55 0 36 15 55 45 55 12 0 26 -5
33 -12z"/>
<path d="M1036 1770 c-40 -12 -71 -44 -122 -121 -96 -148 -149 -297 -131 -371
18 -69 121 -135 257 -164 95 -20 181 -9 324 42 154 54 149 54 234 -10 41 -31
83 -56 95 -56 20 1 18 4 -13 33 -20 17 -57 47 -83 64 -52 36 -56 50 -35 126 7
26 8 55 3 73 l-8 29 -7 -35 c-11 -62 -43 -100 -83 -100 -7 0 -62 29 -121 65
-105 64 -126 73 -126 57 0 -14 31 -37 95 -73 81 -44 95 -57 95 -90 0 -36 -23
-51 -123 -79 -127 -35 -198 -36 -292 -6 -107 34 -149 64 -171 122 -24 63 -10
128 55 259 57 115 96 166 145 189 50 24 82 20 181 -20 131 -53 196 -103 241
-184 13 -25 38 -53 55 -63 39 -22 36 -11 -20 72 -54 79 -116 131 -221 186 -49
25 -92 50 -95 55 -7 12 -89 12 -129 0z"/>
<path d="M1055 1686 c-55 -24 -122 -123 -170 -250 -48 -129 -28 -180 90 -226
83 -33 191 -33 308 -1 48 13 87 27 87 30 0 3 -32 23 -70 44 -92 50 -130 83
-130 113 0 29 33 64 60 64 11 0 66 -28 123 -63 56 -35 107 -66 113 -70 14 -8
45 50 37 69 -2 7 -17 18 -33 24 -19 8 -42 34 -65 74 -44 74 -108 124 -208 162
-39 14 -76 31 -81 35 -13 12 -25 11 -61 -5z"/>
<path d="M144 1736 c-7 -29 1 -46 21 -46 8 0 17 5 20 11 11 16 -4 59 -20 59
-8 0 -17 -11 -21 -24z"/>
<path d="M2280 1440 l0 -450 1110 0 1110 0 0 450 0 450 -1110 0 -1110 0 0
-450z m167 328 c10 -17 13 -98 2 -98 -4 0 -11 9 -14 20 -3 11 -11 20 -16 20
-5 0 -9 -9 -9 -20 0 -11 -4 -20 -10 -20 -5 0 -10 25 -10 55 0 52 1 55 24 55
14 0 28 -6 33 -12z m537 -7 c16 -18 19 -18 99 1 115 28 171 21 213 -24 42 -46
74 -135 74 -204 0 -76 -28 -127 -91 -167 -33 -20 -46 -33 -37 -38 7 -3 59 -18
116 -33 121 -31 167 -52 222 -104 52 -51 54 -103 3 -123 -26 -10 -52 0 -87 33
-32 30 -65 45 -131 58 -33 6 -101 29 -152 51 -82 34 -181 65 -188 57 -1 -2 -7
-45 -13 -97 -12 -103 -28 -131 -72 -131 -51 0 -62 27 -58 136 3 91 1 100 -19
121 -31 30 -29 49 7 85 25 24 30 38 30 76 0 26 -3 63 -6 83 l-6 35 -55 -14
c-53 -13 -56 -13 -79 9 -48 45 -19 94 71 119 35 10 49 20 56 39 6 14 15 31 21
38 15 19 62 16 82 -6z"/>
<path d="M2410 1745 c0 -9 5 -15 10 -13 12 4 11 16 -1 24 -5 3 -9 -2 -9 -11z"/>
<path d="M2920 1700 c-10 -23 -25 -34 -71 -51 -81 -30 -87 -44 -15 -35 77 9
92 -1 106 -71 16 -76 9 -148 -19 -176 -25 -27 -26 -40 -6 -57 12 -10 15 -36
15 -116 0 -61 4 -104 10 -104 11 0 15 16 29 118 5 40 15 80 22 89 21 24 111
11 214 -32 50 -21 130 -48 179 -61 60 -15 100 -32 127 -53 60 -49 86 -36 28
14 -48 40 -98 62 -195 86 -106 26 -140 42 -149 69 -8 27 16 65 54 85 49 25 71
65 71 132 0 64 -31 144 -68 177 -24 21 -88 19 -194 -5 -57 -13 -60 -12 -119
19 -4 1 -12 -11 -19 -28z m290 -15 c92 -48 107 -215 22 -259 -41 -21 -161 -56
-192 -56 -47 0 -56 19 -63 128 -10 146 -1 162 103 191 53 14 98 13 130 -4z"/>
<path d="M3065 1635 l-40 -12 0 -107 0 -107 25 6 c86 19 164 52 178 74 24 36
20 84 -12 125 -24 32 -32 36 -69 35 -23 -1 -60 -7 -82 -14z"/>
<path d="M4540 1440 l0 -450 1105 0 1105 0 0 450 0 450 -1105 0 -1105 0 0
-450z m1030 380 c101 -12 208 -60 272 -120 34 -33 39 -43 34 -67 -8 -32 -31
-53 -58 -53 -11 0 -54 20 -97 45 -97 56 -151 75 -212 75 -121 0 -189 -74 -124
-134 26 -25 59 -38 195 -81 92 -28 142 -60 165 -105 39 -75 -3 -203 -78 -239
-69 -34 -200 -55 -342 -55 -148 -1 -160 3 -242 81 -43 40 -52 55 -58 96 -9 61
11 97 55 97 36 0 74 -34 67 -60 -9 -36 73 -89 147 -97 69 -7 252 14 291 34 37
19 45 30 45 64 0 38 -25 55 -116 78 -100 26 -138 41 -190 79 -59 43 -86 91
-86 153 1 93 59 164 164 200 63 22 61 22 168 9z m-862 -65 c3 -16 1 -18 -9 -7
-14 13 -39 16 -39 4 0 -4 10 -12 23 -17 31 -14 31 -59 -2 -63 -30 -5 -50 13
-33 30 9 9 12 9 12 0 0 -7 7 -12 15 -12 24 0 17 20 -10 30 -27 10 -32 29 -13
48 18 18 52 10 56 -13z"/>
<path d="M5430 1771 c-46 -14 -87 -40 -114 -71 -37 -45 -37 -125 0 -169 39
-46 98 -77 200 -104 50 -14 101 -30 113 -37 31 -16 53 -73 45 -115 -13 -70
-77 -99 -253 -117 -101 -10 -123 -9 -172 5 -79 23 -136 68 -145 112 -4 22 -12
35 -21 35 -12 0 -14 -8 -10 -36 7 -42 32 -72 97 -116 l45 -30 130 5 c137 6
264 28 303 53 63 41 82 139 37 192 -25 30 -53 43 -198 88 -116 36 -169 80
-171 141 -2 78 63 130 172 140 69 6 154 -20 253 -78 37 -21 70 -39 73 -39 18
0 2 32 -26 53 -66 50 -137 78 -221 87 -93 11 -103 11 -137 1z"/>
<path d="M6800 1440 l0 -450 1105 0 1105 0 0 450 0 450 -1105 0 -1105 0 0
-450z m1491 341 c24 -29 24 -43 0 -72 l-19 -24 -230 3 -229 3 -6 -48 c-4 -26
-12 -142 -18 -258 -13 -228 -22 -270 -63 -281 -42 -10 -73 17 -82 73 -7 47 10
351 25 446 4 26 5 47 2 47 -3 0 -67 -9 -143 -20 -146 -22 -177 -18 -198 20 -6
11 -8 29 -5 39 14 44 34 50 256 71 251 23 298 26 523 25 164 0 169 -1 187 -24z
m-1316 -11 c3 -5 -3 -10 -14 -10 -17 0 -19 -6 -18 -37 3 -53 -17 -58 -21 -5
-2 29 -8 42 -18 42 -8 0 -12 5 -9 10 3 6 21 10 40 10 19 0 37 -4 40 -10z"/>
<path d="M7800 1749 c-173 -10 -409 -34 -417 -43 -4 -3 -2 -11 3 -16 6 -6 52
-4 124 6 63 8 122 15 130 16 33 4 70 -13 76 -36 3 -13 1 -66 -5 -118 -16 -140
-25 -351 -17 -383 6 -24 9 -26 21 -14 9 10 16 75 25 224 14 257 22 314 52 339
21 17 37 18 240 11 182 -6 218 -5 218 6 0 12 -31 14 -157 15 -87 0 -219 -3
-293 -7z"/>
<path d="M9050 1440 l0 -450 1110 0 1110 0 0 450 0 450 -1110 0 -1110 0 0
-450z m1189 411 c31 -31 34 -77 29 -351 -3 -140 -3 -275 1 -299 5 -39 8 -42
20 -28 37 46 115 -4 95 -61 -14 -39 -84 -84 -132 -86 -66 -1 -92 34 -107 148
l-7 48 -26 -25 c-59 -55 -109 -72 -212 -72 -186 1 -226 38 -241 220 -12 145
-11 387 2 424 18 52 64 66 99 31 19 -19 20 -33 20 -274 0 -213 2 -256 15 -266
23 -19 97 -24 153 -10 58 14 92 45 122 114 29 63 60 240 60 335 0 42 5 93 10
113 16 57 63 75 99 39z m-1059 -122 c0 -56 23 -46 31 12 3 31 7 39 13 27 12
-25 3 -80 -15 -91 -32 -20 -49 -1 -49 53 0 32 4 49 10 45 6 -3 10 -24 10 -46z"/>
<path d="M10186 1804 c-3 -9 -6 -51 -6 -94 0 -88 -21 -224 -50 -321 -40 -135
-113 -192 -245 -193 -85 -1 -128 19 -144 65 -7 20 -11 121 -11 266 0 183 -3
234 -12 230 -10 -3 -13 -58 -12 -236 2 -324 7 -336 165 -348 90 -7 142 8 205
58 66 52 108 29 119 -66 12 -92 48 -111 118 -63 39 28 33 39 -17 32 -40 -6
-46 -4 -62 21 -16 24 -17 55 -15 329 1 166 -1 310 -5 319 -8 21 -20 22 -28 1z"/>
<path d="M11310 1440 l0 -450 1105 0 1105 0 0 450 0 450 -1105 0 -1105 0 0
-450z m725 244 c101 -189 229 -413 236 -414 3 0 26 44 52 98 34 73 51 129 70
225 14 70 32 139 41 152 38 57 116 35 116 -33 0 -47 -63 -285 -96 -364 -44
-106 -136 -267 -162 -284 -63 -41 -106 16 -284 371 -138 276 -155 329 -122
366 12 13 28 19 48 17 29 -3 37 -13 101 -134z m-605 77 c0 -11 3 -27 7 -37 5
-15 9 -12 17 14 10 29 25 43 27 25 1 -25 -23 -93 -34 -93 -13 0 -49 95 -39
104 11 12 22 5 22 -13z"/>
<path d="M11923 1736 c6 -40 230 -492 283 -571 54 -82 63 -77 148 90 96 187
176 465 133 465 -15 0 -30 -48 -62 -202 -21 -100 -104 -273 -135 -281 -47 -12
-63 8 -187 224 -67 118 -132 235 -144 262 -27 55 -44 61 -36 13z"/>
<path d="M9040 485 l0 -475 -4522 -3 c-3623 -2 -3173 -3 2260 -5 l6782 -2 0
480 0 480 -2260 0 -2260 0 0 -475z"/>
<path d="M30 490 l0 -450 1105 0 1105 0 0 450 0 450 -1105 0 -1105 0 0 -450z
m1186 313 c4 -13 1 -36 -5 -49 -6 -14 -15 -65 -21 -114 -11 -95 -62 -360 -81
-420 -17 -51 -27 -60 -69 -60 -51 0 -90 34 -137 120 l-37 68 -49 -44 c-27 -24
-53 -44 -57 -44 -5 0 -10 -14 -12 -32 -4 -43 -44 -68 -82 -50 -21 9 -31 31
-65 135 -21 68 -50 171 -62 228 -17 75 -30 110 -46 126 -26 25 -27 31 -14 66
11 29 57 50 102 45 45 -4 58 -32 107 -225 l39 -152 47 50 c50 53 79 69 127 69
27 0 33 -6 59 -62 17 -35 30 -69 30 -75 0 -7 3 -13 8 -13 10 0 61 221 71 311
10 86 35 147 65 159 31 11 75 -8 82 -37z m-1065 -9 l6 -29 8 33 c8 36 28 38
33 4 5 -31 22 -27 22 4 0 16 5 24 13 22 6 -3 12 -7 11 -9 0 -2 -7 -25 -14 -51
-15 -50 -27 -60 -36 -30 -15 44 -17 46 -23 18 -10 -48 -28 -42 -40 14 -14 63
-14 63 2 58 6 -3 15 -18 18 -34z"/>
<path d="M1140 775 c-6 -8 -16 -49 -21 -92 -5 -43 -23 -135 -40 -206 -33 -136
-46 -155 -95 -143 -18 5 -32 24 -53 71 -17 36 -35 65 -41 65 -21 0 -55 -23
-91 -61 -39 -42 -85 -52 -108 -25 -7 8 -25 67 -42 133 -48 191 -57 213 -85
213 -31 0 -41 -25 -21 -48 9 -10 23 -51 32 -92 28 -136 101 -370 115 -370 5 0
11 13 15 30 4 20 26 45 70 80 53 42 70 51 97 48 28 -3 37 -11 66 -63 56 -101
98 -130 121 -86 14 25 67 293 81 401 5 47 14 101 20 120 12 42 12 40 1 40 -5
0 -14 -7 -21 -15z"/>
<path d="M2280 490 l0 -450 1110 0 1110 0 0 450 0 450 -1110 0 -1110 0 0 -450z
m1260 400 c36 -36 26 -62 -80 -190 -55 -67 -100 -123 -100 -125 0 -6 140 -143
185 -179 60 -50 73 -77 52 -110 -39 -60 -85 -40 -215 90 -50 52 -96 94 -100
94 -4 0 -62 -71 -128 -157 -146 -193 -183 -233 -216 -233 -32 0 -55 19 -63 51
-8 31 46 115 188 294 53 66 94 122 91 126 -2 4 -50 32 -106 63 -149 82 -175
108 -156 155 23 61 51 55 211 -43 l136 -84 81 98 c136 166 177 193 220 150z
m-1133 -75 c5 -14 7 -14 23 0 22 20 33 8 15 -18 -13 -18 -13 -24 1 -45 19 -29
10 -42 -13 -19 -15 15 -17 15 -29 -1 -17 -23 -28 -9 -14 18 9 17 9 29 1 47
-14 30 -14 33 -1 33 6 0 13 -7 17 -15z"/>
<path d="M3431 794 c-34 -38 -81 -92 -104 -121 -41 -51 -73 -70 -110 -64 -10
1 -73 36 -139 77 -126 76 -138 82 -138 63 0 -17 22 -32 139 -97 106 -58 128
-82 118 -124 -4 -13 -46 -72 -95 -133 -48 -60 -107 -137 -130 -169 -40 -57
-53 -96 -32 -96 11 0 124 139 230 283 96 130 115 130 253 -8 52 -52 102 -95
111 -95 9 0 16 3 16 6 0 3 -52 55 -115 116 -147 141 -146 137 -34 274 45 54
89 107 97 117 11 12 12 21 5 28 -7 7 -29 -11 -72 -57z"/>
<path d="M4540 490 l0 -450 1105 0 1105 0 0 450 0 450 -1105 0 -1105 0 0 -450z
m823 388 c12 -13 76 -101 141 -197 l119 -173 24 63 c14 35 38 116 53 179 29
117 49 150 89 150 24 0 61 -37 61 -59 0 -35 -82 -305 -127 -421 -65 -163 -133
-263 -227 -332 -32 -23 -49 -28 -96 -28 -67 0 -130 20 -177 56 -41 31 -51 66
-29 99 19 28 65 34 88 11 24 -24 76 -46 108 -46 39 0 114 75 156 155 l28 53
-35 39 c-47 52 -152 190 -221 292 -62 90 -72 129 -41 163 22 25 59 23 86 -4z
m-697 -70 l6 -21 17 22 c23 30 34 15 16 -20 -8 -15 -15 -37 -15 -49 0 -11 -4
-20 -10 -20 -5 0 -10 10 -10 23 0 13 -7 32 -15 43 -8 10 -15 25 -15 32 0 20
18 14 26 -10z"/>
<path d="M5310 831 c0 -22 139 -220 235 -336 81 -97 84 -123 26 -211 -98 -150
-186 -186 -286 -118 -20 13 -40 24 -45 24 -22 0 -8 -21 31 -47 33 -22 56 -28
111 -31 l69 -4 74 75 c56 58 83 94 113 159 64 136 169 466 157 496 -10 27 -24
0 -45 -88 -26 -108 -69 -230 -88 -252 -21 -25 -65 -22 -89 5 -11 12 -70 95
-132 185 -62 89 -117 162 -122 162 -5 0 -9 -9 -9 -19z"/>
<path d="M6800 490 l0 -450 1105 0 1105 0 0 450 0 450 -1105 0 -1105 0 0 -450z
m766 376 c60 -13 157 -32 216 -41 98 -16 112 -16 167 -2 58 14 62 14 86 -5 27
-21 32 -47 15 -78 -6 -11 -55 -51 -110 -91 -55 -39 -102 -74 -105 -78 -2 -4
19 -13 47 -20 65 -15 78 -26 78 -66 0 -56 -26 -69 -122 -62 -46 3 -97 9 -114
13 -30 6 -36 1 -125 -100 -52 -58 -92 -109 -89 -114 7 -9 128 -41 162 -41 18
-1 31 6 38 20 16 30 50 39 82 23 38 -20 44 -48 17 -90 -44 -72 -104 -88 -224
-59 -67 16 -148 18 -215 5 -95 -18 -129 41 -70 123 16 23 77 91 134 152 58 60
103 111 101 113 -2 2 -34 10 -72 17 -94 18 -122 31 -133 60 -13 34 3 73 33 80
12 4 77 -3 144 -14 66 -12 131 -21 143 -21 27 0 137 98 117 105 -6 2 -52 11
-102 20 -143 24 -244 51 -265 70 -27 25 -26 70 2 89 29 21 35 20 164 -8z
m-596 -50 c0 -7 -9 -25 -20 -39 -11 -14 -20 -28 -20 -31 0 -3 9 -6 20 -6 11 0
20 -4 20 -10 0 -5 -16 -10 -35 -10 -40 0 -44 13 -15 50 25 32 25 40 0 40 -11
0 -20 5 -20 10 0 6 16 10 35 10 23 0 35 -5 35 -14z"/>
<path d="M7430 830 c0 -17 45 -30 204 -61 81 -15 154 -34 162 -40 8 -6 14 -26
14 -44 0 -26 -10 -42 -54 -83 -30 -28 -65 -54 -80 -58 -14 -3 -81 3 -150 15
-147 25 -146 25 -146 7 0 -10 20 -19 58 -26 31 -7 72 -17 90 -22 38 -12 60
-48 46 -77 -5 -11 -64 -79 -131 -151 -68 -72 -123 -138 -123 -147 0 -13 13
-14 93 -8 69 5 109 3 160 -9 93 -22 139 -20 171 5 25 19 35 49 18 49 -5 0 -17
-9 -26 -19 -10 -11 -30 -23 -46 -26 -33 -7 -196 32 -216 52 -35 35 -8 81 139
237 l55 58 122 -7 c101 -6 122 -5 118 6 -3 8 -26 20 -52 27 -53 15 -76 47 -60
83 6 12 54 54 109 93 118 85 129 103 59 90 -77 -14 -147 -8 -334 30 -193 40
-200 41 -200 26z"/>
</g>
</svg>
