<?xml version="1.0" standalone="no"?>
<!DOCTYPE svg PUBLIC "-//W3C//DTD SVG 20010904//EN"
 "http://www.w3.org/TR/2001/REC-SVG-20010904/DTD/svg10.dtd">
<svg version="1.0" xmlns="http://www.w3.org/2000/svg"
 width="34.000000pt" height="75.000000pt" viewBox="0 0 34.000000 75.000000"
 preserveAspectRatio="xMidYMid meet">
<metadata>
Created by potrace 1.16, written by Peter Selinger 2001-2019
</metadata>
<g transform="translate(0.000000,75.000000) scale(0.100000,-0.100000)"
fill="#000000" stroke="none">
<path d="M50 707 c-19 -9 -26 -22 -28 -50 -4 -49 11 -67 58 -67 41 0 54 10 64
54 5 22 2 34 -15 52 -25 27 -43 29 -79 11z"/>
<path d="M36 408 c-20 -28 -20 -112 -2 -258 17 -140 23 -150 86 -150 27 0 51
4 54 9 10 15 -15 364 -27 391 -10 20 -21 26 -54 28 -33 2 -44 -1 -57 -20z m68
-135 c3 -49 8 -117 11 -152 3 -38 1 -61 -4 -55 -11 11 -31 168 -31 242 0 85
18 59 24 -35z"/>
</g>
</svg>
