<?xml version="1.0" standalone="no"?>
<!DOCTYPE svg PUBLIC "-//W3C//DTD SVG 20010904//EN"
 "http://www.w3.org/TR/2001/REC-SVG-20010904/DTD/svg10.dtd">
<svg version="1.0" xmlns="http://www.w3.org/2000/svg"
 width="89.000000pt" height="143.000000pt" viewBox="0 0 89.000000 143.000000"
 preserveAspectRatio="xMidYMid meet">
<metadata>
Created by potrace 1.16, written by Peter Selinger 2001-2019
</metadata>
<g transform="translate(0.000000,143.000000) scale(0.100000,-0.100000)"
fill="#000000" stroke="none">
<path d="M220 1418 c-43 -16 -138 -128 -180 -211 -25 -51 -30 -72 -30 -134 0
-91 24 -201 53 -245 52 -78 220 -110 391 -74 44 9 81 14 83 12 2 -2 -1 -73 -8
-157 -6 -85 -12 -247 -13 -360 -1 -190 1 -208 18 -228 37 -41 105 -22 126 35
6 16 24 27 58 38 71 21 105 40 141 82 26 29 31 42 26 63 -17 68 -69 78 -154
31 -30 -17 -56 -30 -59 -30 -3 0 -2 73 1 163 4 119 15 219 41 374 49 286 47
326 -13 361 -17 9 -38 35 -48 57 -24 53 -149 176 -208 205 -57 28 -172 37
-225 18z m120 -138 c25 -7 65 -41 140 -119 l105 -109 -14 -65 c-17 -80 -21
-82 -192 -98 -102 -9 -122 -9 -151 5 -50 24 -69 63 -71 149 -2 64 2 80 31 139
33 68 71 108 101 108 9 0 32 -4 51 -10z"/>
</g>
</svg>
