<?xml version="1.0" standalone="no"?>
<!DOCTYPE svg PUBLIC "-//W3C//DTD SVG 20010904//EN"
 "http://www.w3.org/TR/2001/REC-SVG-20010904/DTD/svg10.dtd">
<svg version="1.0" xmlns="http://www.w3.org/2000/svg"
 width="113.000000pt" height="144.000000pt" viewBox="0 0 113.000000 144.000000"
 preserveAspectRatio="xMidYMid meet">
<metadata>
Created by potrace 1.16, written by Peter Selinger 2001-2019
</metadata>
<g transform="translate(0.000000,144.000000) scale(0.100000,-0.100000)"
fill="#000000" stroke="none">
<path d="M274 1430 c-54 -8 -118 -47 -182 -111 -66 -67 -82 -117 -82 -249 0
-79 4 -103 22 -140 45 -89 213 -140 408 -125 95 8 130 19 178 60 l33 27 -3
-102 -3 -102 -105 -55 c-192 -100 -264 -163 -317 -280 -53 -114 -29 -276 48
-322 134 -82 430 23 468 166 13 48 38 225 47 325 l7 77 102 50 c112 55 174
112 214 196 27 58 27 80 -4 110 -41 42 -91 26 -126 -40 -12 -22 -29 -49 -38
-59 -15 -18 -114 -86 -125 -86 -2 0 -2 98 1 218 8 310 -2 354 -83 357 -21 1
-64 13 -95 28 -118 54 -246 74 -365 57z m248 -181 l116 -32 -20 -70 c-21 -77
-57 -139 -101 -171 -63 -46 -314 -27 -352 27 -17 25 -20 105 -5 157 12 44 65
97 116 116 49 18 98 13 246 -27z m114 -810 c-8 -98 -23 -174 -43 -212 -18 -36
-87 -67 -163 -74 -54 -5 -59 -4 -75 21 -34 52 4 160 75 218 45 36 190 126 204
127 5 1 6 -34 2 -80z"/>
</g>
</svg>
