<?xml version="1.0" standalone="no"?>
<!DOCTYPE svg PUBLIC "-//W3C//DTD SVG 20010904//EN"
 "http://www.w3.org/TR/2001/REC-SVG-20010904/DTD/svg10.dtd">
<svg version="1.0" xmlns="http://www.w3.org/2000/svg"
 width="103.000000pt" height="108.000000pt" viewBox="0 0 103.000000 108.000000"
 preserveAspectRatio="xMidYMid meet">
<metadata>
Created by potrace 1.16, written by Peter Selinger 2001-2019
</metadata>
<g transform="translate(0.000000,108.000000) scale(0.100000,-0.100000)"
fill="#000000" stroke="none">
<path d="M889 1049 c-24 -17 -123 -110 -219 -206 -96 -96 -176 -170 -178 -165
-9 27 -148 262 -179 304 -49 64 -103 88 -148 65 -25 -13 -31 -20 -106 -131
-55 -79 -61 -92 -55 -125 11 -69 76 -83 130 -28 18 17 40 43 49 56 9 14 18 23
20 20 10 -10 177 -308 177 -314 0 -4 -36 -55 -79 -114 -101 -136 -185 -267
-199 -307 -19 -59 39 -121 91 -97 14 7 79 83 146 171 66 87 127 164 135 171
12 10 21 2 57 -51 61 -91 116 -155 138 -161 21 -5 71 16 83 36 19 29 6 66 -45
133 -30 38 -68 95 -86 127 -33 58 -33 59 -14 80 68 78 195 220 301 334 131
144 144 171 102 213 -29 29 -70 25 -121 -11z"/>
</g>
</svg>
