<?xml version="1.0" standalone="no"?>
<!DOCTYPE svg PUBLIC "-//W3C//DTD SVG 20010904//EN"
 "http://www.w3.org/TR/2001/REC-SVG-20010904/DTD/svg10.dtd">
<svg version="1.0" xmlns="http://www.w3.org/2000/svg"
 width="133.000000pt" height="131.000000pt" viewBox="0 0 133.000000 131.000000"
 preserveAspectRatio="xMidYMid meet">
<metadata>
Created by potrace 1.16, written by Peter Selinger 2001-2019
</metadata>
<g transform="translate(0.000000,131.000000) scale(0.100000,-0.100000)"
fill="#000000" stroke="none">
<path d="M50 1303 c-52 -20 -65 -71 -30 -116 25 -32 40 -35 255 -42 94 -3 184
-8 201 -11 l32 -6 1 -251 c0 -139 3 -286 6 -327 2 -41 7 -120 10 -175 13 -240
29 -329 63 -356 29 -23 65 -19 95 10 20 19 21 30 13 111 -2 30 -7 159 -11 285
-5 234 -11 396 -21 587 l-5 108 218 -1 c293 -2 414 17 443 70 14 27 13 64 -3
86 -13 17 -43 18 -563 20 -302 1 -580 5 -619 8 -38 4 -77 4 -85 0z"/>
</g>
</svg>
