<?xml version="1.0" standalone="no"?>
<!DOCTYPE svg PUBLIC "-//W3C//DTD SVG 20010904//EN"
 "http://www.w3.org/TR/2001/REC-SVG-20010904/DTD/svg10.dtd">
<svg version="1.0" xmlns="http://www.w3.org/2000/svg"
 width="42.000000pt" height="75.000000pt" viewBox="0 0 42.000000 75.000000"
 preserveAspectRatio="xMidYMid meet">
<metadata>
Created by potrace 1.16, written by Peter Selinger 2001-2019
</metadata>
<g transform="translate(0.000000,75.000000) scale(0.100000,-0.100000)"
fill="#000000" stroke="none">
<path d="M60 615 c0 -42 3 -55 15 -55 10 0 15 10 15 31 0 17 4 28 10 24 6 -3
10 -17 10 -31 0 -15 6 -24 15 -24 10 0 15 10 15 29 0 42 -10 61 -31 61 -10 0
-19 5 -19 10 0 6 -7 10 -15 10 -12 0 -15 -13 -15 -55z"/>
</g>
</svg>
