<?xml version="1.0" standalone="no"?>
<!DOCTYPE svg PUBLIC "-//W3C//DTD SVG 20010904//EN"
 "http://www.w3.org/TR/2001/REC-SVG-20010904/DTD/svg10.dtd">
<svg version="1.0" xmlns="http://www.w3.org/2000/svg"
 width="46.000000pt" height="31.000000pt" viewBox="0 0 46.000000 31.000000"
 preserveAspectRatio="xMidYMid meet">
<metadata>
Created by potrace 1.16, written by Peter Selinger 2001-2019
</metadata>
<g transform="translate(0.000000,31.000000) scale(0.100000,-0.100000)"
fill="#000000" stroke="none">
<path d="M60 297 c0 -22 100 -177 144 -223 38 -39 47 -44 88 -44 57 0 85 21
132 99 42 68 51 140 17 122 -11 -6 -34 -34 -51 -63 -75 -123 -103 -127 -180
-25 -12 16 -9 16 23 -3 46 -27 83 -21 124 23 67 71 85 127 41 127 -16 -1 -34
-16 -58 -53 -49 -72 -69 -73 -112 -3 -25 42 -39 56 -57 56 -21 0 -23 -4 -19
-32 5 -28 4 -29 -9 -13 -7 11 -13 25 -13 32 0 8 -13 13 -35 13 -22 0 -35 -5
-35 -13z"/>
</g>
</svg>
