<?xml version="1.0" standalone="no"?>
<!DOCTYPE svg PUBLIC "-//W3C//DTD SVG 20010904//EN"
 "http://www.w3.org/TR/2001/REC-SVG-20010904/DTD/svg10.dtd">
<svg version="1.0" xmlns="http://www.w3.org/2000/svg"
 width="46.000000pt" height="10.000000pt" viewBox="0 0 46.000000 10.000000"
 preserveAspectRatio="xMidYMid meet">
<metadata>
Created by potrace 1.16, written by Peter Selinger 2001-2019
</metadata>
<g transform="translate(0.000000,10.000000) scale(0.100000,-0.100000)"
fill="#000000" stroke="none">
<path d="M0 80 c0 -21 30 -27 64 -14 33 13 17 34 -24 34 -33 0 -40 -3 -40 -20z"/>
<path d="M190 72 c0 -46 25 -72 71 -72 21 0 39 3 39 6 0 3 -11 19 -25 36 -14
16 -25 36 -25 44 0 9 -11 14 -30 14 -26 0 -30 -4 -30 -28z"/>
<path d="M402 35 l-37 -34 48 -1 47 0 0 35 c0 19 -5 35 -10 35 -6 0 -27 -16
-48 -35z"/>
</g>
</svg>
