<?xml version="1.0" standalone="no"?>
<!DOCTYPE svg PUBLIC "-//W3C//DTD SVG 20010904//EN"
 "http://www.w3.org/TR/2001/REC-SVG-20010904/DTD/svg10.dtd">
<svg version="1.0" xmlns="http://www.w3.org/2000/svg"
 width="18.000000pt" height="31.000000pt" viewBox="0 0 18.000000 31.000000"
 preserveAspectRatio="xMidYMid meet">
<metadata>
Created by potrace 1.16, written by Peter Selinger 2001-2019
</metadata>
<g transform="translate(0.000000,31.000000) scale(0.100000,-0.100000)"
fill="#000000" stroke="none">
<path d="M20 296 c0 -9 18 -15 53 -20 90 -10 107 -8 107 14 0 18 -7 20 -80 20
-61 0 -80 -3 -80 -14z"/>
<path d="M87 151 c-85 -15 -87 -15 -87 -43 0 -32 -4 -31 95 -17 77 12 90 20
83 56 -3 17 -7 17 -91 4z"/>
<path d="M72 73 l-72 -4 0 -29 c0 -29 1 -30 53 -30 28 0 69 3 90 6 33 6 37 10
37 35 0 22 -4 28 -17 27 -10 -1 -51 -4 -91 -5z"/>
</g>
</svg>
