<?xml version="1.0" standalone="no"?>
<!DOCTYPE svg PUBLIC "-//W3C//DTD SVG 20010904//EN"
 "http://www.w3.org/TR/2001/REC-SVG-20010904/DTD/svg10.dtd">
<svg version="1.0" xmlns="http://www.w3.org/2000/svg"
 width="118.000000pt" height="154.000000pt" viewBox="0 0 118.000000 154.000000"
 preserveAspectRatio="xMidYMid meet">
<metadata>
Created by potrace 1.16, written by Peter Selinger 2001-2019
</metadata>
<g transform="translate(0.000000,154.000000) scale(0.100000,-0.100000)"
fill="#000000" stroke="none">
<path d="M76 1519 l-27 -21 2 -147 c1 -80 8 -220 15 -311 16 -208 16 -200 3
-200 -6 0 -24 -9 -40 -21 -53 -37 -34 -107 34 -124 32 -8 32 -8 47 -170 17
-187 36 -277 63 -297 30 -24 80 -23 102 2 22 25 22 75 0 288 -9 90 -14 170
-11 178 3 8 19 14 38 14 18 0 130 14 248 30 118 16 220 30 226 30 8 0 14 -34
19 -92 41 -572 56 -658 119 -674 36 -9 64 4 82 37 17 34 17 39 -22 454 -13
143 -24 272 -24 286 0 25 5 27 96 49 121 29 153 60 128 125 -8 20 -53 43 -77
39 -10 -1 -50 -8 -89 -14 -38 -7 -71 -10 -72 -9 -2 2 -9 78 -15 169 -19 274
-22 304 -27 337 -9 63 -85 85 -123 37 -19 -24 -21 -40 -20 -148 0 -66 6 -190
12 -273 l12 -152 -25 -6 c-70 -14 -503 -76 -506 -72 -1 2 -11 126 -40 522 -3
39 -7 81 -10 95 -13 60 -68 78 -118 39z"/>
</g>
</svg>
