<?xml version="1.0" standalone="no"?>
<!DOCTYPE svg PUBLIC "-//W3C//DTD SVG 20010904//EN"
 "http://www.w3.org/TR/2001/REC-SVG-20010904/DTD/svg10.dtd">
<svg version="1.0" xmlns="http://www.w3.org/2000/svg"
 width="107.000000pt" height="156.000000pt" viewBox="0 0 107.000000 156.000000"
 preserveAspectRatio="xMidYMid meet">
<metadata>
Created by potrace 1.16, written by Peter Selinger 2001-2019
</metadata>
<g transform="translate(0.000000,156.000000) scale(0.100000,-0.100000)"
fill="#000000" stroke="none">
<path d="M400 1533 c-118 -12 -227 -27 -242 -34 -56 -23 -51 -120 8 -135 31
-8 139 0 242 18 39 6 73 10 76 7 2 -2 14 -60 25 -129 12 -69 36 -208 55 -310
75 -406 104 -710 71 -757 -21 -30 -74 -43 -174 -43 -150 0 -237 36 -278 115
-32 60 -33 95 -11 256 25 177 20 207 -33 230 -40 16 -76 -1 -94 -45 -35 -82
-48 -406 -20 -474 20 -46 139 -169 183 -187 18 -8 69 -21 114 -30 208 -39 400
5 450 105 33 66 20 229 -72 873 -32 226 -56 415 -53 420 8 13 145 3 267 -19
95 -17 97 -17 124 3 51 38 35 111 -30 132 -117 37 -288 38 -608 4z"/>
</g>
</svg>
