<?xml version="1.0" standalone="no"?>
<!DOCTYPE svg PUBLIC "-//W3C//DTD SVG 20010904//EN"
 "http://www.w3.org/TR/2001/REC-SVG-20010904/DTD/svg10.dtd">
<svg version="1.0" xmlns="http://www.w3.org/2000/svg"
 width="88.000000pt" height="130.000000pt" viewBox="0 0 88.000000 130.000000"
 preserveAspectRatio="xMidYMid meet">
<metadata>
Created by potrace 1.16, written by Peter Selinger 2001-2019
</metadata>
<g transform="translate(0.000000,130.000000) scale(0.100000,-0.100000)"
fill="#000000" stroke="none">
<path d="M453 1288 c-49 -13 -83 -91 -127 -290 -5 -21 -12 -28 -30 -28 -36 0
-91 -42 -94 -73 -4 -32 36 -77 69 -77 21 0 22 -3 15 -61 -3 -34 -6 -75 -6 -90
l0 -29 -69 0 c-88 0 -126 -14 -141 -50 -28 -69 17 -104 135 -104 l84 0 6 -83
c14 -169 -1 -220 -72 -244 -46 -15 -62 0 -70 71 -11 92 -75 129 -128 75 -30
-29 -31 -53 -5 -137 24 -78 67 -140 109 -158 28 -11 40 -9 123 21 167 60 193
104 193 325 l0 142 77 6 c104 9 150 25 165 58 26 54 -32 123 -83 99 -14 -6
-58 -11 -99 -11 l-75 0 0 45 c0 24 5 66 10 93 l11 49 79 12 c88 13 221 50 268
75 46 24 82 72 82 112 0 43 -55 106 -153 175 -97 68 -199 97 -274 77z m126
-158 c78 -37 121 -67 121 -85 0 -14 -53 -28 -150 -40 -53 -6 -55 -6 -56 17 0
12 -4 49 -8 81 -8 52 -7 57 10 57 11 0 48 -14 83 -30z"/>
</g>
</svg>
