<?xml version="1.0" standalone="no"?>
<!DOCTYPE svg PUBLIC "-//W3C//DTD SVG 20010904//EN"
 "http://www.w3.org/TR/2001/REC-SVG-20010904/DTD/svg10.dtd">
<svg version="1.0" xmlns="http://www.w3.org/2000/svg"
 width="125.000000pt" height="135.000000pt" viewBox="0 0 125.000000 135.000000"
 preserveAspectRatio="xMidYMid meet">
<metadata>
Created by potrace 1.16, written by Peter Selinger 2001-2019
</metadata>
<g transform="translate(0.000000,135.000000) scale(0.100000,-0.100000)"
fill="#000000" stroke="none">
<path d="M160 1335 c-6 -7 -33 -17 -58 -21 -54 -8 -102 -49 -102 -86 0 -38 42
-71 83 -66 l35 4 1 -146 c2 -214 41 -608 72 -724 15 -56 75 -170 107 -201 34
-35 79 -53 177 -72 126 -24 229 -20 311 13 106 42 127 63 158 154 3 11 6 10
11 -6 4 -11 21 -54 38 -94 28 -65 36 -76 65 -84 45 -13 106 9 154 55 43 41 47
65 17 103 -22 28 -75 36 -97 14 -6 -6 -14 -9 -17 -7 -7 8 -71 245 -99 371 -15
65 -32 193 -41 303 -22 264 -31 309 -73 358 -21 24 -74 22 -98 -4 -27 -30 -26
-161 6 -589 9 -131 5 -303 -10 -352 -15 -51 -68 -95 -125 -103 -54 -9 -206 15
-257 39 -27 13 -41 30 -56 64 -34 78 -51 152 -57 247 -3 50 -8 117 -10 150 -4
52 -12 284 -19 567 -2 69 -6 92 -21 108 -21 24 -77 27 -95 5z"/>
</g>
</svg>
